<svg width="299" height="150" viewBox="0 0 299 150" fill="none" xmlns="http://www.w3.org/2000/svg">
<rect x="11.8856" y="69.4911" width="280.525" height="26.5873" rx="13.2937" stroke="#D2D2D2" stroke-width="0.786885"/>
<path d="M17.0199 108.791C17.0199 109.3 16.831 109.703 16.4533 109.999C16.0819 110.289 15.5909 110.434 14.9803 110.434C14.3004 110.434 13.7527 110.279 13.3373 109.971C12.9281 109.656 12.6511 109.203 12.5063 108.611L13.2523 108.394C13.3656 108.847 13.5639 109.184 13.8472 109.404C14.1304 109.618 14.5081 109.725 14.9803 109.725C15.3391 109.725 15.6287 109.647 15.849 109.489C16.0756 109.332 16.1889 109.105 16.1889 108.809C16.1889 108.576 16.1228 108.397 15.9906 108.271C15.8647 108.139 15.7011 108.041 15.4996 107.978C15.3045 107.909 15.0369 107.843 14.697 107.78C14.2878 107.698 13.9542 107.613 13.6961 107.525C13.438 107.437 13.2176 107.289 13.0351 107.081C12.8588 106.867 12.7707 106.575 12.7707 106.203C12.7707 105.882 12.8525 105.602 13.0162 105.363C13.1862 105.124 13.4191 104.941 13.715 104.815C14.0108 104.683 14.3476 104.617 14.7253 104.617C15.3171 104.617 15.8018 104.755 16.1795 105.032C16.5635 105.309 16.8153 105.731 16.9349 106.298L16.1889 106.468C16.0756 106.065 15.9025 105.772 15.6696 105.589C15.4367 105.407 15.1219 105.316 14.7253 105.316C14.3602 105.316 14.0832 105.394 13.8944 105.552C13.7055 105.703 13.6111 105.911 13.6111 106.175C13.6111 106.376 13.6709 106.534 13.7905 106.647C13.9101 106.76 14.0612 106.845 14.2437 106.902C14.4263 106.952 14.675 107.009 14.9897 107.072C15.4178 107.154 15.7672 107.245 16.0378 107.346C16.3085 107.44 16.5383 107.604 16.7272 107.837C16.9223 108.063 17.0199 108.381 17.0199 108.791ZM14.9331 103.937H15.4996L14.7253 111.236H14.1493L14.9331 103.937ZM20.0627 104.296C20.5285 104.296 20.944 104.4 21.3091 104.607C21.6742 104.815 21.9607 105.139 22.1684 105.58C22.3824 106.021 22.4894 106.587 22.4894 107.28C22.4894 108.048 22.3793 108.693 22.159 109.215C21.9449 109.738 21.6459 110.128 21.2619 110.386C20.8779 110.638 20.4372 110.764 19.9399 110.764C19.4489 110.764 19.0271 110.651 18.6746 110.424C18.3221 110.197 18.0357 109.87 17.8153 109.442L18.5141 109.083C18.6589 109.398 18.854 109.634 19.0995 109.791C19.345 109.943 19.6378 110.018 19.9777 110.018C20.5254 110.018 20.9629 109.782 21.2902 109.31C21.6239 108.838 21.7781 108.076 21.7529 107.025H21.734C21.6459 107.447 21.4413 107.78 21.1203 108.026C20.7992 108.271 20.4089 108.394 19.9494 108.394C19.5528 108.394 19.194 108.312 18.8729 108.148C18.5519 107.985 18.3001 107.752 18.1175 107.45C17.9412 107.141 17.8531 106.779 17.8531 106.364C17.8531 105.936 17.9507 105.567 18.1458 105.259C18.341 104.951 18.6054 104.714 18.939 104.551C19.279 104.381 19.6535 104.296 20.0627 104.296ZM20.0627 105.051C19.6598 105.051 19.3293 105.171 19.0712 105.41C18.8194 105.649 18.6935 105.964 18.6935 106.354C18.6935 106.751 18.8194 107.069 19.0712 107.308C19.3293 107.547 19.6598 107.667 20.0627 107.667C20.4593 107.667 20.7866 107.547 21.0447 107.308C21.3028 107.063 21.4319 106.745 21.4319 106.354C21.4319 105.964 21.3028 105.649 21.0447 105.41C20.7866 105.171 20.4593 105.051 20.0627 105.051ZM25.6076 110.764C24.8585 110.764 24.2793 110.484 23.8701 109.924C23.4672 109.357 23.2658 108.561 23.2658 107.535C23.2658 106.509 23.4672 105.712 23.8701 105.146C24.2793 104.579 24.8585 104.296 25.6076 104.296C26.3567 104.296 26.9327 104.579 27.3356 105.146C27.7448 105.712 27.9493 106.509 27.9493 107.535C27.9493 108.561 27.7448 109.357 27.3356 109.924C26.9327 110.484 26.3567 110.764 25.6076 110.764ZM25.6076 109.999C25.9349 109.999 26.2056 109.911 26.4196 109.735C26.64 109.559 26.8036 109.288 26.9107 108.923C27.024 108.558 27.0806 108.095 27.0806 107.535C27.0806 106.968 27.024 106.502 26.9107 106.137C26.8036 105.772 26.64 105.501 26.4196 105.325C26.2056 105.149 25.9349 105.061 25.6076 105.061C25.2802 105.061 25.0064 105.149 24.7861 105.325C24.572 105.501 24.4084 105.772 24.295 106.137C24.188 106.502 24.1345 106.968 24.1345 107.535C24.1345 108.095 24.188 108.558 24.295 108.923C24.4084 109.288 24.572 109.559 24.7861 109.735C25.0064 109.911 25.2802 109.999 25.6076 109.999ZM29.2828 104.4H30.1893V110.66H29.2828V104.4ZM32.8427 104.4H33.9003L31.634 107.1L31.3319 107.327L29.9532 108.97L29.8305 108.054L32.8427 104.4ZM31.6907 106.789L34.1647 110.66H33.0693L30.9164 107.204L31.6907 106.789Z" fill="#001428"/>
<path d="M269.77 108.791C269.77 109.3 269.581 109.703 269.203 109.999C268.832 110.289 268.341 110.434 267.73 110.434C267.051 110.434 266.503 110.279 266.087 109.971C265.678 109.656 265.401 109.203 265.256 108.611L266.002 108.394C266.116 108.847 266.314 109.184 266.597 109.404C266.881 109.618 267.258 109.725 267.73 109.725C268.089 109.725 268.379 109.647 268.599 109.489C268.826 109.332 268.939 109.105 268.939 108.809C268.939 108.576 268.873 108.397 268.741 108.271C268.615 108.139 268.451 108.041 268.25 107.978C268.055 107.909 267.787 107.843 267.447 107.78C267.038 107.698 266.704 107.613 266.446 107.525C266.188 107.437 265.968 107.289 265.785 107.081C265.609 106.867 265.521 106.575 265.521 106.203C265.521 105.882 265.603 105.602 265.766 105.363C265.936 105.124 266.169 104.941 266.465 104.815C266.761 104.683 267.098 104.617 267.475 104.617C268.067 104.617 268.552 104.755 268.93 105.032C269.314 105.309 269.565 105.731 269.685 106.298L268.939 106.468C268.826 106.065 268.653 105.772 268.42 105.589C268.187 105.407 267.872 105.316 267.475 105.316C267.11 105.316 266.833 105.394 266.644 105.552C266.456 105.703 266.361 105.911 266.361 106.175C266.361 106.376 266.421 106.534 266.541 106.647C266.66 106.76 266.811 106.845 266.994 106.902C267.176 106.952 267.425 107.009 267.74 107.072C268.168 107.154 268.517 107.245 268.788 107.346C269.059 107.44 269.288 107.604 269.477 107.837C269.672 108.063 269.77 108.381 269.77 108.791ZM267.683 103.937H268.25L267.475 111.236H266.899L267.683 103.937ZM270.83 110.179C271.95 109.448 272.778 108.772 273.313 108.148C273.848 107.519 274.116 106.924 274.116 106.364C274.116 105.955 274.006 105.637 273.785 105.41C273.565 105.183 273.257 105.07 272.86 105.07C272.482 105.07 272.177 105.18 271.944 105.401C271.717 105.621 271.604 105.917 271.604 106.288C271.604 106.471 271.632 106.641 271.689 106.798L270.896 106.959C270.864 106.871 270.836 106.767 270.811 106.647C270.792 106.521 270.783 106.402 270.783 106.288C270.783 105.904 270.871 105.561 271.047 105.259C271.223 104.957 271.469 104.721 271.784 104.551C272.105 104.381 272.467 104.296 272.869 104.296C273.298 104.296 273.672 104.384 273.993 104.56C274.314 104.73 274.56 104.969 274.73 105.278C274.9 105.586 274.985 105.939 274.985 106.335C274.985 107.015 274.714 107.679 274.173 108.328C273.631 108.976 272.857 109.603 271.85 110.207L270.83 110.179ZM270.83 110.179L271.784 109.943H275.164V110.66H270.83V110.179ZM278.358 110.764C277.609 110.764 277.029 110.484 276.62 109.924C276.217 109.357 276.016 108.561 276.016 107.535C276.016 106.509 276.217 105.712 276.62 105.146C277.029 104.579 277.609 104.296 278.358 104.296C279.107 104.296 279.683 104.579 280.086 105.146C280.495 105.712 280.699 106.509 280.699 107.535C280.699 108.561 280.495 109.357 280.086 109.924C279.683 110.484 279.107 110.764 278.358 110.764ZM278.358 109.999C278.685 109.999 278.956 109.911 279.17 109.735C279.39 109.559 279.554 109.288 279.661 108.923C279.774 108.558 279.831 108.095 279.831 107.535C279.831 106.968 279.774 106.502 279.661 106.137C279.554 105.772 279.39 105.501 279.17 105.325C278.956 105.149 278.685 105.061 278.358 105.061C278.03 105.061 277.757 105.149 277.536 105.325C277.322 105.501 277.158 105.772 277.045 106.137C276.938 106.502 276.885 106.968 276.885 107.535C276.885 108.095 276.938 108.558 277.045 108.923C277.158 109.288 277.322 109.559 277.536 109.735C277.757 109.911 278.03 109.999 278.358 109.999ZM283.78 110.764C283.031 110.764 282.452 110.484 282.042 109.924C281.64 109.357 281.438 108.561 281.438 107.535C281.438 106.509 281.64 105.712 282.042 105.146C282.452 104.579 283.031 104.296 283.78 104.296C284.529 104.296 285.105 104.579 285.508 105.146C285.917 105.712 286.122 106.509 286.122 107.535C286.122 108.561 285.917 109.357 285.508 109.924C285.105 110.484 284.529 110.764 283.78 110.764ZM283.78 109.999C284.107 109.999 284.378 109.911 284.592 109.735C284.812 109.559 284.976 109.288 285.083 108.923C285.196 108.558 285.253 108.095 285.253 107.535C285.253 106.968 285.196 106.502 285.083 106.137C284.976 105.772 284.812 105.501 284.592 105.325C284.378 105.149 284.107 105.061 283.78 105.061C283.452 105.061 283.179 105.149 282.958 105.325C282.744 105.501 282.581 105.772 282.467 106.137C282.36 106.502 282.307 106.968 282.307 107.535C282.307 108.095 282.36 108.558 282.467 108.923C282.581 109.288 282.744 109.559 282.958 109.735C283.179 109.911 283.452 109.999 283.78 109.999ZM287.455 104.4H288.362V110.66H287.455V104.4ZM291.015 104.4H292.073L289.806 107.1L289.504 107.327L288.126 108.97L288.003 108.054L291.015 104.4ZM289.863 106.789L292.337 110.66H291.242L289.089 107.204L289.863 106.789Z" fill="#001428"/>
<path d="M143.926 108.791C143.926 109.3 143.737 109.703 143.36 109.999C142.988 110.289 142.497 110.434 141.887 110.434C141.207 110.434 140.659 110.279 140.244 109.971C139.834 109.656 139.557 109.203 139.413 108.611L140.159 108.394C140.272 108.847 140.47 109.184 140.753 109.404C141.037 109.618 141.414 109.725 141.887 109.725C142.245 109.725 142.535 109.647 142.755 109.489C142.982 109.332 143.095 109.105 143.095 108.809C143.095 108.576 143.029 108.397 142.897 108.271C142.771 108.139 142.607 108.041 142.406 107.978C142.211 107.909 141.943 107.843 141.603 107.78C141.194 107.698 140.86 107.613 140.602 107.525C140.344 107.437 140.124 107.289 139.941 107.081C139.765 106.867 139.677 106.575 139.677 106.203C139.677 105.882 139.759 105.602 139.922 105.363C140.092 105.124 140.325 104.941 140.621 104.815C140.917 104.683 141.254 104.617 141.632 104.617C142.223 104.617 142.708 104.755 143.086 105.032C143.47 105.309 143.722 105.731 143.841 106.298L143.095 106.468C142.982 106.065 142.809 105.772 142.576 105.589C142.343 105.407 142.028 105.316 141.632 105.316C141.266 105.316 140.989 105.394 140.801 105.552C140.612 105.703 140.517 105.911 140.517 106.175C140.517 106.376 140.577 106.534 140.697 106.647C140.816 106.76 140.967 106.845 141.15 106.902C141.333 106.952 141.581 107.009 141.896 107.072C142.324 107.154 142.673 107.245 142.944 107.346C143.215 107.44 143.445 107.604 143.633 107.837C143.829 108.063 143.926 108.381 143.926 108.791ZM141.839 103.937H142.406L141.632 111.236H141.056L141.839 103.937ZM147.016 104.9L147.167 104.4H147.847V110.66H147.016V104.9ZM145.25 109.943H149.377V110.66H145.25V109.943ZM145.326 105.183C145.685 105.127 146.022 105.036 146.336 104.91C146.651 104.777 146.928 104.607 147.167 104.4V105.231C147.01 105.388 146.78 105.527 146.478 105.646C146.182 105.759 145.852 105.844 145.486 105.901L145.326 105.183ZM152.552 110.764C152.01 110.764 151.554 110.641 151.182 110.396C150.817 110.15 150.547 109.804 150.37 109.357L151.107 109.008C151.239 109.348 151.422 109.603 151.655 109.773C151.894 109.936 152.193 110.018 152.552 110.018C152.961 110.018 153.282 109.898 153.515 109.659C153.754 109.414 153.874 109.083 153.874 108.668C153.874 108.252 153.754 107.925 153.515 107.686C153.282 107.44 152.954 107.317 152.533 107.317C152.243 107.317 151.982 107.377 151.749 107.497C151.516 107.61 151.33 107.774 151.192 107.988L150.55 107.79L150.975 104.4H154.412V105.117H151.211L151.702 104.626L151.39 107.1H151.409C151.535 106.962 151.711 106.842 151.938 106.741C152.164 106.641 152.426 106.59 152.722 106.59C153.112 106.59 153.461 106.679 153.77 106.855C154.078 107.031 154.317 107.277 154.487 107.591C154.657 107.906 154.742 108.265 154.742 108.668C154.742 109.071 154.651 109.433 154.468 109.754C154.292 110.068 154.037 110.317 153.704 110.5C153.376 110.676 152.992 110.764 152.552 110.764ZM157.936 110.764C157.187 110.764 156.608 110.484 156.199 109.924C155.796 109.357 155.594 108.561 155.594 107.535C155.594 106.509 155.796 105.712 156.199 105.146C156.608 104.579 157.187 104.296 157.936 104.296C158.685 104.296 159.261 104.579 159.664 105.146C160.073 105.712 160.278 106.509 160.278 107.535C160.278 108.561 160.073 109.357 159.664 109.924C159.261 110.484 158.685 110.764 157.936 110.764ZM157.936 109.999C158.263 109.999 158.534 109.911 158.748 109.735C158.968 109.559 159.132 109.288 159.239 108.923C159.352 108.558 159.409 108.095 159.409 107.535C159.409 106.968 159.352 106.502 159.239 106.137C159.132 105.772 158.968 105.501 158.748 105.325C158.534 105.149 158.263 105.061 157.936 105.061C157.609 105.061 157.335 105.149 157.114 105.325C156.9 105.501 156.737 105.772 156.623 106.137C156.516 106.502 156.463 106.968 156.463 107.535C156.463 108.095 156.516 108.558 156.623 108.923C156.737 109.288 156.9 109.559 157.114 109.735C157.335 109.911 157.609 109.999 157.936 109.999ZM161.611 104.4H162.518V110.66H161.611V104.4ZM165.171 104.4H166.229L163.962 107.1L163.66 107.327L162.282 108.97L162.159 108.054L165.171 104.4ZM164.019 106.789L166.493 110.66H165.398L163.245 107.204L164.019 106.789Z" fill="#0043F2"/>
<rect x="220.594" y="80.6562" width="51.8937" height="4.25934" rx="0.786885" fill="#D2D2D2"/>
<circle cx="278.76" cy="82.7858" r="4.72131" fill="#D2D2D2"/>
<circle cx="20.3238" cy="82.7847" r="1.57377" fill="#0043F2"/>
<circle cx="85.9232" cy="82.7864" r="2.36066" fill="#0043F2"/>
<circle cx="150.913" cy="82.7862" r="3.14754" fill="#0043F2"/>
<circle cx="215.669" cy="82.786" r="3.93443" fill="#D2D2D2"/>
<rect x="89.3906" y="80.6562" width="57.1068" height="4.25934" rx="0.786885" fill="#0043F2"/>
<rect x="24.1562" y="80.6562" width="57.9613" height="4.25934" rx="0.786885" fill="url(#paint0_linear_24_26179)"/>
<rect x="155.344" y="80.6562" width="54.8383" height="4.25934" rx="0.786885" fill="#D2D2D2"/>
<circle cx="153.35" cy="82.7854" r="8.23771" fill="white" stroke="#0043F2" stroke-width="0.786885"/>
<g filter="url(#filter0_dd_24_26179)">
<circle cx="152.969" cy="82.7852" r="10" fill="#0043F2"/>
<circle cx="152.969" cy="82.7852" r="8" stroke="white" stroke-width="4"/>
</g>
<rect x="70.5625" y="9.35547" width="165.571" height="52" rx="7.19431" fill="white"/>
<rect x="70.5625" y="9.35547" width="165.571" height="52" rx="7.19431" stroke="#D0D5DD"/>
<rect x="153.094" y="46.5723" width="17.9858" height="17.9858" rx="3.34715" transform="rotate(45 153.094 46.5723)" fill="white" stroke="#D0D5DD"/>
<rect x="140.859" y="41.8984" width="26.1627" height="18.9463" fill="white"/>
<path d="M93.471 49.9964V47.3495C91.9117 47.2264 90.5985 46.8469 89.5315 46.2108C88.4646 45.5747 87.5413 44.795 86.7616 43.8717L89.0083 41.8404C89.6444 42.6201 90.3318 43.2459 91.0704 43.7178C91.8296 44.1898 92.7016 44.4873 93.6865 44.6104V37.7163C91.4705 37.2444 89.8701 36.5365 88.8852 35.5926C87.9004 34.6283 87.4079 33.3664 87.4079 31.807C87.4079 30.1656 87.9516 28.8627 89.0391 27.8983C90.1266 26.934 91.6039 26.3492 93.471 26.144V23.4664H96.0871V26.144C97.4003 26.2671 98.539 26.5954 99.5034 27.1289C100.488 27.6624 101.34 28.3908 102.058 29.3141L99.7804 31.1915C99.329 30.5965 98.7852 30.104 98.1492 29.7142C97.5336 29.3038 96.7847 29.0268 95.9024 28.8832V35.1925C97.113 35.4593 98.1184 35.7773 98.9186 36.1466C99.7188 36.516 100.365 36.9366 100.858 37.4085C101.371 37.8599 101.74 38.3934 101.966 39.0089C102.191 39.6039 102.304 40.3016 102.304 41.1018C102.304 42.7637 101.76 44.1487 100.673 45.2567C99.606 46.3647 98.0774 47.0418 96.0871 47.288V49.9964H93.471ZM99.0725 41.3172C99.0725 40.5375 98.8468 39.9015 98.3954 39.409C97.944 38.8961 97.113 38.4857 95.9024 38.1779V44.5796C96.9078 44.4155 97.6875 44.0461 98.2415 43.4716C98.7955 42.8971 99.0725 42.179 99.0725 41.3172ZM90.6087 31.6532C90.6087 32.5149 90.855 33.1715 91.3474 33.6229C91.8604 34.0538 92.64 34.4128 93.6865 34.7001V28.8524C92.7016 28.9961 91.9424 29.3038 91.409 29.7757C90.8755 30.2477 90.6087 30.8735 90.6087 31.6532ZM106.571 47.4727V44.5796H112.603V28.5139H112.357L107.371 33.8383L105.247 31.9302L110.726 25.9901H116.019V44.5796H121.252V47.4727H106.571ZM137.952 29.0063H128.411L127.857 36.6083H128.072C128.318 36.1774 128.575 35.7978 128.842 35.4695C129.108 35.1207 129.416 34.8232 129.765 34.577C130.114 34.3308 130.514 34.1461 130.965 34.023C131.417 33.8794 131.95 33.8076 132.566 33.8076C133.489 33.8076 134.34 33.9614 135.12 34.2692C135.92 34.577 136.608 35.0181 137.182 35.5926C137.777 36.1672 138.239 36.875 138.567 37.7163C138.895 38.537 139.06 39.4706 139.06 40.517C139.06 41.5839 138.885 42.5688 138.536 43.4716C138.208 44.3744 137.716 45.1541 137.059 45.8107C136.402 46.4467 135.592 46.9494 134.628 47.3188C133.684 47.6676 132.607 47.842 131.396 47.842C130.432 47.842 129.58 47.7291 128.842 47.5034C128.103 47.2983 127.446 47.0213 126.872 46.6724C126.318 46.3031 125.825 45.8928 125.394 45.4414C124.984 44.9694 124.615 44.4873 124.286 43.9948L126.81 41.9943C127.077 42.4252 127.354 42.815 127.641 43.1638C127.928 43.5127 128.257 43.8204 128.626 44.0872C128.995 44.3539 129.406 44.5591 129.857 44.7027C130.329 44.8463 130.863 44.9181 131.458 44.9181C132.73 44.9181 133.704 44.5693 134.381 43.8717C135.079 43.1741 135.428 42.2097 135.428 40.9787V40.6093C135.428 39.3782 135.079 38.4139 134.381 37.7163C133.704 37.0187 132.73 36.6698 131.458 36.6698C130.534 36.6698 129.796 36.8442 129.242 37.1931C128.688 37.5419 128.216 37.9317 127.826 38.3626L124.964 37.9625L125.764 25.9901H137.952V29.0063ZM150.004 47.842C148.671 47.842 147.511 47.5958 146.526 47.1033C145.542 46.5904 144.731 45.862 144.095 44.9181C143.459 43.9743 142.987 42.815 142.679 41.4403C142.371 40.0656 142.218 38.496 142.218 36.7314C142.218 34.9874 142.371 33.428 142.679 32.0533C142.987 30.658 143.459 29.4885 144.095 28.5447C144.731 27.6008 145.542 26.8827 146.526 26.3902C147.511 25.8773 148.671 25.6208 150.004 25.6208C152.672 25.6208 154.631 26.5954 155.883 28.5447C157.155 30.4939 157.791 33.2228 157.791 36.7314C157.791 40.24 157.155 42.9689 155.883 44.9181C154.631 46.8674 152.672 47.842 150.004 47.842ZM150.004 44.8874C150.743 44.8874 151.369 44.7437 151.882 44.4565C152.415 44.1487 152.846 43.7178 153.174 43.1638C153.503 42.6099 153.739 41.9533 153.882 41.1941C154.026 40.4144 154.098 39.5526 154.098 38.6088V34.854C154.098 33.9102 154.026 33.0586 153.882 32.2995C153.739 31.5198 153.503 30.8529 153.174 30.299C152.846 29.745 152.415 29.3243 151.882 29.0371C151.369 28.7293 150.743 28.5754 150.004 28.5754C149.266 28.5754 148.63 28.7293 148.096 29.0371C147.583 29.3243 147.162 29.745 146.834 30.299C146.506 30.8529 146.27 31.5198 146.126 32.2995C145.983 33.0586 145.911 33.9102 145.911 34.854V38.6088C145.911 39.5526 145.983 40.4144 146.126 41.1941C146.27 41.9533 146.506 42.6099 146.834 43.1638C147.162 43.7178 147.583 44.1487 148.096 44.4565C148.63 44.7437 149.266 44.8874 150.004 44.8874ZM163.688 43.1946C164.447 43.1946 165.012 43.3895 165.381 43.7794C165.75 44.1692 165.935 44.6719 165.935 45.2875V45.7799C165.935 46.7853 165.658 47.8317 165.104 48.9192C164.57 50.0272 163.842 50.9607 162.919 51.7199H160.426C161.082 51.0633 161.626 50.4273 162.057 49.8117C162.488 49.1962 162.816 48.5088 163.042 47.7497C162.508 47.6471 162.108 47.4214 161.841 47.0726C161.575 46.7032 161.441 46.2723 161.441 45.7799V45.2875C161.441 44.6719 161.626 44.1692 161.995 43.7794C162.365 43.3895 162.929 43.1946 163.688 43.1946ZM177.385 47.842C176.051 47.842 174.892 47.5958 173.907 47.1033C172.922 46.5904 172.112 45.862 171.476 44.9181C170.84 43.9743 170.368 42.815 170.06 41.4403C169.752 40.0656 169.599 38.496 169.599 36.7314C169.599 34.9874 169.752 33.428 170.06 32.0533C170.368 30.658 170.84 29.4885 171.476 28.5447C172.112 27.6008 172.922 26.8827 173.907 26.3902C174.892 25.8773 176.051 25.6208 177.385 25.6208C180.053 25.6208 182.012 26.5954 183.264 28.5447C184.536 30.4939 185.172 33.2228 185.172 36.7314C185.172 40.24 184.536 42.9689 183.264 44.9181C182.012 46.8674 180.053 47.842 177.385 47.842ZM177.385 44.8874C178.124 44.8874 178.75 44.7437 179.263 44.4565C179.796 44.1487 180.227 43.7178 180.555 43.1638C180.884 42.6099 181.119 41.9533 181.263 41.1941C181.407 40.4144 181.479 39.5526 181.479 38.6088V34.854C181.479 33.9102 181.407 33.0586 181.263 32.2995C181.119 31.5198 180.884 30.8529 180.555 30.299C180.227 29.745 179.796 29.3243 179.263 29.0371C178.75 28.7293 178.124 28.5754 177.385 28.5754C176.647 28.5754 176.01 28.7293 175.477 29.0371C174.964 29.3243 174.543 29.745 174.215 30.299C173.887 30.8529 173.651 31.5198 173.507 32.2995C173.364 33.0586 173.292 33.9102 173.292 34.854V38.6088C173.292 39.5526 173.364 40.4144 173.507 41.1941C173.651 41.9533 173.887 42.6099 174.215 43.1638C174.543 43.7178 174.964 44.1487 175.477 44.4565C176.01 44.7437 176.647 44.8874 177.385 44.8874ZM195.839 47.842C194.506 47.842 193.347 47.5958 192.362 47.1033C191.377 46.5904 190.566 45.862 189.93 44.9181C189.294 43.9743 188.822 42.815 188.514 41.4403C188.207 40.0656 188.053 38.496 188.053 36.7314C188.053 34.9874 188.207 33.428 188.514 32.0533C188.822 30.658 189.294 29.4885 189.93 28.5447C190.566 27.6008 191.377 26.8827 192.362 26.3902C193.347 25.8773 194.506 25.6208 195.839 25.6208C198.507 25.6208 200.466 26.5954 201.718 28.5447C202.99 30.4939 203.626 33.2228 203.626 36.7314C203.626 40.24 202.99 42.9689 201.718 44.9181C200.466 46.8674 198.507 47.842 195.839 47.842ZM195.839 44.8874C196.578 44.8874 197.204 44.7437 197.717 44.4565C198.25 44.1487 198.681 43.7178 199.01 43.1638C199.338 42.6099 199.574 41.9533 199.717 41.1941C199.861 40.4144 199.933 39.5526 199.933 38.6088V34.854C199.933 33.9102 199.861 33.0586 199.717 32.2995C199.574 31.5198 199.338 30.8529 199.01 30.299C198.681 29.745 198.25 29.3243 197.717 29.0371C197.204 28.7293 196.578 28.5754 195.839 28.5754C195.101 28.5754 194.465 28.7293 193.931 29.0371C193.418 29.3243 192.998 29.745 192.669 30.299C192.341 30.8529 192.105 31.5198 191.962 32.2995C191.818 33.0586 191.746 33.9102 191.746 34.854V38.6088C191.746 39.5526 191.818 40.4144 191.962 41.1941C192.105 41.9533 192.341 42.6099 192.669 43.1638C192.998 43.7178 193.418 44.1487 193.931 44.4565C194.465 44.7437 195.101 44.8874 195.839 44.8874ZM214.294 47.842C212.96 47.842 211.801 47.5958 210.816 47.1033C209.831 46.5904 209.021 45.862 208.385 44.9181C207.749 43.9743 207.277 42.815 206.969 41.4403C206.661 40.0656 206.507 38.496 206.507 36.7314C206.507 34.9874 206.661 33.428 206.969 32.0533C207.277 30.658 207.749 29.4885 208.385 28.5447C209.021 27.6008 209.831 26.8827 210.816 26.3902C211.801 25.8773 212.96 25.6208 214.294 25.6208C216.961 25.6208 218.921 26.5954 220.172 28.5447C221.444 30.4939 222.08 33.2228 222.08 36.7314C222.08 40.24 221.444 42.9689 220.172 44.9181C218.921 46.8674 216.961 47.842 214.294 47.842ZM214.294 44.8874C215.032 44.8874 215.658 44.7437 216.171 44.4565C216.705 44.1487 217.136 43.7178 217.464 43.1638C217.792 42.6099 218.028 41.9533 218.172 41.1941C218.315 40.4144 218.387 39.5526 218.387 38.6088V34.854C218.387 33.9102 218.315 33.0586 218.172 32.2995C218.028 31.5198 217.792 30.8529 217.464 30.299C217.136 29.745 216.705 29.3243 216.171 29.0371C215.658 28.7293 215.032 28.5754 214.294 28.5754C213.555 28.5754 212.919 28.7293 212.386 29.0371C211.873 29.3243 211.452 29.745 211.124 30.299C210.795 30.8529 210.559 31.5198 210.416 32.2995C210.272 33.0586 210.2 33.9102 210.2 34.854V38.6088C210.2 39.5526 210.272 40.4144 210.416 41.1941C210.559 41.9533 210.795 42.6099 211.124 43.1638C211.452 43.7178 211.873 44.1487 212.386 44.4565C212.919 44.7437 213.555 44.8874 214.294 44.8874Z" fill="#001428"/>
<defs>
<filter id="filter0_dd_24_26179" x="140.969" y="72.7852" width="24" height="26" filterUnits="userSpaceOnUse" color-interpolation-filters="sRGB">
<feFlood flood-opacity="0" result="BackgroundImageFix"/>
<feColorMatrix in="SourceAlpha" type="matrix" values="0 0 0 0 0 0 0 0 0 0 0 0 0 0 0 0 0 0 127 0" result="hardAlpha"/>
<feMorphology radius="2" operator="erode" in="SourceAlpha" result="effect1_dropShadow_24_26179"/>
<feOffset dy="4"/>
<feGaussianBlur stdDeviation="2"/>
<feColorMatrix type="matrix" values="0 0 0 0 0.0941176 0 0 0 0 0.152941 0 0 0 0 0.294118 0 0 0 0.08 0"/>
<feBlend mode="normal" in2="BackgroundImageFix" result="effect1_dropShadow_24_26179"/>
<feColorMatrix in="SourceAlpha" type="matrix" values="0 0 0 0 0 0 0 0 0 0 0 0 0 0 0 0 0 0 127 0" result="hardAlpha"/>
<feMorphology radius="2" operator="erode" in="SourceAlpha" result="effect2_dropShadow_24_26179"/>
<feOffset dy="2"/>
<feGaussianBlur stdDeviation="2"/>
<feColorMatrix type="matrix" values="0 0 0 0 0.0941176 0 0 0 0 0.152941 0 0 0 0 0.294118 0 0 0 0.12 0"/>
<feBlend mode="normal" in2="effect1_dropShadow_24_26179" result="effect2_dropShadow_24_26179"/>
<feBlend mode="normal" in="SourceGraphic" in2="effect2_dropShadow_24_26179" result="shape"/>
</filter>
<linearGradient id="paint0_linear_24_26179" x1="24.1562" y1="82.7859" x2="82.1175" y2="82.7859" gradientUnits="userSpaceOnUse">
<stop stop-color="#ACC0F4"/>
<stop offset="1" stop-color="#0043F2"/>
</linearGradient>
</defs>
</svg>
