<svg width="299" height="150" viewBox="0 0 299 150" fill="none" xmlns="http://www.w3.org/2000/svg">
<rect x="9.57276" y="87.5278" width="278.261" height="44.2607" rx="2.58746" fill="white" stroke="#D2D2D2" stroke-width="0.739273"/>
<rect x="9.30714" y="2.95948" width="278.408" height="77.2951" rx="2.58746" fill="white" stroke="#D2D2D2" stroke-width="0.739273"/>
<path d="M23.8636 29.0579H24.6007L26.3366 33.625H25.6477L24.518 30.5458C24.4491 30.3621 24.3802 30.1624 24.3114 29.9465C24.2471 29.7261 24.192 29.5286 24.146 29.3541H24.2769C24.2356 29.5286 24.1828 29.7146 24.1185 29.9121C24.0588 30.1095 23.9899 30.3208 23.9118 30.5458L22.7752 33.625H22.1208L23.8636 29.0579ZM22.9612 31.8684H25.4824V32.4126H22.9612V31.8684ZM26.3505 29.9878H27.0256L27.7834 32.1922C27.9257 32.6147 28.0359 32.989 28.114 33.315H28.0176C28.0956 33.0119 28.2104 32.6376 28.362 32.1922L29.1197 29.9878H29.7673L28.4584 33.625H27.6594L26.3505 29.9878ZM31.2555 33.7008C30.9111 33.7008 30.6332 33.6089 30.422 33.4252C30.2153 33.2415 30.112 33.0027 30.112 32.7088C30.112 32.4149 30.2016 32.1761 30.3807 31.9924C30.5598 31.8087 30.856 31.6709 31.2693 31.5791L32.523 31.2967V31.7513L31.3864 32.0062C31.1522 32.0613 30.9823 32.1417 30.8766 32.2473C30.771 32.3483 30.7182 32.4815 30.7182 32.6468C30.7182 32.8122 30.7756 32.943 30.8904 33.0395C31.0052 33.1313 31.1614 33.1772 31.3588 33.1772C31.5471 33.1772 31.7239 33.1359 31.8892 33.0533C32.0546 32.9706 32.19 32.8397 32.2957 32.6606C32.4013 32.4815 32.4541 32.2588 32.4541 31.9924H32.5368V32.633C32.4817 32.9913 32.3347 33.2599 32.0959 33.439C31.8571 33.6135 31.577 33.7008 31.2555 33.7008ZM33.0879 33.6594C32.9042 33.6594 32.7572 33.6066 32.647 33.501C32.5414 33.3908 32.4886 33.2369 32.4886 33.0395V32.881H32.4541V31.3656C32.4541 31.0671 32.3852 30.8397 32.2475 30.6836C32.1097 30.5229 31.8915 30.4425 31.593 30.4425C31.0603 30.4425 30.7664 30.6905 30.7113 31.1865L30.1533 31.0831C30.1993 30.7341 30.3439 30.454 30.5873 30.2427C30.8353 30.0269 31.182 29.919 31.6275 29.919C32.0867 29.919 32.4357 30.0498 32.6745 30.3116C32.9133 30.5734 33.0327 30.9201 33.0327 31.3518V32.881C33.0327 32.9867 33.0557 33.0647 33.1016 33.1152C33.1476 33.1612 33.2141 33.1841 33.3014 33.1841C33.3841 33.1795 33.4644 33.1681 33.5425 33.1497V33.5286C33.4047 33.6158 33.2532 33.6594 33.0879 33.6594ZM34.8818 29.9878V33.625H34.2619V29.9878H34.8818ZM34.5787 29.3954C34.4364 29.3954 34.3239 29.3564 34.2412 29.2783C34.1631 29.1957 34.1241 29.0854 34.1241 28.9477C34.1241 28.8191 34.1631 28.7158 34.2412 28.6377C34.3239 28.5596 34.4364 28.5206 34.5787 28.5206C34.7165 28.5206 34.8244 28.5596 34.9025 28.6377C34.9852 28.7158 35.0265 28.8191 35.0265 28.9477C35.0265 29.0854 34.9852 29.1957 34.9025 29.2783C34.8244 29.3564 34.7165 29.3954 34.5787 29.3954ZM36.0984 28.6239H36.7183V33.625H36.0984V28.6239ZM38.8235 33.7008C38.4791 33.7008 38.2012 33.6089 37.99 33.4252C37.7833 33.2415 37.68 33.0027 37.68 32.7088C37.68 32.4149 37.7695 32.1761 37.9486 31.9924C38.1277 31.8087 38.424 31.6709 38.8373 31.5791L40.091 31.2967V31.7513L38.9544 32.0062C38.7202 32.0613 38.5502 32.1417 38.4446 32.2473C38.339 32.3483 38.2862 32.4815 38.2862 32.6468C38.2862 32.8122 38.3436 32.943 38.4584 33.0395C38.5732 33.1313 38.7293 33.1772 38.9268 33.1772C39.1151 33.1772 39.2919 33.1359 39.4572 33.0533C39.6226 32.9706 39.758 32.8397 39.8637 32.6606C39.9693 32.4815 40.0221 32.2588 40.0221 31.9924H40.1048V32.633C40.0497 32.9913 39.9027 33.2599 39.6639 33.439C39.4251 33.6135 39.145 33.7008 38.8235 33.7008ZM40.6558 33.6594C40.4721 33.6594 40.3252 33.6066 40.215 33.501C40.1094 33.3908 40.0565 33.2369 40.0565 33.0395V32.881H40.0221V31.3656C40.0221 31.0671 39.9532 30.8397 39.8154 30.6836C39.6777 30.5229 39.4595 30.4425 39.161 30.4425C38.6283 30.4425 38.3344 30.6905 38.2793 31.1865L37.7213 31.0831C37.7672 30.7341 37.9119 30.454 38.1553 30.2427C38.4033 30.0269 38.75 29.919 39.1955 29.919C39.6547 29.919 40.0037 30.0498 40.2425 30.3116C40.4813 30.5734 40.6007 30.9201 40.6007 31.3518V32.881C40.6007 32.9867 40.6237 33.0647 40.6696 33.1152C40.7155 33.1612 40.7821 33.1841 40.8694 33.1841C40.9521 33.1795 41.0324 33.1681 41.1105 33.1497V33.5286C40.9727 33.6158 40.8212 33.6594 40.6558 33.6594ZM41.8023 33.625C41.8207 33.3586 41.8299 33.0854 41.8299 32.8053V28.6239H42.4498V30.2841C42.4498 30.4402 42.4406 30.6032 42.4223 30.7731H42.4498V32.8259H42.4154C42.4154 33.1795 42.4108 33.4459 42.4016 33.625H41.8023ZM43.6209 33.7008C43.2581 33.7008 42.955 33.5837 42.7116 33.3495C42.4728 33.1107 42.3511 32.7479 42.3465 32.2611V31.3518C42.3511 30.865 42.4728 30.5045 42.7116 30.2703C42.955 30.0361 43.2581 29.919 43.6209 29.919C43.9056 29.919 44.1628 29.9924 44.3924 30.1394C44.622 30.2818 44.8011 30.4953 44.9297 30.78C45.0629 31.0648 45.1295 31.4069 45.1295 31.8064C45.1295 32.206 45.0629 32.5481 44.9297 32.8328C44.8011 33.1175 44.622 33.3334 44.3924 33.4803C44.1628 33.6273 43.9056 33.7008 43.6209 33.7008ZM43.4969 33.129C43.8321 33.129 44.0824 33.0188 44.2477 32.7984C44.4131 32.5733 44.4957 32.2427 44.4957 31.8064C44.4957 31.3747 44.4131 31.0487 44.2477 30.8282C44.0824 30.6032 43.8321 30.4907 43.4969 30.4907C43.18 30.4907 42.9251 30.6032 42.7323 30.8282C42.544 31.0533 42.4498 31.3793 42.4498 31.8064C42.4498 32.2381 42.544 32.5665 42.7323 32.7915C42.9251 33.0165 43.18 33.129 43.4969 33.129ZM46.0814 28.6239H46.7014V33.625H46.0814V28.6239ZM49.3851 33.7008C48.8203 33.7008 48.3863 33.5354 48.0832 33.2048C47.7801 32.8741 47.6286 32.408 47.6286 31.8064C47.6286 31.4161 47.6974 31.0808 47.8352 30.8007C47.9776 30.516 48.1751 30.2978 48.4276 30.1463C48.6848 29.9947 48.9787 29.919 49.3094 29.919C49.64 29.919 49.927 29.9924 50.1704 30.1394C50.4138 30.2863 50.5998 30.4999 50.7284 30.78C50.8616 31.0556 50.9282 31.3793 50.9282 31.7513V31.9511H48.0694V31.462H50.6251L50.322 31.8064C50.3312 31.3564 50.2508 31.0165 50.0809 30.7869C49.9156 30.5573 49.6538 30.4425 49.2956 30.4425C48.9512 30.4425 48.6894 30.555 48.5103 30.78C48.3358 31.0005 48.2485 31.3219 48.2485 31.7444V31.8271C48.2485 32.268 48.345 32.6009 48.5378 32.8259C48.7307 33.051 49.0178 33.1635 49.3989 33.1635C49.8903 33.1635 50.2554 32.9453 50.4942 32.5091L50.942 32.819C50.7996 33.09 50.5975 33.3058 50.3358 33.4666C50.074 33.6227 49.7571 33.7008 49.3851 33.7008ZM53.1509 33.625C53.1693 33.3586 53.1785 33.0854 53.1785 32.8053V28.6239H53.7984V30.2841C53.7984 30.4402 53.7893 30.6032 53.7709 30.7731H53.7984V32.8259H53.764C53.764 33.1795 53.7594 33.4459 53.7502 33.625H53.1509ZM54.9695 33.7008C54.6067 33.7008 54.3036 33.5837 54.0602 33.3495C53.8214 33.1107 53.6997 32.7479 53.6951 32.2611V31.3518C53.6997 30.865 53.8214 30.5045 54.0602 30.2703C54.3036 30.0361 54.6067 29.919 54.9695 29.919C55.2542 29.919 55.5114 29.9924 55.741 30.1394C55.9706 30.2818 56.1497 30.4953 56.2783 30.78C56.4115 31.0648 56.4781 31.4069 56.4781 31.8064C56.4781 32.206 56.4115 32.5481 56.2783 32.8328C56.1497 33.1175 55.9706 33.3334 55.741 33.4803C55.5114 33.6273 55.2542 33.7008 54.9695 33.7008ZM54.8455 33.129C55.1807 33.129 55.431 33.0188 55.5964 32.7984C55.7617 32.5733 55.8443 32.2427 55.8443 31.8064C55.8443 31.3747 55.7617 31.0487 55.5964 30.8282C55.431 30.6032 55.1807 30.4907 54.8455 30.4907C54.5286 30.4907 54.2738 30.6032 54.0809 30.8282C53.8926 31.0533 53.7984 31.3793 53.7984 31.8064C53.7984 32.2381 53.8926 32.5665 54.0809 32.7915C54.2738 33.0165 54.5286 33.129 54.8455 33.129ZM58.3792 33.7008C58.0347 33.7008 57.7569 33.6089 57.5457 33.4252C57.339 33.2415 57.2357 33.0027 57.2357 32.7088C57.2357 32.4149 57.3252 32.1761 57.5043 31.9924C57.6834 31.8087 57.9796 31.6709 58.3929 31.5791L59.6467 31.2967V31.7513L58.51 32.0062C58.2758 32.0613 58.1059 32.1417 58.0003 32.2473C57.8947 32.3483 57.8419 32.4815 57.8419 32.6468C57.8419 32.8122 57.8993 32.943 58.0141 33.0395C58.1289 33.1313 58.285 33.1772 58.4825 33.1772C58.6708 33.1772 58.8476 33.1359 59.0129 33.0533C59.1782 32.9706 59.3137 32.8397 59.4193 32.6606C59.525 32.4815 59.5778 32.2588 59.5778 31.9924H59.6604V32.633C59.6053 32.9913 59.4584 33.2599 59.2196 33.439C58.9808 33.6135 58.7006 33.7008 58.3792 33.7008ZM60.2115 33.6594C60.0278 33.6594 59.8809 33.6066 59.7707 33.501C59.665 33.3908 59.6122 33.2369 59.6122 33.0395V32.881H59.5778V31.3656C59.5778 31.0671 59.5089 30.8397 59.3711 30.6836C59.2333 30.5229 59.0152 30.4425 58.7167 30.4425C58.184 30.4425 57.8901 30.6905 57.835 31.1865L57.277 31.0831C57.3229 30.7341 57.4676 30.454 57.711 30.2427C57.959 30.0269 58.3057 29.919 58.7511 29.919C59.2104 29.919 59.5594 30.0498 59.7982 30.3116C60.037 30.5734 60.1564 30.9201 60.1564 31.3518V32.881C60.1564 32.9867 60.1794 33.0647 60.2253 33.1152C60.2712 33.1612 60.3378 33.1841 60.4251 33.1841C60.5077 33.1795 60.5881 33.1681 60.6662 33.1497V33.5286C60.5284 33.6158 60.3768 33.6594 60.2115 33.6594ZM61.3855 28.6239H62.0055V33.625H61.3855V28.6239ZM64.1107 33.7008C63.7662 33.7008 63.4884 33.6089 63.2771 33.4252C63.0705 33.2415 62.9672 33.0027 62.9672 32.7088C62.9672 32.4149 63.0567 32.1761 63.2358 31.9924C63.4149 31.8087 63.7111 31.6709 64.1244 31.5791L65.3781 31.2967V31.7513L64.2415 32.0062C64.0073 32.0613 63.8374 32.1417 63.7318 32.2473C63.6262 32.3483 63.5733 32.4815 63.5733 32.6468C63.5733 32.8122 63.6308 32.943 63.7456 33.0395C63.8604 33.1313 64.0165 33.1772 64.214 33.1772C64.4023 33.1772 64.5791 33.1359 64.7444 33.0533C64.9097 32.9706 65.0452 32.8397 65.1508 32.6606C65.2564 32.4815 65.3093 32.2588 65.3093 31.9924H65.3919V32.633C65.3368 32.9913 65.1899 33.2599 64.9511 33.439C64.7123 33.6135 64.4321 33.7008 64.1107 33.7008ZM65.943 33.6594C65.7593 33.6594 65.6124 33.6066 65.5021 33.501C65.3965 33.3908 65.3437 33.2369 65.3437 33.0395V32.881H65.3093V31.3656C65.3093 31.0671 65.2404 30.8397 65.1026 30.6836C64.9648 30.5229 64.7467 30.4425 64.4482 30.4425C63.9155 30.4425 63.6216 30.6905 63.5665 31.1865L63.0085 31.0831C63.0544 30.7341 63.1991 30.454 63.4425 30.2427C63.6905 30.0269 64.0372 29.919 64.4826 29.919C64.9419 29.919 65.2909 30.0498 65.5297 30.3116C65.7685 30.5734 65.8879 30.9201 65.8879 31.3518V32.881C65.8879 32.9867 65.9109 33.0647 65.9568 33.1152C66.0027 33.1612 66.0693 33.1841 66.1566 33.1841C66.2392 33.1795 66.3196 33.1681 66.3977 33.1497V33.5286C66.2599 33.6158 66.1083 33.6594 65.943 33.6594ZM67.117 30.8076C67.117 30.5137 67.1078 30.2404 67.0895 29.9878H67.6888C67.7071 30.2175 67.7163 30.4448 67.7163 30.6698H67.737V33.625H67.117V30.8076ZM69.5693 31.4C69.5693 31.0969 69.5005 30.8696 69.3627 30.718C69.2249 30.5619 69.0137 30.4838 68.7289 30.4838C68.435 30.4838 68.1962 30.5757 68.0125 30.7594C67.8288 30.9385 67.737 31.2186 67.737 31.5998H67.6819V30.8145C67.7462 30.5297 67.8885 30.3093 68.109 30.1532C68.3294 29.997 68.5889 29.919 68.8874 29.919C69.3007 29.919 69.6199 30.0384 69.8449 30.2772C70.0745 30.516 70.1893 30.8673 70.1893 31.3311V33.625H69.5693V31.4ZM72.7403 33.7008C72.4097 33.7008 72.1158 33.6273 71.8586 33.4803C71.6014 33.3288 71.3994 33.1107 71.2524 32.8259C71.11 32.5412 71.0389 32.2014 71.0389 31.8064C71.0389 31.4115 71.11 31.0716 71.2524 30.7869C71.3994 30.5022 71.6014 30.2863 71.8586 30.1394C72.1158 29.9924 72.4097 29.919 72.7403 29.919C73.1537 29.919 73.4935 30.0361 73.7598 30.2703C74.0308 30.4999 74.2168 30.8214 74.3178 31.2347L73.7667 31.3862C73.6887 31.0877 73.5624 30.8604 73.3879 30.7043C73.2179 30.5481 73.0044 30.47 72.7472 30.47C72.4028 30.47 72.1364 30.5849 71.9482 30.8145C71.7645 31.0395 71.6726 31.3701 71.6726 31.8064C71.6726 32.2473 71.7645 32.5802 71.9482 32.8053C72.1364 33.0303 72.4028 33.1428 72.7472 33.1428C73.0044 33.1428 73.2179 33.0647 73.3879 32.9086C73.5624 32.7525 73.6864 32.5251 73.7598 32.2266L74.3109 32.3851C74.2145 32.7892 74.0308 33.1107 73.7598 33.3495C73.4935 33.5837 73.1537 33.7008 72.7403 33.7008ZM76.6972 33.7008C76.1323 33.7008 75.6983 33.5354 75.3952 33.2048C75.0921 32.8741 74.9406 32.408 74.9406 31.8064C74.9406 31.4161 75.0095 31.0808 75.1472 30.8007C75.2896 30.516 75.4871 30.2978 75.7397 30.1463C75.9968 29.9947 76.2907 29.919 76.6214 29.919C76.952 29.919 77.2391 29.9924 77.4825 30.1394C77.7259 30.2863 77.9118 30.4999 78.0404 30.78C78.1736 31.0556 78.2402 31.3793 78.2402 31.7513V31.9511H75.3815V31.462H77.9371L77.634 31.8064C77.6432 31.3564 77.5628 31.0165 77.3929 30.7869C77.2276 30.5573 76.9658 30.4425 76.6076 30.4425C76.2632 30.4425 76.0014 30.555 75.8223 30.78C75.6478 31.0005 75.5606 31.3219 75.5606 31.7444V31.8271C75.5606 32.268 75.657 32.6009 75.8499 32.8259C76.0428 33.051 76.3298 33.1635 76.7109 33.1635C77.2023 33.1635 77.5674 32.9453 77.8062 32.5091L78.254 32.819C78.1116 33.09 77.9095 33.3058 77.6478 33.4666C77.386 33.6227 77.0691 33.7008 76.6972 33.7008Z" fill="#001428" fill-opacity="0.5"/>
<rect x="20.2031" y="96.1582" width="257" height="27" rx="2.72049" fill="#0A2356"/>
<path d="M124.213 106.845V113.158H123.042V106.845H124.213ZM125.317 106.845C126.327 106.845 127.107 107.121 127.66 107.674C128.218 108.226 128.497 109.004 128.497 110.007C128.497 111.009 128.221 111.787 127.669 112.339C127.117 112.885 126.333 113.158 125.317 113.158H123.508V112.149H125.174C125.892 112.149 126.422 111.974 126.765 111.625C127.114 111.27 127.288 110.727 127.288 109.997C127.288 109.273 127.114 108.737 126.765 108.388C126.422 108.032 125.892 107.855 125.174 107.855H123.508V106.845H125.317ZM130.752 109.283C130.828 108.877 131.012 108.562 131.304 108.34C131.596 108.118 131.942 108.007 132.342 108.007H132.437V109.121H132.19C131.752 109.121 131.418 109.229 131.19 109.445C130.961 109.654 130.847 110.007 130.847 110.502H130.752V109.283ZM129.743 109.245C129.743 108.826 129.73 108.448 129.705 108.112H130.752C130.777 108.404 130.79 108.718 130.79 109.054H130.847V113.158H129.743V109.245ZM134.459 113.272C133.97 113.272 133.58 113.142 133.288 112.882C132.996 112.622 132.85 112.285 132.85 111.873C132.85 111.454 132.977 111.114 133.231 110.854C133.491 110.594 133.913 110.4 134.497 110.273L136.126 109.921V110.673L134.735 110.978C134.45 111.035 134.243 111.127 134.116 111.254C133.99 111.381 133.926 111.546 133.926 111.749C133.926 111.946 133.993 112.104 134.126 112.225C134.266 112.339 134.459 112.396 134.707 112.396C134.935 112.396 135.148 112.346 135.345 112.244C135.548 112.136 135.713 111.971 135.84 111.749C135.973 111.527 136.04 111.251 136.04 110.921H136.173V111.901C136.097 112.358 135.9 112.701 135.583 112.93C135.272 113.158 134.897 113.272 134.459 113.272ZM137.04 113.215C136.754 113.215 136.529 113.139 136.364 112.987C136.205 112.828 136.126 112.609 136.126 112.33V112.158H136.04V110.073C136.04 109.692 135.954 109.407 135.783 109.216C135.611 109.019 135.342 108.921 134.973 108.921C134.313 108.921 133.948 109.226 133.878 109.835L132.898 109.635C132.968 109.146 133.183 108.753 133.545 108.454C133.907 108.156 134.405 108.007 135.04 108.007C135.707 108.007 136.211 108.197 136.554 108.578C136.903 108.953 137.078 109.451 137.078 110.073V111.987C137.078 112.12 137.106 112.219 137.163 112.282C137.227 112.346 137.319 112.377 137.44 112.377C137.541 112.371 137.643 112.358 137.744 112.339V113.006C137.535 113.146 137.3 113.215 137.04 113.215ZM138.013 108.112H139.146L139.946 111.482C140.034 111.863 140.107 112.301 140.165 112.796H140.003C140.073 112.403 140.165 111.978 140.279 111.52L141.212 108.112H142.45L143.392 111.52C143.513 111.99 143.611 112.416 143.688 112.796H143.516C143.573 112.365 143.65 111.939 143.745 111.52L144.554 108.112H145.621L144.354 113.158H142.84L141.993 110.216C141.885 109.822 141.774 109.248 141.66 108.493H141.898C141.79 109.172 141.672 109.746 141.545 110.216L140.698 113.158H139.27L138.013 108.112ZM149.561 106.845V113.158H148.389V106.845H149.561ZM152.455 106.845V107.864H149.056V106.845H152.455ZM152.179 109.635V110.644H149.056V109.635H152.179ZM156.562 113.158C156.536 112.86 156.524 112.558 156.524 112.254H156.457V108.112H157.562V112.025C157.562 112.438 157.574 112.815 157.6 113.158H156.562ZM154.953 113.272C154.394 113.272 153.962 113.107 153.658 112.777C153.359 112.447 153.21 111.952 153.21 111.292V108.112H154.315V111.14C154.315 111.508 154.394 111.784 154.553 111.968C154.711 112.152 154.956 112.244 155.286 112.244C155.635 112.244 155.918 112.133 156.133 111.911C156.349 111.689 156.457 111.349 156.457 110.892H156.581V112.006C156.479 112.412 156.282 112.727 155.991 112.949C155.699 113.165 155.353 113.272 154.953 113.272ZM159.089 109.245C159.089 108.839 159.076 108.461 159.051 108.112H160.098C160.124 108.404 160.136 108.708 160.136 109.026H160.193V113.158H159.089V109.245ZM162.412 110.13C162.412 109.762 162.326 109.486 162.155 109.302C161.99 109.111 161.736 109.016 161.393 109.016C161.038 109.016 160.749 109.131 160.527 109.359C160.304 109.581 160.193 109.921 160.193 110.378H160.079V109.254C160.174 108.854 160.371 108.547 160.669 108.331C160.968 108.115 161.32 108.007 161.726 108.007C162.291 108.007 162.729 108.172 163.04 108.502C163.358 108.832 163.516 109.324 163.516 109.978V113.158H162.412V110.13ZM166.689 113.272C166.295 113.272 165.94 113.171 165.623 112.968C165.311 112.765 165.064 112.466 164.88 112.073C164.696 111.679 164.604 111.203 164.604 110.644C164.604 110.073 164.696 109.591 164.88 109.197C165.064 108.804 165.311 108.508 165.623 108.312C165.94 108.109 166.295 108.007 166.689 108.007C167.171 108.007 167.571 108.156 167.889 108.454C168.206 108.753 168.377 109.204 168.403 109.807V111.473C168.377 112.07 168.206 112.52 167.889 112.825C167.571 113.123 167.171 113.272 166.689 113.272ZM166.965 112.263C167.352 112.263 167.663 112.127 167.898 111.854C168.133 111.574 168.251 111.171 168.251 110.644C168.251 110.111 168.133 109.708 167.898 109.435C167.663 109.156 167.352 109.016 166.965 109.016C166.559 109.016 166.251 109.153 166.041 109.426C165.832 109.699 165.727 110.105 165.727 110.644C165.727 111.178 165.832 111.581 166.041 111.854C166.251 112.127 166.559 112.263 166.965 112.263ZM168.336 113.158C168.311 112.854 168.301 112.514 168.308 112.139H168.251V109.073H168.279C168.254 108.819 168.241 108.585 168.241 108.369V106.245H169.346V112.025C169.346 112.381 169.358 112.758 169.384 113.158H168.336ZM172.765 113.272C171.552 113.272 170.794 112.784 170.489 111.806L171.432 111.454C171.533 111.778 171.695 112.016 171.917 112.168C172.146 112.314 172.438 112.387 172.793 112.387C173.105 112.387 173.346 112.33 173.517 112.216C173.695 112.095 173.784 111.933 173.784 111.73C173.784 111.59 173.749 111.476 173.679 111.387C173.616 111.298 173.498 111.225 173.327 111.168C173.162 111.111 172.927 111.07 172.622 111.044C171.924 110.987 171.413 110.841 171.089 110.606C170.772 110.365 170.613 110.026 170.613 109.588C170.613 109.283 170.696 109.01 170.861 108.769C171.026 108.527 171.26 108.34 171.565 108.207C171.87 108.074 172.225 108.007 172.632 108.007C173.216 108.007 173.689 108.137 174.05 108.397C174.412 108.658 174.66 109.029 174.793 109.511L173.793 109.74C173.717 109.448 173.577 109.232 173.374 109.092C173.171 108.946 172.914 108.873 172.603 108.873C172.324 108.873 172.098 108.937 171.927 109.064C171.762 109.191 171.679 109.353 171.679 109.549C171.679 109.676 171.711 109.781 171.775 109.864C171.838 109.94 171.949 110.003 172.108 110.054C172.273 110.099 172.501 110.13 172.793 110.149C173.543 110.206 174.073 110.359 174.384 110.606C174.701 110.854 174.86 111.219 174.86 111.701C174.86 112.19 174.672 112.574 174.298 112.854C173.923 113.133 173.412 113.272 172.765 113.272Z" fill="white"/>
<path d="M31.9437 53.0249C31.9437 54.1812 31.522 55.0789 30.6787 55.7182C29.8489 56.3439 28.7471 56.6568 27.3733 56.6568C25.9178 56.6568 24.7412 56.3371 23.8435 55.6978C22.9457 55.0585 22.3336 54.1199 22.0071 52.8821L23.9659 52.2292C24.1971 53.127 24.5984 53.7935 25.1697 54.2288C25.741 54.6504 26.4823 54.8613 27.3937 54.8613C28.0874 54.8613 28.6451 54.7116 29.0668 54.4124C29.5021 54.0995 29.7197 53.6711 29.7197 53.127C29.7197 52.6917 29.5905 52.3516 29.332 52.1068C29.0736 51.8483 28.7403 51.6579 28.3323 51.5355C27.9378 51.3995 27.4073 51.2702 26.7408 51.1478C25.843 50.971 25.1085 50.7805 24.5372 50.5765C23.9795 50.3725 23.5034 50.0392 23.1089 49.5767C22.7145 49.1142 22.5172 48.4681 22.5172 47.6384C22.5172 46.9311 22.7009 46.3121 23.0681 45.7816C23.4354 45.2376 23.9455 44.8227 24.5984 44.537C25.2649 44.2378 26.0335 44.0881 26.904 44.0881C28.2098 44.0881 29.2776 44.3942 30.1074 45.0063C30.9507 45.6048 31.5016 46.5026 31.7601 47.6996L29.7605 48.1689C29.5701 47.3799 29.2436 46.8086 28.7811 46.455C28.3187 46.0877 27.693 45.9041 26.904 45.9041C26.1967 45.9041 25.6594 46.0537 25.2921 46.353C24.9385 46.6386 24.7616 47.0263 24.7616 47.516C24.7616 47.8968 24.8772 48.1961 25.1085 48.4137C25.3533 48.6314 25.6594 48.7946 26.0267 48.9034C26.3939 49.0122 26.8972 49.1346 27.5365 49.2707C28.4615 49.4475 29.2164 49.6447 29.8013 49.8624C30.3862 50.0664 30.8895 50.4201 31.3112 50.9234C31.7329 51.4267 31.9437 52.1272 31.9437 53.0249ZM27.3325 42.6191H28.5771L26.8224 58.3911H25.5778L27.3325 42.6191ZM38.232 45.0063L38.6401 43.6189H40.5172V57.1465H38.232V45.0063ZM34.4982 55.2489H43.7002V57.1465H34.4982V55.2489ZM34.6206 45.3124C35.3823 45.1899 36.11 44.9859 36.8038 44.7003C37.5111 44.4146 38.1232 44.0541 38.6401 43.6189V45.8837C38.2864 46.1965 37.7899 46.4754 37.1506 46.7202C36.5113 46.9651 35.8176 47.1351 35.0695 47.2303L34.6206 45.3124ZM45.7654 55.759C48.1051 54.2628 49.8258 52.8753 50.9276 51.5967C52.043 50.3045 52.6007 49.087 52.6007 47.9444C52.6007 47.1691 52.3898 46.5706 51.9681 46.1489C51.5465 45.7136 50.9548 45.496 50.193 45.496C49.4857 45.496 48.9144 45.7068 48.4791 46.1285C48.0438 46.5366 47.8262 47.0943 47.8262 47.8016C47.8262 48.1689 47.8874 48.5293 48.0098 48.883L45.847 49.3115C45.7654 49.0938 45.6974 48.849 45.643 48.577C45.6022 48.3049 45.5818 48.0397 45.5818 47.7812C45.5818 46.9243 45.779 46.1625 46.1735 45.496C46.568 44.8295 47.1189 44.3126 47.8262 43.9453C48.5335 43.5645 49.3429 43.374 50.2542 43.374C51.2336 43.374 52.077 43.5645 52.7843 43.9453C53.4916 44.3262 54.0289 44.8567 54.3962 45.5368C54.7634 46.2169 54.9471 46.9991 54.9471 47.8832C54.9471 49.2979 54.3826 50.6853 53.2536 52.0456C52.1382 53.4058 50.5127 54.698 48.3771 55.9223L45.7654 55.759ZM45.7654 55.759L47.867 55.2489H55.2939V57.1465H45.7654V55.759ZM62.1744 57.3913C60.991 57.3913 59.9844 57.1329 59.1547 56.616C58.3385 56.0991 57.74 55.3578 57.3592 54.392L59.2771 53.4534C59.5356 54.1063 59.9028 54.6028 60.3789 54.9429C60.855 55.283 61.4399 55.453 62.1336 55.453C62.9226 55.453 63.5483 55.2149 64.0108 54.7389C64.4868 54.2628 64.7249 53.6167 64.7249 52.8005C64.7249 51.998 64.4868 51.3586 64.0108 50.8826C63.5483 50.4065 62.9158 50.1684 62.1132 50.1684C61.5419 50.1684 61.0318 50.2841 60.5829 50.5153C60.1341 50.7465 59.7736 51.0662 59.5016 51.4743L57.7876 51.005L58.6854 43.6189H66.2756V45.5164H59.5424L60.6238 44.4554L60.0116 49.2707H60.0525C60.3245 49.0122 60.685 48.7878 61.1338 48.5974C61.5827 48.4069 62.0996 48.3117 62.6845 48.3117C63.5279 48.3117 64.2828 48.5021 64.9493 48.883C65.6159 49.2639 66.1327 49.7944 66.5 50.4745C66.8673 51.1546 67.0509 51.93 67.0509 52.8005C67.0509 53.7119 66.8469 54.5144 66.4388 55.2081C66.0443 55.9019 65.4798 56.4392 64.7453 56.82C64.0108 57.2009 63.1538 57.3913 62.1744 57.3913ZM72.646 56.1467C72.646 56.7724 72.5167 57.4185 72.2583 58.0851C71.9999 58.7516 71.6326 59.3773 71.1565 59.9622H68.9121C69.4562 59.3773 69.9187 58.7856 70.2996 58.1871C70.694 57.6022 71.0001 57.0309 71.2177 56.4732L72.646 56.1467ZM70.9525 57.2281C70.4492 57.2281 70.0411 57.0921 69.7282 56.82C69.429 56.5344 69.2794 56.1467 69.2794 55.657C69.2794 55.1673 69.4358 54.7865 69.7487 54.5144C70.0615 54.2288 70.4628 54.0859 70.9525 54.0859C71.4422 54.0859 71.8434 54.2628 72.1563 54.6164C72.4827 54.9701 72.646 55.4802 72.646 56.1467C72.646 56.2963 72.5644 56.4596 72.4011 56.6364C72.2515 56.8132 72.0475 56.9561 71.789 57.0649C71.5306 57.1737 71.2517 57.2281 70.9525 57.2281ZM79.668 57.3913C77.9813 57.3913 76.6959 56.7792 75.8117 55.555C74.9276 54.3308 74.4855 52.6101 74.4855 50.3929C74.4855 48.1757 74.9276 46.455 75.8117 45.2308C76.6959 43.9929 77.9813 43.374 79.668 43.374C81.3547 43.374 82.6401 43.9861 83.5243 45.2103C84.4085 46.4346 84.8505 48.1621 84.8505 50.3929C84.8505 52.6101 84.4085 54.3308 83.5243 55.555C82.6401 56.7792 81.3547 57.3913 79.668 57.3913ZM79.668 55.351C80.2937 55.351 80.8174 55.1809 81.2391 54.8409C81.6608 54.5008 81.9736 53.9635 82.1777 53.229C82.3953 52.4945 82.5041 51.5491 82.5041 50.3929C82.5041 49.2231 82.3953 48.2709 82.1777 47.5364C81.9736 46.8018 81.6608 46.2645 81.2391 45.9245C80.8174 45.5844 80.2937 45.4144 79.668 45.4144C79.0423 45.4144 78.5186 45.5844 78.0969 45.9245C77.6753 46.2645 77.3556 46.8018 77.138 47.5364C76.9339 48.2573 76.8319 49.2095 76.8319 50.3929C76.8319 51.5491 76.9339 52.4945 77.138 53.229C77.3556 53.9635 77.6753 54.5008 78.0969 54.8409C78.5186 55.1809 79.0423 55.351 79.668 55.351ZM91.3842 57.3913C89.6975 57.3913 88.412 56.7792 87.5279 55.555C86.6437 54.3308 86.2016 52.6101 86.2016 50.3929C86.2016 48.1757 86.6437 46.455 87.5279 45.2308C88.412 43.9929 89.6975 43.374 91.3842 43.374C93.0709 43.374 94.3563 43.9861 95.2405 45.2103C96.1246 46.4346 96.5667 48.1621 96.5667 50.3929C96.5667 52.6101 96.1246 54.3308 95.2405 55.555C94.3563 56.7792 93.0709 57.3913 91.3842 57.3913ZM91.3842 55.351C92.0099 55.351 92.5336 55.1809 92.9553 54.8409C93.3769 54.5008 93.6898 53.9635 93.8938 53.229C94.1115 52.4945 94.2203 51.5491 94.2203 50.3929C94.2203 49.2231 94.1115 48.2709 93.8938 47.5364C93.6898 46.8018 93.3769 46.2645 92.9553 45.9245C92.5336 45.5844 92.0099 45.4144 91.3842 45.4144C90.7585 45.4144 90.2348 45.5844 89.8131 45.9245C89.3914 46.2645 89.0718 46.8018 88.8541 47.5364C88.6501 48.2573 88.5481 49.2095 88.5481 50.3929C88.5481 51.5491 88.6501 52.4945 88.8541 53.229C89.0718 53.9635 89.3914 54.5008 89.8131 54.8409C90.2348 55.1809 90.7585 55.351 91.3842 55.351ZM103.1 57.3913C101.414 57.3913 100.128 56.7792 99.244 55.555C98.3599 54.3308 97.9178 52.6101 97.9178 50.3929C97.9178 48.1757 98.3599 46.455 99.244 45.2308C100.128 43.9929 101.414 43.374 103.1 43.374C104.787 43.374 106.072 43.9861 106.957 45.2103C107.841 46.4346 108.283 48.1621 108.283 50.3929C108.283 52.6101 107.841 54.3308 106.957 55.555C106.072 56.7792 104.787 57.3913 103.1 57.3913ZM103.1 55.351C103.726 55.351 104.25 55.1809 104.671 54.8409C105.093 54.5008 105.406 53.9635 105.61 53.229C105.828 52.4945 105.936 51.5491 105.936 50.3929C105.936 49.2231 105.828 48.2709 105.61 47.5364C105.406 46.8018 105.093 46.2645 104.671 45.9245C104.25 45.5844 103.726 45.4144 103.1 45.4144C102.475 45.4144 101.951 45.5844 101.529 45.9245C101.108 46.2645 100.788 46.8018 100.57 47.5364C100.366 48.2573 100.264 49.2095 100.264 50.3929C100.264 51.5491 100.366 52.4945 100.57 53.229C100.788 53.9635 101.108 54.5008 101.529 54.8409C101.951 55.1809 102.475 55.351 103.1 55.351Z" fill="#001428"/>
<line x1="202.09" y1="2.58984" x2="202.09" y2="80.6242" stroke="#D2D2D2" stroke-width="0.680122"/>
<path d="M239.164 45.7012V49.3086H238.642V45.7012H239.164ZM240.894 45.7012V46.1637H238.963V45.7012H240.894ZM240.736 47.3226V47.7797H238.963V47.3226H240.736ZM243.264 49.3086C243.249 49.1272 243.242 48.9477 243.242 48.7699H243.22V46.4358H243.71V48.6611C243.71 48.8969 243.719 49.1127 243.737 49.3086H243.264ZM242.334 49.3684C242.011 49.3684 241.762 49.2741 241.588 49.0855C241.418 48.8969 241.332 48.6176 241.332 48.2476V46.4358H241.822V48.1878C241.822 48.4344 241.873 48.6176 241.974 48.7373C242.08 48.857 242.241 48.9168 242.459 48.9168C242.684 48.9168 242.867 48.8443 243.008 48.6992C243.15 48.5541 243.22 48.3328 243.22 48.0354H243.269V48.6502C243.219 48.8751 243.106 49.0511 242.932 49.178C242.762 49.305 242.562 49.3684 242.334 49.3684ZM244.671 47.0832C244.671 46.8511 244.663 46.6353 244.649 46.4358H245.122C245.137 46.6171 245.144 46.7967 245.144 46.9744H245.16V49.3086H244.671V47.0832ZM246.608 47.5512C246.608 47.3118 246.553 47.1322 246.444 47.0125C246.336 46.8892 246.169 46.8275 245.944 46.8275C245.712 46.8275 245.523 46.9001 245.378 47.0451C245.233 47.1866 245.16 47.4079 245.16 47.7089H245.117V47.0887C245.168 46.8638 245.28 46.6897 245.454 46.5663C245.628 46.443 245.833 46.3813 246.069 46.3813C246.395 46.3813 246.648 46.4757 246.825 46.6643C247.007 46.8529 247.097 47.1304 247.097 47.4967V49.3086H246.608V47.5512ZM248.987 49.3684C248.762 49.3684 248.559 49.3104 248.378 49.1943C248.196 49.0783 248.053 48.9078 247.948 48.6829C247.846 48.458 247.795 48.1878 247.795 47.8722C247.795 47.5566 247.846 47.2864 247.948 47.0615C248.053 46.8366 248.196 46.6679 248.378 46.5555C248.559 46.4394 248.762 46.3813 248.987 46.3813C249.277 46.3813 249.517 46.4738 249.705 46.6588C249.894 46.8438 249.99 47.1286 249.994 47.5131V48.2313C249.99 48.6158 249.894 48.9023 249.705 49.091C249.517 49.2759 249.277 49.3684 248.987 49.3684ZM249.085 48.9168C249.335 48.9168 249.537 48.828 249.689 48.6502C249.841 48.4725 249.917 48.2131 249.917 47.8722C249.917 47.5348 249.841 47.2773 249.689 47.0996C249.537 46.9218 249.335 46.833 249.085 46.833C248.824 46.833 248.626 46.9218 248.492 47.0996C248.361 47.2737 248.296 47.5312 248.296 47.8722C248.296 48.2168 248.361 48.4779 248.492 48.6557C248.626 48.8298 248.824 48.9168 249.085 48.9168ZM249.95 49.3086C249.939 49.1163 249.937 48.906 249.945 48.6774H249.917V47.056H249.934C249.919 46.9182 249.912 46.7894 249.912 46.6697V45.3584H250.402V48.6611C250.402 48.8679 250.407 49.0837 250.418 49.3086H249.95ZM252.394 49.3684C251.709 49.3684 251.286 49.0819 251.126 48.5088L251.551 48.3619C251.613 48.5686 251.714 48.721 251.856 48.8189C251.997 48.9132 252.182 48.9604 252.411 48.9604C252.617 48.9604 252.779 48.9205 252.895 48.8407C253.011 48.7572 253.069 48.6484 253.069 48.5142C253.069 48.4199 253.047 48.3437 253.004 48.2857C252.96 48.224 252.882 48.1751 252.77 48.1388C252.657 48.0989 252.499 48.0717 252.296 48.0572C251.923 48.0282 251.645 47.9502 251.464 47.8232C251.286 47.6926 251.197 47.5022 251.197 47.2519C251.197 47.0814 251.243 46.9309 251.333 46.8003C251.428 46.6661 251.558 46.5627 251.725 46.4902C251.892 46.4176 252.086 46.3813 252.307 46.3813C252.626 46.3813 252.886 46.4557 253.085 46.6044C253.285 46.7495 253.421 46.9581 253.493 47.2301L253.047 47.339C253 47.1503 252.911 47.0107 252.781 46.92C252.65 46.8293 252.483 46.784 252.28 46.784C252.099 46.784 251.952 46.8257 251.839 46.9091C251.73 46.9926 251.676 47.1014 251.676 47.2356C251.676 47.3226 251.696 47.3934 251.736 47.4478C251.779 47.4986 251.854 47.5403 251.959 47.5729C252.064 47.6019 252.211 47.6237 252.4 47.6382C252.813 47.6672 253.107 47.7507 253.281 47.8885C253.455 48.0227 253.542 48.2277 253.542 48.5033C253.542 48.7645 253.439 48.9749 253.232 49.1345C253.025 49.2905 252.746 49.3684 252.394 49.3684Z" fill="#001428" fill-opacity="0.5"/>
<circle cx="246.607" cy="41.7923" r="23.3045" stroke="#D2D2D2" stroke-width="4.76085"/>
<path d="M223.407 41.7926C223.407 54.605 233.793 64.9915 246.606 64.9915C259.418 64.9915 269.805 54.605 269.805 41.7926C269.805 28.9802 259.418 18.5937 246.606 18.5937" stroke="#24BC8F" stroke-width="4.76085" stroke-linecap="round"/>
<path d="M241.613 37.3694C241.613 37.7026 241.528 38.0053 241.358 38.2773C241.188 38.5426 240.936 38.75 240.603 38.8996C240.276 39.0493 239.885 39.1241 239.43 39.1241C238.974 39.1241 238.58 39.0493 238.246 38.8996C237.92 38.75 237.672 38.546 237.502 38.2875C237.338 38.0223 237.257 37.7162 237.257 37.3694C237.257 37.0293 237.342 36.7199 237.512 36.441C237.689 36.1554 237.94 35.9309 238.267 35.7677C238.6 35.5977 238.988 35.5126 239.43 35.5126C239.872 35.5126 240.256 35.5977 240.583 35.7677C240.916 35.9309 241.171 36.1554 241.348 36.441C241.524 36.7199 241.613 37.0293 241.613 37.3694ZM239.43 38.4508C239.756 38.4508 240.018 38.359 240.215 38.1753C240.419 37.9917 240.521 37.7502 240.521 37.451C240.521 37.1517 240.419 36.9103 240.215 36.7267C240.018 36.5362 239.756 36.441 239.43 36.441C239.11 36.441 238.848 36.5362 238.644 36.7267C238.447 36.9103 238.348 37.1517 238.348 37.451C238.348 37.7502 238.447 37.9917 238.644 38.1753C238.848 38.359 239.11 38.4508 239.43 38.4508ZM241.929 40.5421C241.929 40.9434 241.824 41.2937 241.613 41.5929C241.409 41.8854 241.12 42.1132 240.746 42.2765C240.372 42.4329 239.933 42.5111 239.43 42.5111C238.933 42.5111 238.495 42.4329 238.114 42.2765C237.74 42.12 237.451 41.8956 237.247 41.6031C237.042 41.3039 236.94 40.9502 236.94 40.5421C236.94 39.964 237.155 39.505 237.583 39.1649C238.018 38.8248 238.634 38.6548 239.43 38.6548C239.947 38.6548 240.392 38.733 240.766 38.8894C241.147 39.0459 241.436 39.2669 241.633 39.5526C241.831 39.8314 241.929 40.1613 241.929 40.5421ZM239.43 41.5623C239.865 41.5623 240.202 41.4603 240.44 41.2563C240.678 41.0522 240.797 40.7836 240.797 40.4503C240.797 40.1171 240.674 39.8484 240.43 39.6444C240.191 39.4335 239.858 39.3281 239.43 39.3281C239.001 39.3281 238.665 39.4301 238.42 39.6342C238.182 39.8382 238.063 40.1103 238.063 40.4503C238.063 40.7836 238.182 41.0522 238.42 41.2563C238.665 41.4603 239.001 41.5623 239.43 41.5623ZM245.288 42.5111C244.444 42.5111 243.802 42.205 243.36 41.5929C242.918 40.9808 242.697 40.1205 242.697 39.0119C242.697 37.9033 242.918 37.0429 243.36 36.4308C243.802 35.8119 244.444 35.5024 245.288 35.5024C246.131 35.5024 246.774 35.8085 247.216 36.4206C247.658 37.0327 247.879 37.8965 247.879 39.0119C247.879 40.1205 247.658 40.9808 247.216 41.5929C246.774 42.205 246.131 42.5111 245.288 42.5111ZM245.288 41.4909C245.601 41.4909 245.863 41.4059 246.073 41.2359C246.284 41.0658 246.441 40.7972 246.543 40.4299C246.651 40.0627 246.706 39.59 246.706 39.0119C246.706 38.427 246.651 37.9509 246.543 37.5836C246.441 37.2163 246.284 36.9477 246.073 36.7777C245.863 36.6076 245.601 36.5226 245.288 36.5226C244.975 36.5226 244.713 36.6076 244.502 36.7777C244.291 36.9477 244.132 37.2163 244.023 37.5836C243.921 37.9441 243.87 38.4202 243.87 39.0119C243.87 39.59 243.921 40.0627 244.023 40.4299C244.132 40.7972 244.291 41.0658 244.502 41.2359C244.713 41.4059 244.975 41.4909 245.288 41.4909ZM253.645 35.6249H254.594L250.258 42.3887H249.31L253.645 35.6249ZM250.054 39.0731C249.578 39.0731 249.211 38.9167 248.952 38.6038C248.701 38.2841 248.575 37.8523 248.575 37.3082C248.575 36.7641 248.701 36.3356 248.952 36.0227C249.211 35.7031 249.578 35.5432 250.054 35.5432C250.53 35.5432 250.894 35.6997 251.146 36.0125C251.404 36.3254 251.534 36.7573 251.534 37.3082C251.534 37.8591 251.404 38.2909 251.146 38.6038C250.894 38.9167 250.53 39.0731 250.054 39.0731ZM250.054 38.2977C250.238 38.2977 250.381 38.2195 250.483 38.0631C250.592 37.9067 250.646 37.655 250.646 37.3082C250.646 36.9613 250.592 36.7097 250.483 36.5532C250.381 36.3968 250.238 36.3186 250.054 36.3186C249.667 36.3186 249.473 36.6484 249.473 37.3082C249.473 37.6618 249.524 37.9169 249.626 38.0733C249.728 38.2229 249.871 38.2977 250.054 38.2977ZM253.829 42.4601C253.353 42.4601 252.986 42.3037 252.727 41.9908C252.476 41.6711 252.35 41.2393 252.35 40.6952C252.35 40.1511 252.476 39.7226 252.727 39.4097C252.986 39.0901 253.353 38.9303 253.829 38.9303C254.305 38.9303 254.669 39.0867 254.921 39.3995C255.179 39.7124 255.308 40.1443 255.308 40.6952C255.308 41.2461 255.179 41.6779 254.921 41.9908C254.669 42.3037 254.305 42.4601 253.829 42.4601ZM253.829 41.6847C254.013 41.6847 254.155 41.6065 254.257 41.4501C254.366 41.2937 254.421 41.042 254.421 40.6952C254.421 40.3483 254.366 40.0967 254.257 39.9402C254.155 39.7838 254.013 39.7056 253.829 39.7056C253.441 39.7056 253.247 40.0355 253.247 40.6952C253.247 41.0488 253.295 41.3039 253.39 41.4603C253.492 41.6099 253.639 41.6847 253.829 41.6847Z" fill="#001428"/>
<rect x="22.0312" y="9.76758" width="40.7131" height="8.35817" rx="1.06936" fill="#F5EFD7"/>
<path d="M25.643 12.8197H25.9863L26.7947 14.9467H26.4739L25.9478 13.5126C25.9157 13.4271 25.8836 13.3341 25.8515 13.2335C25.8216 13.1309 25.7959 13.0389 25.7745 12.9576H25.8355C25.8162 13.0389 25.7917 13.1255 25.7617 13.2175C25.7339 13.3095 25.7018 13.4078 25.6655 13.5126L25.1361 14.9467H24.8314L25.643 12.8197ZM25.2228 14.1286H26.3969V14.382H25.2228V14.1286ZM27.1177 13.6346C27.1177 13.5041 27.1135 13.3768 27.1049 13.2528H27.384C27.3904 13.3661 27.3926 13.4902 27.3904 13.6249H27.4065V14.5809H27.3936C27.4022 14.6579 27.4065 14.7349 27.4065 14.8119V15.5722H27.1177V13.6346ZM27.9519 14.9819C27.7829 14.9819 27.6417 14.9274 27.5284 14.8183C27.4172 14.7071 27.3605 14.5382 27.3584 14.3115V13.888C27.3605 13.6613 27.4172 13.4934 27.5284 13.3843C27.6417 13.2752 27.7829 13.2207 27.9519 13.2207C28.0845 13.2207 28.2042 13.2549 28.3112 13.3234C28.4181 13.3897 28.5015 13.4891 28.5614 13.6217C28.6234 13.7543 28.6544 13.9137 28.6544 14.0997C28.6544 14.2858 28.6234 14.4451 28.5614 14.5777C28.5015 14.7103 28.4181 14.8108 28.3112 14.8793C28.2042 14.9477 28.0845 14.9819 27.9519 14.9819ZM27.8941 14.7157C28.0502 14.7157 28.1668 14.6643 28.2438 14.5617C28.3208 14.4569 28.3593 14.3029 28.3593 14.0997C28.3593 13.8987 28.3208 13.7468 28.2438 13.6442C28.1668 13.5394 28.0502 13.487 27.8941 13.487C27.7465 13.487 27.6278 13.5394 27.538 13.6442C27.4503 13.749 27.4065 13.9008 27.4065 14.0997C27.4065 14.3008 27.4503 14.4537 27.538 14.5585C27.6278 14.6633 27.7465 14.7157 27.8941 14.7157ZM29.0977 13.6346C29.0977 13.5041 29.0935 13.3768 29.0849 13.2528H29.364C29.3704 13.3661 29.3726 13.4902 29.3704 13.6249H29.3865V14.5809H29.3736C29.3822 14.6579 29.3865 14.7349 29.3865 14.8119V15.5722H29.0977V13.6346ZM29.9318 14.9819C29.7629 14.9819 29.6217 14.9274 29.5084 14.8183C29.3972 14.7071 29.3405 14.5382 29.3383 14.3115V13.888C29.3405 13.6613 29.3972 13.4934 29.5084 13.3843C29.6217 13.2752 29.7629 13.2207 29.9318 13.2207C30.0644 13.2207 30.1842 13.2549 30.2911 13.3234C30.3981 13.3897 30.4815 13.4891 30.5414 13.6217C30.6034 13.7543 30.6344 13.9137 30.6344 14.0997C30.6344 14.2858 30.6034 14.4451 30.5414 14.5777C30.4815 14.7103 30.3981 14.8108 30.2911 14.8793C30.1842 14.9477 30.0644 14.9819 29.9318 14.9819ZM29.8741 14.7157C30.0302 14.7157 30.1468 14.6643 30.2238 14.5617C30.3008 14.4569 30.3393 14.3029 30.3393 14.0997C30.3393 13.8987 30.3008 13.7468 30.2238 13.6442C30.1468 13.5394 30.0302 13.487 29.8741 13.487C29.7265 13.487 29.6078 13.5394 29.518 13.6442C29.4303 13.749 29.3865 13.9008 29.3865 14.0997C29.3865 14.3008 29.4303 14.4537 29.518 14.5585C29.6078 14.6633 29.7265 14.7157 29.8741 14.7157ZM31.344 13.6474C31.3697 13.5126 31.4328 13.4078 31.5333 13.333C31.6359 13.2581 31.7557 13.2207 31.8926 13.2207H31.9182V13.5159H31.8477C31.6915 13.5159 31.5718 13.5543 31.4884 13.6313C31.4071 13.7083 31.3665 13.8377 31.3665 14.0195H31.344V13.6474ZM31.0777 13.6346C31.0777 13.4955 31.0734 13.3683 31.0649 13.2528H31.344C31.3525 13.3597 31.3568 13.4667 31.3568 13.5736H31.3665V14.9467H31.0777V13.6346ZM32.8728 14.9819C32.7209 14.9819 32.584 14.9477 32.4621 14.8793C32.3402 14.8087 32.2451 14.7071 32.1766 14.5745C32.1082 14.4419 32.074 14.2837 32.074 14.0997C32.074 13.9158 32.1082 13.7586 32.1766 13.6281C32.2451 13.4955 32.3402 13.395 32.4621 13.3266C32.584 13.256 32.7209 13.2207 32.8728 13.2207C33.0268 13.2207 33.1636 13.256 33.2834 13.3266C33.4032 13.395 33.4973 13.4955 33.5657 13.6281C33.6342 13.7586 33.6684 13.9158 33.6684 14.0997C33.6684 14.2837 33.6342 14.4419 33.5657 14.5745C33.4973 14.7071 33.4032 14.8087 33.2834 14.8793C33.1636 14.9477 33.0268 14.9819 32.8728 14.9819ZM32.8728 14.7221C33.0332 14.7221 33.1561 14.6697 33.2417 14.5649C33.3294 14.4601 33.3732 14.305 33.3732 14.0997C33.3732 13.8944 33.3305 13.7393 33.2449 13.6346C33.1594 13.5298 33.0353 13.4774 32.8728 13.4774C32.7124 13.4774 32.5883 13.5308 32.5006 13.6378C32.4151 13.7426 32.3723 13.8965 32.3723 14.0997C32.3723 14.305 32.4151 14.4601 32.5006 14.5649C32.5883 14.6697 32.7124 14.7221 32.8728 14.7221ZM33.8189 13.2528H34.1333L34.4862 14.2794C34.5525 14.4761 34.6038 14.6504 34.6401 14.8023H34.5952C34.6316 14.6611 34.6851 14.4868 34.7556 14.2794L35.1085 13.2528H35.4101L34.8005 14.9467H34.4284L33.8189 13.2528ZM36.1032 14.9819C35.9428 14.9819 35.8134 14.9392 35.715 14.8536C35.6188 14.7681 35.5706 14.6569 35.5706 14.52C35.5706 14.3831 35.6123 14.2719 35.6958 14.1863C35.7792 14.1008 35.9171 14.0366 36.1096 13.9939L36.6935 13.8623V14.0741L36.1641 14.1928C36.0551 14.2184 35.9759 14.2558 35.9267 14.305C35.8775 14.3521 35.8529 14.4141 35.8529 14.4911C35.8529 14.5681 35.8797 14.6291 35.9332 14.674C35.9866 14.7167 36.0593 14.7381 36.1513 14.7381C36.239 14.7381 36.3213 14.7189 36.3983 14.6804C36.4753 14.6419 36.5384 14.5809 36.5876 14.4975C36.6368 14.4141 36.6614 14.3104 36.6614 14.1863H36.6999V14.4847C36.6742 14.6515 36.6058 14.7766 36.4946 14.86C36.3834 14.9413 36.2529 14.9819 36.1032 14.9819ZM36.9565 14.9627C36.871 14.9627 36.8025 14.9381 36.7512 14.8889C36.702 14.8376 36.6774 14.7659 36.6774 14.674V14.6002H36.6614V13.8944C36.6614 13.7554 36.6293 13.6495 36.5651 13.5768C36.501 13.502 36.3994 13.4645 36.2604 13.4645C36.0123 13.4645 35.8754 13.58 35.8497 13.811L35.5899 13.7629C35.6113 13.6003 35.6786 13.4699 35.792 13.3715C35.9075 13.271 36.069 13.2207 36.2764 13.2207C36.4903 13.2207 36.6528 13.2817 36.764 13.4036C36.8753 13.5255 36.9309 13.6869 36.9309 13.888V14.6002C36.9309 14.6494 36.9416 14.6857 36.9629 14.7093C36.9843 14.7306 37.0153 14.7413 37.056 14.7413C37.0945 14.7392 37.1319 14.7339 37.1683 14.7253V14.9017C37.1041 14.9424 37.0335 14.9627 36.9565 14.9627ZM37.5033 12.6176H37.792V14.9467H37.5033V12.6176ZM39.3224 12.8197V14.9467H39.0144V12.8197H39.3224ZM40.2842 12.8197V14.9467H39.9762V12.8197H40.2842ZM40.6916 12.8197C41.0316 12.8197 41.2947 12.9127 41.4808 13.0988C41.669 13.2849 41.7631 13.5469 41.7631 13.8848C41.7631 14.2227 41.6701 14.4847 41.484 14.6708C41.2979 14.8547 41.0338 14.9467 40.6916 14.9467H40.0885V14.674H40.6531C40.9204 14.674 41.1193 14.6098 41.2498 14.4815C41.3803 14.351 41.4455 14.1511 41.4455 13.8816C41.4455 13.6142 41.3803 13.4164 41.2498 13.2881C41.1193 13.1576 40.9204 13.0924 40.6531 13.0924H40.0885V12.8197H40.6916ZM42.3722 14.9691C42.3038 14.9691 42.2492 14.9488 42.2086 14.9082C42.1679 14.8675 42.1476 14.8141 42.1476 14.7478C42.1476 14.6815 42.1679 14.6291 42.2086 14.5906C42.2492 14.5521 42.3038 14.5328 42.3722 14.5328C42.4385 14.5328 42.4909 14.5521 42.5294 14.5906C42.5679 14.6291 42.5871 14.6815 42.5871 14.7478C42.5871 14.8141 42.5679 14.8675 42.5294 14.9082C42.4909 14.9488 42.4385 14.9691 42.3722 14.9691ZM42.3722 13.6538C42.3038 13.6538 42.2492 13.6346 42.2086 13.5961C42.1679 13.5554 42.1476 13.502 42.1476 13.4356C42.1476 13.3693 42.1679 13.317 42.2086 13.2785C42.2492 13.24 42.3038 13.2207 42.3722 13.2207C42.4385 13.2207 42.4909 13.24 42.5294 13.2785C42.5679 13.317 42.5871 13.3693 42.5871 13.4356C42.5871 13.502 42.5679 13.5554 42.5294 13.5961C42.4909 13.6346 42.4385 13.6538 42.3722 13.6538ZM44.9868 13.3619C44.9868 13.4624 44.9611 13.5543 44.9098 13.6378C44.8606 13.7212 44.7858 13.7864 44.6852 13.8335C44.5869 13.8805 44.4682 13.904 44.3291 13.904C44.1901 13.904 44.0714 13.8816 43.9731 13.8367C43.8747 13.7896 43.7998 13.7254 43.7485 13.6442C43.6993 13.5629 43.6747 13.4688 43.6747 13.3619C43.6747 13.2592 43.7004 13.164 43.7517 13.0763C43.8052 12.9887 43.8811 12.9181 43.9795 12.8646C44.08 12.8111 44.1965 12.7844 44.3291 12.7844C44.4639 12.7844 44.5804 12.8111 44.6788 12.8646C44.7793 12.9181 44.8553 12.9887 44.9066 13.0763C44.9601 13.164 44.9868 13.2592 44.9868 13.3619ZM44.3291 13.7308C44.4404 13.7308 44.5302 13.6987 44.5986 13.6346C44.6671 13.5704 44.7013 13.4859 44.7013 13.3811C44.7013 13.2763 44.6671 13.1918 44.5986 13.1277C44.5302 13.0635 44.4404 13.0314 44.3291 13.0314C44.2179 13.0314 44.1281 13.0635 44.0597 13.1277C43.9912 13.1918 43.957 13.2763 43.957 13.3811C43.957 13.4859 43.9912 13.5704 44.0597 13.6346C44.1281 13.6987 44.2179 13.7308 44.3291 13.7308ZM45.0895 14.3692C45.0895 14.4911 45.0574 14.5991 44.9932 14.6932C44.9312 14.7852 44.8424 14.8568 44.7269 14.9082C44.6115 14.9573 44.4789 14.9819 44.3291 14.9819C44.1794 14.9819 44.0468 14.9573 43.9313 14.9082C43.8159 14.8568 43.726 14.7852 43.6619 14.6932C43.5998 14.6013 43.5688 14.4932 43.5688 14.3692C43.5688 14.1874 43.6351 14.0441 43.7677 13.9393C43.9003 13.8324 44.0875 13.7789 44.3291 13.7789C44.4896 13.7789 44.6264 13.8035 44.7398 13.8527C44.8553 13.8998 44.9419 13.9682 44.9996 14.058C45.0595 14.1457 45.0895 14.2494 45.0895 14.3692ZM44.3291 14.7317C44.4789 14.7317 44.5943 14.6964 44.6756 14.6258C44.759 14.5553 44.8007 14.4612 44.8007 14.3435C44.8007 14.228 44.759 14.135 44.6756 14.0644C44.5943 13.9917 44.4789 13.9554 44.3291 13.9554C44.1794 13.9554 44.0629 13.9906 43.9795 14.0612C43.8982 14.1318 43.8576 14.2259 43.8576 14.3435C43.8576 14.4612 43.8993 14.5553 43.9827 14.6258C44.0661 14.6964 44.1816 14.7317 44.3291 14.7317ZM46.1296 12.7844C46.2878 12.7844 46.429 12.8197 46.553 12.8903C46.6771 12.9609 46.7744 13.071 46.845 13.2207C46.9177 13.3704 46.9541 13.5629 46.9541 13.7982C46.9541 14.0591 46.9166 14.2783 46.8418 14.4558C46.7691 14.6333 46.6675 14.7659 46.537 14.8536C46.4065 14.9392 46.2568 14.9819 46.0879 14.9819C45.9211 14.9819 45.7778 14.9434 45.658 14.8665C45.5382 14.7895 45.4409 14.6782 45.3661 14.5328L45.6035 14.4109C45.6526 14.5178 45.7189 14.598 45.8024 14.6515C45.8858 14.7028 45.9852 14.7285 46.1007 14.7285C46.2868 14.7285 46.4354 14.6483 46.5466 14.4879C46.66 14.3275 46.7124 14.0687 46.7038 13.7115H46.6974C46.6675 13.8548 46.598 13.9682 46.4889 14.0516C46.3798 14.135 46.2472 14.1767 46.0911 14.1767C45.9563 14.1767 45.8344 14.1489 45.7254 14.0933C45.6163 14.0377 45.5307 13.9586 45.4687 13.8559C45.4088 13.7511 45.3789 13.6281 45.3789 13.487C45.3789 13.3415 45.412 13.2164 45.4783 13.1116C45.5446 13.0068 45.6345 12.9266 45.7478 12.871C45.8633 12.8133 45.9906 12.7844 46.1296 12.7844ZM46.1296 13.0411C45.9927 13.0411 45.8804 13.0817 45.7927 13.163C45.7072 13.2442 45.6644 13.3512 45.6644 13.4838C45.6644 13.6185 45.7072 13.7265 45.7927 13.8078C45.8804 13.8891 45.9927 13.9297 46.1296 13.9297C46.2643 13.9297 46.3755 13.8891 46.4632 13.8078C46.5509 13.7244 46.5948 13.6164 46.5948 13.4838C46.5948 13.3512 46.5509 13.2442 46.4632 13.163C46.3755 13.0817 46.2643 13.0411 46.1296 13.0411ZM47.9717 12.7844C48.13 12.7844 48.2711 12.8197 48.3952 12.8903C48.5192 12.9609 48.6165 13.071 48.6871 13.2207C48.7598 13.3704 48.7962 13.5629 48.7962 13.7982C48.7962 14.0591 48.7588 14.2783 48.6839 14.4558C48.6112 14.6333 48.5096 14.7659 48.3791 14.8536C48.2487 14.9392 48.099 14.9819 47.93 14.9819C47.7632 14.9819 47.6199 14.9434 47.5001 14.8665C47.3804 14.7895 47.2831 14.6782 47.2082 14.5328L47.4456 14.4109C47.4948 14.5178 47.5611 14.598 47.6445 14.6515C47.7279 14.7028 47.8274 14.7285 47.9428 14.7285C48.1289 14.7285 48.2776 14.6483 48.3888 14.4879C48.5021 14.3275 48.5545 14.0687 48.546 13.7115H48.5396C48.5096 13.8548 48.4401 13.9682 48.331 14.0516C48.222 14.135 48.0894 14.1767 47.9332 14.1767C47.7985 14.1767 47.6766 14.1489 47.5675 14.0933C47.4584 14.0377 47.3729 13.9586 47.3109 13.8559C47.251 13.7511 47.221 13.6281 47.221 13.487C47.221 13.3415 47.2542 13.2164 47.3205 13.1116C47.3868 13.0068 47.4766 12.9266 47.59 12.871C47.7054 12.8133 47.8327 12.7844 47.9717 12.7844ZM47.9717 13.0411C47.8348 13.0411 47.7226 13.0817 47.6349 13.163C47.5493 13.2442 47.5065 13.3512 47.5065 13.4838C47.5065 13.6185 47.5493 13.7265 47.6349 13.8078C47.7226 13.8891 47.8348 13.9297 47.9717 13.9297C48.1065 13.9297 48.2177 13.8891 48.3054 13.8078C48.393 13.7244 48.4369 13.6164 48.4369 13.4838C48.4369 13.3512 48.393 13.2442 48.3054 13.163C48.2177 13.0817 48.1065 13.0411 47.9717 13.0411ZM49.8973 14.9819C49.739 14.9819 49.5979 14.9467 49.4738 14.8761C49.3498 14.8055 49.2514 14.6954 49.1787 14.5456C49.1081 14.3959 49.0728 14.2035 49.0728 13.9682C49.0728 13.7073 49.1092 13.4891 49.1819 13.3137C49.2567 13.1362 49.3594 13.0036 49.4898 12.9159C49.6203 12.8283 49.77 12.7844 49.939 12.7844C50.1058 12.7844 50.2491 12.824 50.3689 12.9031C50.4886 12.9801 50.5859 13.0902 50.6608 13.2335L50.4234 13.3554C50.3742 13.2485 50.3079 13.1694 50.2245 13.118C50.1411 13.0646 50.0416 13.0378 49.9261 13.0378C49.7401 13.0378 49.5904 13.118 49.477 13.2785C49.3658 13.4389 49.3145 13.6987 49.323 14.058H49.3294C49.3594 13.9126 49.4289 13.7982 49.538 13.7148C49.647 13.6313 49.7796 13.5896 49.9358 13.5896C50.0705 13.5896 50.1924 13.6174 50.3015 13.673C50.4106 13.7287 50.495 13.8089 50.5549 13.9137C50.617 14.0163 50.648 14.1393 50.648 14.2826C50.648 14.4259 50.6148 14.5499 50.5485 14.6547C50.4822 14.7595 50.3913 14.8408 50.2758 14.8985C50.1625 14.9541 50.0363 14.9819 49.8973 14.9819ZM49.8973 14.7285C50.0341 14.7285 50.1454 14.6879 50.2309 14.6066C50.3186 14.5253 50.3624 14.4173 50.3624 14.2826C50.3624 14.1478 50.3186 14.0398 50.2309 13.9586C50.1454 13.8773 50.0341 13.8367 49.8973 13.8367C49.7625 13.8367 49.6513 13.8784 49.5636 13.9618C49.4759 14.043 49.4321 14.15 49.4321 14.2826C49.4321 14.4152 49.4759 14.5232 49.5636 14.6066C49.6513 14.6879 49.7625 14.7285 49.8973 14.7285ZM51.7105 14.9819C51.5266 14.9819 51.3715 14.9402 51.2454 14.8568C51.1213 14.7734 51.0294 14.6558 50.9695 14.5039L51.2197 14.3852C51.2646 14.5007 51.3266 14.5874 51.4058 14.6451C51.487 14.7007 51.5886 14.7285 51.7105 14.7285C51.8496 14.7285 51.9586 14.6879 52.0378 14.6066C52.119 14.5232 52.1597 14.4109 52.1597 14.2698C52.1597 14.1286 52.119 14.0174 52.0378 13.9361C51.9586 13.8527 51.8474 13.811 51.7041 13.811C51.6057 13.811 51.517 13.8313 51.4378 13.8719C51.3587 13.9104 51.2956 13.9661 51.2486 14.0388L51.0304 13.9714L51.1748 12.8197H52.3425V13.0635H51.255L51.4218 12.8967L51.3159 13.7372H51.3224C51.3651 13.6902 51.425 13.6495 51.502 13.6153C51.579 13.5811 51.6678 13.564 51.7683 13.564C51.9009 13.564 52.0196 13.5939 52.1244 13.6538C52.2292 13.7137 52.3104 13.7971 52.3682 13.904C52.4259 14.011 52.4548 14.1329 52.4548 14.2698C52.4548 14.4066 52.4238 14.5296 52.3618 14.6387C52.3019 14.7456 52.2153 14.8301 52.1019 14.8921C51.9907 14.952 51.8602 14.9819 51.7105 14.9819ZM54.1975 13.3619C54.1975 13.4624 54.1718 13.5543 54.1205 13.6378C54.0713 13.7212 53.9965 13.7864 53.8959 13.8335C53.7976 13.8805 53.6789 13.904 53.5398 13.904C53.4008 13.904 53.2821 13.8816 53.1837 13.8367C53.0854 13.7896 53.0105 13.7254 52.9592 13.6442C52.91 13.5629 52.8854 13.4688 52.8854 13.3619C52.8854 13.2592 52.9111 13.164 52.9624 13.0763C53.0159 12.9887 53.0918 12.9181 53.1902 12.8646C53.2907 12.8111 53.4072 12.7844 53.5398 12.7844C53.6746 12.7844 53.7911 12.8111 53.8895 12.8646C53.99 12.9181 54.066 12.9887 54.1173 13.0763C54.1708 13.164 54.1975 13.2592 54.1975 13.3619ZM53.5398 13.7308C53.6511 13.7308 53.7409 13.6987 53.8093 13.6346C53.8778 13.5704 53.912 13.4859 53.912 13.3811C53.912 13.2763 53.8778 13.1918 53.8093 13.1277C53.7409 13.0635 53.6511 13.0314 53.5398 13.0314C53.4286 13.0314 53.3388 13.0635 53.2704 13.1277C53.2019 13.1918 53.1677 13.2763 53.1677 13.3811C53.1677 13.4859 53.2019 13.5704 53.2704 13.6346C53.3388 13.6987 53.4286 13.7308 53.5398 13.7308ZM54.3002 14.3692C54.3002 14.4911 54.2681 14.5991 54.2039 14.6932C54.1419 14.7852 54.0531 14.8568 53.9376 14.9082C53.8222 14.9573 53.6896 14.9819 53.5398 14.9819C53.3901 14.9819 53.2575 14.9573 53.142 14.9082C53.0266 14.8568 52.9367 14.7852 52.8726 14.6932C52.8105 14.6013 52.7795 14.4932 52.7795 14.3692C52.7795 14.1874 52.8458 14.0441 52.9784 13.9393C53.111 13.8324 53.2982 13.7789 53.5398 13.7789C53.7002 13.7789 53.8371 13.8035 53.9505 13.8527C54.066 13.8998 54.1526 13.9682 54.2103 14.058C54.2702 14.1457 54.3002 14.2494 54.3002 14.3692ZM53.5398 14.7317C53.6896 14.7317 53.805 14.6964 53.8863 14.6258C53.9697 14.5553 54.0114 14.4612 54.0114 14.3435C54.0114 14.228 53.9697 14.135 53.8863 14.0644C53.805 13.9917 53.6896 13.9554 53.5398 13.9554C53.3901 13.9554 53.2736 13.9906 53.1902 14.0612C53.1089 14.1318 53.0683 14.2259 53.0683 14.3435C53.0683 14.4612 53.11 14.5553 53.1934 14.6258C53.2768 14.6964 53.3923 14.7317 53.5398 14.7317ZM55.3724 14.9819C55.1713 14.9819 55.0056 14.9381 54.8751 14.8504C54.7446 14.7606 54.6538 14.6397 54.6024 14.4879L54.8462 14.3788C54.889 14.4965 54.9542 14.5852 55.0419 14.6451C55.1296 14.7028 55.2398 14.7317 55.3724 14.7317C55.5157 14.7317 55.6237 14.6996 55.6964 14.6355C55.7712 14.5713 55.8087 14.4804 55.8087 14.3628C55.8087 14.2452 55.7712 14.1532 55.6964 14.0869C55.6237 14.0206 55.5157 13.9874 55.3724 13.9874H55.1285V13.8142H55.4397C55.6515 13.8142 55.814 13.8634 55.9274 13.9618C56.0428 14.058 56.1006 14.196 56.1006 14.3756C56.1006 14.4975 56.0707 14.6045 56.0108 14.6964C55.9509 14.7863 55.8653 14.8568 55.7541 14.9082C55.645 14.9573 55.5178 14.9819 55.3724 14.9819ZM55.1285 13.7597H55.3339C55.4536 13.7597 55.552 13.7287 55.629 13.6666C55.7081 13.6046 55.7477 13.5126 55.7477 13.3907C55.7477 13.2838 55.7124 13.1983 55.6418 13.1341C55.5713 13.0678 55.4772 13.0346 55.3595 13.0346C55.244 13.0346 55.1489 13.0667 55.074 13.1309C55.0013 13.195 54.951 13.2838 54.9232 13.3972L54.673 13.3202C54.7158 13.1576 54.7981 13.0282 54.92 12.932C55.0441 12.8336 55.1959 12.7844 55.3756 12.7844C55.5103 12.7844 55.6269 12.8101 55.7252 12.8614C55.8258 12.9127 55.9028 12.9833 55.9562 13.0731C56.0097 13.163 56.0364 13.2635 56.0364 13.3747C56.0364 13.4838 56.0065 13.5789 55.9466 13.6602C55.8867 13.7393 55.8087 13.8003 55.7124 13.8431C55.6183 13.8859 55.5199 13.9072 55.4173 13.9072H55.1285V13.7597ZM56.5087 14.783C56.8894 14.535 57.1707 14.305 57.3524 14.0933C57.5342 13.8794 57.6251 13.6773 57.6251 13.487C57.6251 13.348 57.5877 13.24 57.5128 13.163C57.438 13.086 57.3332 13.0475 57.1985 13.0475C57.0701 13.0475 56.9664 13.0849 56.8873 13.1598C56.8103 13.2346 56.7718 13.3351 56.7718 13.4613C56.7718 13.5233 56.7814 13.5811 56.8007 13.6346L56.5312 13.6891C56.5205 13.6591 56.5109 13.6239 56.5023 13.5832C56.4959 13.5404 56.4927 13.4998 56.4927 13.4613C56.4927 13.3309 56.5226 13.2143 56.5825 13.1116C56.6424 13.009 56.7258 12.9288 56.8327 12.871C56.9418 12.8133 57.0648 12.7844 57.2017 12.7844C57.3471 12.7844 57.4744 12.8144 57.5834 12.8742C57.6925 12.932 57.7759 13.0133 57.8337 13.118C57.8914 13.2228 57.9203 13.3426 57.9203 13.4774C57.9203 13.7083 57.8283 13.934 57.6444 14.1543C57.4605 14.3745 57.1974 14.5874 56.8552 14.7927L56.5087 14.783ZM56.5087 14.783L56.8327 14.7028H57.9812V14.9467H56.5087V14.783ZM59.0791 14.9819C58.8952 14.9819 58.7401 14.9402 58.6139 14.8568C58.4899 14.7734 58.3979 14.6558 58.338 14.5039L58.5883 14.3852C58.6332 14.5007 58.6952 14.5874 58.7743 14.6451C58.8556 14.7007 58.9572 14.7285 59.0791 14.7285C59.2181 14.7285 59.3272 14.6879 59.4063 14.6066C59.4876 14.5232 59.5282 14.4109 59.5282 14.2698C59.5282 14.1286 59.4876 14.0174 59.4063 13.9361C59.3272 13.8527 59.216 13.811 59.0727 13.811C58.9743 13.811 58.8855 13.8313 58.8064 13.8719C58.7273 13.9104 58.6642 13.9661 58.6171 14.0388L58.399 13.9714L58.5433 12.8197H59.7111V13.0635H58.6235L58.7904 12.8967L58.6845 13.7372H58.6909C58.7337 13.6902 58.7936 13.6495 58.8706 13.6153C58.9476 13.5811 59.0363 13.564 59.1368 13.564C59.2694 13.564 59.3881 13.5939 59.4929 13.6538C59.5977 13.7137 59.679 13.7971 59.7367 13.904C59.7945 14.011 59.8234 14.1329 59.8234 14.2698C59.8234 14.4066 59.7924 14.5296 59.7303 14.6387C59.6704 14.7456 59.5838 14.8301 59.4705 14.8921C59.3593 14.952 59.2288 14.9819 59.0791 14.9819Z" fill="#001428"/>
</svg>
