<svg width="370" height="400" viewBox="0 0 370 400" fill="none" xmlns="http://www.w3.org/2000/svg">
<rect width="370" height="400" fill="#0A122E"/>
<g filter="url(#filter0_dd_1200_4117)">
<path fill-rule="evenodd" clip-rule="evenodd" d="M185 347.5C266.462 347.5 332.5 281.462 332.5 200C332.5 118.538 266.462 52.5 185 52.5C103.538 52.5 37.5 118.538 37.5 200C37.5 281.462 103.538 347.5 185 347.5ZM185 330.97C112.667 330.97 54.0302 272.333 54.0302 200C54.0302 127.667 112.667 69.0302 185 69.0302C257.333 69.0302 315.97 127.667 315.97 200C315.97 272.333 257.333 330.97 185 330.97Z" fill="#FDB4AA"/>
<path fill-rule="evenodd" clip-rule="evenodd" d="M44.7195 154.42C24.973 215.193 46.6051 281.77 98.302 319.33C149.999 356.89 220.002 356.89 271.699 319.33C323.396 281.77 345.028 215.193 325.281 154.42C305.535 93.6467 248.901 52.5 185 52.5C180.436 52.5 176.735 56.2004 176.735 60.7651C176.735 65.3298 180.436 69.0302 185 69.0302C241.74 69.0302 292.027 105.566 309.56 159.528C327.094 213.491 307.886 272.606 261.982 305.957C216.079 339.307 153.921 339.307 108.018 305.957C62.1149 272.606 42.9071 213.491 60.4406 159.528C61.8512 155.187 59.4753 150.524 55.1341 149.113C50.7928 147.703 46.13 150.079 44.7195 154.42Z" fill="#FC6956"/>
</g>
<path d="M136.17 199L155.465 160.818V160.5H132.988V152.455H165.647V160.614L146.329 199H136.17ZM187.966 199.636C184.754 199.636 181.891 199.045 179.376 197.864C176.876 196.682 174.891 195.053 173.421 192.977C171.951 190.902 171.186 188.523 171.126 185.841H180.671C180.777 187.644 181.535 189.106 182.944 190.227C184.353 191.348 186.027 191.909 187.966 191.909C189.512 191.909 190.876 191.568 192.057 190.886C193.254 190.189 194.186 189.227 194.853 188C195.535 186.758 195.876 185.333 195.876 183.727C195.876 182.091 195.527 180.652 194.83 179.409C194.148 178.167 193.201 177.197 191.989 176.5C190.777 175.803 189.391 175.447 187.83 175.432C186.466 175.432 185.141 175.712 183.853 176.273C182.58 176.833 181.588 177.598 180.876 178.568L172.126 177L174.33 152.455H202.785V160.5H182.444L181.239 172.159H181.512C182.33 171.008 183.565 170.053 185.216 169.295C186.868 168.538 188.716 168.159 190.762 168.159C193.565 168.159 196.065 168.818 198.262 170.136C200.459 171.455 202.194 173.265 203.466 175.568C204.739 177.856 205.368 180.492 205.353 183.477C205.368 186.614 204.641 189.402 203.171 191.841C201.716 194.265 199.679 196.174 197.057 197.568C194.451 198.947 191.421 199.636 187.966 199.636Z" fill="#F5F6FF"/>
<path d="M224.984 184.091V182.71C224.984 181.662 225.206 180.699 225.649 179.821C226.101 178.935 226.753 178.227 227.605 177.699C228.466 177.162 229.514 176.893 230.75 176.893C232.003 176.893 233.055 177.158 233.908 177.686C234.768 178.214 235.416 178.922 235.851 179.808C236.294 180.686 236.516 181.653 236.516 182.71V184.091C236.516 185.139 236.294 186.107 235.851 186.993C235.408 187.871 234.756 188.574 233.895 189.102C233.034 189.639 231.986 189.908 230.75 189.908C229.497 189.908 228.445 189.639 227.592 189.102C226.74 188.574 226.092 187.871 225.649 186.993C225.206 186.107 224.984 185.139 224.984 184.091ZM228.705 182.71V184.091C228.705 184.696 228.849 185.267 229.139 185.804C229.438 186.341 229.974 186.609 230.75 186.609C231.526 186.609 232.054 186.345 232.335 185.817C232.625 185.288 232.77 184.713 232.77 184.091V182.71C232.77 182.088 232.634 181.509 232.361 180.972C232.088 180.435 231.551 180.166 230.75 180.166C229.983 180.166 229.45 180.435 229.152 180.972C228.854 181.509 228.705 182.088 228.705 182.71ZM211.548 169.108V167.727C211.548 166.67 211.774 165.703 212.226 164.825C212.678 163.939 213.33 163.232 214.182 162.703C215.043 162.175 216.082 161.911 217.301 161.911C218.563 161.911 219.619 162.175 220.472 162.703C221.324 163.232 221.972 163.939 222.415 164.825C222.858 165.703 223.08 166.67 223.08 167.727V169.108C223.08 170.165 222.854 171.132 222.402 172.01C221.959 172.888 221.307 173.591 220.446 174.119C219.594 174.639 218.545 174.899 217.301 174.899C216.057 174.899 215.004 174.635 214.143 174.107C213.291 173.57 212.643 172.866 212.2 171.997C211.766 171.119 211.548 170.156 211.548 169.108ZM215.294 167.727V169.108C215.294 169.73 215.439 170.305 215.729 170.834C216.027 171.362 216.551 171.626 217.301 171.626C218.085 171.626 218.618 171.362 218.899 170.834C219.189 170.305 219.334 169.73 219.334 169.108V167.727C219.334 167.105 219.197 166.526 218.925 165.989C218.652 165.452 218.111 165.183 217.301 165.183C216.543 165.183 216.018 165.456 215.729 166.001C215.439 166.547 215.294 167.122 215.294 167.727ZM213.236 189L231.236 162.818H234.585L216.585 189H213.236Z" fill="#F5F6FF"/>
<rect x="133" y="224.5" width="104" height="47" rx="23.5" fill="#0A122E"/>
<rect x="133" y="224.5" width="104" height="47" rx="23.5" stroke="#F5F6FF"/>
<path d="M158.085 254V242.364H160.193V252.233H165.318V254H158.085ZM170.864 254.17C170.011 254.17 169.273 253.983 168.648 253.608C168.023 253.233 167.538 252.708 167.193 252.034C166.852 251.36 166.682 250.572 166.682 249.67C166.682 248.769 166.852 247.979 167.193 247.301C167.538 246.623 168.023 246.097 168.648 245.722C169.273 245.347 170.011 245.159 170.864 245.159C171.716 245.159 172.455 245.347 173.08 245.722C173.705 246.097 174.188 246.623 174.528 247.301C174.873 247.979 175.045 248.769 175.045 249.67C175.045 250.572 174.873 251.36 174.528 252.034C174.188 252.708 173.705 253.233 173.08 253.608C172.455 253.983 171.716 254.17 170.864 254.17ZM170.875 252.523C171.337 252.523 171.723 252.396 172.034 252.142C172.345 251.884 172.576 251.54 172.727 251.108C172.883 250.676 172.96 250.195 172.96 249.665C172.96 249.131 172.883 248.648 172.727 248.216C172.576 247.78 172.345 247.434 172.034 247.176C171.723 246.919 171.337 246.79 170.875 246.79C170.402 246.79 170.008 246.919 169.693 247.176C169.383 247.434 169.15 247.78 168.994 248.216C168.843 248.648 168.767 249.131 168.767 249.665C168.767 250.195 168.843 250.676 168.994 251.108C169.15 251.54 169.383 251.884 169.693 252.142C170.008 252.396 170.402 252.523 170.875 252.523ZM177.773 257.273C177.492 257.273 177.233 257.25 176.994 257.205C176.759 257.163 176.572 257.114 176.432 257.057L176.909 255.455C177.208 255.542 177.475 255.583 177.71 255.58C177.945 255.576 178.152 255.502 178.33 255.358C178.511 255.218 178.665 254.983 178.79 254.653L178.966 254.182L175.801 245.273H177.983L179.994 251.864H180.085L182.102 245.273H184.29L180.795 255.057C180.633 255.519 180.417 255.915 180.148 256.244C179.879 256.578 179.549 256.831 179.159 257.006C178.773 257.184 178.311 257.273 177.773 257.273ZM187.974 254.176C187.421 254.176 186.923 254.078 186.48 253.881C186.041 253.68 185.692 253.384 185.435 252.994C185.181 252.604 185.054 252.123 185.054 251.551C185.054 251.059 185.145 250.652 185.327 250.33C185.509 250.008 185.757 249.75 186.071 249.557C186.385 249.364 186.74 249.218 187.134 249.119C187.531 249.017 187.942 248.943 188.366 248.898C188.878 248.845 189.293 248.797 189.611 248.756C189.929 248.71 190.16 248.642 190.304 248.551C190.452 248.456 190.526 248.311 190.526 248.114V248.08C190.526 247.652 190.399 247.32 190.145 247.085C189.891 246.85 189.526 246.733 189.048 246.733C188.545 246.733 188.145 246.843 187.849 247.062C187.558 247.282 187.361 247.542 187.259 247.841L185.338 247.568C185.49 247.038 185.74 246.595 186.088 246.239C186.437 245.879 186.863 245.61 187.366 245.432C187.87 245.25 188.427 245.159 189.037 245.159C189.457 245.159 189.876 245.208 190.293 245.307C190.709 245.405 191.09 245.568 191.435 245.795C191.779 246.019 192.056 246.324 192.264 246.71C192.476 247.097 192.582 247.58 192.582 248.159V254H190.605V252.801H190.537C190.412 253.044 190.236 253.271 190.009 253.483C189.785 253.691 189.503 253.86 189.162 253.989C188.825 254.114 188.429 254.176 187.974 254.176ZM188.509 252.665C188.921 252.665 189.279 252.583 189.582 252.42C189.885 252.254 190.118 252.034 190.281 251.761C190.448 251.489 190.531 251.191 190.531 250.869V249.841C190.467 249.894 190.357 249.943 190.202 249.989C190.05 250.034 189.88 250.074 189.69 250.108C189.501 250.142 189.313 250.172 189.128 250.199C188.942 250.225 188.781 250.248 188.645 250.267C188.338 250.309 188.063 250.377 187.821 250.472C187.579 250.566 187.387 250.699 187.247 250.869C187.107 251.036 187.037 251.252 187.037 251.517C187.037 251.896 187.175 252.182 187.452 252.375C187.728 252.568 188.08 252.665 188.509 252.665ZM196.707 242.364V254H194.651V242.364H196.707ZM203.18 245.273V246.864H198.163V245.273H203.18ZM199.402 243.182H201.459V251.375C201.459 251.652 201.5 251.864 201.584 252.011C201.671 252.155 201.785 252.254 201.925 252.307C202.065 252.36 202.22 252.386 202.391 252.386C202.519 252.386 202.637 252.377 202.743 252.358C202.853 252.339 202.936 252.322 202.993 252.307L203.339 253.915C203.23 253.953 203.072 253.994 202.868 254.04C202.667 254.085 202.421 254.112 202.129 254.119C201.614 254.134 201.15 254.057 200.737 253.886C200.324 253.712 199.997 253.443 199.754 253.08C199.516 252.716 199.398 252.261 199.402 251.716V243.182ZM206.179 257.273C205.899 257.273 205.639 257.25 205.401 257.205C205.166 257.163 204.978 257.114 204.838 257.057L205.315 255.455C205.615 255.542 205.882 255.583 206.116 255.58C206.351 255.576 206.558 255.502 206.736 255.358C206.918 255.218 207.071 254.983 207.196 254.653L207.372 254.182L204.207 245.273H206.389L208.401 251.864H208.491L210.509 245.273H212.696L209.202 255.057C209.039 255.519 208.823 255.915 208.554 256.244C208.285 256.578 207.955 256.831 207.565 257.006C207.179 257.184 206.717 257.273 206.179 257.273Z" fill="white"/>
<defs>
<filter id="filter0_dd_1200_4117" x="13.4902" y="44.5" width="343.02" height="343" filterUnits="userSpaceOnUse" color-interpolation-filters="sRGB">
<feFlood flood-opacity="0" result="BackgroundImageFix"/>
<feColorMatrix in="SourceAlpha" type="matrix" values="0 0 0 0 0 0 0 0 0 0 0 0 0 0 0 0 0 0 127 0" result="hardAlpha"/>
<feOffset dy="16"/>
<feGaussianBlur stdDeviation="12"/>
<feColorMatrix type="matrix" values="0 0 0 0 0.235294 0 0 0 0 0.270588 0 0 0 0 0.384314 0 0 0 0.1 0"/>
<feBlend mode="normal" in2="BackgroundImageFix" result="effect1_dropShadow_1200_4117"/>
<feColorMatrix in="SourceAlpha" type="matrix" values="0 0 0 0 0 0 0 0 0 0 0 0 0 0 0 0 0 0 127 0" result="hardAlpha"/>
<feOffset/>
<feGaussianBlur stdDeviation="0.5"/>
<feColorMatrix type="matrix" values="0 0 0 0 0.235294 0 0 0 0 0.270588 0 0 0 0 0.384314 0 0 0 0.05 0"/>
<feBlend mode="normal" in2="effect1_dropShadow_1200_4117" result="effect2_dropShadow_1200_4117"/>
<feBlend mode="normal" in="SourceGraphic" in2="effect2_dropShadow_1200_4117" result="shape"/>
</filter>
</defs>
</svg>
