<svg width="426" height="250" viewBox="0 0 426 250" fill="none" xmlns="http://www.w3.org/2000/svg">
<g clip-path="url(#clip0_8001_7032)">
<rect width="426" height="250" rx="8" fill="white"/>
<g opacity="0.8">
<g filter="url(#filter0_f_8001_7032)">
<ellipse cx="182.696" cy="215.568" rx="182.696" ry="215.568" transform="matrix(-0.999553 0.0299038 0.638573 -0.769561 358.777 139.006)" fill="#0043F2"/>
</g>
<g filter="url(#filter1_f_8001_7032)">
<path d="M446.388 9.78547C362.358 -13.4432 281.527 -129.4 337.784 -163.046C394.04 -196.692 346.888 -121.191 430.917 -97.9627C514.946 -74.734 758.687 -223.184 775.09 -190.183C786.584 -167.057 530.417 33.0141 446.388 9.78547Z" fill="#7FA1F8"/>
</g>
<g filter="url(#filter2_f_8001_7032)">
<path d="M98.8146 41.5462C298.139 2.98878 506.025 -227.425 585.053 -337.812C461.234 -350.53 214.314 -348.622 217.179 -239.241C220.044 -129.86 139.463 -6.47432 98.8146 41.5462Z" fill="white"/>
</g>
<g filter="url(#filter3_f_8001_7032)">
<path d="M565.769 -79.6177C388.276 -17.8653 233.603 103.677 120.601 200.841C142.771 245.139 271.221 300.513 294.296 193.617C311.648 113.228 417.019 -11.9911 565.769 -79.6177Z" fill="white"/>
</g>
<g filter="url(#filter4_f_8001_7032)">
<path d="M239.916 164.145C353.309 134.986 485.202 59.3351 585.647 -2.14175C596.885 -37.082 563.693 -90.2072 500.666 -13.0757C453.268 44.9291 342.699 127.933 239.916 164.145Z" fill="#4CC0FF"/>
</g>
<g filter="url(#filter5_f_8001_7032)">
<path d="M577.353 -37.2499C472.916 2.22819 311.941 19.8644 185.693 30.6776C145.009 12.8712 117.224 -40.4693 232.933 -21.1267C319.948 -6.58054 473.43 -8.09445 577.353 -37.2499Z" fill="#83D4FF"/>
</g>
</g>
<g filter="url(#filter6_ddd_8001_7032)">
<path d="M112 40C112 36.6863 114.686 34 118 34H309C312.314 34 315 36.6863 315 40V209C315 212.314 312.314 215 309 215H118C114.686 215 112 212.314 112 209V40Z" fill="white"/>
<path d="M309 30C314.523 30 319 34.4772 319 40V209C319 214.523 314.523 219 309 219H118C112.477 219 108 214.523 108 209V40C108 34.4772 112.477 30 118 30H309Z" stroke="white" stroke-opacity="0.3" stroke-width="8"/>
<rect x="136" y="58" width="15.875" height="106" rx="4" fill="#F2F4F7"/>
<rect x="155.875" y="82" width="15.875" height="82" rx="4" fill="#F2F4F7"/>
<rect x="175.75" y="103" width="15.875" height="61" rx="4" fill="#F2F4F7"/>
<rect x="195.625" y="109" width="15.875" height="55" rx="4" fill="#F2F4F7"/>
<rect x="215.5" y="95" width="15.875" height="69" rx="4" fill="#F2F4F7"/>
<rect x="235.375" y="122" width="15.875" height="42" rx="4" fill="#F2F4F7"/>
<rect x="255.25" y="133" width="15.875" height="31" rx="4" fill="#F2F4F7"/>
<rect x="275.125" y="143" width="15.875" height="21" rx="4" fill="#012C59"/>
<path d="M152.116 195.14C151.024 195.14 150.165 194.869 149.54 194.328C148.915 193.777 148.565 193.035 148.49 192.102L150.058 191.864C150.095 192.489 150.301 192.956 150.674 193.264C151.057 193.572 151.537 193.726 152.116 193.726C152.76 193.726 153.255 193.544 153.6 193.18C153.955 192.816 154.132 192.335 154.132 191.738C154.132 191.113 153.945 190.632 153.572 190.296C153.208 189.951 152.727 189.778 152.13 189.778C151.729 189.778 151.36 189.862 151.024 190.03C150.688 190.189 150.441 190.399 150.282 190.66L148.686 190.674L149.47 184.794H155.672V186.222H150.8L150.38 189.176C150.623 188.971 150.926 188.812 151.29 188.7C151.654 188.579 152.032 188.518 152.424 188.518C153.096 188.518 153.684 188.653 154.188 188.924C154.701 189.195 155.098 189.573 155.378 190.058C155.658 190.534 155.798 191.099 155.798 191.752C155.798 192.433 155.639 193.031 155.322 193.544C155.005 194.048 154.571 194.44 154.02 194.72C153.469 195 152.835 195.14 152.116 195.14ZM158.722 189.806C158.087 189.806 157.56 189.591 157.14 189.162C156.729 188.723 156.524 188.089 156.524 187.258C156.524 186.465 156.72 185.839 157.112 185.382C157.513 184.925 158.05 184.696 158.722 184.696C159.366 184.696 159.893 184.915 160.304 185.354C160.724 185.783 160.934 186.418 160.934 187.258C160.934 188.051 160.733 188.677 160.332 189.134C159.94 189.582 159.403 189.806 158.722 189.806ZM157.462 195L164.462 184.78H165.876L158.876 195H157.462ZM158.722 188.826C159.021 188.826 159.259 188.7 159.436 188.448C159.623 188.187 159.716 187.79 159.716 187.258C159.716 186.773 159.632 186.39 159.464 186.11C159.296 185.83 159.049 185.69 158.722 185.69C158.423 185.69 158.185 185.816 158.008 186.068C157.84 186.32 157.756 186.717 157.756 187.258C157.756 187.743 157.835 188.126 157.994 188.406C158.153 188.686 158.395 188.826 158.722 188.826ZM164.588 195.07C163.944 195.07 163.417 194.855 163.006 194.426C162.595 193.987 162.39 193.353 162.39 192.522C162.39 191.729 162.586 191.108 162.978 190.66C163.379 190.203 163.916 189.974 164.588 189.974C165.223 189.974 165.75 190.193 166.17 190.632C166.59 191.061 166.8 191.691 166.8 192.522C166.8 193.306 166.599 193.927 166.198 194.384C165.797 194.841 165.26 195.07 164.588 195.07ZM164.588 194.076C164.877 194.076 165.111 193.95 165.288 193.698C165.475 193.446 165.568 193.059 165.568 192.536C165.568 192.051 165.484 191.668 165.316 191.388C165.157 191.099 164.915 190.954 164.588 190.954C164.28 190.954 164.042 191.08 163.874 191.332C163.706 191.584 163.622 191.985 163.622 192.536C163.622 193.012 163.697 193.39 163.846 193.67C164.005 193.941 164.252 194.076 164.588 194.076Z" fill="#001428"/>
<path d="M174.724 194.12C174.02 194.12 173.472 193.948 173.08 193.604C172.696 193.252 172.504 192.796 172.504 192.236C172.504 191.788 172.604 191.424 172.804 191.144C173.012 190.864 173.28 190.648 173.608 190.496C173.936 190.336 174.292 190.22 174.676 190.148L176.092 189.884C176.452 189.82 176.688 189.724 176.8 189.596C176.912 189.46 176.968 189.284 176.968 189.068C176.968 188.788 176.868 188.556 176.668 188.372C176.468 188.18 176.104 188.084 175.576 188.084C175.064 188.084 174.656 188.184 174.352 188.384C174.048 188.584 173.9 188.892 173.908 189.308L172.744 189.188C172.76 188.524 173.024 188.016 173.536 187.664C174.056 187.304 174.736 187.124 175.576 187.124C176.416 187.124 177.06 187.292 177.508 187.628C177.964 187.964 178.192 188.476 178.192 189.164V192.572C178.192 192.812 178.236 192.968 178.324 193.04C178.412 193.112 178.508 193.148 178.612 193.148C178.676 193.148 178.724 193.148 178.756 193.148C178.788 193.14 178.808 193.132 178.816 193.124H178.888V194C178.808 194.032 178.7 194.056 178.564 194.072C178.436 194.088 178.34 194.096 178.276 194.096C177.932 194.096 177.652 194.012 177.436 193.844C177.228 193.676 177.124 193.42 177.124 193.076V192.86C176.956 193.236 176.652 193.54 176.212 193.772C175.772 194.004 175.276 194.12 174.724 194.12ZM175.036 193.136C175.516 193.136 175.928 193.036 176.272 192.836C176.624 192.628 176.86 192.34 176.98 191.972V190.568C176.884 190.616 176.756 190.66 176.596 190.7C176.444 190.74 176.248 190.784 176.008 190.832L175.012 191.036C174.508 191.14 174.172 191.292 174.004 191.492C173.844 191.692 173.764 191.908 173.764 192.14C173.764 192.484 173.884 192.736 174.124 192.896C174.364 193.056 174.668 193.136 175.036 193.136ZM179.93 194V184.52H181.154V188.336C181.386 187.928 181.69 187.624 182.066 187.424C182.45 187.224 182.886 187.124 183.374 187.124C183.966 187.124 184.482 187.268 184.922 187.556C185.362 187.844 185.702 188.256 185.942 188.792C186.182 189.32 186.302 189.944 186.302 190.664C186.302 191.368 186.182 191.98 185.942 192.5C185.71 193.012 185.378 193.412 184.946 193.7C184.514 193.98 183.998 194.12 183.398 194.12C182.886 194.12 182.43 194.008 182.03 193.784C181.63 193.552 181.334 193.24 181.142 192.848L181.058 194H179.93ZM181.154 191.084C181.154 191.676 181.338 192.156 181.706 192.524C182.074 192.884 182.55 193.064 183.134 193.064C183.742 193.064 184.21 192.856 184.538 192.44C184.874 192.016 185.042 191.424 185.042 190.664C185.042 189.872 184.874 189.26 184.538 188.828C184.21 188.396 183.738 188.18 183.122 188.18C182.522 188.18 182.042 188.372 181.682 188.756C181.33 189.14 181.154 189.652 181.154 190.292V191.084ZM189.513 194.12C188.809 194.12 188.261 193.948 187.869 193.604C187.485 193.252 187.293 192.796 187.293 192.236C187.293 191.788 187.393 191.424 187.593 191.144C187.801 190.864 188.069 190.648 188.397 190.496C188.725 190.336 189.081 190.22 189.465 190.148L190.881 189.884C191.241 189.82 191.477 189.724 191.589 189.596C191.701 189.46 191.757 189.284 191.757 189.068C191.757 188.788 191.657 188.556 191.457 188.372C191.257 188.18 190.893 188.084 190.365 188.084C189.853 188.084 189.445 188.184 189.141 188.384C188.837 188.584 188.689 188.892 188.697 189.308L187.533 189.188C187.549 188.524 187.813 188.016 188.325 187.664C188.845 187.304 189.525 187.124 190.365 187.124C191.205 187.124 191.849 187.292 192.297 187.628C192.753 187.964 192.981 188.476 192.981 189.164V192.572C192.981 192.812 193.025 192.968 193.113 193.04C193.201 193.112 193.297 193.148 193.401 193.148C193.465 193.148 193.513 193.148 193.545 193.148C193.577 193.14 193.597 193.132 193.605 193.124H193.677V194C193.597 194.032 193.489 194.056 193.353 194.072C193.225 194.088 193.129 194.096 193.065 194.096C192.721 194.096 192.441 194.012 192.225 193.844C192.017 193.676 191.913 193.42 191.913 193.076V192.86C191.745 193.236 191.441 193.54 191.001 193.772C190.561 194.004 190.065 194.12 189.513 194.12ZM189.825 193.136C190.305 193.136 190.717 193.036 191.061 192.836C191.413 192.628 191.649 192.34 191.769 191.972V190.568C191.673 190.616 191.545 190.66 191.385 190.7C191.233 190.74 191.037 190.784 190.797 190.832L189.801 191.036C189.297 191.14 188.961 191.292 188.793 191.492C188.633 191.692 188.553 191.908 188.553 192.14C188.553 192.484 188.673 192.736 188.913 192.896C189.153 193.056 189.457 193.136 189.825 193.136ZM194.719 194V187.244H195.847L195.919 188.264C196.479 187.504 197.215 187.124 198.127 187.124C198.807 187.124 199.363 187.32 199.795 187.712C200.235 188.096 200.455 188.688 200.455 189.488V194H199.231V189.608C199.231 189.184 199.111 188.848 198.871 188.6C198.631 188.352 198.267 188.228 197.779 188.228C197.451 188.228 197.147 188.3 196.867 188.444C196.587 188.58 196.363 188.78 196.195 189.044C196.035 189.308 195.955 189.624 195.955 189.992V194H194.719ZM201.801 190.664C201.801 189.944 201.921 189.32 202.161 188.792C202.401 188.256 202.741 187.844 203.181 187.556C203.621 187.268 204.137 187.124 204.729 187.124C205.241 187.124 205.685 187.228 206.061 187.436C206.437 187.644 206.733 187.944 206.949 188.336V184.52H208.173V194H207.033L206.949 192.848C206.757 193.24 206.461 193.552 206.061 193.784C205.669 194.008 205.213 194.12 204.693 194.12C204.101 194.12 203.585 193.98 203.145 193.7C202.713 193.412 202.381 193.012 202.149 192.5C201.917 191.98 201.801 191.368 201.801 190.664ZM203.061 190.664C203.061 191.432 203.225 192.024 203.553 192.44C203.881 192.856 204.349 193.064 204.957 193.064C205.557 193.064 206.037 192.876 206.397 192.5C206.765 192.124 206.949 191.628 206.949 191.012V190.292C206.949 189.652 206.769 189.14 206.409 188.756C206.057 188.372 205.577 188.18 204.969 188.18C204.361 188.18 203.889 188.396 203.553 188.828C203.225 189.26 203.061 189.872 203.061 190.664ZM212.763 194.12C212.107 194.12 211.535 193.976 211.047 193.688C210.567 193.392 210.195 192.984 209.931 192.464C209.667 191.944 209.535 191.336 209.535 190.64C209.535 189.928 209.667 189.312 209.931 188.792C210.203 188.264 210.579 187.856 211.059 187.568C211.547 187.272 212.115 187.124 212.763 187.124C213.411 187.124 213.975 187.272 214.455 187.568C214.935 187.856 215.307 188.264 215.571 188.792C215.835 189.312 215.967 189.924 215.967 190.628C215.967 191.332 215.835 191.948 215.571 192.476C215.307 192.996 214.935 193.4 214.455 193.688C213.975 193.976 213.411 194.12 212.763 194.12ZM212.751 193.064C213.375 193.064 213.859 192.848 214.203 192.416C214.555 191.984 214.731 191.384 214.731 190.616C214.731 189.84 214.555 189.24 214.203 188.816C213.859 188.392 213.379 188.18 212.763 188.18C212.131 188.18 211.639 188.4 211.287 188.84C210.943 189.272 210.771 189.868 210.771 190.628C210.771 191.396 210.943 191.996 211.287 192.428C211.639 192.852 212.127 193.064 212.751 193.064ZM217.313 194V187.244H218.441L218.513 188.264C219.073 187.504 219.809 187.124 220.721 187.124C221.401 187.124 221.957 187.32 222.389 187.712C222.829 188.096 223.049 188.688 223.049 189.488V194H221.825V189.608C221.825 189.184 221.705 188.848 221.465 188.6C221.225 188.352 220.861 188.228 220.373 188.228C220.045 188.228 219.741 188.3 219.461 188.444C219.181 188.58 218.957 188.78 218.789 189.044C218.629 189.308 218.549 189.624 218.549 189.992V194H217.313ZM224.754 194V187.244H225.87L225.954 188.324C226.178 187.916 226.47 187.616 226.83 187.424C227.19 187.224 227.578 187.124 227.994 187.124C228.458 187.124 228.87 187.24 229.23 187.472C229.59 187.704 229.854 188.048 230.022 188.504C230.23 188.056 230.53 187.716 230.922 187.484C231.322 187.244 231.758 187.124 232.23 187.124C232.95 187.124 233.502 187.336 233.886 187.76C234.27 188.176 234.462 188.732 234.462 189.428V194H233.226V189.632C233.226 189.184 233.118 188.84 232.902 188.6C232.686 188.352 232.37 188.228 231.954 188.228C231.442 188.228 231.022 188.396 230.694 188.732C230.374 189.068 230.214 189.532 230.214 190.124V194H228.99V189.74C228.99 189.292 228.886 188.928 228.678 188.648C228.47 188.368 228.142 188.228 227.694 188.228C227.182 188.228 226.77 188.404 226.458 188.756C226.146 189.1 225.99 189.536 225.99 190.064V194H224.754ZM239.036 194.12C238.388 194.12 237.82 193.984 237.332 193.712C236.852 193.432 236.476 193.032 236.204 192.512C235.94 191.992 235.808 191.364 235.808 190.628C235.808 189.924 235.932 189.312 236.18 188.792C236.436 188.264 236.8 187.856 237.272 187.568C237.744 187.272 238.316 187.124 238.988 187.124C239.628 187.124 240.18 187.264 240.644 187.544C241.116 187.824 241.472 188.248 241.712 188.816C241.952 189.376 242.044 190.08 241.988 190.928H237.032C237.072 191.656 237.264 192.2 237.608 192.56C237.96 192.92 238.44 193.1 239.048 193.1C239.544 193.1 239.944 192.988 240.248 192.764C240.552 192.54 240.74 192.228 240.812 191.828L241.904 192.08C241.784 192.688 241.468 193.18 240.956 193.556C240.452 193.932 239.812 194.12 239.036 194.12ZM238.964 188.096C238.468 188.096 238.044 188.248 237.692 188.552C237.348 188.848 237.136 189.332 237.056 190.004H240.728C240.736 189.428 240.584 188.968 240.272 188.624C239.968 188.272 239.532 188.096 238.964 188.096ZM243.223 194V187.244H244.351L244.423 188.264C244.983 187.504 245.719 187.124 246.631 187.124C247.311 187.124 247.867 187.32 248.299 187.712C248.739 188.096 248.959 188.688 248.959 189.488V194H247.735V189.608C247.735 189.184 247.615 188.848 247.375 188.6C247.135 188.352 246.771 188.228 246.283 188.228C245.955 188.228 245.651 188.3 245.371 188.444C245.091 188.58 244.867 188.78 244.699 189.044C244.539 189.308 244.459 189.624 244.459 189.992V194H243.223ZM252.216 194.084C251.296 194.084 250.836 193.704 250.836 192.944V188.204H249.936V187.244H250.836V185.36L252.036 185.24V187.244H253.128V188.204H252.036V192.44C252.036 192.688 252.072 192.852 252.144 192.932C252.224 193.012 252.376 193.052 252.6 193.052C252.832 193.052 253.008 193.036 253.128 193.004V193.988C252.952 194.02 252.788 194.044 252.636 194.06C252.484 194.076 252.344 194.084 252.216 194.084ZM257.133 194V187.244H258.237L258.309 188.24C258.485 187.896 258.709 187.632 258.981 187.448C259.261 187.264 259.581 187.172 259.941 187.172C260.189 187.172 260.373 187.196 260.493 187.244V188.408H260.409C260.281 188.36 260.125 188.336 259.941 188.336C259.485 188.336 259.117 188.476 258.837 188.756C258.565 189.036 258.409 189.412 258.369 189.884V194H257.133ZM263.212 194.12C262.508 194.12 261.96 193.948 261.568 193.604C261.184 193.252 260.992 192.796 260.992 192.236C260.992 191.788 261.092 191.424 261.292 191.144C261.5 190.864 261.768 190.648 262.096 190.496C262.424 190.336 262.78 190.22 263.164 190.148L264.58 189.884C264.94 189.82 265.176 189.724 265.288 189.596C265.4 189.46 265.456 189.284 265.456 189.068C265.456 188.788 265.356 188.556 265.156 188.372C264.956 188.18 264.592 188.084 264.064 188.084C263.552 188.084 263.144 188.184 262.84 188.384C262.536 188.584 262.388 188.892 262.396 189.308L261.232 189.188C261.248 188.524 261.512 188.016 262.024 187.664C262.544 187.304 263.224 187.124 264.064 187.124C264.904 187.124 265.548 187.292 265.996 187.628C266.452 187.964 266.68 188.476 266.68 189.164V192.572C266.68 192.812 266.724 192.968 266.812 193.04C266.9 193.112 266.996 193.148 267.1 193.148C267.164 193.148 267.212 193.148 267.244 193.148C267.276 193.14 267.296 193.132 267.304 193.124H267.376V194C267.296 194.032 267.188 194.056 267.052 194.072C266.924 194.088 266.828 194.096 266.764 194.096C266.42 194.096 266.14 194.012 265.924 193.844C265.716 193.676 265.612 193.42 265.612 193.076V192.86C265.444 193.236 265.14 193.54 264.7 193.772C264.26 194.004 263.764 194.12 263.212 194.12ZM263.524 193.136C264.004 193.136 264.416 193.036 264.76 192.836C265.112 192.628 265.348 192.34 265.468 191.972V190.568C265.372 190.616 265.244 190.66 265.084 190.7C264.932 190.74 264.736 190.784 264.496 190.832L263.5 191.036C262.996 191.14 262.66 191.292 262.492 191.492C262.332 191.692 262.252 191.908 262.252 192.14C262.252 192.484 262.372 192.736 262.612 192.896C262.852 193.056 263.156 193.136 263.524 193.136ZM270.005 194.084C269.085 194.084 268.625 193.704 268.625 192.944V188.204H267.725V187.244H268.625V185.36L269.825 185.24V187.244H270.917V188.204H269.825V192.44C269.825 192.688 269.861 192.852 269.933 192.932C270.013 193.012 270.165 193.052 270.389 193.052C270.621 193.052 270.797 193.036 270.917 193.004V193.988C270.741 194.02 270.577 194.044 270.425 194.06C270.273 194.076 270.133 194.084 270.005 194.084ZM274.908 194.12C274.26 194.12 273.692 193.984 273.204 193.712C272.724 193.432 272.348 193.032 272.076 192.512C271.812 191.992 271.68 191.364 271.68 190.628C271.68 189.924 271.804 189.312 272.052 188.792C272.308 188.264 272.672 187.856 273.144 187.568C273.616 187.272 274.188 187.124 274.86 187.124C275.5 187.124 276.052 187.264 276.516 187.544C276.988 187.824 277.344 188.248 277.584 188.816C277.824 189.376 277.916 190.08 277.86 190.928H272.904C272.944 191.656 273.136 192.2 273.48 192.56C273.832 192.92 274.312 193.1 274.92 193.1C275.416 193.1 275.816 192.988 276.12 192.764C276.424 192.54 276.612 192.228 276.684 191.828L277.776 192.08C277.656 192.688 277.34 193.18 276.828 193.556C276.324 193.932 275.684 194.12 274.908 194.12ZM274.836 188.096C274.34 188.096 273.916 188.248 273.564 188.552C273.22 188.848 273.008 189.332 272.928 190.004H276.6C276.608 189.428 276.456 188.968 276.144 188.624C275.84 188.272 275.404 188.096 274.836 188.096Z" fill="black"/>
</g>
<g opacity="0.4" filter="url(#filter7_ddd_8001_7032)">
<path d="M-95 56C-95 52.6863 -92.3137 50 -89 50H66C69.3137 50 72 52.6863 72 56V193C72 196.314 69.3137 199 66 199H-89C-92.3137 199 -95 196.314 -95 193V56Z" fill="white"/>
<path d="M66 46C71.5228 46 76 50.4772 76 56V193C76 198.523 71.5228 203 66 203H-89C-94.5228 203 -99 198.523 -99 193V56C-99 50.4772 -94.5228 46 -89 46H66Z" stroke="white" stroke-opacity="0.3" stroke-width="8"/>
</g>
<g opacity="0.4" filter="url(#filter8_ddd_8001_7032)">
<path d="M355 56C355 52.6863 357.686 50 361 50H516C519.314 50 522 52.6863 522 56V193C522 196.314 519.314 199 516 199H361C357.686 199 355 196.314 355 193V56Z" fill="white"/>
<path d="M516 46C521.523 46 526 50.4772 526 56V193C526 198.523 521.523 203 516 203H361C355.477 203 351 198.523 351 193V56C351 50.4772 355.477 46 361 46H516Z" stroke="white" stroke-opacity="0.3" stroke-width="8"/>
</g>
</g>
<defs>
<filter id="filter0_f_8001_7032" x="-46.8885" y="-319.415" width="721.414" height="595.984" filterUnits="userSpaceOnUse" color-interpolation-filters="sRGB">
<feFlood flood-opacity="0" result="BackgroundImageFix"/>
<feBlend mode="normal" in="SourceGraphic" in2="BackgroundImageFix" result="shape"/>
<feGaussianBlur stdDeviation="66.0038" result="effect1_foregroundBlur_8001_7032"/>
</filter>
<filter id="filter1_f_8001_7032" x="211.457" y="-302.631" width="671.645" height="421.926" filterUnits="userSpaceOnUse" color-interpolation-filters="sRGB">
<feFlood flood-opacity="0" result="BackgroundImageFix"/>
<feBlend mode="normal" in="SourceGraphic" in2="BackgroundImageFix" result="shape"/>
<feGaussianBlur stdDeviation="53.8185" result="effect1_foregroundBlur_8001_7032"/>
</filter>
<filter id="filter2_f_8001_7032" x="-2.72987" y="-444.705" width="689.327" height="587.796" filterUnits="userSpaceOnUse" color-interpolation-filters="sRGB">
<feFlood flood-opacity="0" result="BackgroundImageFix"/>
<feBlend mode="normal" in="SourceGraphic" in2="BackgroundImageFix" result="shape"/>
<feGaussianBlur stdDeviation="50.7722" result="effect1_foregroundBlur_8001_7032"/>
</filter>
<filter id="filter3_f_8001_7032" x="43.4279" y="-156.791" width="599.515" height="489.252" filterUnits="userSpaceOnUse" color-interpolation-filters="sRGB">
<feFlood flood-opacity="0" result="BackgroundImageFix"/>
<feBlend mode="normal" in="SourceGraphic" in2="BackgroundImageFix" result="shape"/>
<feGaussianBlur stdDeviation="38.5868" result="effect1_foregroundBlur_8001_7032"/>
</filter>
<filter id="filter4_f_8001_7032" x="158.681" y="-133.961" width="510.365" height="379.342" filterUnits="userSpaceOnUse" color-interpolation-filters="sRGB">
<feFlood flood-opacity="0" result="BackgroundImageFix"/>
<feBlend mode="normal" in="SourceGraphic" in2="BackgroundImageFix" result="shape"/>
<feGaussianBlur stdDeviation="40.6177" result="effect1_foregroundBlur_8001_7032"/>
</filter>
<filter id="filter5_f_8001_7032" x="73.2619" y="-114.424" width="581.265" height="222.275" filterUnits="userSpaceOnUse" color-interpolation-filters="sRGB">
<feFlood flood-opacity="0" result="BackgroundImageFix"/>
<feBlend mode="normal" in="SourceGraphic" in2="BackgroundImageFix" result="shape"/>
<feGaussianBlur stdDeviation="38.5868" result="effect1_foregroundBlur_8001_7032"/>
</filter>
<filter id="filter6_ddd_8001_7032" x="70" y="18" width="287" height="296" filterUnits="userSpaceOnUse" color-interpolation-filters="sRGB">
<feFlood flood-opacity="0" result="BackgroundImageFix"/>
<feColorMatrix in="SourceAlpha" type="matrix" values="0 0 0 0 0 0 0 0 0 0 0 0 0 0 0 0 0 0 127 0" result="hardAlpha"/>
<feOffset dy="6"/>
<feGaussianBlur stdDeviation="7"/>
<feColorMatrix type="matrix" values="0 0 0 0 0 0 0 0 0 0 0 0 0 0 0 0 0 0 0.02 0"/>
<feBlend mode="normal" in2="BackgroundImageFix" result="effect1_dropShadow_8001_7032"/>
<feColorMatrix in="SourceAlpha" type="matrix" values="0 0 0 0 0 0 0 0 0 0 0 0 0 0 0 0 0 0 127 0" result="hardAlpha"/>
<feOffset dy="25"/>
<feGaussianBlur stdDeviation="12.5"/>
<feColorMatrix type="matrix" values="0 0 0 0 0 0 0 0 0 0 0 0 0 0 0 0 0 0 0.02 0"/>
<feBlend mode="normal" in2="effect1_dropShadow_8001_7032" result="effect2_dropShadow_8001_7032"/>
<feColorMatrix in="SourceAlpha" type="matrix" values="0 0 0 0 0 0 0 0 0 0 0 0 0 0 0 0 0 0 127 0" result="hardAlpha"/>
<feOffset dy="57"/>
<feGaussianBlur stdDeviation="17"/>
<feColorMatrix type="matrix" values="0 0 0 0 0 0 0 0 0 0 0 0 0 0 0 0 0 0 0.01 0"/>
<feBlend mode="normal" in2="effect2_dropShadow_8001_7032" result="effect3_dropShadow_8001_7032"/>
<feBlend mode="normal" in="SourceGraphic" in2="effect3_dropShadow_8001_7032" result="shape"/>
</filter>
<filter id="filter7_ddd_8001_7032" x="-137" y="34" width="251" height="264" filterUnits="userSpaceOnUse" color-interpolation-filters="sRGB">
<feFlood flood-opacity="0" result="BackgroundImageFix"/>
<feColorMatrix in="SourceAlpha" type="matrix" values="0 0 0 0 0 0 0 0 0 0 0 0 0 0 0 0 0 0 127 0" result="hardAlpha"/>
<feOffset dy="6"/>
<feGaussianBlur stdDeviation="7"/>
<feColorMatrix type="matrix" values="0 0 0 0 0 0 0 0 0 0 0 0 0 0 0 0 0 0 0.02 0"/>
<feBlend mode="normal" in2="BackgroundImageFix" result="effect1_dropShadow_8001_7032"/>
<feColorMatrix in="SourceAlpha" type="matrix" values="0 0 0 0 0 0 0 0 0 0 0 0 0 0 0 0 0 0 127 0" result="hardAlpha"/>
<feOffset dy="25"/>
<feGaussianBlur stdDeviation="12.5"/>
<feColorMatrix type="matrix" values="0 0 0 0 0 0 0 0 0 0 0 0 0 0 0 0 0 0 0.02 0"/>
<feBlend mode="normal" in2="effect1_dropShadow_8001_7032" result="effect2_dropShadow_8001_7032"/>
<feColorMatrix in="SourceAlpha" type="matrix" values="0 0 0 0 0 0 0 0 0 0 0 0 0 0 0 0 0 0 127 0" result="hardAlpha"/>
<feOffset dy="57"/>
<feGaussianBlur stdDeviation="17"/>
<feColorMatrix type="matrix" values="0 0 0 0 0 0 0 0 0 0 0 0 0 0 0 0 0 0 0.01 0"/>
<feBlend mode="normal" in2="effect2_dropShadow_8001_7032" result="effect3_dropShadow_8001_7032"/>
<feBlend mode="normal" in="SourceGraphic" in2="effect3_dropShadow_8001_7032" result="shape"/>
</filter>
<filter id="filter8_ddd_8001_7032" x="313" y="34" width="251" height="264" filterUnits="userSpaceOnUse" color-interpolation-filters="sRGB">
<feFlood flood-opacity="0" result="BackgroundImageFix"/>
<feColorMatrix in="SourceAlpha" type="matrix" values="0 0 0 0 0 0 0 0 0 0 0 0 0 0 0 0 0 0 127 0" result="hardAlpha"/>
<feOffset dy="6"/>
<feGaussianBlur stdDeviation="7"/>
<feColorMatrix type="matrix" values="0 0 0 0 0 0 0 0 0 0 0 0 0 0 0 0 0 0 0.02 0"/>
<feBlend mode="normal" in2="BackgroundImageFix" result="effect1_dropShadow_8001_7032"/>
<feColorMatrix in="SourceAlpha" type="matrix" values="0 0 0 0 0 0 0 0 0 0 0 0 0 0 0 0 0 0 127 0" result="hardAlpha"/>
<feOffset dy="25"/>
<feGaussianBlur stdDeviation="12.5"/>
<feColorMatrix type="matrix" values="0 0 0 0 0 0 0 0 0 0 0 0 0 0 0 0 0 0 0.02 0"/>
<feBlend mode="normal" in2="effect1_dropShadow_8001_7032" result="effect2_dropShadow_8001_7032"/>
<feColorMatrix in="SourceAlpha" type="matrix" values="0 0 0 0 0 0 0 0 0 0 0 0 0 0 0 0 0 0 127 0" result="hardAlpha"/>
<feOffset dy="57"/>
<feGaussianBlur stdDeviation="17"/>
<feColorMatrix type="matrix" values="0 0 0 0 0 0 0 0 0 0 0 0 0 0 0 0 0 0 0.01 0"/>
<feBlend mode="normal" in2="effect2_dropShadow_8001_7032" result="effect3_dropShadow_8001_7032"/>
<feBlend mode="normal" in="SourceGraphic" in2="effect3_dropShadow_8001_7032" result="shape"/>
</filter>
<clipPath id="clip0_8001_7032">
<rect width="426" height="250" rx="8" fill="white"/>
</clipPath>
</defs>
</svg>
