<svg width="352" height="480" viewBox="0 0 352 480" fill="none" xmlns="http://www.w3.org/2000/svg">
<g clip-path="url(#clip0_8622_5736)">
<rect width="352" height="480" fill="#7FA1F8"/>
<g opacity="0.5" filter="url(#filter0_f_8622_5736)">
<path d="M925.341 -45.0003C925.342 29.7236 912.031 103.716 886.168 172.753C860.303 241.788 822.393 304.516 774.602 357.355C726.808 410.191 670.071 452.104 607.629 480.703C481.52 538.453 339.825 538.453 213.715 480.703C151.272 452.107 94.5349 410.194 46.7432 357.356C-1.04845 304.517 -38.9587 241.789 -64.8231 172.753C-90.6875 103.716 -104 29.7239 -104 -45.0003H925.341Z" fill="url(#paint0_radial_8622_5736)"/>
</g>
<g opacity="0.4">
<rect x="25.4189" y="151.419" width="204.939" height="120.162" rx="7.58114" fill="white" stroke="#D2D2D2" stroke-width="0.83773"/>
<rect x="35.7891" y="197.242" width="63.6604" height="12.5541" rx="1.21178" fill="#B5C9FB" fill-opacity="0.4"/>
<path d="M45.1457 202.284C44.8663 201.689 44.3913 201.208 43.8061 200.926L43.5469 201.533C43.9752 201.745 44.3245 202.095 44.5387 202.527L45.1457 202.284Z" fill="#0043F2"/>
<path d="M45.4133 203.52C45.4133 203.162 45.348 202.82 45.23 202.504L44.625 202.747C44.7141 202.988 44.7647 203.247 44.7647 203.52C44.7647 203.76 44.7253 203.992 44.6549 204.209L45.2523 204.473C45.3561 204.175 45.4128 203.854 45.4128 203.52H45.4133Z" fill="#0043F2"/>
<path d="M41.9567 201.409C42.1618 201.344 42.3795 201.308 42.6053 201.308C42.861 201.308 43.1055 201.355 43.3333 201.439L43.593 200.831C43.2857 200.713 42.9526 200.648 42.6053 200.648C42.2954 200.648 41.9977 200.7 41.7188 200.795L41.9567 201.41V201.409Z" fill="#0043F2"/>
<path d="M40.1094 202.197L40.7058 202.461C40.9361 202.036 41.2997 201.697 41.7386 201.502L41.5007 200.887C40.9022 201.147 40.4101 201.613 40.1094 202.197Z" fill="#0043F2"/>
<path d="M43.3254 205.597C43.0996 205.678 42.8576 205.725 42.6045 205.725C42.328 205.725 42.0647 205.671 41.8217 205.574L41.5625 206.181C41.885 206.312 42.2364 206.385 42.6045 206.385C42.9411 206.385 43.2641 206.324 43.5639 206.213L43.3254 205.597Z" fill="#0043F2"/>
<path d="M45.1714 204.693L44.576 204.43C44.3653 204.901 43.9968 205.283 43.5391 205.508L43.778 206.125C44.3952 205.835 44.8924 205.325 45.1718 204.694L45.1714 204.693Z" fill="#0043F2"/>
<path d="M41.3518 206.085L41.611 205.478C41.1594 205.24 40.7999 204.845 40.6035 204.363L40 204.605C40.2597 205.249 40.7432 205.776 41.3518 206.085Z" fill="#0043F2"/>
<path d="M39.7896 203.518C39.7896 203.819 39.8356 204.108 39.9202 204.381L40.5262 204.138C40.4695 203.941 40.4376 203.733 40.4376 203.518C40.4376 203.217 40.4974 202.931 40.6047 202.67L40.0098 202.406C39.868 202.748 39.7891 203.124 39.7891 203.518H39.7896Z" fill="#0043F2"/>
<path d="M41.3272 202.387C41.0913 202.662 40.9404 203.014 40.9141 203.4H41.6391C41.6608 203.216 41.7322 203.047 41.8396 202.909L41.3267 202.387H41.3272Z" fill="#0043F2"/>
<path d="M41.3267 204.65L41.8396 204.128C41.7322 203.989 41.6608 203.821 41.6391 203.637H40.9141C40.9399 204.023 41.0913 204.375 41.3272 204.65H41.3267Z" fill="#0043F2"/>
<path d="M42.7188 202.535C42.9 202.557 43.0656 202.63 43.2017 202.739L43.7146 202.217C43.4442 201.977 43.0985 201.824 42.7188 201.797V202.535V202.535Z" fill="#0043F2"/>
<path d="M42.4881 202.535V201.797C42.1078 201.823 41.7625 201.977 41.4922 202.217L42.0051 202.739C42.1418 202.63 42.3073 202.557 42.4881 202.535V202.535Z" fill="#0043F2"/>
<path d="M42.4881 204.501C42.3068 204.479 42.1418 204.406 42.0051 204.297L41.4922 204.819C41.7625 205.059 42.1083 205.213 42.4881 205.239V204.501V204.501Z" fill="#0043F2"/>
<path d="M43.3672 204.128L43.8801 204.65C44.116 204.375 44.2669 204.023 44.2932 203.637H43.5682C43.5464 203.821 43.475 203.99 43.3677 204.128H43.3672Z" fill="#0043F2"/>
<path d="M43.8801 202.387L43.3672 202.909C43.4745 203.048 43.5459 203.216 43.5677 203.4H44.2927C44.2669 203.014 44.1155 202.662 43.8795 202.387H43.8801Z" fill="#0043F2"/>
<path d="M43.2017 204.297C43.065 204.407 42.8995 204.479 42.7188 204.501V205.239C43.0985 205.213 43.4442 205.06 43.7146 204.819L43.2017 204.297V204.297Z" fill="#0043F2"/>
<path d="M43.0681 203.523C43.0681 203.263 42.8601 203.051 42.6044 203.051C42.3487 203.051 42.1406 203.263 42.1406 203.523C42.1406 203.783 42.3487 203.995 42.6044 203.995C42.8601 203.995 43.0681 203.783 43.0681 203.523Z" fill="#0043F2"/>
<path d="M42.6063 200.331C44.3323 200.331 45.7367 201.761 45.7367 203.518C45.7367 205.274 44.3323 206.704 42.6063 206.704C40.8804 206.704 39.476 205.274 39.476 203.518C39.476 201.761 40.8799 200.331 42.6063 200.331ZM42.6063 199.664C40.5154 199.664 38.8203 201.389 38.8203 203.518C38.8203 205.646 40.5154 207.371 42.6063 207.371C44.6973 207.371 46.3924 205.646 46.3924 203.518C46.3924 201.389 44.6968 199.664 42.6063 199.664Z" fill="#0043F2"/>
<path d="M50.086 201.586H52.2301V202.026H50.5832V203.129H52.0799V203.564H50.5832V205.02H50.086V201.586ZM54.4858 205.02C54.4703 204.823 54.4651 204.641 54.4651 204.507H54.4599C54.3201 204.88 53.9886 205.077 53.6002 205.077C52.9942 205.077 52.6472 204.719 52.6472 204.01V202.285H53.1133V203.953C53.1133 204.419 53.2998 204.647 53.7193 204.647C54.1181 204.647 54.4444 204.403 54.4444 203.808V202.285H54.9105V204.403C54.9105 204.6 54.9157 204.807 54.9364 205.02H54.4858ZM55.8248 202.901C55.8248 202.704 55.8196 202.497 55.8041 202.285H56.2547C56.2702 202.482 56.2754 202.663 56.2754 202.798H56.2806C56.4152 202.43 56.7519 202.233 57.1558 202.233C57.7722 202.233 58.1347 202.585 58.1347 203.295V205.02H57.6686V203.347C57.6686 202.891 57.4718 202.658 57.0367 202.658C56.6224 202.658 56.2909 202.896 56.2909 203.497V205.02H55.8248V202.901ZM59.9334 205.077C59.2964 205.077 58.7992 204.579 58.7992 203.652C58.7992 202.72 59.2964 202.233 59.9334 202.233C60.327 202.233 60.6844 202.42 60.8294 202.875H60.8346C60.8242 202.761 60.8139 202.632 60.8139 202.508V201.259H61.28V204.403C61.28 204.6 61.2852 204.807 61.2955 205.02H60.8501C60.8398 204.828 60.8398 204.605 60.8449 204.419H60.8294C60.6947 204.88 60.3322 205.077 59.9334 205.077ZM60.0266 204.647C60.4876 204.647 60.819 204.315 60.819 203.652C60.819 202.994 60.4876 202.663 60.0266 202.663C59.5294 202.663 59.2757 203 59.2757 203.652C59.2757 204.31 59.5294 204.647 60.0266 204.647ZM62.5646 205.02L61.8189 202.285H62.3005L62.7977 204.186C62.834 204.326 62.865 204.471 62.8858 204.616L62.9945 204.217L63.5642 202.285H64.0718L64.657 204.217L64.7709 204.631C64.7968 204.496 64.8279 204.357 64.8642 204.217L65.3665 202.285H65.812L65.0662 205.02H64.4602L63.9268 203.269C63.8801 203.108 63.8387 202.932 63.8025 202.736C63.761 202.932 63.7144 203.108 63.6678 203.269L63.1344 205.02H62.5646ZM67.4632 205.077C66.6086 205.077 66.1425 204.543 66.1425 203.652C66.1425 202.761 66.6553 202.233 67.4062 202.233C68.1572 202.233 68.6233 202.761 68.6233 203.611V203.761H66.6086C66.6345 204.351 66.9194 204.673 67.4736 204.673C67.8413 204.673 68.1106 204.517 68.297 204.186L68.6389 204.414C68.4317 204.802 68.0433 205.077 67.4632 205.077ZM66.619 203.393H68.1572C68.1106 202.891 67.8672 202.627 67.3959 202.627C66.9349 202.627 66.676 202.896 66.619 203.393ZM69.3289 205.02V201.259H69.795V205.02H69.3289ZM70.7097 205.02V201.259H71.1758V205.02H70.7097ZM73.1492 201.586H75.2934V202.026H73.6464V203.129H75.1432V203.564H73.6464V205.02H73.1492V201.586ZM75.8483 202.285H76.3145V205.02H75.8483V202.285ZM76.0866 201.84C75.8742 201.84 75.7448 201.705 75.7448 201.503C75.7448 201.306 75.8742 201.182 76.0866 201.182C76.2937 201.182 76.4232 201.306 76.4232 201.503C76.4232 201.705 76.2937 201.84 76.0866 201.84ZM77.2291 202.901C77.2291 202.704 77.2239 202.497 77.2084 202.285H77.659C77.6745 202.482 77.6797 202.663 77.6797 202.798H77.6849C77.8195 202.43 78.1562 202.233 78.5601 202.233C79.1764 202.233 79.539 202.585 79.539 203.295V205.02H79.0729V203.347C79.0729 202.891 78.876 202.658 78.441 202.658C78.0267 202.658 77.6952 202.896 77.6952 203.497V205.02H77.2291V202.901ZM81.0836 205.077C80.5657 205.077 80.2238 204.771 80.2238 204.331C80.2238 203.896 80.4517 203.621 81.0939 203.481L81.9847 203.279C81.9744 202.865 81.7776 202.627 81.3373 202.627C80.9023 202.627 80.7107 202.855 80.6744 203.186L80.2549 203.108C80.3171 202.622 80.6589 202.233 81.3632 202.233C82.0728 202.233 82.4198 202.689 82.4198 203.31V204.46C82.4198 204.626 82.4923 204.688 82.6218 204.688C82.6839 204.688 82.7512 204.678 82.803 204.662V204.947C82.7098 205.009 82.5959 205.045 82.4612 205.045C82.1867 205.045 82.0106 204.88 82.0106 204.579V204.46H82.0003C81.8604 204.895 81.4824 205.077 81.0836 205.077ZM80.6796 204.284C80.6796 204.528 80.8557 204.683 81.1612 204.683C81.5549 204.683 81.9847 204.429 81.9847 203.792V203.621L81.182 203.802C80.8142 203.885 80.6796 204.046 80.6796 204.284ZM83.3439 202.901C83.3439 202.704 83.3387 202.497 83.3232 202.285H83.7737C83.7893 202.482 83.7945 202.663 83.7945 202.798H83.7996C83.9343 202.43 84.2709 202.233 84.6749 202.233C85.2912 202.233 85.6538 202.585 85.6538 203.295V205.02H85.1876V203.347C85.1876 202.891 84.9908 202.658 84.5558 202.658C84.1415 202.658 83.81 202.896 83.81 203.497V205.02H83.3439V202.901ZM87.5717 205.077C86.8208 205.077 86.2925 204.559 86.2925 203.652C86.2925 202.741 86.8208 202.233 87.5717 202.233C88.2036 202.233 88.6127 202.622 88.7577 203.222L88.3434 203.336C88.2295 202.891 87.9705 202.647 87.5769 202.647C87.0642 202.647 86.769 202.984 86.769 203.652C86.769 204.315 87.0642 204.657 87.5769 204.657C87.9705 204.657 88.2295 204.414 88.3382 203.968L88.7526 204.087C88.6127 204.688 88.2036 205.077 87.5717 205.077ZM89.398 202.285H89.8641V205.02H89.398V202.285ZM89.6362 201.84C89.4239 201.84 89.2944 201.705 89.2944 201.503C89.2944 201.306 89.4239 201.182 89.6362 201.182C89.8434 201.182 89.9729 201.306 89.9729 201.503C89.9729 201.705 89.8434 201.84 89.6362 201.84ZM90.7787 202.901C90.7787 202.704 90.7736 202.497 90.758 202.285H91.2086C91.2241 202.482 91.2293 202.663 91.2293 202.798H91.2345C91.3692 202.43 91.7058 202.233 92.1098 202.233C92.7261 202.233 93.0886 202.585 93.0886 203.295V205.02H92.6225V203.347C92.6225 202.891 92.4257 202.658 91.9906 202.658C91.5763 202.658 91.2449 202.896 91.2449 203.497V205.02H90.7787V202.901ZM94.9185 206.086C94.0277 206.086 93.6082 205.802 93.6082 205.341C93.6082 205.009 93.8102 204.792 94.3229 204.704C94.0692 204.647 93.9242 204.496 93.9242 204.31C93.9242 204.118 94.0484 203.973 94.3488 203.901C94.0018 203.766 93.8206 203.476 93.8206 203.108C93.8206 202.591 94.1935 202.233 94.8823 202.233C95.1153 202.233 95.3122 202.275 95.4727 202.347C95.5815 202.057 95.8093 201.907 96.2081 201.907V202.342C95.944 202.342 95.7835 202.383 95.6695 202.471C95.8508 202.622 95.9492 202.844 95.9492 203.108C95.9492 203.637 95.5763 203.994 94.8823 203.994C94.4887 203.994 94.3488 204.082 94.3488 204.253C94.3488 204.424 94.4887 204.491 94.9237 204.491C95.8715 204.491 96.234 204.745 96.234 205.284C96.234 205.765 95.8456 206.086 94.9185 206.086ZM94.8823 203.652C95.2914 203.652 95.5245 203.455 95.5245 203.108C95.5245 202.767 95.2914 202.575 94.8823 202.575C94.4731 202.575 94.2453 202.767 94.2453 203.108C94.2453 203.455 94.4731 203.652 94.8823 203.652ZM94.0329 205.299C94.0329 205.558 94.2608 205.724 94.9185 205.724C95.5918 205.724 95.8042 205.563 95.8042 205.299C95.8042 205.02 95.5815 204.869 94.9185 204.869C94.2608 204.869 94.0329 205.02 94.0329 205.299Z" fill="#001428"/>
<path d="M37.8655 221.868H38.7007L40.6678 227.043H39.8872L38.607 223.554C38.529 223.346 38.4509 223.119 38.3728 222.875C38.3 222.625 38.2375 222.401 38.1855 222.203H38.3338C38.287 222.401 38.2271 222.612 38.1543 222.836C38.0866 223.059 38.0086 223.299 37.9201 223.554L36.6321 227.043H35.8905L37.8655 221.868ZM36.8429 225.052H39.6999V225.669H36.8429V225.052ZM40.6836 222.921H41.4486L42.3072 225.419C42.4686 225.898 42.5934 226.322 42.6819 226.692H42.5726C42.6611 226.348 42.7912 225.924 42.9629 225.419L43.8216 222.921H44.5553L43.0722 227.043H42.1667L40.6836 222.921ZM46.2418 227.129C45.8515 227.129 45.5367 227.025 45.2973 226.817C45.0631 226.608 44.946 226.338 44.946 226.005C44.946 225.672 45.0475 225.401 45.2504 225.193C45.4534 224.985 45.7891 224.829 46.2574 224.725L47.6781 224.405V224.92L46.3901 225.209C46.1247 225.271 45.9322 225.362 45.8125 225.482C45.6928 225.596 45.6329 225.747 45.6329 225.935C45.6329 226.122 45.698 226.27 45.8281 226.379C45.9582 226.484 46.1351 226.536 46.3589 226.536C46.5723 226.536 46.7726 226.489 46.96 226.395C47.1473 226.301 47.3008 226.153 47.4205 225.95C47.5402 225.747 47.6 225.495 47.6 225.193H47.6937V225.919C47.6313 226.325 47.4647 226.629 47.1941 226.832C46.9235 227.03 46.6061 227.129 46.2418 227.129ZM48.3182 227.082C48.11 227.082 47.9435 227.022 47.8186 226.902C47.6989 226.778 47.6391 226.603 47.6391 226.379V226.2H47.6V224.483C47.6 224.144 47.522 223.887 47.3659 223.71C47.2097 223.528 46.9626 223.437 46.6243 223.437C46.0206 223.437 45.6876 223.718 45.6251 224.28L44.9928 224.163C45.0449 223.767 45.2088 223.45 45.4846 223.21C45.7656 222.966 46.1585 222.843 46.6633 222.843C47.1837 222.843 47.5792 222.992 47.8498 223.288C48.1204 223.585 48.2557 223.978 48.2557 224.467V226.2C48.2557 226.32 48.2818 226.408 48.3338 226.465C48.3858 226.517 48.4613 226.543 48.5602 226.543C48.6538 226.538 48.7449 226.525 48.8334 226.504V226.934C48.6773 227.033 48.5055 227.082 48.3182 227.082ZM50.3511 222.921V227.043H49.6486V222.921H50.3511ZM50.0076 222.25C49.8463 222.25 49.7188 222.206 49.6251 222.117C49.5367 222.024 49.4924 221.899 49.4924 221.743C49.4924 221.597 49.5367 221.48 49.6251 221.391C49.7188 221.303 49.8463 221.259 50.0076 221.259C50.1638 221.259 50.286 221.303 50.3745 221.391C50.4682 221.48 50.515 221.597 50.515 221.743C50.515 221.899 50.4682 222.024 50.3745 222.117C50.286 222.206 50.1638 222.25 50.0076 222.25ZM51.7296 221.376H52.4322V227.043H51.7296V221.376ZM54.8177 227.129C54.4274 227.129 54.1126 227.025 53.8732 226.817C53.639 226.608 53.5219 226.338 53.5219 226.005C53.5219 225.672 53.6234 225.401 53.8263 225.193C54.0293 224.985 54.365 224.829 54.8333 224.725L56.254 224.405V224.92L54.966 225.209C54.7006 225.271 54.5081 225.362 54.3884 225.482C54.2687 225.596 54.2088 225.747 54.2088 225.935C54.2088 226.122 54.2739 226.27 54.404 226.379C54.5341 226.484 54.711 226.536 54.9348 226.536C55.1482 226.536 55.3485 226.489 55.5358 226.395C55.7232 226.301 55.8767 226.153 55.9964 225.95C56.1161 225.747 56.1759 225.495 56.1759 225.193H56.2696V225.919C56.2072 226.325 56.0406 226.629 55.77 226.832C55.4994 227.03 55.182 227.129 54.8177 227.129ZM56.8941 227.082C56.6859 227.082 56.5194 227.022 56.3945 226.902C56.2748 226.778 56.215 226.603 56.215 226.379V226.2H56.1759V224.483C56.1759 224.144 56.0979 223.887 55.9418 223.71C55.7856 223.528 55.5384 223.437 55.2002 223.437C54.5965 223.437 54.2635 223.718 54.201 224.28L53.5687 224.163C53.6208 223.767 53.7847 223.45 54.0605 223.21C54.3415 222.966 54.7344 222.843 55.2392 222.843C55.7596 222.843 56.1551 222.992 56.4257 223.288C56.6963 223.585 56.8316 223.978 56.8316 224.467V226.2C56.8316 226.32 56.8577 226.408 56.9097 226.465C56.9617 226.517 57.0372 226.543 57.1361 226.543C57.2297 226.538 57.3208 226.525 57.4093 226.504V226.934C57.2532 227.033 57.0814 227.082 56.8941 227.082ZM58.1932 227.043C58.214 226.741 58.2245 226.432 58.2245 226.114V221.376H58.927V223.257C58.927 223.434 58.9166 223.619 58.8958 223.811H58.927V226.137H58.888C58.888 226.538 58.8828 226.84 58.8723 227.043H58.1932ZM60.254 227.129C59.8429 227.129 59.4994 226.996 59.2236 226.731C58.953 226.46 58.8151 226.049 58.8099 225.497V224.467C58.8151 223.915 58.953 223.507 59.2236 223.241C59.4994 222.976 59.8429 222.843 60.254 222.843C60.5767 222.843 60.8681 222.927 61.1283 223.093C61.3885 223.254 61.5914 223.496 61.7371 223.819C61.8881 224.142 61.9635 224.529 61.9635 224.982C61.9635 225.435 61.8881 225.823 61.7371 226.145C61.5914 226.468 61.3885 226.713 61.1283 226.879C60.8681 227.046 60.5767 227.129 60.254 227.129ZM60.1135 226.481C60.4934 226.481 60.777 226.356 60.9643 226.106C61.1517 225.851 61.2454 225.477 61.2454 224.982C61.2454 224.493 61.1517 224.124 60.9643 223.874C60.777 223.619 60.4934 223.491 60.1135 223.491C59.7544 223.491 59.4656 223.619 59.247 223.874C59.0337 224.129 58.927 224.498 58.927 224.982C58.927 225.471 59.0337 225.843 59.247 226.098C59.4656 226.353 59.7544 226.481 60.1135 226.481ZM63.0422 221.376H63.7447V227.043H63.0422V221.376ZM66.786 227.129C66.1459 227.129 65.6541 226.941 65.3106 226.567C64.9672 226.192 64.7954 225.664 64.7954 224.982C64.7954 224.54 64.8735 224.16 65.0296 223.843C65.1909 223.52 65.4147 223.273 65.7009 223.101C65.9923 222.929 66.3254 222.843 66.7001 222.843C67.0748 222.843 67.4 222.927 67.6758 223.093C67.9516 223.26 68.1624 223.502 68.3081 223.819C68.459 224.131 68.5345 224.498 68.5345 224.92V225.146H65.295V224.592H68.191L67.8476 224.982C67.858 224.472 67.7669 224.087 67.5744 223.827C67.387 223.567 67.0904 223.437 66.6845 223.437C66.2942 223.437 65.9976 223.564 65.7946 223.819C65.5968 224.069 65.498 224.433 65.498 224.912V225.006C65.498 225.505 65.6073 225.882 65.8258 226.137C66.0444 226.392 66.3696 226.52 66.8016 226.52C67.3584 226.52 67.7721 226.273 68.0427 225.778L68.5501 226.13C68.3888 226.437 68.1598 226.681 67.8632 226.863C67.5666 227.04 67.2075 227.129 66.786 227.129ZM71.0533 227.043C71.0741 226.741 71.0845 226.432 71.0845 226.114V221.376H71.787V223.257C71.787 223.434 71.7766 223.619 71.7558 223.811H71.787V226.137H71.748C71.748 226.538 71.7428 226.84 71.7324 227.043H71.0533ZM73.114 227.129C72.7029 227.129 72.3595 226.996 72.0836 226.731C71.813 226.46 71.6751 226.049 71.6699 225.497V224.467C71.6751 223.915 71.813 223.507 72.0836 223.241C72.3595 222.976 72.7029 222.843 73.114 222.843C73.4367 222.843 73.7281 222.927 73.9883 223.093C74.2485 223.254 74.4515 223.496 74.5972 223.819C74.7481 224.142 74.8235 224.529 74.8235 224.982C74.8235 225.435 74.7481 225.823 74.5972 226.145C74.4515 226.468 74.2485 226.713 73.9883 226.879C73.7281 227.046 73.4367 227.129 73.114 227.129ZM72.9735 226.481C73.3534 226.481 73.637 226.356 73.8244 226.106C74.0117 225.851 74.1054 225.477 74.1054 224.982C74.1054 224.493 74.0117 224.124 73.8244 223.874C73.637 223.619 73.3534 223.491 72.9735 223.491C72.6145 223.491 72.3256 223.619 72.1071 223.874C71.8937 224.129 71.787 224.498 71.787 224.982C71.787 225.471 71.8937 225.843 72.1071 226.098C72.3256 226.353 72.6145 226.481 72.9735 226.481ZM76.9778 227.129C76.5875 227.129 76.2727 227.025 76.0333 226.817C75.7991 226.608 75.682 226.338 75.682 226.005C75.682 225.672 75.7835 225.401 75.9864 225.193C76.1894 224.985 76.5251 224.829 76.9934 224.725L78.4141 224.405V224.92L77.1261 225.209C76.8607 225.271 76.6682 225.362 76.5485 225.482C76.4288 225.596 76.3689 225.747 76.3689 225.935C76.3689 226.122 76.434 226.27 76.5641 226.379C76.6942 226.484 76.8711 226.536 77.0949 226.536C77.3083 226.536 77.5086 226.489 77.696 226.395C77.8833 226.301 78.0368 226.153 78.1565 225.95C78.2762 225.747 78.336 225.495 78.336 225.193H78.4297V225.919C78.3673 226.325 78.2007 226.629 77.9301 226.832C77.6595 227.03 77.3421 227.129 76.9778 227.129ZM79.0542 227.082C78.846 227.082 78.6795 227.022 78.5546 226.902C78.4349 226.778 78.3751 226.603 78.3751 226.379V226.2H78.336V224.483C78.336 224.144 78.258 223.887 78.1019 223.71C77.9457 223.528 77.6986 223.437 77.3603 223.437C76.7566 223.437 76.4236 223.718 76.3611 224.28L75.7289 224.163C75.7809 223.767 75.9448 223.45 76.2206 223.21C76.5016 222.966 76.8945 222.843 77.3993 222.843C77.9197 222.843 78.3152 222.992 78.5858 223.288C78.8564 223.585 78.9917 223.978 78.9917 224.467V226.2C78.9917 226.32 79.0178 226.408 79.0698 226.465C79.1218 226.517 79.1973 226.543 79.2962 226.543C79.3899 226.538 79.4809 226.525 79.5694 226.504V226.934C79.4133 227.033 79.2415 227.082 79.0542 227.082ZM80.3846 221.376H81.0871V227.043H80.3846V221.376ZM83.4726 227.129C83.0823 227.129 82.7675 227.025 82.5281 226.817C82.2939 226.608 82.1768 226.338 82.1768 226.005C82.1768 225.672 82.2783 225.401 82.4813 225.193C82.6842 224.985 83.0199 224.829 83.4882 224.725L84.9089 224.405V224.92L83.6209 225.209C83.3555 225.271 83.163 225.362 83.0433 225.482C82.9236 225.596 82.8638 225.747 82.8638 225.935C82.8638 226.122 82.9288 226.27 83.0589 226.379C83.189 226.484 83.3659 226.536 83.5897 226.536C83.8031 226.536 84.0034 226.489 84.1908 226.395C84.3781 226.301 84.5316 226.153 84.6513 225.95C84.771 225.747 84.8309 225.495 84.8309 225.193H84.9245V225.919C84.8621 226.325 84.6956 226.629 84.4249 226.832C84.1543 227.03 83.8369 227.129 83.4726 227.129ZM85.549 227.082C85.3408 227.082 85.1743 227.022 85.0494 226.902C84.9297 226.778 84.8699 226.603 84.8699 226.379V226.2H84.8309V224.483C84.8309 224.144 84.7528 223.887 84.5967 223.71C84.4406 223.528 84.1934 223.437 83.8551 223.437C83.2515 223.437 82.9184 223.718 82.8559 224.28L82.2237 224.163C82.2757 223.767 82.4396 223.45 82.7154 223.21C82.9965 222.966 83.3894 222.843 83.8941 222.843C84.4145 222.843 84.81 222.992 85.0806 223.288C85.3513 223.585 85.4866 223.978 85.4866 224.467V226.2C85.4866 226.32 85.5126 226.408 85.5646 226.465C85.6167 226.517 85.6921 226.543 85.791 226.543C85.8847 226.538 85.9757 226.525 86.0642 226.504V226.934C85.9081 227.033 85.7364 227.082 85.549 227.082ZM86.8794 223.85C86.8794 223.517 86.869 223.208 86.8482 222.921H87.5273C87.5481 223.182 87.5585 223.439 87.5585 223.694H87.5819V227.043H86.8794V223.85ZM89.6583 224.522C89.6583 224.178 89.5802 223.921 89.4241 223.749C89.268 223.572 89.0286 223.483 88.706 223.483C88.3729 223.483 88.1023 223.588 87.8942 223.796C87.686 223.999 87.5819 224.316 87.5819 224.748H87.5195V223.858C87.5923 223.535 87.7536 223.286 88.0034 223.109C88.2532 222.932 88.5473 222.843 88.8855 222.843C89.3539 222.843 89.7155 222.979 89.9705 223.249C90.2307 223.52 90.3608 223.918 90.3608 224.444V227.043H89.6583V224.522ZM93.2516 227.129C92.8769 227.129 92.5439 227.046 92.2524 226.879C91.961 226.707 91.732 226.46 91.5655 226.137C91.4042 225.815 91.3235 225.43 91.3235 224.982C91.3235 224.535 91.4042 224.15 91.5655 223.827C91.732 223.504 91.961 223.26 92.2524 223.093C92.5439 222.927 92.8769 222.843 93.2516 222.843C93.72 222.843 94.1051 222.976 94.4069 223.241C94.7139 223.502 94.9247 223.866 95.0392 224.334L94.4147 224.506C94.3262 224.168 94.1831 223.91 93.9854 223.733C93.7928 223.556 93.5508 223.468 93.2594 223.468C92.8691 223.468 92.5673 223.598 92.3539 223.858C92.1458 224.113 92.0417 224.488 92.0417 224.982C92.0417 225.482 92.1458 225.859 92.3539 226.114C92.5673 226.369 92.8691 226.497 93.2594 226.497C93.5508 226.497 93.7928 226.408 93.9854 226.231C94.1831 226.054 94.3236 225.797 94.4069 225.458L95.0314 225.638C94.9221 226.096 94.7139 226.46 94.4069 226.731C94.1051 226.996 93.72 227.129 93.2516 227.129ZM97.7354 227.129C97.0953 227.129 96.6035 226.941 96.2601 226.567C95.9166 226.192 95.7449 225.664 95.7449 224.982C95.7449 224.54 95.8229 224.16 95.9791 223.843C96.1404 223.52 96.3642 223.273 96.6504 223.101C96.9418 222.929 97.2749 222.843 97.6495 222.843C98.0242 222.843 98.3495 222.927 98.6253 223.093C98.9011 223.26 99.1119 223.502 99.2576 223.819C99.4085 224.131 99.4839 224.498 99.4839 224.92V225.146H96.2445V224.592H99.1405L98.797 224.982C98.8074 224.472 98.7164 224.087 98.5238 223.827C98.3365 223.567 98.0398 223.437 97.6339 223.437C97.2436 223.437 96.947 223.564 96.744 223.819C96.5463 224.069 96.4474 224.433 96.4474 224.912V225.006C96.4474 225.505 96.5567 225.882 96.7753 226.137C96.9938 226.392 97.3191 226.52 97.751 226.52C98.3078 226.52 98.7216 226.273 98.9922 225.778L99.4996 226.13C99.3382 226.437 99.1093 226.681 98.8126 226.863C98.516 227.04 98.1569 227.129 97.7354 227.129Z" fill="#001428" fill-opacity="0.5"/>
<path d="M41.6387 255.979C40.7447 255.949 39.8969 255.864 39.0954 255.725C38.3093 255.586 37.6465 255.394 37.107 255.147V252.881C37.6619 253.143 38.3555 253.382 39.1879 253.598C40.0356 253.798 40.8526 253.906 41.6387 253.922V249.598C40.8372 249.351 40.1435 249.089 39.5578 248.812C38.9875 248.534 38.5173 248.234 38.1474 247.91C37.7929 247.571 37.5231 247.186 37.3382 246.754C37.1686 246.323 37.0838 245.829 37.0838 245.274C37.0838 244.519 37.2688 243.872 37.6387 243.332C38.0241 242.777 38.5559 242.338 39.2341 242.014C39.9277 241.691 40.7293 241.498 41.6387 241.436V239.494H43.1415V241.413C43.9739 241.429 44.7369 241.521 45.4305 241.691C46.1242 241.845 46.7793 242.053 47.3958 242.315L46.6328 244.303C46.1087 244.087 45.5384 243.91 44.9219 243.772C44.3207 243.617 43.7273 243.517 43.1415 243.471V247.725C44.0972 248.033 44.9219 248.357 45.6155 248.696C46.3245 249.035 46.8717 249.459 47.2571 249.968C47.6424 250.461 47.8351 251.116 47.8351 251.933C47.8351 253.028 47.4266 253.922 46.6097 254.615C45.8082 255.309 44.6521 255.733 43.1415 255.887V258.384H41.6387V255.979ZM43.1415 253.829C43.9431 253.737 44.5211 253.544 44.8756 253.251C45.2456 252.943 45.4305 252.55 45.4305 252.072C45.4305 251.748 45.3535 251.471 45.1993 251.24C45.0606 251.008 44.8217 250.808 44.4826 250.638C44.1589 250.469 43.7119 250.299 43.1415 250.13V253.829ZM41.6387 243.517C41.1608 243.548 40.7601 243.64 40.4364 243.795C40.1281 243.933 39.8892 244.118 39.7196 244.35C39.5655 244.581 39.4884 244.85 39.4884 245.159C39.4884 245.498 39.5578 245.798 39.6965 246.06C39.8352 246.307 40.0587 246.523 40.367 246.708C40.6753 246.877 41.0992 247.039 41.6387 247.193V243.517ZM50.8932 257.043V254.893H55.1244V244.627C54.2689 245.182 52.951 245.621 51.5406 245.806L51.032 243.633C52.6967 243.378 54.3614 242.731 55.5868 241.714H57.7139V254.893H61.3208V257.043H50.8932ZM68.9327 257.32C65.0946 257.32 63.0599 254.338 63.0599 249.39C63.0599 244.396 65.0946 241.436 68.9327 241.436C72.7708 241.436 74.8054 244.396 74.8054 249.39C74.8054 254.361 72.7708 257.32 68.9327 257.32ZM68.9327 255.008C71.0136 255.008 72.1465 253.413 72.1465 249.39C72.1465 245.344 71.0136 243.748 68.9327 243.748C66.8518 243.748 65.7189 245.344 65.7189 249.39C65.7189 253.413 66.8518 255.008 68.9327 255.008ZM82.2092 257.32C78.3711 257.32 76.3365 254.338 76.3365 249.39C76.3365 244.396 78.3711 241.436 82.2092 241.436C86.0473 241.436 88.0819 244.396 88.0819 249.39C88.0819 254.361 86.0473 257.32 82.2092 257.32ZM82.2092 255.008C84.2901 255.008 85.423 253.413 85.423 249.39C85.423 245.344 84.2901 243.748 82.2092 243.748C80.1283 243.748 78.9954 245.344 78.9954 249.39C78.9954 253.413 80.1283 255.008 82.2092 255.008ZM94.1216 255.91C94.1216 257.32 93.5204 258.916 92.4338 260.234H89.8904C90.8384 259.193 91.6014 258.13 92.1101 257.135C91.0465 257.112 90.3066 256.465 90.3066 255.355C90.3066 254.222 91.1159 253.575 92.2025 253.575C93.2892 253.575 94.1216 254.338 94.1216 255.91ZM102.079 257.32C98.2407 257.32 96.2061 254.338 96.2061 249.39C96.2061 244.396 98.2407 241.436 102.079 241.436C105.917 241.436 107.952 244.396 107.952 249.39C107.952 254.361 105.917 257.32 102.079 257.32ZM102.079 255.008C104.16 255.008 105.293 253.413 105.293 249.39C105.293 245.344 104.16 243.748 102.079 243.748C99.9979 243.748 98.865 245.344 98.865 249.39C98.865 253.413 99.9979 255.008 102.079 255.008ZM115.355 257.32C111.517 257.32 109.483 254.338 109.483 249.39C109.483 244.396 111.517 241.436 115.355 241.436C119.193 241.436 121.228 244.396 121.228 249.39C121.228 254.361 119.193 257.32 115.355 257.32ZM115.355 255.008C117.436 255.008 118.569 253.413 118.569 249.39C118.569 245.344 117.436 243.748 115.355 243.748C113.274 243.748 112.142 245.344 112.142 249.39C112.142 253.413 113.274 255.008 115.355 255.008ZM128.632 257.32C124.794 257.32 122.759 254.338 122.759 249.39C122.759 244.396 124.794 241.436 128.632 241.436C132.47 241.436 134.505 244.396 134.505 249.39C134.505 254.361 132.47 257.32 128.632 257.32ZM128.632 255.008C130.713 255.008 131.846 253.413 131.846 249.39C131.846 245.344 130.713 243.748 128.632 243.748C126.551 243.748 125.418 245.344 125.418 249.39C125.418 253.413 126.551 255.008 128.632 255.008Z" fill="#001428"/>
<circle opacity="0.2" cx="189.746" cy="226.348" r="26.4082" stroke="#24BC8F" stroke-width="5.3949"/>
<path d="M181.501 231.299V235.387H180.91V231.299H181.501ZM183.462 231.299V231.823H181.273V231.299H183.462ZM183.283 233.136V233.654H181.273V233.136H183.283ZM186.147 235.387C186.131 235.181 186.123 234.978 186.123 234.776H186.098V232.131H186.653V234.653C186.653 234.92 186.663 235.165 186.684 235.387H186.147ZM185.093 235.455C184.727 235.455 184.446 235.348 184.248 235.134C184.055 234.92 183.959 234.604 183.959 234.184V232.131H184.514V234.117C184.514 234.396 184.571 234.604 184.686 234.739C184.805 234.875 184.988 234.943 185.235 234.943C185.49 234.943 185.697 234.861 185.858 234.696C186.018 234.532 186.098 234.281 186.098 233.944H186.154V234.641C186.096 234.896 185.969 235.095 185.771 235.239C185.578 235.383 185.352 235.455 185.093 235.455ZM187.742 232.865C187.742 232.602 187.733 232.357 187.717 232.131H188.253C188.27 232.337 188.278 232.54 188.278 232.742H188.296V235.387H187.742V232.865ZM189.936 233.395C189.936 233.124 189.875 232.92 189.752 232.785C189.628 232.645 189.439 232.575 189.184 232.575C188.921 232.575 188.707 232.657 188.543 232.822C188.379 232.982 188.296 233.233 188.296 233.574H188.247V232.871C188.305 232.616 188.432 232.419 188.629 232.279C188.827 232.139 189.059 232.07 189.326 232.07C189.696 232.07 189.982 232.176 190.183 232.39C190.389 232.604 190.491 232.918 190.491 233.334V235.387H189.936V233.395ZM192.633 235.455C192.378 235.455 192.148 235.389 191.942 235.257C191.737 235.126 191.574 234.933 191.455 234.678C191.34 234.423 191.282 234.117 191.282 233.759C191.282 233.401 191.34 233.095 191.455 232.84C191.574 232.585 191.737 232.394 191.942 232.267C192.148 232.135 192.378 232.07 192.633 232.07C192.962 232.07 193.233 232.174 193.447 232.384C193.66 232.594 193.769 232.916 193.773 233.352V234.166C193.769 234.602 193.66 234.926 193.447 235.14C193.233 235.35 192.962 235.455 192.633 235.455ZM192.744 234.943C193.027 234.943 193.255 234.842 193.428 234.641C193.601 234.439 193.687 234.145 193.687 233.759C193.687 233.377 193.601 233.085 193.428 232.883C193.255 232.682 193.027 232.581 192.744 232.581C192.448 232.581 192.224 232.682 192.072 232.883C191.924 233.081 191.85 233.373 191.85 233.759C191.85 234.149 191.924 234.445 192.072 234.647C192.224 234.844 192.448 234.943 192.744 234.943ZM193.724 235.387C193.712 235.169 193.71 234.93 193.718 234.672H193.687V232.834H193.706C193.689 232.678 193.681 232.532 193.681 232.396V230.91H194.236V234.653C194.236 234.887 194.242 235.132 194.254 235.387H193.724ZM196.494 235.455C195.717 235.455 195.238 235.13 195.057 234.48L195.538 234.314C195.608 234.548 195.723 234.721 195.883 234.832C196.044 234.939 196.253 234.992 196.512 234.992C196.746 234.992 196.929 234.947 197.061 234.856C197.192 234.762 197.258 234.639 197.258 234.487C197.258 234.38 197.234 234.293 197.184 234.228C197.135 234.158 197.047 234.102 196.919 234.061C196.792 234.016 196.613 233.985 196.383 233.969C195.959 233.936 195.645 233.847 195.439 233.704C195.238 233.556 195.137 233.34 195.137 233.056C195.137 232.863 195.189 232.692 195.291 232.544C195.398 232.392 195.546 232.275 195.735 232.193C195.924 232.111 196.144 232.07 196.395 232.07C196.757 232.07 197.051 232.154 197.277 232.322C197.503 232.487 197.657 232.723 197.739 233.031L197.234 233.155C197.18 232.941 197.079 232.783 196.931 232.68C196.783 232.577 196.594 232.526 196.364 232.526C196.159 232.526 195.992 232.573 195.865 232.668C195.741 232.762 195.68 232.886 195.68 233.038C195.68 233.136 195.702 233.216 195.748 233.278C195.797 233.336 195.881 233.383 196 233.42C196.12 233.453 196.286 233.477 196.5 233.494C196.968 233.527 197.301 233.621 197.499 233.777C197.696 233.93 197.795 234.162 197.795 234.474C197.795 234.77 197.677 235.009 197.443 235.189C197.209 235.366 196.892 235.455 196.494 235.455Z" fill="#001428" fill-opacity="0.5"/>
<path d="M184.864 220.793C184.864 221.17 184.768 221.513 184.575 221.822C184.383 222.122 184.097 222.357 183.72 222.527C183.35 222.696 182.907 222.781 182.39 222.781C181.874 222.781 181.427 222.696 181.049 222.527C180.679 222.357 180.398 222.126 180.205 221.833C180.02 221.533 179.928 221.186 179.928 220.793C179.928 220.407 180.024 220.057 180.217 219.741C180.417 219.417 180.702 219.163 181.072 218.978C181.45 218.785 181.889 218.689 182.39 218.689C182.891 218.689 183.327 218.785 183.697 218.978C184.074 219.163 184.363 219.417 184.564 219.741C184.764 220.057 184.864 220.407 184.864 220.793ZM182.39 222.018C182.76 222.018 183.057 221.914 183.28 221.706C183.512 221.498 183.627 221.224 183.627 220.885C183.627 220.546 183.512 220.272 183.28 220.064C183.057 219.849 182.76 219.741 182.39 219.741C182.028 219.741 181.731 219.849 181.5 220.064C181.277 220.272 181.165 220.546 181.165 220.885C181.165 221.224 181.277 221.498 181.5 221.706C181.731 221.914 182.028 222.018 182.39 222.018ZM185.223 224.388C185.223 224.843 185.103 225.24 184.864 225.579C184.633 225.91 184.305 226.168 183.882 226.353C183.458 226.531 182.961 226.619 182.39 226.619C181.828 226.619 181.331 226.531 180.899 226.353C180.475 226.176 180.148 225.922 179.916 225.59C179.685 225.251 179.57 224.85 179.57 224.388C179.57 223.733 179.812 223.213 180.298 222.827C180.791 222.442 181.489 222.249 182.39 222.249C182.976 222.249 183.481 222.338 183.905 222.515C184.336 222.692 184.664 222.943 184.887 223.267C185.111 223.583 185.223 223.956 185.223 224.388ZM182.39 225.544C182.884 225.544 183.265 225.428 183.535 225.197C183.805 224.966 183.939 224.662 183.939 224.284C183.939 223.906 183.801 223.602 183.523 223.371C183.253 223.132 182.876 223.012 182.39 223.012C181.905 223.012 181.523 223.128 181.246 223.359C180.976 223.59 180.841 223.899 180.841 224.284C180.841 224.662 180.976 224.966 181.246 225.197C181.523 225.428 181.905 225.544 182.39 225.544ZM189.029 226.619C188.073 226.619 187.345 226.272 186.844 225.579C186.343 224.885 186.092 223.91 186.092 222.654C186.092 221.398 186.343 220.423 186.844 219.729C187.345 219.028 188.073 218.677 189.029 218.677C189.984 218.677 190.713 219.024 191.213 219.718C191.714 220.411 191.965 221.39 191.965 222.654C191.965 223.91 191.714 224.885 191.213 225.579C190.713 226.272 189.984 226.619 189.029 226.619ZM189.029 225.463C189.383 225.463 189.68 225.367 189.919 225.174C190.158 224.981 190.335 224.677 190.45 224.261C190.574 223.845 190.635 223.309 190.635 222.654C190.635 221.991 190.574 221.452 190.45 221.035C190.335 220.619 190.158 220.315 189.919 220.122C189.68 219.93 189.383 219.833 189.029 219.833C188.674 219.833 188.377 219.93 188.138 220.122C187.899 220.315 187.718 220.619 187.595 221.035C187.479 221.444 187.422 221.983 187.422 222.654C187.422 223.309 187.479 223.845 187.595 224.261C187.718 224.677 187.899 224.981 188.138 225.174C188.377 225.367 188.674 225.463 189.029 225.463ZM198.499 218.816H199.574L194.661 226.48H193.586L198.499 218.816ZM194.43 222.723C193.89 222.723 193.474 222.546 193.181 222.192C192.896 221.829 192.754 221.34 192.754 220.723C192.754 220.107 192.896 219.621 193.181 219.267C193.474 218.904 193.89 218.723 194.43 218.723C194.969 218.723 195.382 218.901 195.667 219.255C195.96 219.61 196.106 220.099 196.106 220.723C196.106 221.348 195.96 221.837 195.667 222.192C195.382 222.546 194.969 222.723 194.43 222.723ZM194.43 221.845C194.638 221.845 194.8 221.756 194.915 221.579C195.039 221.402 195.1 221.116 195.1 220.723C195.1 220.33 195.039 220.045 194.915 219.868C194.8 219.691 194.638 219.602 194.43 219.602C193.991 219.602 193.771 219.976 193.771 220.723C193.771 221.124 193.829 221.413 193.944 221.59C194.06 221.76 194.222 221.845 194.43 221.845ZM198.707 226.561C198.168 226.561 197.752 226.384 197.459 226.03C197.174 225.667 197.031 225.178 197.031 224.561C197.031 223.945 197.174 223.459 197.459 223.105C197.752 222.743 198.168 222.561 198.707 222.561C199.247 222.561 199.659 222.739 199.944 223.093C200.237 223.448 200.383 223.937 200.383 224.561C200.383 225.186 200.237 225.675 199.944 226.03C199.659 226.384 199.247 226.561 198.707 226.561ZM198.707 225.683C198.915 225.683 199.077 225.594 199.193 225.417C199.316 225.24 199.378 224.954 199.378 224.561C199.378 224.168 199.316 223.883 199.193 223.706C199.077 223.529 198.915 223.44 198.707 223.44C198.268 223.44 198.048 223.814 198.048 224.561C198.048 224.962 198.102 225.251 198.21 225.428C198.326 225.598 198.491 225.683 198.707 225.683Z" fill="#001428"/>
<path d="M163.462 226.347C163.462 240.866 175.232 252.636 189.751 252.636C204.269 252.636 216.039 240.866 216.039 226.347C216.039 211.828 204.269 200.059 189.751 200.059" stroke="#24BC8F" stroke-width="5.3949" stroke-linecap="round"/>
<rect x="35.7891" y="159.477" width="18.4968" height="18.4968" rx="2.3121" fill="#0043F2"/>
<path d="M45.0354 162.465C43.7969 162.465 42.5862 162.832 41.5564 163.52C40.5267 164.208 39.7241 165.186 39.2501 166.33C38.7762 167.475 38.6521 168.734 38.8938 169.948C39.1354 171.163 39.7318 172.279 40.6075 173.155C41.4833 174.03 42.599 174.627 43.8137 174.868C45.0284 175.11 46.2875 174.986 47.4317 174.512C48.5759 174.038 49.5539 173.236 50.242 172.206C50.9301 171.176 51.2973 169.965 51.2973 168.727C51.2956 167.067 50.6353 165.475 49.4613 164.301C48.2873 163.127 46.6956 162.467 45.0354 162.465ZM41.7888 172.911C42.1373 172.366 42.6173 171.918 43.1847 171.607C43.7521 171.297 44.3885 171.134 45.0354 171.134C45.6822 171.134 46.3187 171.297 46.8861 171.607C47.4535 171.918 47.9335 172.366 48.282 172.911C47.3537 173.633 46.2113 174.025 45.0354 174.025C43.8594 174.025 42.7171 173.633 41.7888 172.911ZM43.1086 168.245C43.1086 167.864 43.2216 167.492 43.4333 167.175C43.6451 166.858 43.946 166.611 44.298 166.465C44.6501 166.319 45.0375 166.281 45.4113 166.355C45.785 166.43 46.1283 166.613 46.3978 166.883C46.6673 167.152 46.8508 167.495 46.9251 167.869C46.9995 168.243 46.9613 168.63 46.8155 168.982C46.6696 169.335 46.4227 169.635 46.1058 169.847C45.789 170.059 45.4165 170.172 45.0354 170.172C44.5244 170.172 44.0343 169.969 43.673 169.608C43.3116 169.246 43.1086 168.756 43.1086 168.245ZM48.9949 172.244C48.4576 171.465 47.7022 170.863 46.8236 170.513C47.2956 170.141 47.64 169.631 47.8089 169.055C47.9778 168.478 47.9629 167.864 47.7662 167.296C47.5695 166.728 47.2008 166.236 46.7114 165.888C46.222 165.539 45.6361 165.352 45.0354 165.352C44.4346 165.352 43.8488 165.539 43.3594 165.888C42.87 166.236 42.5013 166.728 42.3046 167.296C42.1079 167.864 42.0929 168.478 42.2619 169.055C42.4308 169.631 42.7752 170.141 43.2471 170.513C42.3685 170.863 41.6131 171.465 41.0759 172.244C40.3971 171.48 39.9534 170.537 39.7983 169.527C39.6431 168.518 39.7832 167.485 40.2016 166.553C40.62 165.621 41.2989 164.83 42.1565 164.275C43.0141 163.719 44.0138 163.424 45.0354 163.424C46.0569 163.424 47.0567 163.719 47.9143 164.275C48.7719 164.83 49.4508 165.621 49.8692 166.553C50.2876 167.485 50.4276 168.518 50.2725 169.527C50.1174 170.537 49.6737 171.48 48.9949 172.244Z" fill="white"/>
<line x1="25" y1="182.986" x2="230.777" y2="182.986" stroke="#D2D2D2" stroke-width="0.770701"/>
<path d="M59.1001 171.57L61.8083 164.417H63.3297L66.0271 171.57H64.646L64.031 169.866H61.0315L60.4164 171.57H59.1001ZM61.4091 168.819H63.6534L62.9628 166.92C62.8226 166.531 62.6715 166.003 62.5312 165.517C62.4018 166.003 62.2507 166.531 62.0997 166.92L61.4091 168.819ZM69.116 171.7C67.5299 171.7 66.3862 170.642 66.3862 168.711C66.3862 166.78 67.5299 165.733 69.116 165.733C70.4647 165.733 71.3818 166.521 71.6516 167.859L70.5618 168.15C70.3568 167.298 69.8605 166.834 69.1376 166.834C68.1881 166.834 67.6378 167.459 67.6378 168.711C67.6378 169.952 68.1881 170.588 69.1376 170.588C69.8605 170.588 70.3568 170.135 70.551 169.272L71.6516 169.563C71.3818 170.901 70.4647 171.7 69.116 171.7ZM75.1195 171.7C73.5334 171.7 72.3897 170.642 72.3897 168.711C72.3897 166.78 73.5334 165.733 75.1195 165.733C76.4682 165.733 77.3854 166.521 77.6551 167.859L76.5653 168.15C76.3603 167.298 75.864 166.834 75.1411 166.834C74.1916 166.834 73.6413 167.459 73.6413 168.711C73.6413 169.952 74.1916 170.588 75.1411 170.588C75.864 170.588 76.3603 170.135 76.5545 169.272L77.6551 169.563C77.3854 170.901 76.4682 171.7 75.1195 171.7ZM81.1554 171.7C79.6017 171.7 78.3932 170.642 78.3932 168.711C78.3932 166.78 79.6017 165.733 81.1554 165.733C82.7199 165.733 83.9176 166.78 83.9176 168.711C83.9176 170.642 82.7199 171.7 81.1554 171.7ZM81.1554 170.588C82.0941 170.588 82.6444 169.963 82.6444 168.711C82.6444 167.459 82.0941 166.844 81.1554 166.844C80.2275 166.844 79.6664 167.459 79.6664 168.711C79.6664 169.963 80.2275 170.588 81.1554 170.588ZM88.8032 171.57C88.7708 171.182 88.76 170.837 88.76 170.545H88.7384C88.4471 171.29 87.7781 171.7 86.9797 171.7C85.7496 171.7 85.0052 170.977 85.0052 169.456V165.852H86.2568V169.283C86.2568 170.114 86.5913 170.534 87.3573 170.534C88.1018 170.534 88.6845 170.092 88.6845 169.002V165.852H89.9361V170.286C89.9361 170.696 89.9469 171.128 89.9793 171.57H88.8032ZM91.5694 167.136C91.5694 166.726 91.5586 166.294 91.5262 165.852H92.7131C92.7455 166.229 92.7563 166.596 92.7563 166.888H92.7671C93.0584 166.132 93.7382 165.733 94.5582 165.733C95.799 165.733 96.5867 166.445 96.5867 167.967V171.57H95.335V168.139C95.335 167.308 94.9682 166.877 94.1805 166.877C93.4253 166.877 92.821 167.319 92.821 168.42V171.57H91.5694V167.136ZM99.8159 171.678C98.8771 171.678 98.3592 171.171 98.3592 170.146V167.006H97.4097V165.938H98.3808V164.535H99.6108V165.938H100.884V167.006H99.6108V169.963C99.6108 170.394 99.8159 170.588 100.226 170.588C100.442 170.588 100.69 170.567 100.884 170.502V171.387C100.614 171.56 100.226 171.678 99.8159 171.678ZM104.09 171.7C102.742 171.7 101.857 171.171 101.501 170.027L102.58 169.639C102.806 170.383 103.335 170.696 104.123 170.696C104.835 170.696 105.245 170.394 105.245 169.952C105.245 169.509 104.997 169.261 103.929 169.175C102.332 169.045 101.652 168.517 101.652 167.524C101.652 166.478 102.537 165.733 103.939 165.733C105.288 165.733 106.097 166.37 106.389 167.438L105.256 167.697C105.083 167.028 104.598 166.715 103.907 166.715C103.27 166.715 102.86 167.039 102.86 167.481C102.86 167.891 103.13 168.085 104.123 168.161C105.86 168.301 106.464 168.84 106.464 169.919C106.464 171.02 105.547 171.7 104.09 171.7ZM109.707 171.57V164.417H112.621C114.466 164.417 115.275 165.312 115.275 166.575C115.275 167.848 114.466 168.733 112.621 168.733H111.035V171.57H109.707ZM111.035 167.654H112.48C113.592 167.654 113.937 167.244 113.937 166.575C113.937 165.916 113.592 165.506 112.48 165.506H111.035V167.654ZM117.628 171.7C116.505 171.7 115.804 171.031 115.804 170.114C115.804 169.207 116.3 168.592 117.671 168.301L119.419 167.923C119.376 167.179 119.009 166.769 118.21 166.769C117.412 166.769 117.045 167.179 116.969 167.805L115.858 167.578C116.009 166.542 116.775 165.733 118.286 165.733C119.85 165.733 120.595 166.726 120.595 168.074V170.243C120.595 170.556 120.746 170.686 121.005 170.686C121.124 170.686 121.242 170.664 121.35 170.642V171.398C121.134 171.538 120.875 171.635 120.552 171.635C119.904 171.635 119.516 171.257 119.516 170.632V170.437H119.505C119.225 171.311 118.469 171.7 117.628 171.7ZM117.023 169.973C117.023 170.416 117.347 170.707 117.908 170.707C118.631 170.707 119.419 170.222 119.419 169.035V168.776L117.941 169.099C117.272 169.24 117.023 169.542 117.023 169.973ZM122.875 173.761C122.519 173.761 122.185 173.674 121.926 173.556V172.639C122.12 172.682 122.368 172.703 122.638 172.703C123.177 172.703 123.49 172.433 123.49 171.905C123.49 171.549 123.393 171.214 123.091 170.437L121.343 165.852H122.692L124.019 169.574C124.138 169.909 124.224 170.276 124.278 170.642C124.343 170.276 124.429 169.909 124.537 169.574L125.691 165.852H126.986L124.753 172.261C124.386 173.351 123.771 173.761 122.875 173.761ZM129.161 171.7C128.038 171.7 127.337 171.031 127.337 170.114C127.337 169.207 127.833 168.592 129.204 168.301L130.952 167.923C130.908 167.179 130.542 166.769 129.743 166.769C128.945 166.769 128.578 167.179 128.502 167.805L127.391 167.578C127.542 166.542 128.308 165.733 129.819 165.733C131.383 165.733 132.128 166.726 132.128 168.074V170.243C132.128 170.556 132.279 170.686 132.538 170.686C132.656 170.686 132.775 170.664 132.883 170.642V171.398C132.667 171.538 132.408 171.635 132.085 171.635C131.437 171.635 131.049 171.257 131.049 170.632V170.437H131.038C130.757 171.311 130.002 171.7 129.161 171.7ZM128.556 169.973C128.556 170.416 128.88 170.707 129.441 170.707C130.164 170.707 130.952 170.222 130.952 169.035V168.776L129.473 169.099C128.804 169.24 128.556 169.542 128.556 169.973ZM133.749 171.57C133.781 171.139 133.792 170.707 133.792 170.286V163.737H135.043V166.143C135.043 166.456 135.033 166.715 135 166.941H135.022C135.313 166.1 136.014 165.733 136.802 165.733C138.118 165.733 139.165 166.747 139.165 168.722C139.165 170.686 138.118 171.7 136.802 171.7C135.993 171.7 135.27 171.311 134.989 170.416H134.968C134.968 170.804 134.968 171.214 134.946 171.57H133.749ZM136.5 170.556C137.417 170.556 137.892 169.93 137.892 168.722C137.892 167.503 137.417 166.877 136.5 166.877C135.637 166.877 135.043 167.492 135.043 168.722C135.043 169.941 135.637 170.556 136.5 170.556ZM140.375 171.57V163.737H141.626V171.57H140.375ZM145.676 171.7C143.864 171.7 142.828 170.621 142.828 168.722C142.828 166.812 143.939 165.733 145.547 165.733C147.122 165.733 148.158 166.812 148.158 168.689V169.013H144.069C144.133 170.092 144.694 170.653 145.687 170.653C146.399 170.653 146.906 170.351 147.262 169.747L148.126 170.394C147.683 171.171 146.863 171.7 145.676 171.7ZM144.09 168.15H146.939C146.842 167.222 146.378 166.747 145.525 166.747C144.684 166.747 144.198 167.222 144.09 168.15Z" fill="#051E36"/>
</g>
<g clip-path="url(#clip1_8622_5736)">
<rect x="66" y="197" width="261.031" height="132.063" rx="8.25395" fill="white"/>
<rect x="66" y="197" width="261.031" height="85.6348" fill="white"/>
<path d="M78.5066 220.383L81.6142 212.174H83.3599L86.4552 220.383H84.8704L84.1647 218.427H80.7228L80.0171 220.383H78.5066ZM81.1561 217.226H83.7314L82.939 215.047C82.778 214.601 82.6047 213.994 82.4438 213.437C82.2952 213.994 82.1219 214.601 81.9485 215.047L81.1561 217.226ZM89.9995 220.531C88.1795 220.531 86.8671 219.318 86.8671 217.102C86.8671 214.886 88.1795 213.685 89.9995 213.685C91.5471 213.685 92.5995 214.589 92.909 216.124L91.6586 216.458C91.4233 215.48 90.8538 214.948 90.0243 214.948C88.9347 214.948 88.3033 215.666 88.3033 217.102C88.3033 218.526 88.9347 219.256 90.0243 219.256C90.8538 219.256 91.4233 218.736 91.6462 217.746L92.909 218.08C92.5995 219.615 91.5471 220.531 89.9995 220.531ZM96.8883 220.531C95.0683 220.531 93.756 219.318 93.756 217.102C93.756 214.886 95.0683 213.685 96.8883 213.685C98.436 213.685 99.4883 214.589 99.7979 216.124L98.5474 216.458C98.3121 215.48 97.7426 214.948 96.9131 214.948C95.8236 214.948 95.1921 215.666 95.1921 217.102C95.1921 218.526 95.8236 219.256 96.9131 219.256C97.7426 219.256 98.3121 218.736 98.535 217.746L99.7979 218.08C99.4883 219.615 98.436 220.531 96.8883 220.531ZM103.814 220.531C102.031 220.531 100.645 219.318 100.645 217.102C100.645 214.886 102.031 213.685 103.814 213.685C105.61 213.685 106.984 214.886 106.984 217.102C106.984 219.318 105.61 220.531 103.814 220.531ZM103.814 219.256C104.891 219.256 105.523 218.538 105.523 217.102C105.523 215.666 104.891 214.96 103.814 214.96C102.75 214.96 102.106 215.666 102.106 217.102C102.106 218.538 102.75 219.256 103.814 219.256ZM112.59 220.383C112.553 219.937 112.54 219.541 112.54 219.207H112.516C112.181 220.061 111.414 220.531 110.497 220.531C109.086 220.531 108.232 219.702 108.232 217.956V213.821H109.668V217.758C109.668 218.711 110.052 219.194 110.931 219.194C111.785 219.194 112.454 218.687 112.454 217.436V213.821H113.89V218.909C113.89 219.38 113.902 219.875 113.939 220.383H112.59ZM115.764 215.294C115.764 214.824 115.752 214.329 115.715 213.821H117.076C117.114 214.254 117.126 214.675 117.126 215.009H117.138C117.473 214.143 118.253 213.685 119.194 213.685C120.617 213.685 121.521 214.502 121.521 216.248V220.383H120.085V216.446C120.085 215.492 119.664 214.997 118.76 214.997C117.894 214.997 117.2 215.505 117.2 216.768V220.383H115.764V215.294ZM125.227 220.507C124.149 220.507 123.555 219.925 123.555 218.749V215.146H122.466V213.92H123.58V212.31H124.991V213.92H126.452V215.146H124.991V218.538C124.991 219.033 125.227 219.256 125.697 219.256C125.945 219.256 126.229 219.231 126.452 219.157V220.172C126.143 220.37 125.697 220.507 125.227 220.507ZM130.131 220.531C128.584 220.531 127.569 219.925 127.16 218.612L128.398 218.167C128.658 219.021 129.265 219.38 130.169 219.38C130.986 219.38 131.456 219.033 131.456 218.526C131.456 218.018 131.171 217.733 129.946 217.634C128.113 217.486 127.333 216.879 127.333 215.74C127.333 214.539 128.349 213.685 129.958 213.685C131.506 213.685 132.434 214.415 132.769 215.641L131.469 215.938C131.27 215.17 130.713 214.811 129.921 214.811C129.19 214.811 128.72 215.183 128.72 215.69C128.72 216.161 129.03 216.384 130.169 216.47C132.162 216.631 132.855 217.25 132.855 218.489C132.855 219.751 131.803 220.531 130.131 220.531ZM136.577 220.383V212.174H139.932C142.161 212.174 143.015 213.202 143.015 214.539C143.015 215.567 142.47 216.272 141.356 216.545C141.95 216.768 142.222 217.275 142.445 218.167C142.792 219.615 142.941 220.049 143.139 220.358V220.383H141.504C141.356 220.123 141.207 219.64 140.935 218.402C140.712 217.399 140.353 217.089 139.523 217.089H138.1V220.383H136.577ZM138.1 215.926H139.796C141.071 215.926 141.455 215.43 141.455 214.675C141.455 213.92 141.071 213.425 139.796 213.425H138.1V215.926ZM147.48 220.531C145.4 220.531 144.212 219.293 144.212 217.114C144.212 214.923 145.487 213.685 147.332 213.685C149.139 213.685 150.328 214.923 150.328 217.077V217.449H145.635C145.71 218.687 146.354 219.33 147.493 219.33C148.31 219.33 148.892 218.984 149.3 218.29L150.291 219.033C149.783 219.925 148.842 220.531 147.48 220.531ZM145.66 216.458H148.929C148.817 215.393 148.285 214.849 147.307 214.849C146.341 214.849 145.784 215.393 145.66 216.458ZM154.426 220.531C152.606 220.531 151.294 219.318 151.294 217.102C151.294 214.886 152.606 213.685 154.426 213.685C155.974 213.685 157.026 214.589 157.336 216.124L156.085 216.458C155.85 215.48 155.281 214.948 154.451 214.948C153.362 214.948 152.73 215.666 152.73 217.102C152.73 218.526 153.362 219.256 154.451 219.256C155.281 219.256 155.85 218.736 156.073 217.746L157.336 218.08C157.026 219.615 155.974 220.531 154.426 220.531ZM161.451 220.531C159.371 220.531 158.183 219.293 158.183 217.114C158.183 214.923 159.458 213.685 161.303 213.685C163.11 213.685 164.299 214.923 164.299 217.077V217.449H159.607C159.681 218.687 160.325 219.33 161.464 219.33C162.281 219.33 162.863 218.984 163.271 218.29L164.262 219.033C163.754 219.925 162.813 220.531 161.451 220.531ZM159.631 216.458H162.9C162.788 215.393 162.256 214.849 161.278 214.849C160.312 214.849 159.755 215.393 159.631 216.458ZM165.676 213.821H167.112V220.383H165.676V213.821ZM166.406 212.892C165.837 212.892 165.428 212.558 165.428 211.989C165.428 211.431 165.837 211.097 166.406 211.097C166.976 211.097 167.372 211.431 167.372 211.989C167.372 212.558 166.976 212.892 166.406 212.892ZM170.236 220.383L168.02 213.821H169.592L170.818 217.733C171.004 218.34 171.14 218.86 171.264 219.38C171.387 218.86 171.524 218.328 171.709 217.746L172.935 213.821H174.433L172.205 220.383H170.236ZM176.941 220.531C175.654 220.531 174.849 219.764 174.849 218.711C174.849 217.671 175.418 216.966 176.991 216.631L178.997 216.198C178.947 215.344 178.526 214.873 177.61 214.873C176.694 214.873 176.273 215.344 176.186 216.062L174.911 215.802C175.084 214.613 175.963 213.685 177.697 213.685C179.492 213.685 180.346 214.824 180.346 216.371V218.86C180.346 219.219 180.519 219.368 180.817 219.368C180.953 219.368 181.089 219.343 181.213 219.318V220.185C180.965 220.346 180.668 220.457 180.297 220.457C179.554 220.457 179.108 220.024 179.108 219.306V219.083H179.096C178.774 220.086 177.907 220.531 176.941 220.531ZM176.248 218.55C176.248 219.058 176.619 219.392 177.263 219.392C178.093 219.392 178.997 218.835 178.997 217.473V217.176L177.3 217.548C176.533 217.709 176.248 218.055 176.248 218.55ZM182.206 220.383C182.243 219.888 182.255 219.392 182.255 218.909V211.394H183.692V214.155C183.692 214.514 183.679 214.811 183.642 215.071H183.667C184.001 214.106 184.806 213.685 185.71 213.685C187.22 213.685 188.421 214.849 188.421 217.114C188.421 219.368 187.22 220.531 185.71 220.531C184.781 220.531 183.952 220.086 183.63 219.058H183.605C183.605 219.504 183.605 219.974 183.58 220.383H182.206ZM185.363 219.219C186.415 219.219 186.96 218.501 186.96 217.114C186.96 215.715 186.415 214.997 185.363 214.997C184.373 214.997 183.692 215.703 183.692 217.114C183.692 218.513 184.373 219.219 185.363 219.219ZM189.809 220.383V211.394H191.245V220.383H189.809ZM195.893 220.531C193.813 220.531 192.624 219.293 192.624 217.114C192.624 214.923 193.899 213.685 195.744 213.685C197.552 213.685 198.74 214.923 198.74 217.077V217.449H194.048C194.122 218.687 194.766 219.33 195.905 219.33C196.722 219.33 197.304 218.984 197.713 218.29L198.703 219.033C198.195 219.925 197.254 220.531 195.893 220.531ZM194.073 216.458H197.341C197.23 215.393 196.697 214.849 195.719 214.849C194.753 214.849 194.196 215.393 194.073 216.458Z" fill="#051E36"/>
<path d="M80.1719 239.292L80.0003 238.723L80.0093 239.301V244H79.3045V238.009H80.5424L82.1599 242.762C82.2141 242.943 82.2683 243.124 82.3135 243.304C82.3496 243.124 82.4038 242.943 82.4581 242.762L84.0574 238.009H85.2863V244H84.5092V239.301C84.5092 239.084 84.5092 238.868 84.5273 238.651C84.464 238.868 84.4008 239.084 84.3285 239.301L82.7291 244H81.7894L80.1719 239.292ZM88.5691 244.099C87.286 244.099 86.3192 243.205 86.3192 241.614C86.3192 240.024 87.286 239.139 88.5691 239.139C89.8523 239.139 90.8101 240.024 90.8101 241.614C90.8101 243.205 89.8523 244.099 88.5691 244.099ZM88.5691 243.367C89.4637 243.367 89.9788 242.771 89.9788 241.614C89.9788 240.449 89.4637 239.862 88.5691 239.862C87.6746 239.862 87.1595 240.449 87.1595 241.614C87.1595 242.771 87.6746 243.367 88.5691 243.367ZM91.7574 240.304C91.7574 239.961 91.7484 239.599 91.7213 239.229H92.5074C92.5345 239.572 92.5436 239.889 92.5436 240.124H92.5526C92.7875 239.482 93.3749 239.139 94.0797 239.139C95.155 239.139 95.7875 239.753 95.7875 240.991V244H94.9743V241.081C94.9743 240.286 94.6309 239.88 93.8719 239.88C93.149 239.88 92.5707 240.295 92.5707 241.343V244H91.7574V240.304ZM98.935 244.099C97.4441 244.099 96.6308 243.169 96.6308 241.614C96.6308 240.06 97.5254 239.139 98.8356 239.139C100.146 239.139 100.959 240.06 100.959 241.542V241.804H97.4441C97.4892 242.834 97.9862 243.395 98.9531 243.395C99.5946 243.395 100.064 243.124 100.39 242.545L100.986 242.943C100.625 243.62 99.947 244.099 98.935 244.099ZM97.4621 241.163H100.146C100.064 240.286 99.6398 239.825 98.8175 239.825C98.0133 239.825 97.5615 240.295 97.4621 241.163ZM102.254 245.816C101.983 245.816 101.721 245.753 101.532 245.654V245.066C101.712 245.102 101.92 245.13 102.137 245.13C102.643 245.13 102.932 244.867 102.932 244.37C102.932 244.018 102.833 243.693 102.553 242.979L101.107 239.229H101.983L103.194 242.5C103.312 242.825 103.393 243.142 103.447 243.449C103.52 243.142 103.601 242.825 103.709 242.5L104.776 239.229H105.616L103.691 244.687C103.402 245.509 102.932 245.816 102.254 245.816ZM109.477 244.099C108.194 244.099 107.227 243.205 107.227 241.614C107.227 240.024 108.194 239.139 109.477 239.139C110.76 239.139 111.718 240.024 111.718 241.614C111.718 243.205 110.76 244.099 109.477 244.099ZM109.477 243.367C110.372 243.367 110.887 242.771 110.887 241.614C110.887 240.449 110.372 239.862 109.477 239.862C108.583 239.862 108.068 240.449 108.068 241.614C108.068 242.771 108.583 243.367 109.477 243.367ZM113.324 244L112.023 239.229H112.863L113.73 242.545C113.794 242.789 113.848 243.042 113.884 243.295L114.074 242.599L115.068 239.229H115.953L116.974 242.599L117.173 243.322C117.218 243.087 117.272 242.843 117.336 242.599L118.212 239.229H118.989L117.688 244H116.631L115.7 240.946C115.619 240.666 115.547 240.358 115.483 240.015C115.411 240.358 115.33 240.666 115.248 240.946L114.318 244H113.324ZM121.599 244.099C120.108 244.099 119.295 243.169 119.295 241.614C119.295 240.06 120.19 239.139 121.5 239.139C122.81 239.139 123.623 240.06 123.623 241.542V241.804H120.108C120.153 242.834 120.65 243.395 121.617 243.395C122.259 243.395 122.729 243.124 123.054 242.545L123.65 242.943C123.289 243.62 122.611 244.099 121.599 244.099ZM120.126 241.163H122.81C122.729 240.286 122.304 239.825 121.482 239.825C120.677 239.825 120.226 240.295 120.126 241.163ZM126.245 244.099C125.134 244.099 124.266 243.232 124.266 241.614C124.266 239.988 125.134 239.139 126.245 239.139C126.932 239.139 127.555 239.464 127.808 240.259H127.817C127.799 240.06 127.781 239.834 127.781 239.618V237.44H128.595V242.925C128.595 243.268 128.604 243.63 128.622 244H127.845C127.827 243.666 127.827 243.277 127.836 242.952H127.808C127.573 243.756 126.941 244.099 126.245 244.099ZM126.408 243.349C127.212 243.349 127.79 242.771 127.79 241.614C127.79 240.467 127.212 239.889 126.408 239.889C125.54 239.889 125.098 240.476 125.098 241.614C125.098 242.762 125.54 243.349 126.408 243.349ZM132.703 244.072C131.98 244.072 131.582 243.684 131.582 242.907V239.961H130.742V239.256H131.591V238.109H132.395V239.256H133.516V239.961H132.395V242.807C132.395 243.178 132.585 243.349 132.929 243.349C133.127 243.349 133.344 243.322 133.516 243.268V243.846C133.326 243.964 133.028 244.072 132.703 244.072ZM136.124 244.099C134.84 244.099 133.874 243.205 133.874 241.614C133.874 240.024 134.84 239.139 136.124 239.139C137.407 239.139 138.365 240.024 138.365 241.614C138.365 243.205 137.407 244.099 136.124 244.099ZM136.124 243.367C137.018 243.367 137.533 242.771 137.533 241.614C137.533 240.449 137.018 239.862 136.124 239.862C135.229 239.862 134.714 240.449 134.714 241.614C134.714 242.771 135.229 243.367 136.124 243.367ZM141.141 245.816C140.87 245.816 140.608 245.753 140.418 245.654V245.066C140.599 245.102 140.807 245.13 141.024 245.13C141.53 245.13 141.819 244.867 141.819 244.37C141.819 244.018 141.719 243.693 141.439 242.979L139.993 239.229H140.87L142.081 242.5C142.198 242.825 142.28 243.142 142.334 243.449C142.406 243.142 142.487 242.825 142.596 242.5L143.662 239.229H144.502L142.578 244.687C142.289 245.509 141.819 245.816 141.141 245.816ZM146.905 244.099C145.622 244.099 144.655 243.205 144.655 241.614C144.655 240.024 145.622 239.139 146.905 239.139C148.189 239.139 149.146 240.024 149.146 241.614C149.146 243.205 148.189 244.099 146.905 244.099ZM146.905 243.367C147.8 243.367 148.315 242.771 148.315 241.614C148.315 240.449 147.8 239.862 146.905 239.862C146.011 239.862 145.496 240.449 145.496 241.614C145.496 242.771 146.011 243.367 146.905 243.367ZM153.202 244C153.175 243.657 153.166 243.34 153.166 243.105H153.157C152.913 243.756 152.335 244.099 151.657 244.099C150.6 244.099 149.994 243.476 149.994 242.238V239.229H150.808V242.139C150.808 242.952 151.133 243.349 151.865 243.349C152.561 243.349 153.13 242.925 153.13 241.886V239.229H153.943V242.925C153.943 243.268 153.952 243.63 153.988 244H153.202Z" fill="#051E36"/>
<path d="M84.2324 266.936C83.3384 266.906 82.4906 266.821 81.6891 266.682C80.903 266.543 80.2402 266.351 79.7007 266.104V263.838C80.2556 264.1 80.9492 264.339 81.7816 264.555C82.6294 264.755 83.4463 264.863 84.2324 264.879V260.555C83.4309 260.308 82.7373 260.046 82.1515 259.769C81.5812 259.491 81.1111 259.191 80.7412 258.867C80.3866 258.528 80.1169 258.143 79.9319 257.711C79.7624 257.28 79.6776 256.786 79.6776 256.231C79.6776 255.476 79.8626 254.829 80.2325 254.289C80.6178 253.734 81.1496 253.295 81.8278 252.971C82.5215 252.648 83.323 252.455 84.2324 252.393V250.451H85.7353V252.37C86.5677 252.386 87.3306 252.478 88.0243 252.648C88.7179 252.802 89.373 253.01 89.9896 253.272L89.2266 255.26C88.7025 255.045 88.1322 254.867 87.5156 254.729C86.9145 254.574 86.321 254.474 85.7353 254.428V258.682C86.691 258.991 87.5156 259.314 88.2092 259.653C88.9183 259.992 89.4655 260.416 89.8508 260.925C90.2362 261.418 90.4289 262.073 90.4289 262.89C90.4289 263.985 90.0204 264.879 89.2035 265.572C88.4019 266.266 87.2459 266.69 85.7353 266.844V269.341H84.2324V266.936ZM85.7353 264.786C86.5368 264.694 87.1149 264.501 87.4694 264.208C87.8393 263.9 88.0243 263.507 88.0243 263.029C88.0243 262.705 87.9472 262.428 87.7931 262.197C87.6543 261.965 87.4154 261.765 87.0763 261.595C86.7526 261.426 86.3056 261.256 85.7353 261.087V264.786ZM84.2324 254.474C83.7546 254.505 83.3538 254.598 83.0301 254.752C82.7219 254.89 82.4829 255.075 82.3134 255.307C82.1592 255.538 82.0822 255.808 82.0822 256.116C82.0822 256.455 82.1515 256.755 82.2903 257.018C82.429 257.264 82.6525 257.48 82.9608 257.665C83.2691 257.834 83.6929 257.996 84.2324 258.15V254.474ZM93.487 268V265.85H97.7181V255.584C96.8626 256.139 95.5448 256.578 94.1344 256.763L93.6257 254.59C95.2904 254.335 96.9551 253.688 98.1805 252.671H100.308V265.85H103.915V268H93.487ZM111.434 268.277C108.382 268.277 106.509 266.844 105.792 264.647L107.943 263.676C108.544 265.318 109.746 266.081 111.411 266.081C113.284 266.081 114.232 265.179 114.232 263.676C114.232 262.197 113.284 261.272 111.411 261.272H109.561V259.283H111.11C112.59 259.283 113.815 258.52 113.815 256.902C113.815 255.492 112.844 254.613 111.295 254.613C109.769 254.613 108.775 255.538 108.451 257.041L106.232 256.393C106.856 253.989 108.706 252.416 111.48 252.416C114.486 252.416 116.382 254.197 116.382 256.717C116.382 258.335 115.411 259.515 114.047 260.093C115.896 260.624 116.867 261.919 116.867 263.838C116.867 266.566 114.694 268.277 111.434 268.277ZM124.803 268.277C120.965 268.277 118.93 265.295 118.93 260.347C118.93 255.353 120.965 252.393 124.803 252.393C128.641 252.393 130.676 255.353 130.676 260.347C130.676 265.318 128.641 268.277 124.803 268.277ZM124.803 265.965C126.884 265.965 128.017 264.37 128.017 260.347C128.017 256.301 126.884 254.705 124.803 254.705C122.722 254.705 121.589 256.301 121.589 260.347C121.589 264.37 122.722 265.965 124.803 265.965ZM136.715 266.867C136.715 268.277 136.114 269.873 135.028 271.191H132.484C133.432 270.15 134.195 269.087 134.704 268.092C133.64 268.069 132.9 267.422 132.9 266.312C132.9 265.179 133.71 264.532 134.796 264.532C135.883 264.532 136.715 265.295 136.715 266.867ZM144.673 268.277C140.834 268.277 138.8 265.295 138.8 260.347C138.8 255.353 140.834 252.393 144.673 252.393C148.511 252.393 150.545 255.353 150.545 260.347C150.545 265.318 148.511 268.277 144.673 268.277ZM144.673 265.965C146.753 265.965 147.886 264.37 147.886 260.347C147.886 256.301 146.753 254.705 144.673 254.705C142.592 254.705 141.459 256.301 141.459 260.347C141.459 264.37 142.592 265.965 144.673 265.965ZM157.949 268.277C154.111 268.277 152.076 265.295 152.076 260.347C152.076 255.353 154.111 252.393 157.949 252.393C161.787 252.393 163.822 255.353 163.822 260.347C163.822 265.318 161.787 268.277 157.949 268.277ZM157.949 265.965C160.03 265.965 161.163 264.37 161.163 260.347C161.163 256.301 160.03 254.705 157.949 254.705C155.868 254.705 154.735 256.301 154.735 260.347C154.735 264.37 155.868 265.965 157.949 265.965ZM171.226 268.277C167.388 268.277 165.353 265.295 165.353 260.347C165.353 255.353 167.388 252.393 171.226 252.393C175.064 252.393 177.098 255.353 177.098 260.347C177.098 265.318 175.064 268.277 171.226 268.277ZM171.226 265.965C173.307 265.965 174.439 264.37 174.439 260.347C174.439 256.301 173.307 254.705 171.226 254.705C169.145 254.705 168.012 256.301 168.012 260.347C168.012 264.37 169.145 265.965 171.226 265.965Z" fill="#001428"/>
<path opacity="0.6" d="M80.1409 299.783C79.3423 299.783 78.8471 299.399 78.6552 298.83L79.1257 298.613C79.2928 299.077 79.6395 299.3 80.1409 299.3C80.7042 299.3 80.9828 299.034 80.9828 298.588C80.9828 298.142 80.7042 297.864 80.1409 297.864H79.6704V297.424H80.0666C80.4938 297.424 80.8652 297.208 80.8652 296.712C80.8652 296.292 80.568 296.025 80.1161 296.025C79.6642 296.025 79.3795 296.298 79.2742 296.725L78.7976 296.576C78.9585 295.97 79.429 295.542 80.1471 295.542C80.9333 295.542 81.4223 296.038 81.4223 296.682C81.4223 297.121 81.1438 297.437 80.7847 297.592C81.2738 297.728 81.5461 298.074 81.5461 298.613C81.5461 299.319 80.989 299.783 80.1409 299.783ZM83.5284 299.783C82.5442 299.783 81.9932 299.003 81.9932 297.666C81.9932 296.322 82.5442 295.542 83.5284 295.542C84.5127 295.542 85.0637 296.322 85.0637 297.666C85.0637 299.003 84.5127 299.783 83.5284 299.783ZM83.5284 299.282C84.1599 299.282 84.4942 298.774 84.4942 297.666C84.4942 296.552 84.1599 296.044 83.5284 296.044C82.897 296.044 82.5627 296.552 82.5627 297.666C82.5627 298.774 82.897 299.282 83.5284 299.282ZM87.7791 299.783C87.0177 299.783 86.4234 299.189 86.4234 298.081C86.4234 296.966 87.0177 296.384 87.7791 296.384C88.2496 296.384 88.6767 296.607 88.8501 297.152H88.8563C88.8439 297.016 88.8315 296.861 88.8315 296.712V295.221H89.3886V298.978C89.3886 299.213 89.3948 299.461 89.4072 299.715H88.8748C88.8624 299.486 88.8624 299.22 88.8686 298.997H88.8501C88.6891 299.548 88.2558 299.783 87.7791 299.783ZM87.8905 299.269C88.4415 299.269 88.8377 298.873 88.8377 298.081C88.8377 297.294 88.4415 296.898 87.8905 296.898C87.2963 296.898 86.9929 297.301 86.9929 298.081C86.9929 298.867 87.2963 299.269 87.8905 299.269ZM91.0982 299.783C90.4792 299.783 90.0706 299.418 90.0706 298.892C90.0706 298.372 90.343 298.043 91.1106 297.876L92.1754 297.635C92.163 297.14 91.9277 296.855 91.4016 296.855C90.8816 296.855 90.6525 297.127 90.6092 297.523L90.1077 297.431C90.182 296.849 90.5906 296.384 91.4325 296.384C92.2806 296.384 92.6954 296.929 92.6954 297.672V299.046C92.6954 299.244 92.782 299.319 92.9368 299.319C93.0111 299.319 93.0915 299.306 93.1535 299.288V299.628C93.042 299.702 92.9058 299.746 92.7449 299.746C92.4168 299.746 92.2063 299.548 92.2063 299.189V299.046H92.1939C92.0268 299.566 91.5749 299.783 91.0982 299.783ZM90.6154 298.836C90.6154 299.127 90.8258 299.312 91.1911 299.312C91.6616 299.312 92.1754 299.009 92.1754 298.248V298.043L91.2158 298.26C90.7763 298.359 90.6154 298.551 90.6154 298.836ZM93.8621 300.959C93.6764 300.959 93.4969 300.916 93.3669 300.848V300.445C93.4907 300.47 93.6331 300.489 93.7816 300.489C94.1283 300.489 94.3264 300.309 94.3264 299.969C94.3264 299.727 94.2583 299.504 94.0664 299.015L93.0759 296.446H93.6764L94.5059 298.687C94.5864 298.91 94.6421 299.127 94.6793 299.337C94.7288 299.127 94.7845 298.91 94.8588 298.687L95.5893 296.446H96.165L94.8464 300.185C94.6483 300.749 94.3264 300.959 93.8621 300.959ZM97.7121 299.783C96.9507 299.783 96.4493 299.473 96.2636 298.805L96.7464 298.638C96.8888 299.114 97.2231 299.319 97.7307 299.319C98.2012 299.319 98.4798 299.114 98.4798 298.811C98.4798 298.508 98.3064 298.341 97.6007 298.291C96.765 298.229 96.3502 297.957 96.3502 297.375C96.3502 296.793 96.8455 296.384 97.6131 296.384C98.3436 296.384 98.8017 296.737 98.9626 297.35L98.455 297.474C98.3498 297.041 98.0341 296.842 97.5821 296.842C97.1612 296.842 96.895 297.059 96.895 297.356C96.895 297.635 97.0683 297.765 97.7183 297.814C98.6717 297.889 99.0183 298.18 99.0183 298.799C99.0183 299.393 98.5045 299.783 97.7121 299.783Z" fill="#051E36"/>
<path d="M81.5152 313.384C81.0365 313.367 80.5825 313.322 80.1533 313.247C79.7323 313.173 79.3774 313.07 79.0885 312.938V311.725C79.3857 311.865 79.7571 311.993 80.2028 312.108C80.6568 312.216 81.0942 312.273 81.5152 312.282V309.966C81.086 309.834 80.7146 309.694 80.4009 309.546C80.0955 309.397 79.8438 309.236 79.6457 309.063C79.4558 308.881 79.3114 308.675 79.2123 308.444C79.1215 308.213 79.0761 307.948 79.0761 307.651C79.0761 307.247 79.1752 306.9 79.3733 306.611C79.5796 306.314 79.8644 306.079 80.2276 305.906C80.599 305.732 81.0282 305.629 81.5152 305.596V304.556H82.3199V305.584C82.7657 305.592 83.1742 305.641 83.5457 305.732C83.9171 305.815 84.2679 305.926 84.598 306.066L84.1895 307.131C83.9088 307.016 83.6034 306.921 83.2733 306.846C82.9514 306.764 82.6336 306.71 82.3199 306.686V308.964C82.8317 309.129 83.2733 309.302 83.6447 309.484C84.0244 309.665 84.3174 309.892 84.5238 310.165C84.7301 310.429 84.8333 310.779 84.8333 311.217C84.8333 311.803 84.6145 312.282 84.1771 312.653C83.7479 313.025 83.1288 313.252 82.3199 313.334V314.671H81.5152V313.384ZM82.3199 312.232C82.7492 312.183 83.0587 312.079 83.2485 311.923C83.4466 311.758 83.5457 311.547 83.5457 311.291C83.5457 311.118 83.5044 310.969 83.4219 310.846C83.3476 310.722 83.2196 310.614 83.038 310.524C82.8647 310.433 82.6253 310.342 82.3199 310.251V312.232ZM81.5152 306.71C81.2593 306.727 81.0447 306.776 80.8714 306.859C80.7063 306.933 80.5784 307.032 80.4876 307.156C80.405 307.28 80.3638 307.424 80.3638 307.589C80.3638 307.771 80.4009 307.932 80.4752 308.072C80.5495 308.204 80.6692 308.32 80.8342 308.419C80.9993 308.51 81.2263 308.596 81.5152 308.679V306.71ZM85.3937 312.22V311.465L89.6899 305.745H90.8785V311.106H91.7823V312.22H90.8785V313.953H89.5661V312.22H85.3937ZM86.8299 311.167H89.5908V307.503L86.8299 311.167ZM95.4126 314.102C93.9393 314.102 92.9364 313.433 92.4907 312.282L93.6669 311.712C93.964 312.517 94.5335 312.926 95.3878 312.926C96.3535 312.926 96.9602 312.294 96.9602 311.316C96.9602 310.338 96.3535 309.719 95.3754 309.719C94.6697 309.719 94.1002 310.028 93.7907 310.511L92.7507 310.226L93.2954 305.745H97.9012V306.896H94.385L94.1002 309.174H94.125C94.4097 308.889 94.9669 308.592 95.7221 308.592C97.2821 308.592 98.3716 309.706 98.3716 311.316C98.3716 312.987 97.1954 314.102 95.4126 314.102ZM101.395 313.346C101.395 314.102 101.073 314.956 100.491 315.662H99.1296C99.6372 315.105 100.046 314.535 100.318 314.003C99.7486 313.99 99.3524 313.644 99.3524 313.049C99.3524 312.443 99.7858 312.096 100.368 312.096C100.95 312.096 101.395 312.505 101.395 313.346ZM105.285 314.102C103.23 314.102 102.14 312.505 102.14 309.855C102.14 307.181 103.23 305.596 105.285 305.596C107.34 305.596 108.43 307.181 108.43 309.855C108.43 312.517 107.34 314.102 105.285 314.102ZM105.285 312.864C106.399 312.864 107.006 312.009 107.006 309.855C107.006 307.688 106.399 306.834 105.285 306.834C104.171 306.834 103.564 307.688 103.564 309.855C103.564 312.009 104.171 312.864 105.285 312.864ZM112.023 314.102C109.968 314.102 108.878 312.505 108.878 309.855C108.878 307.181 109.968 305.596 112.023 305.596C114.078 305.596 115.168 307.181 115.168 309.855C115.168 312.517 114.078 314.102 112.023 314.102ZM112.023 312.864C113.137 312.864 113.744 312.009 113.744 309.855C113.744 307.688 113.137 306.834 112.023 306.834C110.908 306.834 110.302 307.688 110.302 309.855C110.302 312.009 110.908 312.864 112.023 312.864ZM118.761 314.102C116.705 314.102 115.616 312.505 115.616 309.855C115.616 307.181 116.705 305.596 118.761 305.596C120.816 305.596 121.905 307.181 121.905 309.855C121.905 312.517 120.816 314.102 118.761 314.102ZM118.761 312.864C119.875 312.864 120.482 312.009 120.482 309.855C120.482 307.688 119.875 306.834 118.761 306.834C117.646 306.834 117.04 307.688 117.04 309.855C117.04 312.009 117.646 312.864 118.761 312.864Z" fill="#051E36"/>
<rect opacity="0.2" x="153.703" y="293.984" width="1.03174" height="22.6984" fill="#D2D2D2"/>
<path opacity="0.6" d="M164.842 299.783C163.962 299.783 163.251 299.232 163.251 297.827C163.251 296.261 163.975 295.542 164.922 295.542C165.591 295.542 166.042 295.871 166.315 296.403L165.857 296.644C165.671 296.236 165.343 296.032 164.897 296.032C164.26 296.032 163.696 296.508 163.733 298H163.746C163.863 297.437 164.322 297.096 164.916 297.096C165.702 297.096 166.29 297.592 166.29 298.433C166.29 299.288 165.64 299.783 164.842 299.783ZM164.842 299.294C165.355 299.294 165.739 298.953 165.739 298.433C165.739 297.913 165.355 297.573 164.842 297.573C164.334 297.573 163.944 297.913 163.944 298.433C163.944 298.953 164.334 299.294 164.842 299.294ZM168.13 299.783C167.146 299.783 166.595 299.003 166.595 297.666C166.595 296.322 167.146 295.542 168.13 295.542C169.114 295.542 169.665 296.322 169.665 297.666C169.665 299.003 169.114 299.783 168.13 299.783ZM168.13 299.282C168.761 299.282 169.096 298.774 169.096 297.666C169.096 296.552 168.761 296.044 168.13 296.044C167.499 296.044 167.164 296.552 167.164 297.666C167.164 298.774 167.499 299.282 168.13 299.282ZM172.381 299.783C171.619 299.783 171.025 299.189 171.025 298.081C171.025 296.966 171.619 296.384 172.381 296.384C172.851 296.384 173.278 296.607 173.452 297.152H173.458C173.445 297.016 173.433 296.861 173.433 296.712V295.221H173.99V298.978C173.99 299.213 173.996 299.461 174.009 299.715H173.476C173.464 299.486 173.464 299.22 173.47 298.997H173.452C173.291 299.548 172.857 299.783 172.381 299.783ZM172.492 299.269C173.043 299.269 173.439 298.873 173.439 298.081C173.439 297.294 173.043 296.898 172.492 296.898C171.898 296.898 171.594 297.301 171.594 298.081C171.594 298.867 171.898 299.269 172.492 299.269ZM175.7 299.783C175.081 299.783 174.672 299.418 174.672 298.892C174.672 298.372 174.945 298.043 175.712 297.876L176.777 297.635C176.765 297.14 176.529 296.855 176.003 296.855C175.483 296.855 175.254 297.127 175.211 297.523L174.709 297.431C174.784 296.849 175.192 296.384 176.034 296.384C176.882 296.384 177.297 296.929 177.297 297.672V299.046C177.297 299.244 177.384 299.319 177.538 299.319C177.613 299.319 177.693 299.306 177.755 299.288V299.628C177.644 299.702 177.507 299.746 177.346 299.746C177.018 299.746 176.808 299.548 176.808 299.189V299.046H176.795C176.628 299.566 176.176 299.783 175.7 299.783ZM175.217 298.836C175.217 299.127 175.427 299.312 175.793 299.312C176.263 299.312 176.777 299.009 176.777 298.248V298.043L175.817 298.26C175.378 298.359 175.217 298.551 175.217 298.836ZM178.464 300.959C178.278 300.959 178.098 300.916 177.968 300.848V300.445C178.092 300.47 178.235 300.489 178.383 300.489C178.73 300.489 178.928 300.309 178.928 299.969C178.928 299.727 178.86 299.504 178.668 299.015L177.677 296.446H178.278L179.107 298.687C179.188 298.91 179.244 299.127 179.281 299.337C179.33 299.127 179.386 298.91 179.46 298.687L180.191 296.446H180.767L179.448 300.185C179.25 300.749 178.928 300.959 178.464 300.959ZM182.314 299.783C181.552 299.783 181.051 299.473 180.865 298.805L181.348 298.638C181.49 299.114 181.825 299.319 182.332 299.319C182.803 299.319 183.081 299.114 183.081 298.811C183.081 298.508 182.908 298.341 182.202 298.291C181.367 298.229 180.952 297.957 180.952 297.375C180.952 296.793 181.447 296.384 182.215 296.384C182.945 296.384 183.403 296.737 183.564 297.35L183.057 297.474C182.951 297.041 182.636 296.842 182.184 296.842C181.763 296.842 181.497 297.059 181.497 297.356C181.497 297.635 181.67 297.765 182.32 297.814C183.273 297.889 183.62 298.18 183.62 298.799C183.62 299.393 183.106 299.783 182.314 299.783Z" fill="#051E36"/>
<path d="M166.117 313.384C165.638 313.367 165.184 313.322 164.755 313.247C164.334 313.173 163.979 313.07 163.69 312.938V311.725C163.987 311.865 164.359 311.993 164.804 312.108C165.258 312.216 165.696 312.273 166.117 312.282V309.966C165.688 309.834 165.316 309.694 165.002 309.546C164.697 309.397 164.445 309.236 164.247 309.063C164.057 308.881 163.913 308.675 163.814 308.444C163.723 308.213 163.678 307.948 163.678 307.651C163.678 307.247 163.777 306.9 163.975 306.611C164.181 306.314 164.466 306.079 164.829 305.906C165.201 305.732 165.63 305.629 166.117 305.596V304.556H166.922V305.584C167.367 305.592 167.776 305.641 168.147 305.732C168.519 305.815 168.869 305.926 169.2 306.066L168.791 307.131C168.51 307.016 168.205 306.921 167.875 306.846C167.553 306.764 167.235 306.71 166.922 306.686V308.964C167.433 309.129 167.875 309.302 168.246 309.484C168.626 309.665 168.919 309.892 169.125 310.165C169.332 310.429 169.435 310.779 169.435 311.217C169.435 311.803 169.216 312.282 168.779 312.653C168.349 313.025 167.73 313.252 166.922 313.334V314.671H166.117V313.384ZM166.922 312.232C167.351 312.183 167.66 312.079 167.85 311.923C168.048 311.758 168.147 311.547 168.147 311.291C168.147 311.118 168.106 310.969 168.023 310.846C167.949 310.722 167.821 310.614 167.64 310.524C167.466 310.433 167.227 310.342 166.922 310.251V312.232ZM166.117 306.71C165.861 306.727 165.646 306.776 165.473 306.859C165.308 306.933 165.18 307.032 165.089 307.156C165.007 307.28 164.965 307.424 164.965 307.589C164.965 307.771 165.002 307.932 165.077 308.072C165.151 308.204 165.271 308.32 165.436 308.419C165.601 308.51 165.828 308.596 166.117 308.679V306.71ZM173.202 314.102C171.568 314.102 170.565 313.334 170.181 312.158L171.332 311.638C171.654 312.517 172.298 312.926 173.19 312.926C174.192 312.926 174.7 312.443 174.7 311.638C174.7 310.846 174.192 310.35 173.19 310.35H172.199V309.286H173.029C173.821 309.286 174.477 308.877 174.477 308.01C174.477 307.255 173.957 306.785 173.128 306.785C172.311 306.785 171.778 307.28 171.605 308.085L170.416 307.738C170.751 306.45 171.741 305.608 173.227 305.608C174.836 305.608 175.851 306.562 175.851 307.911C175.851 308.778 175.331 309.409 174.601 309.719C175.591 310.004 176.111 310.697 176.111 311.725C176.111 313.186 174.948 314.102 173.202 314.102ZM180.014 314.102C178.541 314.102 177.538 313.433 177.092 312.282L178.268 311.712C178.566 312.517 179.135 312.926 179.989 312.926C180.955 312.926 181.562 312.294 181.562 311.316C181.562 310.338 180.955 309.719 179.977 309.719C179.271 309.719 178.702 310.028 178.392 310.511L177.352 310.226L177.897 305.745H182.503V306.896H178.987L178.702 309.174H178.727C179.011 308.889 179.568 308.592 180.324 308.592C181.884 308.592 182.973 309.706 182.973 311.316C182.973 312.987 181.797 314.102 180.014 314.102ZM185.997 313.346C185.997 314.102 185.675 314.956 185.093 315.662H183.731C184.239 315.105 184.647 314.535 184.92 314.003C184.35 313.99 183.954 313.644 183.954 313.049C183.954 312.443 184.387 312.096 184.969 312.096C185.551 312.096 185.997 312.505 185.997 313.346ZM189.886 314.102C187.831 314.102 186.742 312.505 186.742 309.855C186.742 307.181 187.831 305.596 189.886 305.596C191.942 305.596 193.031 307.181 193.031 309.855C193.031 312.517 191.942 314.102 189.886 314.102ZM189.886 312.864C191.001 312.864 191.607 312.009 191.607 309.855C191.607 307.688 191.001 306.834 189.886 306.834C188.772 306.834 188.165 307.688 188.165 309.855C188.165 312.009 188.772 312.864 189.886 312.864ZM196.624 314.102C194.569 314.102 193.48 312.505 193.48 309.855C193.48 307.181 194.569 305.596 196.624 305.596C198.68 305.596 199.769 307.181 199.769 309.855C199.769 312.517 198.68 314.102 196.624 314.102ZM196.624 312.864C197.739 312.864 198.345 312.009 198.345 309.855C198.345 307.688 197.739 306.834 196.624 306.834C195.51 306.834 194.903 307.688 194.903 309.855C194.903 312.009 195.51 312.864 196.624 312.864ZM203.362 314.102C201.307 314.102 200.218 312.505 200.218 309.855C200.218 307.181 201.307 305.596 203.362 305.596C205.417 305.596 206.507 307.181 206.507 309.855C206.507 312.517 205.417 314.102 203.362 314.102ZM203.362 312.864C204.477 312.864 205.083 312.009 205.083 309.855C205.083 307.688 204.477 306.834 203.362 306.834C202.248 306.834 201.641 307.688 201.641 309.855C201.641 312.009 202.248 312.864 203.362 312.864Z" fill="#051E36"/>
<rect opacity="0.2" x="238.305" y="293.984" width="1.03174" height="22.6984" fill="#D2D2D2"/>
<path opacity="0.6" d="M249.282 295.542C250.161 295.542 250.873 296.093 250.873 297.499C250.873 299.065 250.149 299.783 249.202 299.783C248.533 299.783 248.081 299.455 247.809 298.922L248.267 298.681C248.453 299.09 248.781 299.294 249.226 299.294C249.864 299.294 250.427 298.817 250.39 297.325H250.378C250.26 297.889 249.802 298.229 249.208 298.229C248.422 298.229 247.834 297.734 247.834 296.892C247.834 296.038 248.484 295.542 249.282 295.542ZM249.282 296.032C248.768 296.032 248.385 296.372 248.385 296.892C248.385 297.412 248.768 297.752 249.282 297.752C249.79 297.752 250.18 297.412 250.18 296.892C250.18 296.372 249.79 296.032 249.282 296.032ZM252.732 299.783C251.747 299.783 251.196 299.003 251.196 297.666C251.196 296.322 251.747 295.542 252.732 295.542C253.716 295.542 254.267 296.322 254.267 297.666C254.267 299.003 253.716 299.783 252.732 299.783ZM252.732 299.282C253.363 299.282 253.697 298.774 253.697 297.666C253.697 296.552 253.363 296.044 252.732 296.044C252.1 296.044 251.766 296.552 251.766 297.666C251.766 298.774 252.1 299.282 252.732 299.282ZM256.311 297.313H257.543V297.752H256.311V299.028H255.865V297.752H254.633V297.313H255.865V296.032H256.311V297.313ZM260.339 299.783C259.578 299.783 258.983 299.189 258.983 298.081C258.983 296.966 259.578 296.384 260.339 296.384C260.81 296.384 261.237 296.607 261.41 297.152H261.416C261.404 297.016 261.391 296.861 261.391 296.712V295.221H261.949V298.978C261.949 299.213 261.955 299.461 261.967 299.715H261.435C261.422 299.486 261.422 299.22 261.429 298.997H261.41C261.249 299.548 260.816 299.783 260.339 299.783ZM260.451 299.269C261.001 299.269 261.398 298.873 261.398 298.081C261.398 297.294 261.001 296.898 260.451 296.898C259.856 296.898 259.553 297.301 259.553 298.081C259.553 298.867 259.856 299.269 260.451 299.269ZM263.658 299.783C263.039 299.783 262.631 299.418 262.631 298.892C262.631 298.372 262.903 298.043 263.671 297.876L264.735 297.635C264.723 297.14 264.488 296.855 263.962 296.855C263.442 296.855 263.213 297.127 263.169 297.523L262.668 297.431C262.742 296.849 263.151 296.384 263.993 296.384C264.841 296.384 265.255 296.929 265.255 297.672V299.046C265.255 299.244 265.342 299.319 265.497 299.319C265.571 299.319 265.652 299.306 265.713 299.288V299.628C265.602 299.702 265.466 299.746 265.305 299.746C264.977 299.746 264.766 299.548 264.766 299.189V299.046H264.754C264.587 299.566 264.135 299.783 263.658 299.783ZM263.175 298.836C263.175 299.127 263.386 299.312 263.751 299.312C264.222 299.312 264.735 299.009 264.735 298.248V298.043L263.776 298.26C263.336 298.359 263.175 298.551 263.175 298.836ZM266.422 300.959C266.236 300.959 266.057 300.916 265.927 300.848V300.445C266.051 300.47 266.193 300.489 266.342 300.489C266.688 300.489 266.886 300.309 266.886 299.969C266.886 299.727 266.818 299.504 266.626 299.015L265.636 296.446H266.236L267.066 298.687C267.146 298.91 267.202 299.127 267.239 299.337C267.289 299.127 267.344 298.91 267.419 298.687L268.149 296.446H268.725L267.406 300.185C267.208 300.749 266.886 300.959 266.422 300.959ZM270.272 299.783C269.511 299.783 269.009 299.473 268.824 298.805L269.306 298.638C269.449 299.114 269.783 299.319 270.291 299.319C270.761 299.319 271.04 299.114 271.04 298.811C271.04 298.508 270.866 298.341 270.161 298.291C269.325 298.229 268.91 297.957 268.91 297.375C268.91 296.793 269.405 296.384 270.173 296.384C270.904 296.384 271.362 296.737 271.523 297.35L271.015 297.474C270.91 297.041 270.594 296.842 270.142 296.842C269.721 296.842 269.455 297.059 269.455 297.356C269.455 297.635 269.628 297.765 270.278 297.814C271.232 297.889 271.578 298.18 271.578 298.799C271.578 299.393 271.065 299.783 270.272 299.783Z" fill="#051E36"/>
<path d="M250.718 313.384C250.24 313.367 249.786 313.322 249.356 313.247C248.935 313.173 248.581 313.07 248.292 312.938V311.725C248.589 311.865 248.96 311.993 249.406 312.108C249.86 312.216 250.297 312.273 250.718 312.282V309.966C250.289 309.834 249.918 309.694 249.604 309.546C249.299 309.397 249.047 309.236 248.849 309.063C248.659 308.881 248.515 308.675 248.415 308.444C248.325 308.213 248.279 307.948 248.279 307.651C248.279 307.247 248.378 306.9 248.576 306.611C248.783 306.314 249.068 306.079 249.431 305.906C249.802 305.732 250.231 305.629 250.718 305.596V304.556H251.523V305.584C251.969 305.592 252.377 305.641 252.749 305.732C253.12 305.815 253.471 305.926 253.801 306.066L253.393 307.131C253.112 307.016 252.807 306.921 252.476 306.846C252.155 306.764 251.837 306.71 251.523 306.686V308.964C252.035 309.129 252.476 309.302 252.848 309.484C253.228 309.665 253.521 309.892 253.727 310.165C253.933 310.429 254.036 310.779 254.036 311.217C254.036 311.803 253.818 312.282 253.38 312.653C252.951 313.025 252.332 313.252 251.523 313.334V314.671H250.718V313.384ZM251.523 312.232C251.952 312.183 252.262 312.079 252.452 311.923C252.65 311.758 252.749 311.547 252.749 311.291C252.749 311.118 252.708 310.969 252.625 310.846C252.551 310.722 252.423 310.614 252.241 310.524C252.068 310.433 251.828 310.342 251.523 310.251V312.232ZM250.718 306.71C250.462 306.727 250.248 306.776 250.075 306.859C249.909 306.933 249.781 307.032 249.691 307.156C249.608 307.28 249.567 307.424 249.567 307.589C249.567 307.771 249.604 307.932 249.678 308.072C249.753 308.204 249.872 308.32 250.037 308.419C250.202 308.51 250.429 308.596 250.718 308.679V306.71ZM257.878 314.102C256.404 314.102 255.402 313.433 254.956 312.282L256.132 311.712C256.429 312.517 256.999 312.926 257.853 312.926C258.819 312.926 259.425 312.294 259.425 311.316C259.425 310.338 258.819 309.719 257.841 309.719C257.135 309.719 256.565 310.028 256.256 310.511L255.216 310.226L255.761 305.745H260.366V306.896H256.85L256.565 309.174H256.59C256.875 308.889 257.432 308.592 258.187 308.592C259.747 308.592 260.837 309.706 260.837 311.316C260.837 312.987 259.661 314.102 257.878 314.102ZM264.591 314.102C262.536 314.102 261.446 312.505 261.446 309.855C261.446 307.181 262.536 305.596 264.591 305.596C266.646 305.596 267.736 307.181 267.736 309.855C267.736 312.517 266.646 314.102 264.591 314.102ZM264.591 312.864C265.705 312.864 266.312 312.009 266.312 309.855C266.312 307.688 265.705 306.834 264.591 306.834C263.477 306.834 262.87 307.688 262.87 309.855C262.87 312.009 263.477 312.864 264.591 312.864ZM270.598 313.346C270.598 314.102 270.277 314.956 269.695 315.662H268.333C268.84 315.105 269.249 314.535 269.521 314.003C268.952 313.99 268.556 313.644 268.556 313.049C268.556 312.443 268.989 312.096 269.571 312.096C270.153 312.096 270.598 312.505 270.598 313.346ZM274.488 314.102C272.433 314.102 271.343 312.505 271.343 309.855C271.343 307.181 272.433 305.596 274.488 305.596C276.543 305.596 277.633 307.181 277.633 309.855C277.633 312.517 276.543 314.102 274.488 314.102ZM274.488 312.864C275.602 312.864 276.209 312.009 276.209 309.855C276.209 307.688 275.602 306.834 274.488 306.834C273.374 306.834 272.767 307.688 272.767 309.855C272.767 312.009 273.374 312.864 274.488 312.864ZM281.226 314.102C279.171 314.102 278.081 312.505 278.081 309.855C278.081 307.181 279.171 305.596 281.226 305.596C283.281 305.596 284.371 307.181 284.371 309.855C284.371 312.517 283.281 314.102 281.226 314.102ZM281.226 312.864C282.34 312.864 282.947 312.009 282.947 309.855C282.947 307.688 282.34 306.834 281.226 306.834C280.112 306.834 279.505 307.688 279.505 309.855C279.505 312.009 280.112 312.864 281.226 312.864ZM287.964 314.102C285.909 314.102 284.819 312.505 284.819 309.855C284.819 307.181 285.909 305.596 287.964 305.596C290.019 305.596 291.109 307.181 291.109 309.855C291.109 312.517 290.019 314.102 287.964 314.102ZM287.964 312.864C289.078 312.864 289.685 312.009 289.685 309.855C289.685 307.688 289.078 306.834 287.964 306.834C286.85 306.834 286.243 307.688 286.243 309.855C286.243 312.009 286.85 312.864 287.964 312.864Z" fill="#051E36"/>
<rect x="67.0312" y="281.602" width="260" height="1.03174" fill="#F6F6F6"/>
<rect x="271.32" y="227" width="43.3333" height="43.3333" rx="4.12698" fill="#FFB86A"/>
<path d="M288.859 253.824H297.113" stroke="white" stroke-width="1.54762" stroke-linecap="round" stroke-linejoin="round"/>
<path d="M288.859 249.695H292.986" stroke="white" stroke-width="1.54762" stroke-linecap="round" stroke-linejoin="round"/>
<path d="M294.012 238.864V239.379C294.012 242.298 294.012 243.757 294.919 244.663C295.825 245.57 297.285 245.57 300.203 245.57H300.719M301.234 247.279V250.729C301.234 254.619 301.234 256.565 300.026 257.774C298.817 258.983 296.871 258.983 292.981 258.983C289.09 258.983 287.144 258.983 285.935 257.774C284.727 256.565 284.727 254.619 284.727 250.729V246.04C284.727 242.692 284.727 241.018 285.641 239.884C285.825 239.655 286.034 239.447 286.263 239.262C287.397 238.348 289.071 238.348 292.419 238.348C293.147 238.348 293.511 238.348 293.844 238.465C293.914 238.49 293.982 238.518 294.048 238.55C294.367 238.702 294.624 238.959 295.139 239.474L300.026 244.361C300.622 244.958 300.92 245.256 301.077 245.635C301.234 246.014 301.234 246.436 301.234 247.279Z" stroke="white" stroke-width="1.54762" stroke-linecap="round" stroke-linejoin="round"/>
</g>
<rect x="66.5159" y="197.516" width="260" height="131.032" rx="7.73808" stroke="#D2D2D2" stroke-width="1.03174"/>
</g>
<defs>
<filter id="filter0_f_8622_5736" x="-204" y="-145" width="1229.34" height="769.016" filterUnits="userSpaceOnUse" color-interpolation-filters="sRGB">
<feFlood flood-opacity="0" result="BackgroundImageFix"/>
<feBlend mode="normal" in="SourceGraphic" in2="BackgroundImageFix" result="shape"/>
<feGaussianBlur stdDeviation="50" result="effect1_foregroundBlur_8622_5736"/>
</filter>
<radialGradient id="paint0_radial_8622_5736" cx="0" cy="0" r="1" gradientUnits="userSpaceOnUse" gradientTransform="translate(410.671 -45.0003) rotate(180) scale(514.671 569.017)">
<stop stop-color="#B4CFFA" stop-opacity="0"/>
<stop offset="0.604" stop-color="#0043F2"/>
<stop offset="0.74" stop-color="#7FA1F8"/>
<stop offset="1" stop-color="#F8F4F0"/>
</radialGradient>
<clipPath id="clip0_8622_5736">
<rect width="352" height="480" fill="white"/>
</clipPath>
<clipPath id="clip1_8622_5736">
<rect x="66" y="197" width="261.031" height="132.063" rx="8.25395" fill="white"/>
</clipPath>
</defs>
</svg>
