<svg width="660" height="250" viewBox="0 0 660 250" fill="none" xmlns="http://www.w3.org/2000/svg">
<g clip-path="url(#clip0_8003_7384)">
<rect width="660" height="250" rx="8" fill="white"/>
<g opacity="0.8">
<g filter="url(#filter0_f_8003_7384)">
<ellipse cx="168.841" cy="199.22" rx="168.841" ry="199.22" transform="matrix(-0.999993 -0.00368032 0.658535 0.75255 445.359 -130.027)" fill="#0043F2"/>
</g>
<g filter="url(#filter1_f_8003_7384)">
<path d="M529.419 -12.7781C452.352 10.7181 380.487 119.804 433.274 149.524C486.062 179.244 440.671 110.636 517.738 87.1395C594.805 63.6433 823.582 194.881 837.936 163.996C847.994 142.352 606.486 -36.2743 529.419 -12.7781Z" fill="#7FA1F8"/>
</g>
<g filter="url(#filter2_f_8003_7384)">
<path d="M691.173 65.457C798.701 83.3397 913.508 204.15 957.47 262.319C891.188 270.906 758.626 273.383 758.633 214.593C758.641 155.802 713.663 90.6729 691.173 65.457Z" fill="white"/>
</g>
<g filter="url(#filter3_f_8003_7384)">
<path d="M207.553 -33.6929C392.633 -2.90251 590.271 204.926 665.956 304.992C551.875 319.742 323.712 323.963 323.709 222.843C323.705 121.722 246.27 9.68555 207.553 -33.6929Z" fill="white"/>
</g>
<g filter="url(#filter4_f_8003_7384)">
<path d="M641.885 66.9264C476.412 14.1784 330.573 -94.3591 223.822 -181.385C243.229 -222.848 360.556 -277.117 384.463 -178.921C402.443 -105.074 502.824 8.05495 641.885 66.9264Z" fill="white"/>
</g>
<g filter="url(#filter5_f_8003_7384)">
<path d="M334.937 -150.372C440.402 -126.182 564.084 -59.4887 658.37 -5.12801C669.599 26.879 640.222 76.7629 580.125 7.03285C534.931 -45.4059 430.771 -119.409 334.937 -150.372Z" fill="#4CC0FF"/>
</g>
<g filter="url(#filter6_f_8003_7384)">
<path d="M651.56 27.504C554.119 -6.43652 404.976 -18.8283 288.079 -25.7584C250.926 -8.32202 226.55 41.6298 332.977 20.9559C413.014 5.40867 554.844 3.08755 651.56 27.504Z" fill="#83D4FF"/>
</g>
</g>
<g filter="url(#filter7_ddd_8003_7384)">
<rect x="291" y="24" width="345" height="196" rx="6" fill="white"/>
<rect x="287" y="20" width="353" height="204" rx="10" stroke="white" stroke-opacity="0.3" stroke-width="8"/>
<path d="M309.976 54V46.356H306.928V45.252H314.248V46.356H311.236V54H309.976ZM314.59 54V47.244H315.694L315.766 48.24C315.942 47.896 316.166 47.632 316.438 47.448C316.718 47.264 317.038 47.172 317.398 47.172C317.646 47.172 317.83 47.196 317.95 47.244V48.408H317.866C317.738 48.36 317.582 48.336 317.398 48.336C316.942 48.336 316.574 48.476 316.294 48.756C316.022 49.036 315.866 49.412 315.826 49.884V54H314.59ZM320.669 54.12C319.965 54.12 319.417 53.948 319.025 53.604C318.641 53.252 318.449 52.796 318.449 52.236C318.449 51.788 318.549 51.424 318.749 51.144C318.957 50.864 319.225 50.648 319.553 50.496C319.881 50.336 320.237 50.22 320.621 50.148L322.037 49.884C322.397 49.82 322.633 49.724 322.745 49.596C322.857 49.46 322.913 49.284 322.913 49.068C322.913 48.788 322.813 48.556 322.613 48.372C322.413 48.18 322.049 48.084 321.521 48.084C321.009 48.084 320.601 48.184 320.297 48.384C319.993 48.584 319.845 48.892 319.853 49.308L318.689 49.188C318.705 48.524 318.969 48.016 319.481 47.664C320.001 47.304 320.681 47.124 321.521 47.124C322.361 47.124 323.005 47.292 323.453 47.628C323.909 47.964 324.137 48.476 324.137 49.164V52.572C324.137 52.812 324.181 52.968 324.269 53.04C324.357 53.112 324.453 53.148 324.557 53.148C324.621 53.148 324.669 53.148 324.701 53.148C324.733 53.14 324.753 53.132 324.761 53.124H324.833V54C324.753 54.032 324.645 54.056 324.509 54.072C324.381 54.088 324.285 54.096 324.221 54.096C323.877 54.096 323.597 54.012 323.381 53.844C323.173 53.676 323.069 53.42 323.069 53.076V52.86C322.901 53.236 322.597 53.54 322.157 53.772C321.717 54.004 321.221 54.12 320.669 54.12ZM320.981 53.136C321.461 53.136 321.873 53.036 322.217 52.836C322.569 52.628 322.805 52.34 322.925 51.972V50.568C322.829 50.616 322.701 50.66 322.541 50.7C322.389 50.74 322.193 50.784 321.953 50.832L320.957 51.036C320.453 51.14 320.117 51.292 319.949 51.492C319.789 51.692 319.709 51.908 319.709 52.14C319.709 52.484 319.829 52.736 320.069 52.896C320.309 53.056 320.613 53.136 320.981 53.136ZM325.875 54V47.244H327.003L327.075 48.264C327.635 47.504 328.371 47.124 329.283 47.124C329.963 47.124 330.519 47.32 330.951 47.712C331.391 48.096 331.611 48.688 331.611 49.488V54H330.387V49.608C330.387 49.184 330.267 48.848 330.027 48.6C329.787 48.352 329.423 48.228 328.935 48.228C328.607 48.228 328.303 48.3 328.023 48.444C327.743 48.58 327.519 48.78 327.351 49.044C327.191 49.308 327.111 49.624 327.111 49.992V54H325.875ZM335.729 54.12C334.881 54.12 334.201 53.924 333.689 53.532C333.177 53.14 332.909 52.6 332.885 51.912L334.085 51.78C334.085 52.196 334.237 52.536 334.541 52.8C334.845 53.064 335.253 53.196 335.765 53.196C336.205 53.196 336.557 53.12 336.821 52.968C337.093 52.808 337.229 52.544 337.229 52.176C337.229 51.88 337.137 51.664 336.953 51.528C336.777 51.384 336.533 51.28 336.221 51.216C335.909 51.144 335.561 51.068 335.177 50.988C334.489 50.836 333.981 50.608 333.653 50.304C333.333 49.992 333.173 49.576 333.173 49.056C333.173 48.472 333.405 48.004 333.869 47.652C334.333 47.3 334.953 47.124 335.729 47.124C336.513 47.124 337.145 47.296 337.625 47.64C338.105 47.984 338.365 48.5 338.405 49.188L337.217 49.344C337.217 48.952 337.093 48.636 336.845 48.396C336.597 48.156 336.213 48.036 335.693 48.036C335.285 48.036 334.969 48.124 334.745 48.3C334.529 48.468 334.421 48.688 334.421 48.96C334.421 49.304 334.569 49.552 334.865 49.704C335.169 49.856 335.653 49.996 336.317 50.124C336.773 50.204 337.161 50.316 337.481 50.46C337.809 50.604 338.061 50.808 338.237 51.072C338.413 51.336 338.501 51.692 338.501 52.14C338.501 52.732 338.273 53.212 337.817 53.58C337.369 53.94 336.673 54.12 335.729 54.12ZM341.704 54.12C341 54.12 340.452 53.948 340.06 53.604C339.676 53.252 339.484 52.796 339.484 52.236C339.484 51.788 339.584 51.424 339.784 51.144C339.992 50.864 340.26 50.648 340.588 50.496C340.916 50.336 341.272 50.22 341.656 50.148L343.072 49.884C343.432 49.82 343.668 49.724 343.78 49.596C343.892 49.46 343.948 49.284 343.948 49.068C343.948 48.788 343.848 48.556 343.648 48.372C343.448 48.18 343.084 48.084 342.556 48.084C342.044 48.084 341.636 48.184 341.332 48.384C341.028 48.584 340.88 48.892 340.888 49.308L339.724 49.188C339.74 48.524 340.004 48.016 340.516 47.664C341.036 47.304 341.716 47.124 342.556 47.124C343.396 47.124 344.04 47.292 344.488 47.628C344.944 47.964 345.172 48.476 345.172 49.164V52.572C345.172 52.812 345.216 52.968 345.304 53.04C345.392 53.112 345.488 53.148 345.592 53.148C345.656 53.148 345.704 53.148 345.736 53.148C345.768 53.14 345.788 53.132 345.796 53.124H345.868V54C345.788 54.032 345.68 54.056 345.544 54.072C345.416 54.088 345.32 54.096 345.256 54.096C344.912 54.096 344.632 54.012 344.416 53.844C344.208 53.676 344.104 53.42 344.104 53.076V52.86C343.936 53.236 343.632 53.54 343.192 53.772C342.752 54.004 342.256 54.12 341.704 54.12ZM342.016 53.136C342.496 53.136 342.908 53.036 343.252 52.836C343.604 52.628 343.84 52.34 343.96 51.972V50.568C343.864 50.616 343.736 50.66 343.576 50.7C343.424 50.74 343.228 50.784 342.988 50.832L341.992 51.036C341.488 51.14 341.152 51.292 340.984 51.492C340.824 51.692 340.744 51.908 340.744 52.14C340.744 52.484 340.864 52.736 341.104 52.896C341.344 53.056 341.648 53.136 342.016 53.136ZM349.637 54.108C348.989 54.108 348.425 53.964 347.945 53.676C347.465 53.38 347.093 52.972 346.829 52.452C346.565 51.924 346.433 51.312 346.433 50.616C346.433 49.912 346.565 49.3 346.829 48.78C347.101 48.252 347.477 47.844 347.957 47.556C348.445 47.268 349.013 47.124 349.661 47.124C350.477 47.124 351.133 47.34 351.629 47.772C352.133 48.196 352.429 48.756 352.517 49.452L351.317 49.596C351.269 49.124 351.093 48.772 350.789 48.54C350.485 48.308 350.097 48.192 349.625 48.192C349.033 48.192 348.561 48.408 348.209 48.84C347.865 49.264 347.693 49.856 347.693 50.616C347.693 51.368 347.865 51.96 348.209 52.392C348.553 52.824 349.025 53.04 349.625 53.04C350.097 53.04 350.485 52.92 350.789 52.68C351.093 52.44 351.269 52.1 351.317 51.66L352.517 51.804C352.421 52.54 352.109 53.108 351.581 53.508C351.061 53.908 350.413 54.108 349.637 54.108ZM355.482 54.084C354.562 54.084 354.102 53.704 354.102 52.944V48.204H353.202V47.244H354.102V45.36L355.302 45.24V47.244H356.394V48.204H355.302V52.44C355.302 52.688 355.338 52.852 355.41 52.932C355.49 53.012 355.642 53.052 355.866 53.052C356.098 53.052 356.274 53.036 356.394 53.004V53.988C356.218 54.02 356.054 54.044 355.902 54.06C355.75 54.076 355.61 54.084 355.482 54.084ZM357.879 54V47.244H359.115V54H357.879ZM357.939 46.128V44.568H359.067V46.128H357.939ZM363.841 54.12C363.185 54.12 362.613 53.976 362.125 53.688C361.645 53.392 361.273 52.984 361.009 52.464C360.745 51.944 360.613 51.336 360.613 50.64C360.613 49.928 360.745 49.312 361.009 48.792C361.281 48.264 361.657 47.856 362.137 47.568C362.625 47.272 363.193 47.124 363.841 47.124C364.489 47.124 365.053 47.272 365.533 47.568C366.013 47.856 366.385 48.264 366.649 48.792C366.913 49.312 367.045 49.924 367.045 50.628C367.045 51.332 366.913 51.948 366.649 52.476C366.385 52.996 366.013 53.4 365.533 53.688C365.053 53.976 364.489 54.12 363.841 54.12ZM363.829 53.064C364.453 53.064 364.937 52.848 365.281 52.416C365.633 51.984 365.809 51.384 365.809 50.616C365.809 49.84 365.633 49.24 365.281 48.816C364.937 48.392 364.457 48.18 363.841 48.18C363.209 48.18 362.717 48.4 362.365 48.84C362.021 49.272 361.849 49.868 361.849 50.628C361.849 51.396 362.021 51.996 362.365 52.428C362.717 52.852 363.205 53.064 363.829 53.064ZM368.391 54V47.244H369.519L369.591 48.264C370.151 47.504 370.887 47.124 371.799 47.124C372.479 47.124 373.035 47.32 373.467 47.712C373.907 48.096 374.127 48.688 374.127 49.488V54H372.903V49.608C372.903 49.184 372.783 48.848 372.543 48.6C372.303 48.352 371.939 48.228 371.451 48.228C371.123 48.228 370.819 48.3 370.539 48.444C370.259 48.58 370.035 48.78 369.867 49.044C369.707 49.308 369.627 49.624 369.627 49.992V54H368.391ZM378.244 54.12C377.396 54.12 376.716 53.924 376.204 53.532C375.692 53.14 375.424 52.6 375.4 51.912L376.6 51.78C376.6 52.196 376.752 52.536 377.056 52.8C377.36 53.064 377.768 53.196 378.28 53.196C378.72 53.196 379.072 53.12 379.336 52.968C379.608 52.808 379.744 52.544 379.744 52.176C379.744 51.88 379.652 51.664 379.468 51.528C379.292 51.384 379.048 51.28 378.736 51.216C378.424 51.144 378.076 51.068 377.692 50.988C377.004 50.836 376.496 50.608 376.168 50.304C375.848 49.992 375.688 49.576 375.688 49.056C375.688 48.472 375.92 48.004 376.384 47.652C376.848 47.3 377.468 47.124 378.244 47.124C379.028 47.124 379.66 47.296 380.14 47.64C380.62 47.984 380.88 48.5 380.92 49.188L379.732 49.344C379.732 48.952 379.608 48.636 379.36 48.396C379.112 48.156 378.728 48.036 378.208 48.036C377.8 48.036 377.484 48.124 377.26 48.3C377.044 48.468 376.936 48.688 376.936 48.96C376.936 49.304 377.084 49.552 377.38 49.704C377.684 49.856 378.168 49.996 378.832 50.124C379.288 50.204 379.676 50.316 379.996 50.46C380.324 50.604 380.576 50.808 380.752 51.072C380.928 51.336 381.016 51.692 381.016 52.14C381.016 52.732 380.788 53.212 380.332 53.58C379.884 53.94 379.188 54.12 378.244 54.12Z" fill="black"/>
<path d="M309.88 115.1C309.107 115.1 308.503 114.903 308.07 114.51C307.637 114.117 307.397 113.59 307.35 112.93L308.34 112.8C308.373 113.273 308.527 113.627 308.8 113.86C309.08 114.087 309.44 114.2 309.88 114.2C310.373 114.2 310.75 114.063 311.01 113.79C311.277 113.51 311.41 113.143 311.41 112.69C311.41 112.21 311.27 111.84 310.99 111.58C310.71 111.32 310.343 111.19 309.89 111.19C309.597 111.19 309.32 111.253 309.06 111.38C308.807 111.5 308.62 111.66 308.5 111.86L307.47 111.87L308.03 107.71H312.39V108.61H308.87L308.56 110.87C308.74 110.71 308.963 110.587 309.23 110.5C309.503 110.413 309.78 110.37 310.06 110.37C310.54 110.37 310.96 110.467 311.32 110.66C311.68 110.853 311.96 111.123 312.16 111.47C312.36 111.817 312.46 112.223 312.46 112.69C312.46 113.17 312.347 113.593 312.12 113.96C311.9 114.32 311.597 114.6 311.21 114.8C310.823 115 310.38 115.1 309.88 115.1ZM314.907 115C314.9 114.34 314.937 113.75 315.017 113.23C315.103 112.71 315.247 112.217 315.447 111.75C315.647 111.277 315.917 110.79 316.257 110.29C316.603 109.79 317.037 109.23 317.557 108.61H313.227V107.71H318.607V108.61C318.08 109.27 317.647 109.867 317.307 110.4C316.973 110.927 316.71 111.43 316.517 111.91C316.33 112.39 316.2 112.88 316.127 113.38C316.053 113.873 316.017 114.413 316.017 115H314.907ZM321.012 111.27C320.558 111.27 320.185 111.113 319.892 110.8C319.605 110.487 319.462 110.04 319.462 109.46C319.462 108.907 319.598 108.467 319.872 108.14C320.145 107.813 320.525 107.65 321.012 107.65C321.472 107.65 321.845 107.807 322.132 108.12C322.425 108.427 322.572 108.873 322.572 109.46C322.572 110.007 322.435 110.447 322.162 110.78C321.888 111.107 321.505 111.27 321.012 111.27ZM320.082 115L325.112 107.7H326.052L321.032 115H320.082ZM321.012 110.62C321.238 110.62 321.418 110.527 321.552 110.34C321.692 110.147 321.762 109.853 321.762 109.46C321.762 109.107 321.698 108.827 321.572 108.62C321.452 108.407 321.265 108.3 321.012 108.3C320.785 108.3 320.605 108.397 320.472 108.59C320.345 108.777 320.282 109.067 320.282 109.46C320.282 109.813 320.342 110.097 320.462 110.31C320.582 110.517 320.765 110.62 321.012 110.62ZM325.112 115.05C324.652 115.05 324.278 114.897 323.992 114.59C323.705 114.277 323.562 113.827 323.562 113.24C323.562 112.693 323.698 112.257 323.972 111.93C324.245 111.603 324.625 111.44 325.112 111.44C325.572 111.44 325.945 111.597 326.232 111.91C326.525 112.217 326.672 112.66 326.672 113.24C326.672 113.787 326.535 114.227 326.262 114.56C325.988 114.887 325.605 115.05 325.112 115.05ZM325.112 114.39C325.332 114.39 325.508 114.297 325.642 114.11C325.782 113.923 325.852 113.637 325.852 113.25C325.852 112.897 325.792 112.613 325.672 112.4C325.552 112.187 325.365 112.08 325.112 112.08C324.885 112.08 324.705 112.177 324.572 112.37C324.445 112.557 324.382 112.85 324.382 113.25C324.382 113.597 324.442 113.873 324.562 114.08C324.682 114.287 324.865 114.39 325.112 114.39ZM330.64 115V109.37H331.67V115H330.64ZM330.69 108.44V107.14H331.63V108.44H330.69ZM333.394 115V109.37H334.334L334.394 110.22C334.86 109.587 335.474 109.27 336.234 109.27C336.8 109.27 337.264 109.433 337.624 109.76C337.99 110.08 338.174 110.573 338.174 111.24V115H337.154V111.34C337.154 110.987 337.054 110.707 336.854 110.5C336.654 110.293 336.35 110.19 335.944 110.19C335.67 110.19 335.417 110.25 335.184 110.37C334.95 110.483 334.764 110.65 334.624 110.87C334.49 111.09 334.424 111.353 334.424 111.66V115H333.394ZM341.965 115.09C341.425 115.09 340.955 114.97 340.555 114.73C340.155 114.483 339.845 114.143 339.625 113.71C339.405 113.27 339.295 112.76 339.295 112.18C339.295 111.593 339.405 111.083 339.625 110.65C339.851 110.21 340.165 109.87 340.565 109.63C340.971 109.39 341.445 109.27 341.985 109.27C342.665 109.27 343.211 109.45 343.625 109.81C344.045 110.163 344.291 110.63 344.365 111.21L343.365 111.33C343.325 110.937 343.178 110.643 342.925 110.45C342.671 110.257 342.348 110.16 341.955 110.16C341.461 110.16 341.068 110.34 340.775 110.7C340.488 111.053 340.345 111.547 340.345 112.18C340.345 112.807 340.488 113.3 340.775 113.66C341.061 114.02 341.455 114.2 341.955 114.2C342.348 114.2 342.671 114.1 342.925 113.9C343.178 113.7 343.325 113.417 343.365 113.05L344.365 113.17C344.285 113.783 344.025 114.257 343.585 114.59C343.151 114.923 342.611 115.09 341.965 115.09ZM345.366 115V109.37H346.286L346.346 110.2C346.493 109.913 346.68 109.693 346.906 109.54C347.14 109.387 347.406 109.31 347.706 109.31C347.913 109.31 348.066 109.33 348.166 109.37V110.34H348.096C347.99 110.3 347.86 110.28 347.706 110.28C347.326 110.28 347.02 110.397 346.786 110.63C346.56 110.863 346.43 111.177 346.396 111.57V115H345.366ZM351.155 115.1C350.615 115.1 350.141 114.987 349.735 114.76C349.335 114.527 349.021 114.193 348.795 113.76C348.575 113.327 348.465 112.803 348.465 112.19C348.465 111.603 348.568 111.093 348.775 110.66C348.988 110.22 349.291 109.88 349.685 109.64C350.078 109.393 350.555 109.27 351.115 109.27C351.648 109.27 352.108 109.387 352.495 109.62C352.888 109.853 353.185 110.207 353.385 110.68C353.585 111.147 353.661 111.733 353.615 112.44H349.485C349.518 113.047 349.678 113.5 349.965 113.8C350.258 114.1 350.658 114.25 351.165 114.25C351.578 114.25 351.911 114.157 352.165 113.97C352.418 113.783 352.575 113.523 352.635 113.19L353.545 113.4C353.445 113.907 353.181 114.317 352.755 114.63C352.335 114.943 351.801 115.1 351.155 115.1ZM351.095 110.08C350.681 110.08 350.328 110.207 350.035 110.46C349.748 110.707 349.571 111.11 349.505 111.67H352.565C352.571 111.19 352.445 110.807 352.185 110.52C351.931 110.227 351.568 110.08 351.095 110.08ZM356.165 115.1C355.578 115.1 355.121 114.957 354.795 114.67C354.475 114.377 354.315 113.997 354.315 113.53C354.315 113.157 354.398 112.853 354.565 112.62C354.738 112.387 354.961 112.207 355.235 112.08C355.508 111.947 355.805 111.85 356.125 111.79L357.305 111.57C357.605 111.517 357.801 111.437 357.895 111.33C357.988 111.217 358.035 111.07 358.035 110.89C358.035 110.657 357.951 110.463 357.785 110.31C357.618 110.15 357.315 110.07 356.875 110.07C356.448 110.07 356.108 110.153 355.855 110.32C355.601 110.487 355.478 110.743 355.485 111.09L354.515 110.99C354.528 110.437 354.748 110.013 355.175 109.72C355.608 109.42 356.175 109.27 356.875 109.27C357.575 109.27 358.111 109.41 358.485 109.69C358.865 109.97 359.055 110.397 359.055 110.97V113.81C359.055 114.01 359.091 114.14 359.165 114.2C359.238 114.26 359.318 114.29 359.405 114.29C359.458 114.29 359.498 114.29 359.525 114.29C359.551 114.283 359.568 114.277 359.575 114.27H359.635V115C359.568 115.027 359.478 115.047 359.365 115.06C359.258 115.073 359.178 115.08 359.125 115.08C358.838 115.08 358.605 115.01 358.425 114.87C358.251 114.73 358.165 114.517 358.165 114.23V114.05C358.025 114.363 357.771 114.617 357.405 114.81C357.038 115.003 356.625 115.1 356.165 115.1ZM356.425 114.28C356.825 114.28 357.168 114.197 357.455 114.03C357.748 113.857 357.945 113.617 358.045 113.31V112.14C357.965 112.18 357.858 112.217 357.725 112.25C357.598 112.283 357.435 112.32 357.235 112.36L356.405 112.53C355.985 112.617 355.705 112.743 355.565 112.91C355.431 113.077 355.365 113.257 355.365 113.45C355.365 113.737 355.465 113.947 355.665 114.08C355.865 114.213 356.118 114.28 356.425 114.28ZM362.435 115.1C361.728 115.1 361.162 114.937 360.735 114.61C360.308 114.283 360.085 113.833 360.065 113.26L361.065 113.15C361.065 113.497 361.192 113.78 361.445 114C361.698 114.22 362.038 114.33 362.465 114.33C362.832 114.33 363.125 114.267 363.345 114.14C363.572 114.007 363.685 113.787 363.685 113.48C363.685 113.233 363.608 113.053 363.455 112.94C363.308 112.82 363.105 112.733 362.845 112.68C362.585 112.62 362.295 112.557 361.975 112.49C361.402 112.363 360.978 112.173 360.705 111.92C360.438 111.66 360.305 111.313 360.305 110.88C360.305 110.393 360.498 110.003 360.885 109.71C361.272 109.417 361.788 109.27 362.435 109.27C363.088 109.27 363.615 109.413 364.015 109.7C364.415 109.987 364.632 110.417 364.665 110.99L363.675 111.12C363.675 110.793 363.572 110.53 363.365 110.33C363.158 110.13 362.838 110.03 362.405 110.03C362.065 110.03 361.802 110.103 361.615 110.25C361.435 110.39 361.345 110.573 361.345 110.8C361.345 111.087 361.468 111.293 361.715 111.42C361.968 111.547 362.372 111.663 362.925 111.77C363.305 111.837 363.628 111.93 363.895 112.05C364.168 112.17 364.378 112.34 364.525 112.56C364.672 112.78 364.745 113.077 364.745 113.45C364.745 113.943 364.555 114.343 364.175 114.65C363.802 114.95 363.222 115.1 362.435 115.1ZM368.245 115.1C367.705 115.1 367.231 114.987 366.825 114.76C366.425 114.527 366.111 114.193 365.885 113.76C365.665 113.327 365.555 112.803 365.555 112.19C365.555 111.603 365.658 111.093 365.865 110.66C366.078 110.22 366.381 109.88 366.775 109.64C367.168 109.393 367.645 109.27 368.205 109.27C368.738 109.27 369.198 109.387 369.585 109.62C369.978 109.853 370.275 110.207 370.475 110.68C370.675 111.147 370.751 111.733 370.705 112.44H366.575C366.608 113.047 366.768 113.5 367.055 113.8C367.348 114.1 367.748 114.25 368.255 114.25C368.668 114.25 369.001 114.157 369.255 113.97C369.508 113.783 369.665 113.523 369.725 113.19L370.635 113.4C370.535 113.907 370.271 114.317 369.845 114.63C369.425 114.943 368.891 115.1 368.245 115.1ZM368.185 110.08C367.771 110.08 367.418 110.207 367.125 110.46C366.838 110.707 366.661 111.11 366.595 111.67H369.655C369.661 111.19 369.535 110.807 369.275 110.52C369.021 110.227 368.658 110.08 368.185 110.08ZM371.502 112.22C371.502 111.62 371.602 111.1 371.802 110.66C372.002 110.213 372.285 109.87 372.652 109.63C373.018 109.39 373.448 109.27 373.942 109.27C374.368 109.27 374.738 109.357 375.052 109.53C375.365 109.703 375.612 109.953 375.792 110.28V107.1H376.812V115H375.862L375.792 114.04C375.632 114.367 375.385 114.627 375.052 114.82C374.725 115.007 374.345 115.1 373.912 115.1C373.418 115.1 372.988 114.983 372.622 114.75C372.262 114.51 371.985 114.177 371.792 113.75C371.598 113.317 371.502 112.807 371.502 112.22ZM372.552 112.22C372.552 112.86 372.688 113.353 372.962 113.7C373.235 114.047 373.625 114.22 374.132 114.22C374.632 114.22 375.032 114.063 375.332 113.75C375.638 113.437 375.792 113.023 375.792 112.51V111.91C375.792 111.377 375.642 110.95 375.342 110.63C375.048 110.31 374.648 110.15 374.142 110.15C373.635 110.15 373.242 110.33 372.962 110.69C372.688 111.05 372.552 111.56 372.552 112.22ZM380.829 115V110.17H380.009V109.37H380.829V108.53C380.829 108.077 380.963 107.717 381.229 107.45C381.503 107.183 381.909 107.05 382.449 107.05C382.543 107.05 382.639 107.057 382.739 107.07C382.839 107.077 382.923 107.09 382.989 107.11V107.98H382.929C382.849 107.94 382.733 107.92 382.579 107.92C382.339 107.92 382.156 107.977 382.029 108.09C381.903 108.197 381.839 108.397 381.839 108.69V109.37H383.009V110.17H381.839V115H380.829ZM383.872 115V109.37H384.792L384.852 110.2C384.999 109.913 385.185 109.693 385.412 109.54C385.645 109.387 385.912 109.31 386.212 109.31C386.419 109.31 386.572 109.33 386.672 109.37V110.34H386.602C386.495 110.3 386.365 110.28 386.212 110.28C385.832 110.28 385.525 110.397 385.292 110.63C385.065 110.863 384.935 111.177 384.902 111.57V115H383.872ZM389.641 115.1C389.094 115.1 388.618 114.98 388.211 114.74C387.811 114.493 387.501 114.153 387.281 113.72C387.061 113.287 386.951 112.78 386.951 112.2C386.951 111.607 387.061 111.093 387.281 110.66C387.508 110.22 387.821 109.88 388.221 109.64C388.628 109.393 389.101 109.27 389.641 109.27C390.181 109.27 390.651 109.393 391.051 109.64C391.451 109.88 391.761 110.22 391.981 110.66C392.201 111.093 392.311 111.603 392.311 112.19C392.311 112.777 392.201 113.29 391.981 113.73C391.761 114.163 391.451 114.5 391.051 114.74C390.651 114.98 390.181 115.1 389.641 115.1ZM389.631 114.22C390.151 114.22 390.554 114.04 390.841 113.68C391.134 113.32 391.281 112.82 391.281 112.18C391.281 111.533 391.134 111.033 390.841 110.68C390.554 110.327 390.154 110.15 389.641 110.15C389.114 110.15 388.704 110.333 388.411 110.7C388.124 111.06 387.981 111.557 387.981 112.19C387.981 112.83 388.124 113.33 388.411 113.69C388.704 114.043 389.111 114.22 389.631 114.22ZM393.433 115V109.37H394.363L394.433 110.27C394.619 109.93 394.863 109.68 395.163 109.52C395.463 109.353 395.786 109.27 396.133 109.27C396.519 109.27 396.863 109.367 397.163 109.56C397.463 109.753 397.683 110.04 397.823 110.42C397.996 110.047 398.246 109.763 398.573 109.57C398.906 109.37 399.269 109.27 399.663 109.27C400.263 109.27 400.723 109.447 401.043 109.8C401.363 110.147 401.523 110.61 401.523 111.19V115H400.493V111.36C400.493 110.987 400.403 110.7 400.223 110.5C400.043 110.293 399.779 110.19 399.433 110.19C399.006 110.19 398.656 110.33 398.383 110.61C398.116 110.89 397.983 111.277 397.983 111.77V115H396.963V111.45C396.963 111.077 396.876 110.773 396.703 110.54C396.529 110.307 396.256 110.19 395.883 110.19C395.456 110.19 395.113 110.337 394.853 110.63C394.593 110.917 394.463 111.28 394.463 111.72V115H393.433ZM405.347 115V107.1H406.367V115H405.347ZM409.368 115.1C408.781 115.1 408.324 114.957 407.998 114.67C407.678 114.377 407.518 113.997 407.518 113.53C407.518 113.157 407.601 112.853 407.768 112.62C407.941 112.387 408.164 112.207 408.438 112.08C408.711 111.947 409.008 111.85 409.328 111.79L410.508 111.57C410.808 111.517 411.004 111.437 411.098 111.33C411.191 111.217 411.238 111.07 411.238 110.89C411.238 110.657 411.154 110.463 410.988 110.31C410.821 110.15 410.518 110.07 410.078 110.07C409.651 110.07 409.311 110.153 409.058 110.32C408.804 110.487 408.681 110.743 408.688 111.09L407.718 110.99C407.731 110.437 407.951 110.013 408.378 109.72C408.811 109.42 409.378 109.27 410.078 109.27C410.778 109.27 411.314 109.41 411.688 109.69C412.068 109.97 412.258 110.397 412.258 110.97V113.81C412.258 114.01 412.294 114.14 412.368 114.2C412.441 114.26 412.521 114.29 412.608 114.29C412.661 114.29 412.701 114.29 412.728 114.29C412.754 114.283 412.771 114.277 412.778 114.27H412.838V115C412.771 115.027 412.681 115.047 412.568 115.06C412.461 115.073 412.381 115.08 412.328 115.08C412.041 115.08 411.808 115.01 411.628 114.87C411.454 114.73 411.368 114.517 411.368 114.23V114.05C411.228 114.363 410.974 114.617 410.608 114.81C410.241 115.003 409.828 115.1 409.368 115.1ZM409.628 114.28C410.028 114.28 410.371 114.197 410.658 114.03C410.951 113.857 411.148 113.617 411.248 113.31V112.14C411.168 112.18 411.061 112.217 410.928 112.25C410.801 112.283 410.638 112.32 410.438 112.36L409.608 112.53C409.188 112.617 408.908 112.743 408.768 112.91C408.634 113.077 408.568 113.257 408.568 113.45C408.568 113.737 408.668 113.947 408.868 114.08C409.068 114.213 409.321 114.28 409.628 114.28ZM415.638 115.1C414.931 115.1 414.365 114.937 413.938 114.61C413.511 114.283 413.288 113.833 413.268 113.26L414.268 113.15C414.268 113.497 414.395 113.78 414.648 114C414.901 114.22 415.241 114.33 415.668 114.33C416.035 114.33 416.328 114.267 416.548 114.14C416.775 114.007 416.888 113.787 416.888 113.48C416.888 113.233 416.811 113.053 416.658 112.94C416.511 112.82 416.308 112.733 416.048 112.68C415.788 112.62 415.498 112.557 415.178 112.49C414.605 112.363 414.181 112.173 413.908 111.92C413.641 111.66 413.508 111.313 413.508 110.88C413.508 110.393 413.701 110.003 414.088 109.71C414.475 109.417 414.991 109.27 415.638 109.27C416.291 109.27 416.818 109.413 417.218 109.7C417.618 109.987 417.835 110.417 417.868 110.99L416.878 111.12C416.878 110.793 416.775 110.53 416.568 110.33C416.361 110.13 416.041 110.03 415.608 110.03C415.268 110.03 415.005 110.103 414.818 110.25C414.638 110.39 414.548 110.573 414.548 110.8C414.548 111.087 414.671 111.293 414.918 111.42C415.171 111.547 415.575 111.663 416.128 111.77C416.508 111.837 416.831 111.93 417.098 112.05C417.371 112.17 417.581 112.34 417.728 112.56C417.875 112.78 417.948 113.077 417.948 113.45C417.948 113.943 417.758 114.343 417.378 114.65C417.005 114.95 416.425 115.1 415.638 115.1ZM420.478 115.07C419.711 115.07 419.328 114.753 419.328 114.12V110.17H418.578V109.37H419.328V107.8L420.328 107.7V109.37H421.238V110.17H420.328V113.7C420.328 113.907 420.358 114.043 420.418 114.11C420.484 114.177 420.611 114.21 420.798 114.21C420.991 114.21 421.138 114.197 421.238 114.17V114.99C421.091 115.017 420.954 115.037 420.828 115.05C420.701 115.063 420.584 115.07 420.478 115.07ZM424.575 115V109.37H425.505L425.575 110.27C425.762 109.93 426.005 109.68 426.305 109.52C426.605 109.353 426.929 109.27 427.275 109.27C427.662 109.27 428.005 109.367 428.305 109.56C428.605 109.753 428.825 110.04 428.965 110.42C429.139 110.047 429.389 109.763 429.715 109.57C430.049 109.37 430.412 109.27 430.805 109.27C431.405 109.27 431.865 109.447 432.185 109.8C432.505 110.147 432.665 110.61 432.665 111.19V115H431.635V111.36C431.635 110.987 431.545 110.7 431.365 110.5C431.185 110.293 430.922 110.19 430.575 110.19C430.149 110.19 429.799 110.33 429.525 110.61C429.259 110.89 429.125 111.277 429.125 111.77V115H428.105V111.45C428.105 111.077 428.019 110.773 427.845 110.54C427.672 110.307 427.399 110.19 427.025 110.19C426.599 110.19 426.255 110.337 425.995 110.63C425.735 110.917 425.605 111.28 425.605 111.72V115H424.575ZM436.477 115.1C435.93 115.1 435.454 114.98 435.047 114.74C434.647 114.493 434.337 114.153 434.117 113.72C433.897 113.287 433.787 112.78 433.787 112.2C433.787 111.607 433.897 111.093 434.117 110.66C434.344 110.22 434.657 109.88 435.057 109.64C435.464 109.393 435.937 109.27 436.477 109.27C437.017 109.27 437.487 109.393 437.887 109.64C438.287 109.88 438.597 110.22 438.817 110.66C439.037 111.093 439.147 111.603 439.147 112.19C439.147 112.777 439.037 113.29 438.817 113.73C438.597 114.163 438.287 114.5 437.887 114.74C437.487 114.98 437.017 115.1 436.477 115.1ZM436.467 114.22C436.987 114.22 437.39 114.04 437.677 113.68C437.97 113.32 438.117 112.82 438.117 112.18C438.117 111.533 437.97 111.033 437.677 110.68C437.39 110.327 436.99 110.15 436.477 110.15C435.95 110.15 435.54 110.333 435.247 110.7C434.96 111.06 434.817 111.557 434.817 112.19C434.817 112.83 434.96 113.33 435.247 113.69C435.54 114.043 435.947 114.22 436.467 114.22ZM440.269 115V109.37H441.209L441.269 110.22C441.735 109.587 442.349 109.27 443.109 109.27C443.675 109.27 444.139 109.433 444.499 109.76C444.865 110.08 445.049 110.573 445.049 111.24V115H444.029V111.34C444.029 110.987 443.929 110.707 443.729 110.5C443.529 110.293 443.225 110.19 442.819 110.19C442.545 110.19 442.292 110.25 442.059 110.37C441.825 110.483 441.639 110.65 441.499 110.87C441.365 111.09 441.299 111.353 441.299 111.66V115H440.269ZM447.763 115.07C446.996 115.07 446.613 114.753 446.613 114.12V110.17H445.863V109.37H446.613V107.8L447.613 107.7V109.37H448.523V110.17H447.613V113.7C447.613 113.907 447.643 114.043 447.703 114.11C447.769 114.177 447.896 114.21 448.083 114.21C448.276 114.21 448.423 114.197 448.523 114.17V114.99C448.376 115.017 448.239 115.037 448.113 115.05C447.986 115.063 447.869 115.07 447.763 115.07ZM449.458 115V107.1H450.488V110.16C450.948 109.553 451.551 109.25 452.298 109.25C452.865 109.25 453.328 109.413 453.688 109.74C454.055 110.06 454.238 110.553 454.238 111.22V115H453.218V111.32C453.218 110.967 453.118 110.687 452.918 110.48C452.718 110.273 452.415 110.17 452.008 110.17C451.735 110.17 451.481 110.23 451.248 110.35C451.015 110.463 450.828 110.63 450.688 110.85C450.555 111.07 450.488 111.333 450.488 111.64V115H449.458Z" fill="#00956B"/>
<path d="M315.992 96.776V93.256C313.581 93.0427 311.715 92.2533 310.392 90.888C309.069 89.5227 308.387 87.7947 308.344 85.704L312.088 85.224C312.131 86.6107 312.504 87.72 313.208 88.552C313.912 89.384 314.893 89.896 316.152 90.088V82.6C314.659 82.216 313.379 81.7573 312.312 81.224C311.245 80.6693 310.424 79.976 309.848 79.144C309.293 78.2907 309.016 77.2133 309.016 75.912C309.016 74.12 309.645 72.6373 310.904 71.464C312.184 70.2907 313.88 69.608 315.992 69.416V65.832H318.584V69.448C320.717 69.6613 322.403 70.3653 323.64 71.56C324.899 72.7547 325.571 74.344 325.656 76.328L321.912 76.776C321.848 75.56 321.496 74.6107 320.856 73.928C320.216 73.224 319.384 72.776 318.36 72.584V79.4C318.488 79.4427 318.627 79.4747 318.776 79.496C320.013 79.752 321.176 80.1253 322.264 80.616C323.352 81.0853 324.227 81.7787 324.888 82.696C325.571 83.592 325.912 84.808 325.912 86.344C325.912 88.2853 325.24 89.8747 323.896 91.112C322.573 92.328 320.803 93.0427 318.584 93.256V96.776H315.992ZM312.952 75.624C312.952 76.4987 313.229 77.1813 313.784 77.672C314.339 78.1413 315.128 78.536 316.152 78.856V72.552C315.107 72.68 314.307 73.0213 313.752 73.576C313.219 74.1307 312.952 74.8133 312.952 75.624ZM321.848 86.6C321.848 85.512 321.507 84.7333 320.824 84.264C320.163 83.7733 319.341 83.3893 318.36 83.112V90.12C319.469 89.9707 320.323 89.5867 320.92 88.968C321.539 88.3493 321.848 87.56 321.848 86.6ZM333.077 93V77.384H327.605V74.696H328.245C329.866 74.696 331.168 74.2373 332.149 73.32C333.152 72.4027 333.781 71.1867 334.037 69.672H336.789V93H333.077ZM339.692 97.608V95.656H340.3C340.876 95.656 341.271 95.5173 341.484 95.24C341.697 94.984 341.804 94.632 341.804 94.184V93H339.98V89.064H343.692V94.536C343.692 95.5813 343.393 96.3493 342.796 96.84C342.199 97.352 341.409 97.608 340.428 97.608H339.692ZM345.898 93C345.898 91.6773 346.037 90.536 346.314 89.576C346.613 88.616 347.071 87.752 347.69 86.984C348.309 86.1947 349.098 85.416 350.058 84.648C351.018 83.88 352.181 83.0267 353.546 82.088C354.762 81.2347 355.69 80.488 356.33 79.848C356.97 79.208 357.407 78.6107 357.642 78.056C357.898 77.48 358.026 76.904 358.026 76.328C358.026 75.1333 357.663 74.216 356.938 73.576C356.234 72.936 355.285 72.616 354.09 72.616C352.618 72.616 351.509 73.0213 350.762 73.832C350.015 74.6427 349.621 75.7093 349.578 77.032L346.026 76.744C346.111 75.2293 346.506 73.928 347.21 72.84C347.914 71.7307 348.863 70.8773 350.058 70.28C351.274 69.6827 352.682 69.384 354.282 69.384C355.775 69.384 357.087 69.6613 358.218 70.216C359.349 70.7707 360.234 71.56 360.874 72.584C361.514 73.5867 361.834 74.76 361.834 76.104C361.834 77.2773 361.599 78.3333 361.13 79.272C360.682 80.2107 359.999 81.1067 359.082 81.96C358.186 82.792 357.055 83.6773 355.69 84.616C354.901 85.1493 354.111 85.704 353.322 86.28C352.554 86.856 351.914 87.432 351.402 88.008C350.89 88.584 350.623 89.16 350.602 89.736H362.25V93H345.898ZM373.085 93.32C371.399 93.32 369.906 93.0533 368.605 92.52C367.325 91.9653 366.322 91.1867 365.597 90.184C364.871 89.16 364.509 87.9653 364.509 86.6C364.509 85.1707 364.914 83.9333 365.725 82.888C366.557 81.8427 367.613 81.1493 368.893 80.808C367.677 80.36 366.759 79.6987 366.141 78.824C365.522 77.928 365.213 76.8933 365.213 75.72C365.213 74.3973 365.543 73.2667 366.205 72.328C366.887 71.3893 367.815 70.6747 368.989 70.184C370.183 69.672 371.549 69.416 373.085 69.416C374.599 69.416 375.943 69.672 377.117 70.184C378.311 70.6747 379.239 71.3893 379.901 72.328C380.583 73.2667 380.925 74.3973 380.925 75.72C380.925 76.8933 380.615 77.928 379.997 78.824C379.378 79.6987 378.461 80.36 377.245 80.808C378.567 81.1493 379.623 81.832 380.413 82.856C381.223 83.88 381.629 85.128 381.629 86.6C381.629 87.9653 381.266 89.16 380.541 90.184C379.815 91.1867 378.802 91.9653 377.501 92.52C376.221 93.0533 374.749 93.32 373.085 93.32ZM373.085 79.464C374.407 79.464 375.431 79.1547 376.157 78.536C376.903 77.896 377.277 77.0427 377.277 75.976C377.277 74.8667 376.882 74.0133 376.093 73.416C375.303 72.8187 374.301 72.52 373.085 72.52C371.847 72.52 370.834 72.8187 370.045 73.416C369.255 74.0133 368.861 74.8667 368.861 75.976C368.861 77.0427 369.223 77.896 369.949 78.536C370.695 79.1547 371.741 79.464 373.085 79.464ZM373.085 90.216C374.578 90.216 375.741 89.8533 376.573 89.128C377.405 88.4027 377.821 87.432 377.821 86.216C377.821 85 377.394 84.04 376.541 83.336C375.709 82.6107 374.557 82.248 373.085 82.248C371.57 82.248 370.397 82.6107 369.565 83.336C368.754 84.04 368.349 85 368.349 86.216C368.349 87.432 368.765 88.4027 369.597 89.128C370.429 89.8533 371.591 90.216 373.085 90.216ZM391.958 93.32C389.462 93.32 387.499 92.7013 386.07 91.464C384.641 90.2053 383.841 88.5093 383.67 86.376L387.254 85.832C387.339 87.2613 387.809 88.328 388.662 89.032C389.537 89.736 390.635 90.088 391.958 90.088C393.43 90.088 394.561 89.672 395.35 88.84C396.161 88.008 396.566 86.9093 396.566 85.544C396.566 84.1147 396.139 83.016 395.286 82.248C394.454 81.4587 393.355 81.064 391.99 81.064C391.073 81.064 390.23 81.256 389.462 81.64C388.694 82.0027 388.129 82.4827 387.766 83.08L384.118 83.112L385.91 69.672H400.086V72.936H388.95L387.99 79.688C388.545 79.2187 389.238 78.856 390.07 78.6C390.902 78.3227 391.766 78.184 392.662 78.184C394.198 78.184 395.542 78.4933 396.694 79.112C397.867 79.7307 398.774 80.5947 399.414 81.704C400.054 82.792 400.374 84.0827 400.374 85.576C400.374 87.1333 400.011 88.4987 399.286 89.672C398.561 90.824 397.569 91.72 396.31 92.36C395.051 93 393.601 93.32 391.958 93.32ZM401.663 97.608V95.656H402.271C402.847 95.656 403.242 95.5173 403.455 95.24C403.669 94.984 403.775 94.632 403.775 94.184V93H401.951V89.064H405.663V94.536C405.663 95.5813 405.365 96.3493 404.767 96.84C404.17 97.352 403.381 97.608 402.399 97.608H401.663ZM415.449 93.32C413.38 93.32 411.705 92.8187 410.425 91.816C409.166 90.8133 408.238 89.416 407.641 87.624C407.065 85.8107 406.777 83.7093 406.777 81.32C406.777 78.5253 407.129 76.2533 407.833 74.504C408.537 72.7333 409.54 71.432 410.841 70.6C412.142 69.768 413.678 69.352 415.449 69.352C417.518 69.352 419.193 69.8533 420.473 70.856C421.753 71.8587 422.681 73.256 423.257 75.048C423.854 76.84 424.153 78.9307 424.153 81.32C424.153 84.1147 423.79 86.3973 423.065 88.168C422.361 89.9387 421.358 91.24 420.057 92.072C418.756 92.904 417.22 93.32 415.449 93.32ZM415.449 90.024C417.22 90.024 418.468 89.256 419.193 87.72C419.94 86.1627 420.313 84.0293 420.313 81.32C420.313 79.1013 420.1 77.3627 419.673 76.104C419.268 74.8453 418.702 73.96 417.977 73.448C417.252 72.9147 416.409 72.648 415.449 72.648C413.678 72.648 412.43 73.416 411.705 74.952C410.98 76.488 410.617 78.6107 410.617 81.32C410.617 83.5387 410.82 85.288 411.225 86.568C411.63 87.8267 412.196 88.7227 412.921 89.256C413.668 89.768 414.51 90.024 415.449 90.024ZM426.448 93C426.448 91.6773 426.587 90.536 426.864 89.576C427.163 88.616 427.621 87.752 428.24 86.984C428.859 86.1947 429.648 85.416 430.608 84.648C431.568 83.88 432.731 83.0267 434.096 82.088C435.312 81.2347 436.24 80.488 436.88 79.848C437.52 79.208 437.957 78.6107 438.192 78.056C438.448 77.48 438.576 76.904 438.576 76.328C438.576 75.1333 438.213 74.216 437.488 73.576C436.784 72.936 435.835 72.616 434.64 72.616C433.168 72.616 432.059 73.0213 431.312 73.832C430.565 74.6427 430.171 75.7093 430.128 77.032L426.576 76.744C426.661 75.2293 427.056 73.928 427.76 72.84C428.464 71.7307 429.413 70.8773 430.608 70.28C431.824 69.6827 433.232 69.384 434.832 69.384C436.325 69.384 437.637 69.6613 438.768 70.216C439.899 70.7707 440.784 71.56 441.424 72.584C442.064 73.5867 442.384 74.76 442.384 76.104C442.384 77.2773 442.149 78.3333 441.68 79.272C441.232 80.2107 440.549 81.1067 439.632 81.96C438.736 82.792 437.605 83.6773 436.24 84.616C435.451 85.1493 434.661 85.704 433.872 86.28C433.104 86.856 432.464 87.432 431.952 88.008C431.44 88.584 431.173 89.16 431.152 89.736H442.8V93H426.448ZM455.297 93V88.104H443.649V85.032L455.265 69.672H459.041V84.936H462.625V88.104H459.041V93H455.297ZM447.617 84.936H455.297V74.568L447.617 84.936Z" fill="#001428"/>
<path d="M446.516 170.807L402 216H628C630.209 216 632 214.209 632 212V99L608.916 130L580.796 126.5L553.511 146.202L532.815 135.657L505.871 151.223L486.737 158.755L466.822 180.348L446.516 170.807Z" fill="#012C59" fill-opacity="0.05"/>
<path d="M402 216L446.516 170.807L466.822 180.348L486.737 158.755L505.871 151.223L532.815 135.657L553.511 146.202L580.796 126.5L608.916 130L632 99" stroke="#012C59" stroke-width="2"/>
</g>
</g>
<defs>
<filter id="filter0_f_8003_7384" x="25.4436" y="-299.089" width="764.537" height="636.727" filterUnits="userSpaceOnUse" color-interpolation-filters="sRGB">
<feFlood flood-opacity="0" result="BackgroundImageFix"/>
<feBlend mode="normal" in="SourceGraphic" in2="BackgroundImageFix" result="shape"/>
<feGaussianBlur stdDeviation="84.2196" result="effect1_foregroundBlur_8003_7384"/>
</filter>
<filter id="filter1_f_8003_7384" x="277.814" y="-152.246" width="697.769" height="458.319" filterUnits="userSpaceOnUse" color-interpolation-filters="sRGB">
<feFlood flood-opacity="0" result="BackgroundImageFix"/>
<feBlend mode="normal" in="SourceGraphic" in2="BackgroundImageFix" result="shape"/>
<feGaussianBlur stdDeviation="68.6714" result="effect1_foregroundBlur_8003_7384"/>
</filter>
<filter id="filter2_f_8003_7384" x="608.25" y="-17.4669" width="432.145" height="367.299" filterUnits="userSpaceOnUse" color-interpolation-filters="sRGB">
<feFlood flood-opacity="0" result="BackgroundImageFix"/>
<feBlend mode="normal" in="SourceGraphic" in2="BackgroundImageFix" result="shape"/>
<feGaussianBlur stdDeviation="41.462" result="effect1_foregroundBlur_8003_7384"/>
</filter>
<filter id="filter3_f_8003_7384" x="77.9841" y="-163.261" width="717.54" height="605.694" filterUnits="userSpaceOnUse" color-interpolation-filters="sRGB">
<feFlood flood-opacity="0" result="BackgroundImageFix"/>
<feBlend mode="normal" in="SourceGraphic" in2="BackgroundImageFix" result="shape"/>
<feGaussianBlur stdDeviation="64.7843" result="effect1_foregroundBlur_8003_7384"/>
</filter>
<filter id="filter4_f_8003_7384" x="125.35" y="-332.685" width="615.007" height="498.083" filterUnits="userSpaceOnUse" color-interpolation-filters="sRGB">
<feFlood flood-opacity="0" result="BackgroundImageFix"/>
<feBlend mode="normal" in="SourceGraphic" in2="BackgroundImageFix" result="shape"/>
<feGaussianBlur stdDeviation="49.2361" result="effect1_foregroundBlur_8003_7384"/>
</filter>
<filter id="filter5_f_8003_7384" x="231.283" y="-254.027" width="533.099" height="399.954" filterUnits="userSpaceOnUse" color-interpolation-filters="sRGB">
<feFlood flood-opacity="0" result="BackgroundImageFix"/>
<feBlend mode="normal" in="SourceGraphic" in2="BackgroundImageFix" result="shape"/>
<feGaussianBlur stdDeviation="51.8274" result="effect1_foregroundBlur_8003_7384"/>
</filter>
<filter id="filter6_f_8003_7384" x="157.932" y="-124.23" width="592.101" height="250.206" filterUnits="userSpaceOnUse" color-interpolation-filters="sRGB">
<feFlood flood-opacity="0" result="BackgroundImageFix"/>
<feBlend mode="normal" in="SourceGraphic" in2="BackgroundImageFix" result="shape"/>
<feGaussianBlur stdDeviation="49.2361" result="effect1_foregroundBlur_8003_7384"/>
</filter>
<filter id="filter7_ddd_8003_7384" x="249" y="8" width="429" height="311" filterUnits="userSpaceOnUse" color-interpolation-filters="sRGB">
<feFlood flood-opacity="0" result="BackgroundImageFix"/>
<feColorMatrix in="SourceAlpha" type="matrix" values="0 0 0 0 0 0 0 0 0 0 0 0 0 0 0 0 0 0 127 0" result="hardAlpha"/>
<feOffset dy="6"/>
<feGaussianBlur stdDeviation="7"/>
<feColorMatrix type="matrix" values="0 0 0 0 0 0 0 0 0 0 0 0 0 0 0 0 0 0 0.02 0"/>
<feBlend mode="normal" in2="BackgroundImageFix" result="effect1_dropShadow_8003_7384"/>
<feColorMatrix in="SourceAlpha" type="matrix" values="0 0 0 0 0 0 0 0 0 0 0 0 0 0 0 0 0 0 127 0" result="hardAlpha"/>
<feOffset dy="25"/>
<feGaussianBlur stdDeviation="12.5"/>
<feColorMatrix type="matrix" values="0 0 0 0 0 0 0 0 0 0 0 0 0 0 0 0 0 0 0.02 0"/>
<feBlend mode="normal" in2="effect1_dropShadow_8003_7384" result="effect2_dropShadow_8003_7384"/>
<feColorMatrix in="SourceAlpha" type="matrix" values="0 0 0 0 0 0 0 0 0 0 0 0 0 0 0 0 0 0 127 0" result="hardAlpha"/>
<feOffset dy="57"/>
<feGaussianBlur stdDeviation="17"/>
<feColorMatrix type="matrix" values="0 0 0 0 0 0 0 0 0 0 0 0 0 0 0 0 0 0 0.01 0"/>
<feBlend mode="normal" in2="effect2_dropShadow_8003_7384" result="effect3_dropShadow_8003_7384"/>
<feBlend mode="normal" in="SourceGraphic" in2="effect3_dropShadow_8003_7384" result="shape"/>
</filter>
<clipPath id="clip0_8003_7384">
<rect width="660" height="250" rx="8" fill="white"/>
</clipPath>
</defs>
</svg>
