<svg width="426" height="250" viewBox="0 0 426 250" fill="none" xmlns="http://www.w3.org/2000/svg">
<g clip-path="url(#clip0_8003_7319)">
<rect width="426" height="250" rx="8" fill="white"/>
<g opacity="0.8">
<g filter="url(#filter0_f_8003_7319)">
<ellipse cx="152.952" cy="180.472" rx="152.952" ry="180.472" transform="matrix(0.994655 0.103251 -0.735217 0.677832 61.4258 -42.5903)" fill="#0043F2"/>
</g>
<g filter="url(#filter1_f_8003_7319)">
<path d="M-25.6546 54.8785C41.4844 83.5056 95.6484 188.719 45.2243 210.376C-5.19982 232.032 42.3287 174.633 -24.8102 146.006C-91.9491 117.379 -310.72 213.428 -320.657 184.22C-327.62 163.751 -92.7935 26.2515 -25.6546 54.8785Z" fill="#7FA1F8"/>
</g>
<g filter="url(#filter2_f_8003_7319)">
<path d="M266.284 67.2102C96.6 77.0182 -101.542 245.069 -179.403 327.868C-78.0783 352.202 127.02 378.102 136.817 287.023C146.614 195.944 227.21 102.532 266.284 67.2102Z" fill="white"/>
</g>
<g filter="url(#filter3_f_8003_7319)">
<path d="M-134.665 115.774C19.4852 84.2896 161.355 0.654249 265.935 -67.3916C252.47 -106.616 152.05 -166.86 121.006 -80.7299C97.6596 -15.9577 -3.71067 76.2163 -134.665 115.774Z" fill="white"/>
</g>
<g filter="url(#filter4_f_8003_7319)">
<path d="M162.851 -50.2201C65.5156 -38.6465 -52.3443 9.44611 -142.533 49.2774C-155.747 77.0187 -134.117 124.795 -73.2349 67.8088C-27.4498 24.9541 73.5343 -31.6127 162.851 -50.2201Z" fill="#4CC0FF"/>
</g>
<g filter="url(#filter5_f_8003_7319)">
<path d="M-139.56 79.33C-48.5075 58.1968 87.0259 61.48 192.986 66.5595C224.762 85.8628 241.88 133.215 148.022 104.287C77.4391 82.5319 -50.0832 66.7049 -139.56 79.33Z" fill="#83D4FF"/>
</g>
</g>
<g filter="url(#filter6_ddd_8003_7319)">
<g clip-path="url(#clip1_8003_7319)">
<path d="M87 46C87 42.6863 89.6863 40 93 40H321C324.314 40 327 42.6863 327 46V181C327 184.314 324.314 187 321 187H93C89.6863 187 87 184.314 87 181V46Z" fill="white"/>
<path d="M103.936 101.88V96.252H105.196V101.784C105.196 102.568 105.416 103.128 105.856 103.464C106.296 103.8 106.876 103.968 107.596 103.968C108.444 103.968 109.052 103.772 109.42 103.38C109.796 102.98 109.984 102.448 109.984 101.784V96.252H111.232V101.88C111.232 102.528 111.092 103.096 110.812 103.584C110.532 104.064 110.12 104.44 109.576 104.712C109.04 104.984 108.372 105.12 107.572 105.12C106.452 105.12 105.564 104.84 104.908 104.28C104.26 103.72 103.936 102.92 103.936 101.88ZM115.369 105.12C114.521 105.12 113.841 104.924 113.329 104.532C112.817 104.14 112.549 103.6 112.525 102.912L113.725 102.78C113.725 103.196 113.877 103.536 114.181 103.8C114.485 104.064 114.893 104.196 115.405 104.196C115.845 104.196 116.197 104.12 116.461 103.968C116.733 103.808 116.869 103.544 116.869 103.176C116.869 102.88 116.777 102.664 116.593 102.528C116.417 102.384 116.173 102.28 115.861 102.216C115.549 102.144 115.201 102.068 114.817 101.988C114.129 101.836 113.621 101.608 113.293 101.304C112.973 100.992 112.813 100.576 112.813 100.056C112.813 99.472 113.045 99.004 113.509 98.652C113.973 98.3 114.593 98.124 115.369 98.124C116.153 98.124 116.785 98.296 117.265 98.64C117.745 98.984 118.005 99.5 118.045 100.188L116.857 100.344C116.857 99.952 116.733 99.636 116.485 99.396C116.237 99.156 115.853 99.036 115.333 99.036C114.925 99.036 114.609 99.124 114.385 99.3C114.169 99.468 114.061 99.688 114.061 99.96C114.061 100.304 114.209 100.552 114.505 100.704C114.809 100.856 115.293 100.996 115.957 101.124C116.413 101.204 116.801 101.316 117.121 101.46C117.449 101.604 117.701 101.808 117.877 102.072C118.053 102.336 118.141 102.692 118.141 103.14C118.141 103.732 117.913 104.212 117.457 104.58C117.009 104.94 116.313 105.12 115.369 105.12ZM122.341 105.12C121.693 105.12 121.125 104.984 120.637 104.712C120.157 104.432 119.781 104.032 119.509 103.512C119.245 102.992 119.113 102.364 119.113 101.628C119.113 100.924 119.237 100.312 119.485 99.792C119.741 99.264 120.105 98.856 120.577 98.568C121.049 98.272 121.621 98.124 122.293 98.124C122.933 98.124 123.485 98.264 123.949 98.544C124.421 98.824 124.777 99.248 125.017 99.816C125.257 100.376 125.349 101.08 125.293 101.928H120.337C120.377 102.656 120.569 103.2 120.913 103.56C121.265 103.92 121.745 104.1 122.353 104.1C122.849 104.1 123.249 103.988 123.553 103.764C123.857 103.54 124.045 103.228 124.117 102.828L125.209 103.08C125.089 103.688 124.773 104.18 124.261 104.556C123.757 104.932 123.117 105.12 122.341 105.12ZM122.269 99.096C121.773 99.096 121.349 99.248 120.997 99.552C120.653 99.848 120.441 100.332 120.361 101.004H124.033C124.041 100.428 123.889 99.968 123.577 99.624C123.273 99.272 122.837 99.096 122.269 99.096ZM126.528 105V98.244H127.632L127.704 99.24C127.88 98.896 128.104 98.632 128.376 98.448C128.656 98.264 128.976 98.172 129.336 98.172C129.584 98.172 129.768 98.196 129.888 98.244V99.408H129.804C129.676 99.36 129.52 99.336 129.336 99.336C128.88 99.336 128.512 99.476 128.232 99.756C127.96 100.036 127.804 100.412 127.764 100.884V105H126.528ZM133.147 105.12C132.299 105.12 131.619 104.924 131.107 104.532C130.595 104.14 130.327 103.6 130.303 102.912L131.503 102.78C131.503 103.196 131.655 103.536 131.959 103.8C132.263 104.064 132.671 104.196 133.183 104.196C133.623 104.196 133.975 104.12 134.239 103.968C134.511 103.808 134.647 103.544 134.647 103.176C134.647 102.88 134.555 102.664 134.371 102.528C134.195 102.384 133.951 102.28 133.639 102.216C133.327 102.144 132.979 102.068 132.595 101.988C131.907 101.836 131.399 101.608 131.071 101.304C130.751 100.992 130.591 100.576 130.591 100.056C130.591 99.472 130.823 99.004 131.287 98.652C131.751 98.3 132.371 98.124 133.147 98.124C133.931 98.124 134.563 98.296 135.043 98.64C135.523 98.984 135.783 99.5 135.823 100.188L134.635 100.344C134.635 99.952 134.511 99.636 134.263 99.396C134.015 99.156 133.631 99.036 133.111 99.036C132.703 99.036 132.387 99.124 132.163 99.3C131.947 99.468 131.839 99.688 131.839 99.96C131.839 100.304 131.987 100.552 132.283 100.704C132.587 100.856 133.071 100.996 133.735 101.124C134.191 101.204 134.579 101.316 134.899 101.46C135.227 101.604 135.479 101.808 135.655 102.072C135.831 102.336 135.919 102.692 135.919 103.14C135.919 103.732 135.691 104.212 135.235 104.58C134.787 104.94 134.091 105.12 133.147 105.12ZM143.001 105.12C142.353 105.12 141.785 104.984 141.297 104.712C140.817 104.432 140.441 104.032 140.169 103.512C139.905 102.992 139.773 102.364 139.773 101.628C139.773 100.924 139.897 100.312 140.145 99.792C140.401 99.264 140.765 98.856 141.237 98.568C141.709 98.272 142.281 98.124 142.953 98.124C143.593 98.124 144.145 98.264 144.609 98.544C145.081 98.824 145.437 99.248 145.677 99.816C145.917 100.376 146.009 101.08 145.953 101.928H140.997C141.037 102.656 141.229 103.2 141.573 103.56C141.925 103.92 142.405 104.1 143.013 104.1C143.509 104.1 143.909 103.988 144.213 103.764C144.517 103.54 144.705 103.228 144.777 102.828L145.869 103.08C145.749 103.688 145.433 104.18 144.921 104.556C144.417 104.932 143.777 105.12 143.001 105.12ZM142.929 99.096C142.433 99.096 142.009 99.248 141.657 99.552C141.313 99.848 141.101 100.332 141.021 101.004H144.693C144.701 100.428 144.549 99.968 144.237 99.624C143.933 99.272 143.497 99.096 142.929 99.096ZM147.188 105V98.244H148.316L148.388 99.264C148.948 98.504 149.684 98.124 150.596 98.124C151.276 98.124 151.832 98.32 152.264 98.712C152.704 99.096 152.924 99.688 152.924 100.488V105H151.7V100.608C151.7 100.184 151.58 99.848 151.34 99.6C151.1 99.352 150.736 99.228 150.248 99.228C149.92 99.228 149.616 99.3 149.336 99.444C149.056 99.58 148.832 99.78 148.664 100.044C148.504 100.308 148.424 100.624 148.424 100.992V105H147.188ZM157.269 107.112C156.477 107.112 155.845 106.94 155.373 106.596C154.909 106.252 154.645 105.8 154.581 105.24L155.697 104.976C155.737 105.416 155.913 105.724 156.225 105.9C156.537 106.084 156.905 106.176 157.329 106.176C157.881 106.176 158.325 106.044 158.661 105.78C158.997 105.524 159.165 105.1 159.165 104.508V103.284C158.957 103.652 158.673 103.92 158.313 104.088C157.953 104.248 157.533 104.328 157.053 104.328C156.485 104.328 155.989 104.2 155.565 103.944C155.149 103.688 154.829 103.332 154.605 102.876C154.381 102.412 154.269 101.872 154.269 101.256C154.269 100.648 154.377 100.108 154.593 99.636C154.817 99.164 155.133 98.796 155.541 98.532C155.949 98.26 156.433 98.124 156.993 98.124C157.489 98.124 157.929 98.236 158.313 98.46C158.705 98.676 158.989 98.976 159.165 99.36L159.237 98.244H160.377V104.484C160.377 105.268 160.121 105.9 159.609 106.38C159.105 106.868 158.325 107.112 157.269 107.112ZM157.317 103.428C157.685 103.428 158.005 103.344 158.277 103.176C158.557 103 158.773 102.768 158.925 102.48C159.085 102.184 159.165 101.852 159.165 101.484V101.028C159.165 100.484 158.989 100.036 158.637 99.684C158.293 99.324 157.841 99.144 157.281 99.144C156.721 99.144 156.289 99.34 155.985 99.732C155.681 100.116 155.529 100.628 155.529 101.268C155.529 101.9 155.681 102.42 155.985 102.828C156.289 103.228 156.733 103.428 157.317 103.428ZM163.943 105.12C163.239 105.12 162.691 104.948 162.299 104.604C161.915 104.252 161.723 103.796 161.723 103.236C161.723 102.788 161.823 102.424 162.023 102.144C162.231 101.864 162.499 101.648 162.827 101.496C163.155 101.336 163.511 101.22 163.895 101.148L165.311 100.884C165.671 100.82 165.907 100.724 166.019 100.596C166.131 100.46 166.187 100.284 166.187 100.068C166.187 99.788 166.087 99.556 165.887 99.372C165.687 99.18 165.323 99.084 164.795 99.084C164.283 99.084 163.875 99.184 163.571 99.384C163.267 99.584 163.119 99.892 163.127 100.308L161.963 100.188C161.979 99.524 162.243 99.016 162.755 98.664C163.275 98.304 163.955 98.124 164.795 98.124C165.635 98.124 166.279 98.292 166.727 98.628C167.183 98.964 167.411 99.476 167.411 100.164V103.572C167.411 103.812 167.455 103.968 167.543 104.04C167.631 104.112 167.727 104.148 167.831 104.148C167.895 104.148 167.943 104.148 167.975 104.148C168.007 104.14 168.027 104.132 168.035 104.124H168.107V105C168.027 105.032 167.919 105.056 167.783 105.072C167.655 105.088 167.559 105.096 167.495 105.096C167.151 105.096 166.871 105.012 166.655 104.844C166.447 104.676 166.343 104.42 166.343 104.076V103.86C166.175 104.236 165.871 104.54 165.431 104.772C164.991 105.004 164.495 105.12 163.943 105.12ZM164.255 104.136C164.735 104.136 165.147 104.036 165.491 103.836C165.843 103.628 166.079 103.34 166.199 102.972V101.568C166.103 101.616 165.975 101.66 165.815 101.7C165.663 101.74 165.467 101.784 165.227 101.832L164.231 102.036C163.727 102.14 163.391 102.292 163.223 102.492C163.063 102.692 162.983 102.908 162.983 103.14C162.983 103.484 163.103 103.736 163.343 103.896C163.583 104.056 163.887 104.136 164.255 104.136ZM171.672 107.112C170.88 107.112 170.248 106.94 169.776 106.596C169.312 106.252 169.048 105.8 168.984 105.24L170.1 104.976C170.14 105.416 170.316 105.724 170.628 105.9C170.94 106.084 171.308 106.176 171.732 106.176C172.284 106.176 172.728 106.044 173.064 105.78C173.4 105.524 173.568 105.1 173.568 104.508V103.284C173.36 103.652 173.076 103.92 172.716 104.088C172.356 104.248 171.936 104.328 171.456 104.328C170.888 104.328 170.392 104.2 169.968 103.944C169.552 103.688 169.232 103.332 169.008 102.876C168.784 102.412 168.672 101.872 168.672 101.256C168.672 100.648 168.78 100.108 168.996 99.636C169.22 99.164 169.536 98.796 169.944 98.532C170.352 98.26 170.836 98.124 171.396 98.124C171.892 98.124 172.332 98.236 172.716 98.46C173.108 98.676 173.392 98.976 173.568 99.36L173.64 98.244H174.78V104.484C174.78 105.268 174.524 105.9 174.012 106.38C173.508 106.868 172.728 107.112 171.672 107.112ZM171.72 103.428C172.088 103.428 172.408 103.344 172.68 103.176C172.96 103 173.176 102.768 173.328 102.48C173.488 102.184 173.568 101.852 173.568 101.484V101.028C173.568 100.484 173.392 100.036 173.04 99.684C172.696 99.324 172.244 99.144 171.684 99.144C171.124 99.144 170.692 99.34 170.388 99.732C170.084 100.116 169.932 100.628 169.932 101.268C169.932 101.9 170.084 102.42 170.388 102.828C170.692 103.228 171.136 103.428 171.72 103.428ZM179.341 105.12C178.693 105.12 178.125 104.984 177.637 104.712C177.157 104.432 176.781 104.032 176.509 103.512C176.245 102.992 176.113 102.364 176.113 101.628C176.113 100.924 176.237 100.312 176.485 99.792C176.741 99.264 177.105 98.856 177.577 98.568C178.049 98.272 178.621 98.124 179.293 98.124C179.933 98.124 180.485 98.264 180.949 98.544C181.421 98.824 181.777 99.248 182.017 99.816C182.257 100.376 182.349 101.08 182.293 101.928H177.337C177.377 102.656 177.569 103.2 177.913 103.56C178.265 103.92 178.745 104.1 179.353 104.1C179.849 104.1 180.249 103.988 180.553 103.764C180.857 103.54 181.045 103.228 181.117 102.828L182.209 103.08C182.089 103.688 181.773 104.18 181.261 104.556C180.757 104.932 180.117 105.12 179.341 105.12ZM179.269 99.096C178.773 99.096 178.349 99.248 177.997 99.552C177.653 99.848 177.441 100.332 177.361 101.004H181.033C181.041 100.428 180.889 99.968 180.577 99.624C180.273 99.272 179.837 99.096 179.269 99.096Z" fill="black"/>
<path d="M112.344 86.32C110.061 86.32 108.195 85.7333 106.744 84.56C105.293 83.3867 104.44 81.7973 104.184 79.792L107.704 79.248C107.832 80.4213 108.28 81.36 109.048 82.064C109.816 82.7467 110.893 83.088 112.28 83.088C113.816 83.088 115.011 82.704 115.864 81.936C116.739 81.1467 117.336 80.0907 117.656 78.768C117.976 77.424 118.093 75.92 118.008 74.256C117.581 75.1947 116.824 75.9627 115.736 76.56C114.648 77.136 113.411 77.424 112.024 77.424C110.467 77.424 109.101 77.1253 107.928 76.528C106.776 75.9093 105.869 75.056 105.208 73.968C104.568 72.8587 104.248 71.5787 104.248 70.128C104.248 68.6133 104.589 67.2693 105.272 66.096C105.976 64.9227 106.947 64.0053 108.184 63.344C109.421 62.6827 110.861 62.352 112.504 62.352C114.616 62.352 116.344 62.864 117.688 63.888C119.053 64.8907 120.056 66.32 120.696 68.176C121.357 70.0107 121.688 72.176 121.688 74.672C121.688 76.9333 121.347 78.9493 120.664 80.72C120.003 82.4693 118.979 83.8453 117.592 84.848C116.227 85.8293 114.477 86.32 112.344 86.32ZM112.6 74.48C113.987 74.48 115.107 74.064 115.96 73.232C116.813 72.4 117.24 71.3227 117.24 70C117.24 68.6773 116.813 67.6107 115.96 66.8C115.128 65.9893 114.019 65.584 112.632 65.584C111.245 65.584 110.125 66 109.272 66.832C108.44 67.6427 108.024 68.7093 108.024 70.032C108.024 71.44 108.44 72.5387 109.272 73.328C110.125 74.096 111.235 74.48 112.6 74.48ZM123.959 86C123.959 84.6773 124.098 83.536 124.375 82.576C124.674 81.616 125.133 80.752 125.751 79.984C126.37 79.1947 127.159 78.416 128.119 77.648C129.079 76.88 130.242 76.0267 131.607 75.088C132.823 74.2347 133.751 73.488 134.391 72.848C135.031 72.208 135.469 71.6107 135.703 71.056C135.959 70.48 136.087 69.904 136.087 69.328C136.087 68.1333 135.725 67.216 134.999 66.576C134.295 65.936 133.346 65.616 132.151 65.616C130.679 65.616 129.57 66.0213 128.823 66.832C128.077 67.6427 127.682 68.7093 127.639 70.032L124.087 69.744C124.173 68.2293 124.567 66.928 125.271 65.84C125.975 64.7307 126.925 63.8773 128.119 63.28C129.335 62.6827 130.743 62.384 132.343 62.384C133.837 62.384 135.149 62.6613 136.279 63.216C137.41 63.7707 138.295 64.56 138.935 65.584C139.575 66.5867 139.895 67.76 139.895 69.104C139.895 70.2773 139.661 71.3333 139.191 72.272C138.743 73.2107 138.061 74.1067 137.143 74.96C136.247 75.792 135.117 76.6773 133.751 77.616C132.962 78.1493 132.173 78.704 131.383 79.28C130.615 79.856 129.975 80.432 129.463 81.008C128.951 81.584 128.685 82.16 128.663 82.736H140.311V86H123.959ZM147.992 74.128C146.542 74.128 145.336 73.6373 144.376 72.656C143.438 71.6533 142.968 70.2027 142.968 68.304C142.968 66.4907 143.416 65.0613 144.312 64.016C145.23 62.9707 146.456 62.448 147.992 62.448C149.464 62.448 150.67 62.9493 151.608 63.952C152.568 64.9333 153.048 66.384 153.048 68.304C153.048 70.1173 152.59 71.5467 151.672 72.592C150.776 73.616 149.55 74.128 147.992 74.128ZM145.112 86L161.112 62.64H164.344L148.344 86H145.112ZM147.992 71.888C148.675 71.888 149.219 71.6 149.624 71.024C150.051 70.4267 150.264 69.52 150.264 68.304C150.264 67.1947 150.072 66.32 149.688 65.68C149.304 65.04 148.739 64.72 147.992 64.72C147.31 64.72 146.766 65.008 146.36 65.584C145.976 66.16 145.784 67.0667 145.784 68.304C145.784 69.4133 145.966 70.288 146.328 70.928C146.691 71.568 147.246 71.888 147.992 71.888ZM161.4 86.16C159.928 86.16 158.723 85.6693 157.784 84.688C156.846 83.6853 156.376 82.2347 156.376 80.336C156.376 78.5227 156.824 77.104 157.72 76.08C158.638 75.0347 159.864 74.512 161.4 74.512C162.851 74.512 164.056 75.0133 165.016 76.016C165.976 76.9973 166.456 78.4373 166.456 80.336C166.456 82.128 165.998 83.5467 165.08 84.592C164.163 85.6373 162.936 86.16 161.4 86.16ZM161.4 83.888C162.062 83.888 162.595 83.6 163 83.024C163.427 82.448 163.64 81.5627 163.64 80.368C163.64 79.2587 163.448 78.384 163.064 77.744C162.702 77.0827 162.147 76.752 161.4 76.752C160.696 76.752 160.152 77.04 159.768 77.616C159.384 78.192 159.192 79.1093 159.192 80.368C159.192 81.456 159.363 82.32 159.704 82.96C160.067 83.5787 160.632 83.888 161.4 83.888Z" fill="#001428"/>
<circle cx="305" cy="181" r="73" stroke="#F2F4F7" stroke-width="2"/>
<path d="M342.142 243.845C332.748 249.397 322.228 252.772 311.357 253.723C300.485 254.673 289.539 253.174 279.324 249.335C269.108 245.497 259.883 239.417 252.328 231.543C244.772 223.67 239.078 214.202 235.664 203.837C232.25 193.472 231.204 182.473 232.601 171.65C233.999 160.828 237.805 150.456 243.74 141.298C249.675 132.14 257.588 124.43 266.896 118.734C276.204 113.038 286.671 109.501 297.526 108.384" stroke="#012C59" stroke-width="2" stroke-linecap="round"/>
</g>
<path d="M321 36C326.523 36 331 40.4772 331 46V181C331 186.523 326.523 191 321 191H93C87.4771 191 83 186.523 83 181V46C83 40.4772 87.4772 36 93 36H321Z" stroke="white" stroke-opacity="0.3" stroke-width="8"/>
</g>
<g filter="url(#filter7_ddd_8003_7319)">
<rect x="255" y="131" width="100" height="100" rx="50" fill="#012C59"/>
<g clip-path="url(#clip2_8003_7319)">
<path d="M286.337 184.062C285.766 183.058 285.616 181.869 285.918 180.754C286.221 179.639 286.953 178.689 287.953 178.111C288.954 177.534 290.142 177.375 291.259 177.67C292.376 177.966 293.331 178.691 293.915 179.688L298.001 186.25V162.625C298.001 161.465 298.462 160.352 299.283 159.531C300.103 158.711 301.216 158.25 302.376 158.25C303.536 158.25 304.649 158.711 305.47 159.531C306.29 160.352 306.751 161.465 306.751 162.625V174.875C306.751 173.715 307.212 172.602 308.033 171.781C308.853 170.961 309.966 170.5 311.126 170.5C312.286 170.5 313.399 170.961 314.22 171.781C315.04 172.602 315.501 173.715 315.501 174.875V178.375C315.501 177.215 315.962 176.102 316.783 175.281C317.603 174.461 318.716 174 319.876 174C321.036 174 322.149 174.461 322.97 175.281C323.79 176.102 324.251 177.215 324.251 178.375V186.25C324.251 188.548 323.798 190.824 322.919 192.947C322.04 195.07 320.751 196.999 319.125 198.624C317.5 200.249 315.571 201.538 313.448 202.418C311.325 203.297 309.049 203.75 306.751 203.75C297.087 203.75 294.543 198.5 286.337 184.062Z" stroke="white" stroke-width="2" stroke-linecap="round" stroke-linejoin="round"/>
</g>
</g>
</g>
<defs>
<filter id="filter0_f_8003_7319" x="-253.004" y="-159.834" width="667.757" height="510.733" filterUnits="userSpaceOnUse" color-interpolation-filters="sRGB">
<feFlood flood-opacity="0" result="BackgroundImageFix"/>
<feBlend mode="normal" in="SourceGraphic" in2="BackgroundImageFix" result="shape"/>
<feGaussianBlur stdDeviation="66.0038" result="effect1_foregroundBlur_8003_7319"/>
</filter>
<filter id="filter1_f_8003_7319" x="-428.446" y="-56.6629" width="601.085" height="379.45" filterUnits="userSpaceOnUse" color-interpolation-filters="sRGB">
<feFlood flood-opacity="0" result="BackgroundImageFix"/>
<feBlend mode="normal" in="SourceGraphic" in2="BackgroundImageFix" result="shape"/>
<feGaussianBlur stdDeviation="53.8185" result="effect1_foregroundBlur_8003_7319"/>
</filter>
<filter id="filter2_f_8003_7319" x="-280.947" y="-34.3339" width="648.774" height="486.789" filterUnits="userSpaceOnUse" color-interpolation-filters="sRGB">
<feFlood flood-opacity="0" result="BackgroundImageFix"/>
<feBlend mode="normal" in="SourceGraphic" in2="BackgroundImageFix" result="shape"/>
<feGaussianBlur stdDeviation="50.7722" result="effect1_foregroundBlur_8003_7319"/>
</filter>
<filter id="filter3_f_8003_7319" x="-211.84" y="-201.876" width="554.949" height="394.824" filterUnits="userSpaceOnUse" color-interpolation-filters="sRGB">
<feFlood flood-opacity="0" result="BackgroundImageFix"/>
<feBlend mode="normal" in="SourceGraphic" in2="BackgroundImageFix" result="shape"/>
<feGaussianBlur stdDeviation="38.5868" result="effect1_foregroundBlur_8003_7319"/>
</filter>
<filter id="filter4_f_8003_7319" x="-227.497" y="-131.456" width="471.584" height="307.199" filterUnits="userSpaceOnUse" color-interpolation-filters="sRGB">
<feFlood flood-opacity="0" result="BackgroundImageFix"/>
<feBlend mode="normal" in="SourceGraphic" in2="BackgroundImageFix" result="shape"/>
<feGaussianBlur stdDeviation="40.6177" result="effect1_foregroundBlur_8003_7319"/>
</filter>
<filter id="filter5_f_8003_7319" x="-216.734" y="-14.3998" width="512.121" height="204.99" filterUnits="userSpaceOnUse" color-interpolation-filters="sRGB">
<feFlood flood-opacity="0" result="BackgroundImageFix"/>
<feBlend mode="normal" in="SourceGraphic" in2="BackgroundImageFix" result="shape"/>
<feGaussianBlur stdDeviation="38.5868" result="effect1_foregroundBlur_8003_7319"/>
</filter>
<filter id="filter6_ddd_8003_7319" x="45" y="24" width="324" height="262" filterUnits="userSpaceOnUse" color-interpolation-filters="sRGB">
<feFlood flood-opacity="0" result="BackgroundImageFix"/>
<feColorMatrix in="SourceAlpha" type="matrix" values="0 0 0 0 0 0 0 0 0 0 0 0 0 0 0 0 0 0 127 0" result="hardAlpha"/>
<feOffset dy="6"/>
<feGaussianBlur stdDeviation="7"/>
<feColorMatrix type="matrix" values="0 0 0 0 0 0 0 0 0 0 0 0 0 0 0 0 0 0 0.02 0"/>
<feBlend mode="normal" in2="BackgroundImageFix" result="effect1_dropShadow_8003_7319"/>
<feColorMatrix in="SourceAlpha" type="matrix" values="0 0 0 0 0 0 0 0 0 0 0 0 0 0 0 0 0 0 127 0" result="hardAlpha"/>
<feOffset dy="25"/>
<feGaussianBlur stdDeviation="12.5"/>
<feColorMatrix type="matrix" values="0 0 0 0 0 0 0 0 0 0 0 0 0 0 0 0 0 0 0.02 0"/>
<feBlend mode="normal" in2="effect1_dropShadow_8003_7319" result="effect2_dropShadow_8003_7319"/>
<feColorMatrix in="SourceAlpha" type="matrix" values="0 0 0 0 0 0 0 0 0 0 0 0 0 0 0 0 0 0 127 0" result="hardAlpha"/>
<feOffset dy="57"/>
<feGaussianBlur stdDeviation="17"/>
<feColorMatrix type="matrix" values="0 0 0 0 0 0 0 0 0 0 0 0 0 0 0 0 0 0 0.01 0"/>
<feBlend mode="normal" in2="effect2_dropShadow_8003_7319" result="effect3_dropShadow_8003_7319"/>
<feBlend mode="normal" in="SourceGraphic" in2="effect3_dropShadow_8003_7319" result="shape"/>
</filter>
<filter id="filter7_ddd_8003_7319" x="240" y="128" width="130" height="143" filterUnits="userSpaceOnUse" color-interpolation-filters="sRGB">
<feFlood flood-opacity="0" result="BackgroundImageFix"/>
<feColorMatrix in="SourceAlpha" type="matrix" values="0 0 0 0 0 0 0 0 0 0 0 0 0 0 0 0 0 0 127 0" result="hardAlpha"/>
<feOffset dy="3"/>
<feGaussianBlur stdDeviation="3"/>
<feColorMatrix type="matrix" values="0 0 0 0 0 0 0 0 0 0 0 0 0 0 0 0 0 0 0.02 0"/>
<feBlend mode="normal" in2="BackgroundImageFix" result="effect1_dropShadow_8003_7319"/>
<feColorMatrix in="SourceAlpha" type="matrix" values="0 0 0 0 0 0 0 0 0 0 0 0 0 0 0 0 0 0 127 0" result="hardAlpha"/>
<feOffset dy="11"/>
<feGaussianBlur stdDeviation="5.5"/>
<feColorMatrix type="matrix" values="0 0 0 0 0 0 0 0 0 0 0 0 0 0 0 0 0 0 0.02 0"/>
<feBlend mode="normal" in2="effect1_dropShadow_8003_7319" result="effect2_dropShadow_8003_7319"/>
<feColorMatrix in="SourceAlpha" type="matrix" values="0 0 0 0 0 0 0 0 0 0 0 0 0 0 0 0 0 0 127 0" result="hardAlpha"/>
<feOffset dy="25"/>
<feGaussianBlur stdDeviation="7.5"/>
<feColorMatrix type="matrix" values="0 0 0 0 0 0 0 0 0 0 0 0 0 0 0 0 0 0 0.01 0"/>
<feBlend mode="normal" in2="effect2_dropShadow_8003_7319" result="effect3_dropShadow_8003_7319"/>
<feBlend mode="normal" in="SourceGraphic" in2="effect3_dropShadow_8003_7319" result="shape"/>
</filter>
<clipPath id="clip0_8003_7319">
<rect width="426" height="250" rx="8" fill="white"/>
</clipPath>
<clipPath id="clip1_8003_7319">
<path d="M87 46C87 42.6863 89.6863 40 93 40H321C324.314 40 327 42.6863 327 46V181C327 184.314 324.314 187 321 187H93C89.6863 187 87 184.314 87 181V46Z" fill="white"/>
</clipPath>
<clipPath id="clip2_8003_7319">
<rect width="56" height="56" fill="white" transform="translate(277 153)"/>
</clipPath>
</defs>
</svg>
