<svg xmlns="http://www.w3.org/2000/svg" viewBox="0 0 64 64"><title>Access</title><g id="Access"><path d="M47,63H13a5,5,0,0,1-5-5V6a5,5,0,0,1,5-5H47a5,5,0,0,1,5,5V58a5,5,0,0,1-4,4.9A5.13,5.13,0,0,1,47,63ZM13,3a3,3,0,0,0-3,3V58a3,3,0,0,0,3,3H47a3.31,3.31,0,0,0,.61-.06A3,3,0,0,0,50,58V6a3,3,0,0,0-3-3Z"/><path d="M51,62.92H47.8l-.2-2A3,3,0,0,0,50,58V6a3,3,0,0,0-3-3L45.61,3A3.31,3.31,0,0,0,45,2.92v-2h6a5,5,0,0,1,5,5v52A5,5,0,0,1,51,62.92Zm-.06-60A5,5,0,0,1,52,6V58a5,5,0,0,1-.94,2.92,3,3,0,0,0,2.94-3v-52a3,3,0,0,0-3-3Z"/><path d="M46,59H14a2,2,0,0,1-2-2V7a2,2,0,0,1,2-2h5a1,1,0,0,1,.71.29L22.41,8H37.59l2.7-2.71A1,1,0,0,1,41,5h5a2,2,0,0,1,2,2V57A2,2,0,0,1,46,59ZM14,7V57H46V7H41.41l-2.7,2.71A1,1,0,0,1,38,10H22a1,1,0,0,1-.71-.29L18.59,7ZM46,7h0Z"/><circle cx="26.5" cy="5.5" r="1.5"/><circle cx="33.5" cy="5.5" r="1.5"/><path d="M30,51a4,4,0,1,1,4-4A4,4,0,0,1,30,51Zm0-6a2,2,0,1,0,2,2A2,2,0,0,0,30,45Z"/><path d="M30,55a7.8,7.8,0,0,1-1.59-.16A8,8,0,0,1,27,39.59V17a3,3,0,0,1,6,0h3a3,3,0,0,1,0,6H33v2h2a3,3,0,0,1,0,6H33v8.59A8,8,0,0,1,30,55Zm0-39a1,1,0,0,0-1,1V40.29a1,1,0,0,1-.71,1,6,6,0,0,0-4.18,6.91,6,6,0,0,0,4.67,4.72,6,6,0,0,0,5-1.25A6,6,0,0,0,36,47a6,6,0,0,0-4.29-5.75,1,1,0,0,1-.71-1V30a1,1,0,0,1,1-1h3a1,1,0,0,0,0-2H32a1,1,0,0,1-1-1V22a1,1,0,0,1,1-1h4a1,1,0,0,0,0-2H32a1,1,0,0,1-1-1V17A1,1,0,0,0,30,16Z"/></g></svg>