<svg xmlns="http://www.w3.org/2000/svg" viewBox="0 0 64 64"><title>Achievement</title><g id="Achievement"><path d="M59,60H50a1,1,0,0,1-1-.72L44.89,45a2.07,2.07,0,0,0-1-1,1,1,0,0,1,.1-1.91,5,5,0,0,1,5.2,1.91L59.81,58.41a1,1,0,0,1,.08,1A1,1,0,0,1,59,60Zm-8.25-2H57L47.61,45.23a2.92,2.92,0,0,0-.79-.74Z"/><path d="M31,60H5a1,1,0,0,1-.9-.56,1,1,0,0,1,.11-1L24,32.72a4.39,4.39,0,0,1,2.77-1.66A4.2,4.2,0,0,1,27.5,31,4.42,4.42,0,0,1,31,32.72L41.22,46a1,1,0,0,1,0,1.22L31.8,59.6A1,1,0,0,1,31,60ZM7,58H30.5l8.67-11.41L29.41,33.94A2.46,2.46,0,0,0,27.1,33a2.4,2.4,0,0,0-1.51.9Z"/><path d="M50,60H31a1,1,0,0,1-.9-.56,1,1,0,0,1,.1-1L41.15,44A5.07,5.07,0,0,1,44,42.14a.89.89,0,0,1,.56,0,3.94,3.94,0,0,1,2.13,2,.87.87,0,0,1,.07.17L51,58.72a1,1,0,0,1-.16.88A1,1,0,0,1,50,60ZM33,58H48.67L44.89,45a2.45,2.45,0,0,0-.73-.84,3.07,3.07,0,0,0-1.41,1Z"/><path d="M31,60H5a1,1,0,0,1-.9-.56,1,1,0,0,1,.11-1L24,32.72a4.39,4.39,0,0,1,2.77-1.66,1.15,1.15,0,0,1,.37,0,3.61,3.61,0,0,1,2.31,1.75l.05.1,8.08,18.19a1,1,0,0,1-.11,1L31.8,59.6A1,1,0,0,1,31,60ZM7,58H30.5l5-6.61-7.82-17.6a1.71,1.71,0,0,0-.81-.71,2.37,2.37,0,0,0-1.31.86Z"/><path d="M18,49h-.15a1,1,0,0,1-.78-.62l-1.54-3.85a1,1,0,1,1,1.86-.74l.9,2.26,2.93-3.66A1,1,0,0,1,22,42a1,1,0,0,1,.79.45L23.88,44l2.23-4.46a1,1,0,0,1,1.78,0l1.5,3,2.06-1.37A1,1,0,0,1,32,41h4.89a1,1,0,0,1,0,2H32.3l-2.75,1.83a1,1,0,0,1-.81.14,1,1,0,0,1-.63-.52L27,42.24l-2.11,4.21a1,1,0,0,1-1.72.1l-1.24-1.86-3.15,3.93A1,1,0,0,1,18,49Z"/><path d="M41,53a1,1,0,0,1-.8-.4l-2.33-3.1a1,1,0,0,1,1.6-1.2l1.76,2.34,2.22-1.47a1,1,0,0,1,1-.06l3.44,1.72,3.27-2.45a1,1,0,1,1,1.2,1.6L48.6,52.8a1,1,0,0,1-1.05.09l-3.48-1.74-2.52,1.68A.94.94,0,0,1,41,53Z"/><path d="M28,33a1,1,0,0,1-1-1V14a1,1,0,0,1,2,0V32A1,1,0,0,1,28,33Z"/><path d="M38,23H28a1,1,0,0,1-1-1V16a1,1,0,0,1,1-1H38a1,1,0,0,1,.88.53,1,1,0,0,1-.05,1L37.2,19l1.63,2.45a1,1,0,0,1,.05,1A1,1,0,0,1,38,23Zm-9-2h7.13l-1-1.45a1,1,0,0,1,0-1.1l1-1.45H29Z"/><path d="M15,26H12a1,1,0,0,1,0-2h3a1,1,0,0,1,0,2Z"/><path d="M52,26H49a1,1,0,0,1,0-2h3a1,1,0,0,1,0,2Z"/><path d="M15,26H12a1,1,0,0,1,0-2h3a1,1,0,0,1,0,2Z"/><path d="M52,26H49a1,1,0,0,1,0-2h3a1,1,0,0,1,0,2Z"/><path d="M15,26H12a1,1,0,0,1,0-2h3a1,1,0,0,1,0,2Z"/><path d="M52,26H49a1,1,0,0,1,0-2h3a1,1,0,0,1,0,2Z"/><path d="M15,26H12a1,1,0,0,1,0-2h3a1,1,0,0,1,0,2Z"/><path d="M52,26H49a1,1,0,0,1,0-2h3a1,1,0,0,1,0,2Z"/><path d="M32,9a1,1,0,0,1-1-1V5a1,1,0,0,1,2,0V8A1,1,0,0,1,32,9Z"/><path d="M32,9a1,1,0,0,1-1-1V5a1,1,0,0,1,2,0V8A1,1,0,0,1,32,9Z"/><path d="M32,9a1,1,0,0,1-1-1V5a1,1,0,0,1,2,0V8A1,1,0,0,1,32,9Z"/><path d="M32,9a1,1,0,0,1-1-1V5a1,1,0,0,1,2,0V8A1,1,0,0,1,32,9Z"/><path d="M14.68,36a1,1,0,0,1-.5-1.87l2.6-1.5a1,1,0,0,1,1,1.74l-2.6,1.5A1,1,0,0,1,14.68,36Z"/><path d="M46.72,17.5a1,1,0,0,1-.5-1.87l2.6-1.5a1,1,0,0,1,1,1.74l-2.6,1.5A1,1,0,0,1,46.72,17.5Z"/><path d="M14.68,36a1,1,0,0,1-.5-1.87l2.6-1.5a1,1,0,0,1,1,1.74l-2.6,1.5A1,1,0,0,1,14.68,36Z"/><path d="M46.72,17.5a1,1,0,0,1-.5-1.87l2.6-1.5a1,1,0,0,1,1,1.74l-2.6,1.5A1,1,0,0,1,46.72,17.5Z"/><path d="M14.68,36a1,1,0,0,1-.5-1.87l2.6-1.5a1,1,0,0,1,1,1.74l-2.6,1.5A1,1,0,0,1,14.68,36Z"/><path d="M46.72,17.5a1,1,0,0,1-.5-1.87l2.6-1.5a1,1,0,0,1,1,1.74l-2.6,1.5A1,1,0,0,1,46.72,17.5Z"/><path d="M46.72,17.5a1,1,0,0,1-.5-1.87l2.6-1.5a1,1,0,0,1,1,1.74l-2.6,1.5A1,1,0,0,1,46.72,17.5Z"/><path d="M40.5,11.28a1,1,0,0,1-.5-.14,1,1,0,0,1-.37-1.36l1.5-2.6a1,1,0,1,1,1.74,1l-1.5,2.6A1,1,0,0,1,40.5,11.28Z"/><path d="M40.5,11.28a1,1,0,0,1-.5-.14,1,1,0,0,1-.37-1.36l1.5-2.6a1,1,0,1,1,1.74,1l-1.5,2.6A1,1,0,0,1,40.5,11.28Z"/><path d="M40.5,11.28a1,1,0,0,1-.5-.14,1,1,0,0,1-.37-1.36l1.5-2.6a1,1,0,1,1,1.74,1l-1.5,2.6A1,1,0,0,1,40.5,11.28Z"/><path d="M40.5,11.28a1,1,0,0,1-.5-.14,1,1,0,0,1-.37-1.36l1.5-2.6a1,1,0,1,1,1.74,1l-1.5,2.6A1,1,0,0,1,40.5,11.28Z"/><path d="M49.32,36a1,1,0,0,1-.5-.13l-2.6-1.5a1,1,0,0,1,1-1.74l2.6,1.5a1,1,0,0,1-.5,1.87Z"/><path d="M17.28,17.5a1,1,0,0,1-.5-.13l-2.6-1.5a1,1,0,1,1,1-1.74l2.6,1.5a1,1,0,0,1-.5,1.87Z"/><path d="M49.32,36a1,1,0,0,1-.5-.13l-2.6-1.5a1,1,0,0,1,1-1.74l2.6,1.5a1,1,0,0,1-.5,1.87Z"/><path d="M17.28,17.5a1,1,0,0,1-.5-.13l-2.6-1.5a1,1,0,1,1,1-1.74l2.6,1.5a1,1,0,0,1-.5,1.87Z"/><path d="M49.32,36a1,1,0,0,1-.5-.13l-2.6-1.5a1,1,0,0,1,1-1.74l2.6,1.5a1,1,0,0,1-.5,1.87Z"/><path d="M17.28,17.5a1,1,0,0,1-.5-.13l-2.6-1.5a1,1,0,1,1,1-1.74l2.6,1.5a1,1,0,0,1-.5,1.87Z"/><path d="M17.28,17.5a1,1,0,0,1-.5-.13l-2.6-1.5a1,1,0,1,1,1-1.74l2.6,1.5a1,1,0,0,1-.5,1.87Z"/><path d="M23.5,11.28a1,1,0,0,1-.87-.5l-1.5-2.6a1,1,0,1,1,1.74-1l1.5,2.6A1,1,0,0,1,24,11.14,1,1,0,0,1,23.5,11.28Z"/><path d="M23.5,11.28a1,1,0,0,1-.87-.5l-1.5-2.6a1,1,0,1,1,1.74-1l1.5,2.6A1,1,0,0,1,24,11.14,1,1,0,0,1,23.5,11.28Z"/><path d="M23.5,11.28a1,1,0,0,1-.87-.5l-1.5-2.6a1,1,0,1,1,1.74-1l1.5,2.6A1,1,0,0,1,24,11.14,1,1,0,0,1,23.5,11.28Z"/><path d="M23.5,11.28a1,1,0,0,1-.87-.5l-1.5-2.6a1,1,0,1,1,1.74-1l1.5,2.6A1,1,0,0,1,24,11.14,1,1,0,0,1,23.5,11.28Z"/><path d="M17,60a1,1,0,0,1-1-1V56a1,1,0,0,1,2,0v3A1,1,0,0,1,17,60Z"/><path d="M22,60a1,1,0,0,1-1-1V54a1,1,0,0,1,2,0v5A1,1,0,0,1,22,60Z"/></g></svg>