<svg xmlns="http://www.w3.org/2000/svg" viewBox="0 0 64 64"><title>analitic</title><g id="analytic"><path d="M62,17H52a1,1,0,0,1-1-1V13a6,6,0,1,1,12,0v3A1,1,0,0,1,62,17Zm-9-2h8V13a4,4,0,0,0-4-4,4,4,0,0,0-4,4Z"/><path d="M46,57H8a6,6,0,0,1-6-6V48a1,1,0,0,1,1-1H42a1,1,0,0,1,1,1v3a4,4,0,0,0,1.17,2.84,4,4,0,0,0,2,1.08,1,1,0,0,1,.8,1V56A1,1,0,0,1,46,57ZM4,49v2a4,4,0,0,0,4,4H42.52A6,6,0,0,1,41,51V49Z"/><path d="M40,41a10,10,0,0,1-9.42-6.67A9.56,9.56,0,0,1,30,31,10,10,0,0,1,40,21a10.17,10.17,0,0,1,2.94.44l.36.13.06,0h0l.42.16a1.47,1.47,0,0,1,.3.13,2.92,2.92,0,0,1,.33.15l.54.28c.18.1.39.24.6.37a10,10,0,0,1,0,16.63,6.08,6.08,0,0,1-.64.39c-.15.09-.32.18-.49.26a3.52,3.52,0,0,1-.4.18,1.05,1.05,0,0,1-.25.11l-.38.15-.14,0-.29.1A9.88,9.88,0,0,1,40,41Zm3-1.52h0ZM40,23a8,8,0,0,0-8,8,7.71,7.71,0,0,0,.46,2.66A8,8,0,0,0,40,39a7.77,7.77,0,0,0,2.34-.36l.31-.1h0l.36-.14.15,0,.11-.06.2-.1.13-.06A2.38,2.38,0,0,0,44,38c.19-.1.34-.2.5-.3a8,8,0,0,0,0-13.3c-.15-.1-.3-.2-.45-.28a3.26,3.26,0,0,0-.35-.19l-.13-.06-.2-.1-.14-.06a.61.61,0,0,1-.12-.05l-.36-.13h0l-.31-.11A8.09,8.09,0,0,0,40,23Z"/><path d="M52,40a1,1,0,0,1-.71-.29l-1-1a1,1,0,0,1-.13-1.25,10.51,10.51,0,0,0,.94-1.82A1,1,0,0,1,53,36v3a1,1,0,0,1-.62.92A.84.84,0,0,1,52,40Z"/><path d="M47,57a5.77,5.77,0,0,1-1.21-.12A6,6,0,0,1,41,51V49H13a1,1,0,0,1-1-1V13a6,6,0,0,1,6-6H57a1,1,0,0,1,0,2,4,4,0,0,0-4,4V26a1,1,0,0,1-1.92.38,12.13,12.13,0,0,0-6.46-6.46l-.44-.17-.65-.22c-.24-.08-.5-.14-.76-.21s-.69-.14-1.05-.19l-.47-.06-.36,0-.23,0L40,19a12,12,0,1,0,.61,24l.56,0a3.93,3.93,0,0,0,.51-.07,10.7,10.7,0,0,0,1.09-.19c.38-.1.75-.2,1.12-.32l.12,0,.17-.06.42-.17a11,11,0,0,0,1.92-1,1,1,0,0,1,1.26.12l4.93,4.93a1,1,0,0,1,.29.71V51A6,6,0,0,1,47,57ZM14,47H42a1,1,0,0,1,1,1v3a4,4,0,0,0,1.17,2.84A4,4,0,0,0,51,51V47.24l-4.08-4.07a12.14,12.14,0,0,1-1.54.75,4.69,4.69,0,0,1-.54.21l-.16.06-.13.05a12,12,0,0,1-1.32.38,11,11,0,0,1-1.25.23,5.32,5.32,0,0,1-.61.08l-.65,0L40,45a14,14,0,0,1,0-28l.71,0,.35,0,.34,0c.18,0,.4.05.62.08a12.14,12.14,0,0,1,1.21.23c.32.07.62.15.93.25l.52.18a1.17,1.17,0,0,1,.24.09c.12,0,.3.1.48.18a13.8,13.8,0,0,1,4.29,2.83A12.79,12.79,0,0,1,51,22.35V13a6,6,0,0,1,1.53-4H18a4,4,0,0,0-4,4Z"/><path d="M47,57H46a1,1,0,0,1-1-1v-.1a1,1,0,0,1,1.21-1A3.84,3.84,0,0,0,47,55a1,1,0,0,1,0,2Z"/><path d="M58.66,53.34A3.75,3.75,0,0,1,56,52.24l-9.07-9.07a12.14,12.14,0,0,1-1.54.75,4.69,4.69,0,0,1-.54.21l-.16.06-.13.05a12,12,0,0,1-1.32.38,11,11,0,0,1-1.25.23,5.32,5.32,0,0,1-.61.08l-.65,0L40,45a14,14,0,1,1,.71-28l.35,0,.34,0c.18,0,.4.05.62.08a12.14,12.14,0,0,1,1.21.23c.32.07.62.15.93.25l.52.18a1.17,1.17,0,0,1,.24.09c.12,0,.3.1.48.18a14.12,14.12,0,0,1,7.52,7.54,13.92,13.92,0,0,1,0,10.75,11.79,11.79,0,0,1-.69,1.44l9.09,9.09a3.77,3.77,0,0,1-2.66,6.44ZM47.07,40.9a1,1,0,0,1,.71.29l9.63,9.63a1.79,1.79,0,0,0,2.49,0,1.76,1.76,0,0,0,0-2.5l-9.64-9.64a1,1,0,0,1-.13-1.25,10.51,10.51,0,0,0,.94-1.82A11.69,11.69,0,0,0,52,31a11.82,11.82,0,0,0-.92-4.61,12.1,12.1,0,0,0-6.46-6.47l-.44-.17-.65-.22c-.24-.08-.5-.14-.76-.21s-.69-.14-1.05-.19l-.47-.06-.36,0-.23,0L40,19A12,12,0,0,0,28,31a12.2,12.2,0,0,0,.32,2.77A12,12,0,0,0,40.61,43l.56,0a3.93,3.93,0,0,0,.51-.07,10.7,10.7,0,0,0,1.09-.19c.38-.1.75-.2,1.12-.32l.12,0,.17-.06.42-.17a11,11,0,0,0,1.92-1A.94.94,0,0,1,47.07,40.9ZM40,41a10,10,0,0,1-9.42-6.67A9.56,9.56,0,0,1,30,31,10,10,0,0,1,40,21a10.17,10.17,0,0,1,2.94.44l.36.13.06,0h0l.42.16a1.47,1.47,0,0,1,.3.13,2.92,2.92,0,0,1,.33.15l.54.28c.18.1.39.24.6.37a10,10,0,0,1,0,16.63h0a5.09,5.09,0,0,1-.63.39c-.15.09-.32.18-.49.26a3.52,3.52,0,0,1-.4.18,1.05,1.05,0,0,1-.25.11l-.38.15-.14,0-.29.1A9.88,9.88,0,0,1,40,41Zm0-18a8,8,0,0,0-8,8,7.71,7.71,0,0,0,.46,2.66A8,8,0,0,0,40,39a7.77,7.77,0,0,0,2.34-.36l.31-.1h0l.36-.14.15,0,.11-.06.2-.1.13-.06A2.38,2.38,0,0,0,44,38c.19-.1.34-.2.5-.3a8,8,0,0,0,0-13.3c-.15-.1-.3-.2-.45-.28a3.26,3.26,0,0,0-.35-.19l-.13-.06-.2-.1-.14-.06a.61.61,0,0,1-.12-.05l-.36-.13h0l-.31-.11A8.09,8.09,0,0,0,40,23Zm5,15.48h0Z"/><path d="M40,36H38a1,1,0,0,1,0-2h2a1,1,0,0,0,0-2,3,3,0,0,1,0-6h2a1,1,0,0,1,0,2H40a1,1,0,0,0,0,2,3,3,0,0,1,0,6Z"/><path d="M40,28a1,1,0,0,1-1-1V25a1,1,0,0,1,2,0v2A1,1,0,0,1,40,28Z"/><path d="M40,38a1,1,0,0,1-1-1V35a1,1,0,0,1,2,0v2A1,1,0,0,1,40,38Z"/><path d="M26,15H19a1,1,0,0,1,0-2h7a1,1,0,0,1,0,2Z"/><path d="M26,20H19a1,1,0,0,1,0-2h7a1,1,0,0,1,0,2Z"/></g></svg>