<svg xmlns="http://www.w3.org/2000/svg" viewBox="0 0 64 64"><title>Audit</title><g id="Audit"><path d="M41,60H9a5,5,0,0,1-5-5V11A5,5,0,0,1,9,6H19a1,1,0,0,1,1,1v4H30V9a3,3,0,0,1,3-3h8a5,5,0,0,1,5,5V25.63a1,1,0,0,1-.61.92,1,1,0,0,1-1.08-.2,12,12,0,0,0-3.69-2.43,12.41,12.41,0,0,0-2.83-.78l-.19,0a3.39,3.39,0,0,0-.37,0A9.7,9.7,0,0,0,36,23a12,12,0,1,0,4.62,23.08,11.58,11.58,0,0,0,1.9-1,1,1,0,0,1,1.26.12l1.93,1.93a1,1,0,0,1,.29.71V55A5,5,0,0,1,41,60ZM9,8a3,3,0,0,0-3,3V55a3,3,0,0,0,3,3H41a3,3,0,0,0,3-3V48.24l-1.08-1.07a13.74,13.74,0,0,1-1.54.76A14,14,0,1,1,36,21a10.56,10.56,0,0,1,1.42.08,3.47,3.47,0,0,1,.42,0l.11,0,.14,0a14.14,14.14,0,0,1,3.29.92A13.57,13.57,0,0,1,44,23.51V11a3,3,0,0,0-3-3H33a1,1,0,0,0-1,1v3a1,1,0,0,1-1,1H19a1,1,0,0,1-1-1V8Z"/><path d="M41,56H9a1,1,0,0,1-1-1V11a1,1,0,0,1,1-1H19a1,1,0,0,1,1,1H30a1,1,0,0,1,1-1H41a1,1,0,0,1,1,1V23a1,1,0,0,1-.44.83,1,1,0,0,1-.94.09,12.41,12.41,0,0,0-2.83-.78,4.21,4.21,0,0,0-.57-.07A9.43,9.43,0,0,0,36,23a12,12,0,1,0,4.62,23.08,1,1,0,0,1,.93.09A1,1,0,0,1,42,47v8A1,1,0,0,1,41,56ZM10,54H40V48.42A14.23,14.23,0,0,1,36,49a14,14,0,0,1,0-28,10.56,10.56,0,0,1,1.42.08,6,6,0,0,1,.71.09,12.57,12.57,0,0,1,1.87.42V12H32a1,1,0,0,1-1,1H19a1,1,0,0,1-1-1H10Z"/><path d="M14.94,22.68h0a1,1,0,0,1-.71-.29l-2.12-2.12a1,1,0,0,1,1.42-1.42l1.41,1.42,3.53-3.54a1,1,0,1,1,1.42,1.42l-4.24,4.24A1,1,0,0,1,14.94,22.68Z"/><path d="M14.94,36.68h0a1,1,0,0,1-.71-.29l-2.12-2.12a1,1,0,0,1,1.42-1.42l1.41,1.42,3.53-3.54a1,1,0,1,1,1.42,1.42l-4.24,4.24A1,1,0,0,1,14.94,36.68Z"/><path d="M18,52H13a1,1,0,0,1-1-1V46a1,1,0,0,1,1-1h5a1,1,0,0,1,1,1v5A1,1,0,0,1,18,52Zm-4-2h3V47H14Z"/><path d="M54.66,57.34A3.79,3.79,0,0,1,52,56.24l-9.07-9.07a13.74,13.74,0,0,1-1.54.76c-.16.07-.34.13-.54.2l-.16.07-.13,0a12,12,0,0,1-1.32.38,11,11,0,0,1-1.25.23,5.32,5.32,0,0,1-.61.08l-.65,0L36,49a14,14,0,0,1,0-28l.71,0L37,21l.37,0c.18,0,.4.05.62.08a12.14,12.14,0,0,1,1.21.23c.32.07.62.15.93.25l.52.17.24.1c.12,0,.3.1.48.18A14.08,14.08,0,0,1,50,35a13.94,13.94,0,0,1-1.77,6.81l9.09,9.09a3.77,3.77,0,0,1-2.66,6.44ZM43.2,44.62l10.21,10.2a1.76,1.76,0,1,0,2.49-2.5L45.7,42.11l.43-.68a12,12,0,0,0-5.51-17.51l-.44-.17-.65-.22c-.24-.08-.5-.14-.76-.21s-.69-.14-1.05-.19l-.47-.06-.36,0-.23,0L36,23a12,12,0,0,0,0,24l.61,0,.56,0a3.93,3.93,0,0,0,.51-.07,10.7,10.7,0,0,0,1.09-.19c.38-.09.75-.2,1.12-.32l.21-.08.5-.2a11,11,0,0,0,1.92-1Z"/><path d="M36,45a10,10,0,0,1,0-20,10.17,10.17,0,0,1,2.94.44l.22.08h.26l.14.14.22.09a1.47,1.47,0,0,1,.3.13,2.92,2.92,0,0,1,.33.15c.18.08.35.18.52.27a7.18,7.18,0,0,1,.63.39,10,10,0,0,1,0,16.62,6.08,6.08,0,0,1-.64.39c-.16.09-.33.19-.49.26a3.52,3.52,0,0,1-.4.18,1.05,1.05,0,0,1-.25.11l-.2.08-.13.14h-.28l-.21.07A10.08,10.08,0,0,1,36,45Zm0-18a8,8,0,0,0,0,16,7.77,7.77,0,0,0,2.34-.36l.48-.16.23-.09.26-.11.2-.1.12-.06a1.82,1.82,0,0,0,.31-.16c.2-.11.35-.21.5-.31h0a8,8,0,0,0,0-13.3c-.15-.1-.3-.2-.46-.29a2.35,2.35,0,0,0-.35-.18l-.12-.06-.2-.1-.26-.11-.36-.14-.37-.12A7.86,7.86,0,0,0,36,27Z"/><path d="M36,45a10,10,0,0,1,0-20,10,10,0,0,1,0,20Zm0-18a8,8,0,1,0,4.44,1.35A8,8,0,0,0,36,27Z"/><path d="M37,19H24a1,1,0,0,1,0-2H37a1,1,0,0,1,0,2Z"/><path d="M28,23H24a1,1,0,0,1,0-2h4a1,1,0,0,1,0,2Z"/><path d="M49,36a1,1,0,0,1-1-1,11.87,11.87,0,0,0-3.69-8.65,1,1,0,0,1-.31-.72V11a3,3,0,0,0-3-3,1,1,0,0,1,0-2h4a5,5,0,0,1,5,5V35A1,1,0,0,1,49,36ZM46,25.21a14.44,14.44,0,0,1,2,2.57V11a3,3,0,0,0-3-3h0a5,5,0,0,1,1,3Z"/><path d="M45,60H41a1,1,0,0,1,0-2,3,3,0,0,0,3-3V47.83a1,1,0,0,1,.62-.92,1,1,0,0,1,1.09.21l4,4a1,1,0,0,1,.29.71V55A5,5,0,0,1,45,60Zm0-2h0a3,3,0,0,0,3-3V52.24l-2-2V55A5,5,0,0,1,45,58Z"/><path d="M49,45a1,1,0,0,1-.71-.29l-2-2a1,1,0,0,1-.13-1.25A12,12,0,0,0,48,35a1,1,0,0,1,2,0v9a1,1,0,0,1-.62.92A.84.84,0,0,1,49,45Z"/><path d="M31,13H19a1,1,0,0,1-1-1V7a3,3,0,0,1,3-3H32a3,3,0,0,1,3,3,1,1,0,0,1-1,1H33a1,1,0,0,0-1,1v3A1,1,0,0,1,31,13ZM20,11H30V9a3,3,0,0,1,2.36-2.93A.86.86,0,0,0,32,6H21a1,1,0,0,0-1,1Z"/></g></svg>