<svg xmlns="http://www.w3.org/2000/svg" viewBox="0 0 64 64"><title>Bank</title><g id="Bank"><path d="M52,57H2a1,1,0,0,1-1-1V50a1,1,0,0,1,1-1H52a1,1,0,0,1,1,1v6A1,1,0,0,1,52,57ZM3,55H51V51H3Z"/><path d="M52,27H2a1,1,0,0,1-1-1V21a1,1,0,0,1,1-1H52a1,1,0,0,1,1,1v5A1,1,0,0,1,52,27ZM3,25H51V22H3Z"/><path d="M52,22H2a1,1,0,0,1-1-.76,1,1,0,0,1,.51-1.13l25-13a1,1,0,0,1,.92,0l25,13A1,1,0,0,1,53,21.24,1,1,0,0,1,52,22ZM6.09,20H47.91L27,9.13Z"/><path d="M14,47H8a1,1,0,0,1-1-1V30a1,1,0,0,1,1-1h6a1,1,0,0,1,1,1V46A1,1,0,0,1,14,47ZM9,45h4V31H9Z"/><path d="M54,47H48a1,1,0,0,1-1-1V30a1,1,0,0,1,1-1h6a1,1,0,0,1,1,1V46A1,1,0,0,1,54,47Zm-5-2h4V31H49Z"/><path d="M34,47H28a1,1,0,0,1-1-1V30a1,1,0,0,1,1-1h6a1,1,0,0,1,1,1V46A1,1,0,0,1,34,47Zm-5-2h4V31H29Z"/><path d="M14,31H8a3,3,0,0,1-3-3V26a1,1,0,0,1,1-1H16a1,1,0,0,1,1,1v2A3,3,0,0,1,14,31ZM7,27v1a1,1,0,0,0,1,1h6a1,1,0,0,0,1-1V27Z"/><path d="M34,31H28a3,3,0,0,1-3-3V26a1,1,0,0,1,1-1H36a1,1,0,0,1,1,1v2A3,3,0,0,1,34,31Zm-7-4v1a1,1,0,0,0,1,1h6a1,1,0,0,0,1-1V27Z"/><path d="M54,31H48a3,3,0,0,1-3-3V26a1,1,0,0,1,1-1H56a1,1,0,0,1,1,1v2A3,3,0,0,1,54,31Zm-7-4v1a1,1,0,0,0,1,1h6a1,1,0,0,0,1-1V27Z"/><path d="M16,51H6a1,1,0,0,1-1-1V48a3,3,0,0,1,3-3h6a3,3,0,0,1,3,3v2A1,1,0,0,1,16,51ZM7,49h8V48a1,1,0,0,0-1-1H8a1,1,0,0,0-1,1Z"/><path d="M36,51H26a1,1,0,0,1-1-1V48a3,3,0,0,1,3-3h6a3,3,0,0,1,3,3v2A1,1,0,0,1,36,51Zm-9-2h8V48a1,1,0,0,0-1-1H28a1,1,0,0,0-1,1Z"/><path d="M56,51H46a1,1,0,0,1-1-1V48a3,3,0,0,1,3-3h6a3,3,0,0,1,3,3v2A1,1,0,0,1,56,51Zm-9-2h8V48a1,1,0,0,0-1-1H48a1,1,0,0,0-1,1Z"/><path d="M18,47H14a1,1,0,0,1-1-1V30a1,1,0,0,1,1-1h4a1,1,0,0,1,1,1V46A1,1,0,0,1,18,47Zm-3-2h2V31H15Z"/><path d="M58,47H54a1,1,0,0,1-1-1V30a1,1,0,0,1,1-1h4a1,1,0,0,1,1,1V46A1,1,0,0,1,58,47Zm-3-2h2V31H55Z"/><path d="M38,47H34a1,1,0,0,1-1-1V30a1,1,0,0,1,1-1h4a1,1,0,0,1,1,1V46A1,1,0,0,1,38,47Zm-3-2h2V31H35Z"/><path d="M18,31H14a1,1,0,0,1,0-2,1,1,0,0,0,1-1V26a1,1,0,0,1,1-1h4a1,1,0,0,1,1,1v2A3,3,0,0,1,18,31Zm-1.17-2H18a1,1,0,0,0,1-1V27H17v1A3,3,0,0,1,16.83,29Z"/><path d="M38,31H34a1,1,0,0,1,0-2,1,1,0,0,0,1-1V26a1,1,0,0,1,1-1h4a1,1,0,0,1,1,1v2A3,3,0,0,1,38,31Zm-1.17-2H38a1,1,0,0,0,1-1V27H37v1A3,3,0,0,1,36.83,29Z"/><path d="M58,31H54a1,1,0,0,1,0-2,1,1,0,0,0,1-1V26a1,1,0,0,1,1-1h4a1,1,0,0,1,1,1v2A3,3,0,0,1,58,31Zm-1.17-2H58a1,1,0,0,0,1-1V27H57v1A3,3,0,0,1,56.83,29Z"/><path d="M20,51H16a1,1,0,0,1-1-1V48a1,1,0,0,0-1-1,1,1,0,0,1,0-2h4a3,3,0,0,1,3,3v2A1,1,0,0,1,20,51Zm-3-2h2V48a1,1,0,0,0-1-1H16.83A3,3,0,0,1,17,48Z"/><path d="M40,51H36a1,1,0,0,1-1-1V48a1,1,0,0,0-1-1,1,1,0,0,1,0-2h4a3,3,0,0,1,3,3v2A1,1,0,0,1,40,51Zm-3-2h2V48a1,1,0,0,0-1-1H36.83A3,3,0,0,1,37,48Z"/><path d="M60,51H56a1,1,0,0,1-1-1V48a1,1,0,0,0-1-1,1,1,0,0,1,0-2h4a3,3,0,0,1,3,3v2A1,1,0,0,1,60,51Zm-3-2h2V48a1,1,0,0,0-1-1H56.83A3,3,0,0,1,57,48Z"/><path d="M62,27H52a1,1,0,0,1-1-1V21a1,1,0,0,1,1-1H62a1,1,0,0,1,1,1v5A1,1,0,0,1,62,27Zm-9-2h8V22H53Z"/><path d="M62,57H52a1,1,0,0,1-1-1V50a1,1,0,0,1,1-1H62a1,1,0,0,1,1,1v6A1,1,0,0,1,62,57Zm-9-2h8V51H53Z"/><path d="M62,22H52a1,1,0,0,1-.46-.11l-25-13A1,1,0,0,1,26,7.76,1,1,0,0,1,27,7H37a1,1,0,0,1,.46.11l25,13A1,1,0,0,1,63,21.24,1,1,0,0,1,62,22Zm-9.76-2h5.67L36.76,9H31.09Z"/></g></svg>