<svg xmlns="http://www.w3.org/2000/svg" viewBox="0 0 64 64"><title>Binoculars</title><g id="Binoculars"><path d="M25,16.5a1,1,0,0,1-1-1,5.5,5.5,0,0,0-11,0,1,1,0,0,1-2,0v-4a7.5,7.5,0,1,1,15,0v4A1,1,0,0,1,25,16.5ZM18.5,6a5.51,5.51,0,0,0-5.36,4.26,7.5,7.5,0,0,1,10.66-.07l.06.05A5.6,5.6,0,0,0,22.39,7.6,5.51,5.51,0,0,0,18.5,6Z"/><path d="M16.5,60A12.54,12.54,0,0,1,4,48.37Q4,48,4,47.5a12.31,12.31,0,0,1,.78-4.35A12.44,12.44,0,0,1,16,35h.54a12.53,12.53,0,0,1,11.72,8.15A12.31,12.31,0,0,1,29,47.5c0,.3,0,.59,0,.88A12.53,12.53,0,0,1,16.5,60Zm-.06-23h-.38a10.44,10.44,0,0,0-9.4,6.84A10.26,10.26,0,0,0,6,47.5c0,.24,0,.49,0,.72a10.49,10.49,0,0,0,20.94,0c0-.24,0-.49,0-.73a10.26,10.26,0,0,0-.66-3.65,10.43,10.43,0,0,0-2.77-4.11A10.69,10.69,0,0,0,16.44,37Z"/><path d="M28,48.5a1,1,0,0,1-1-1,10.26,10.26,0,0,0-.66-3.65,10.43,10.43,0,0,0-2.77-4.11A10.69,10.69,0,0,0,16.44,37h-.38a10.44,10.44,0,0,0-9.4,6.84,1,1,0,0,1-.94.65h0a1,1,0,0,1-.94-.65A12.48,12.48,0,0,1,4,40.37Q4,40,4,39.5V30.75A14.94,14.94,0,0,1,9.73,19.22,16.61,16.61,0,0,1,11.47,18c.35-.23.73-.45,1.11-.65l.09-.05.34-.18a19.68,19.68,0,0,1,7.4-2c.51,0,1-.06,1.55-.06a7.68,7.68,0,0,1,3.5.83,6.65,6.65,0,0,1,1.42,1,7,7,0,0,1,.55.54A5.79,5.79,0,0,1,29,21a2.37,2.37,0,0,1,0,.3V24a1,1,0,0,1-1,1H20a3,3,0,0,0-2.83,2A12.46,12.46,0,0,1,29,39c0,.16,0,.35,0,.54v8A1,1,0,0,1,28,48.5ZM16.5,35a12.45,12.45,0,0,1,8.41,3.26A12.32,12.32,0,0,1,27,40.72V39.5c0-.15,0-.3,0-.44A10.47,10.47,0,0,0,16.5,29h-.44A1,1,0,0,1,15,28h0a5,5,0,0,1,5-5h7V21.12a3.81,3.81,0,0,0-1-2.44,4.78,4.78,0,0,0-.39-.39,4.66,4.66,0,0,0-1-.67,7.44,7.44,0,0,0-4-.56,17.44,17.44,0,0,0-6.68,1.83l-.25.13-.11.06c-.34.18-.66.38-1,.58A15.34,15.34,0,0,0,11,20.77a12.76,12.76,0,0,0-5,10V39.5c0,.24,0,.49,0,.72l0,.39A12.45,12.45,0,0,1,16,35Z"/><path d="M5,48.5a1,1,0,0,1-1-1v-8a1,1,0,0,1,2,0c0,.24,0,.49,0,.72a10.14,10.14,0,0,0,.63,2.93,1.05,1.05,0,0,1,0,.7A10.26,10.26,0,0,0,6,47.5,1,1,0,0,1,5,48.5Z"/><path d="M16,29a1,1,0,0,1-.69-.27A1,1,0,0,1,15,28a1,1,0,0,1,1-1h.5a1,1,0,0,1,0,2H16Z"/><path d="M28,40.5a1,1,0,0,1-1-1v-.09c0-.12,0-.24,0-.35a1.05,1.05,0,0,1,.27-.75A1,1,0,0,1,28,38a1,1,0,0,1,1,1v.5A1,1,0,0,1,28,40.5Z"/><path d="M12,19.82a1,1,0,0,1-.48-.12,1,1,0,0,1-.52-.88V15.5a7.5,7.5,0,1,1,15,0v1.22a1,1,0,0,1-1.46.89,7.51,7.51,0,0,0-4-.55,17.44,17.44,0,0,0-6.68,1.83l-.25.13-.11.06c-.34.18-.66.38-1,.58A1,1,0,0,1,12,19.82ZM18.5,10A5.51,5.51,0,0,0,13,15.5v1.6h0a19.68,19.68,0,0,1,7.4-2,10.84,10.84,0,0,1,3.59.21,5.57,5.57,0,0,0-1.61-3.67A5.51,5.51,0,0,0,18.5,10Z"/><path d="M52,16.5a1,1,0,0,1-1-1,5.5,5.5,0,1,0-11,0,1,1,0,0,1-2,0v-4a7.5,7.5,0,0,1,15,0v4A1,1,0,0,1,52,16.5ZM45.5,8a7.48,7.48,0,0,1,5.36,2.26,5.5,5.5,0,0,0-10.72,0l0,0A7.48,7.48,0,0,1,45.5,8Z"/><path d="M47.5,60A12.54,12.54,0,0,1,35,48.37q0-.42,0-.87a12.31,12.31,0,0,1,.78-4.35A12.53,12.53,0,0,1,47.5,35h.56A12.5,12.5,0,0,1,60,47.5c0,.3,0,.59,0,.88A12.53,12.53,0,0,1,47.5,60Zm0-23h0a10.49,10.49,0,0,0-9.84,6.85A10.26,10.26,0,0,0,37,47.5c0,.24,0,.49,0,.72a10.49,10.49,0,0,0,20.94,0c0-.24,0-.49,0-.73a10.26,10.26,0,0,0-.66-3.65A10.43,10.43,0,0,0,48,37Z"/><path d="M47.5,56A8.52,8.52,0,0,1,39,48.09c0-.19,0-.39,0-.59A8.5,8.5,0,0,1,47.5,39h.39A8.49,8.49,0,0,1,56,47.5c0,.2,0,.4,0,.6A8.52,8.52,0,0,1,47.5,56Zm0-15A6.51,6.51,0,0,0,41,47.5c0,.15,0,.3,0,.44a6.49,6.49,0,0,0,13,0c0-.15,0-.3,0-.45A6.51,6.51,0,0,0,47.78,41Z"/><path d="M16.5,56A8.52,8.52,0,0,1,8,48.09c0-.19,0-.39,0-.59A8.5,8.5,0,0,1,16.5,39h.39A8.49,8.49,0,0,1,25,47.5c0,.2,0,.4,0,.6A8.52,8.52,0,0,1,16.5,56Zm.05-15a6.35,6.35,0,0,0-4.42,1.7A6.5,6.5,0,0,0,10,47.5c0,.15,0,.3,0,.44a6.49,6.49,0,0,0,13,0c0-.15,0-.3,0-.45A6.51,6.51,0,0,0,16.78,41Z"/><path d="M36,48.5a1,1,0,0,1-1-1v-8c0-.19,0-.38,0-.56A12.46,12.46,0,0,1,46.83,27,3,3,0,0,0,44,25H36a1,1,0,0,1-1-1V21.25a2.3,2.3,0,0,1,0-.37,5.74,5.74,0,0,1,1.54-3.56c.18-.19.37-.37.55-.53a6.68,6.68,0,0,1,1.45-1A7.66,7.66,0,0,1,42,15c.53,0,1,0,1.56.06a19.63,19.63,0,0,1,7.42,2l.31.16.09.05a12.63,12.63,0,0,1,1.12.66,15.84,15.84,0,0,1,1.74,1.25A14.92,14.92,0,0,1,60,30.75V39.5c0,.3,0,.59,0,.88a12.49,12.49,0,0,1-.75,3.47,1,1,0,0,1-.94.65h0a1,1,0,0,1-.94-.65A10.43,10.43,0,0,0,48,37H47.5a10.49,10.49,0,0,0-9.84,6.85A10.26,10.26,0,0,0,37,47.5,1,1,0,0,1,36,48.5ZM47.56,29H47.5A10.47,10.47,0,0,0,37,39c0,.16,0,.31,0,.46v1.22a12.32,12.32,0,0,1,2.09-2.46A12.45,12.45,0,0,1,47.5,35h.56a12.45,12.45,0,0,1,9.88,5.6l0-.38c0-.24,0-.49,0-.73V30.75a12.75,12.75,0,0,0-5-10,14.51,14.51,0,0,0-1.54-1.11c-.33-.21-.65-.41-1-.59L50.37,19l-.22-.11a17.4,17.4,0,0,0-6.7-1.85,7.41,7.41,0,0,0-4,.55,4.7,4.7,0,0,0-1,.69c-.13.11-.26.25-.39.38a3.76,3.76,0,0,0-1,2.37,1.92,1.92,0,0,0,0,.2V23h7a5,5,0,0,1,5,5,1,1,0,0,1-.31.73,1,1,0,0,1-.75.28Z"/><path d="M36,40.5a1,1,0,0,1-1-1V39a1,1,0,0,1,1.73-.69,1.06,1.06,0,0,1,.28.75c0,.11,0,.23,0,.35v.09A1,1,0,0,1,36,40.5Z"/><path d="M48,29h-.5a1,1,0,0,1,0-2H48a1,1,0,0,1,1,1h0a1,1,0,0,1-.31.73A1,1,0,0,1,48,29Z"/><path d="M59,48.5a1,1,0,0,1-1-1,10.26,10.26,0,0,0-.66-3.65,1.05,1.05,0,0,1,0-.7A10.14,10.14,0,0,0,58,40.23c0-.24,0-.49,0-.73a1,1,0,0,1,2,0v8A1,1,0,0,1,59,48.5Z"/><path d="M52,19.82a1,1,0,0,1-.54-.16c-.32-.2-.64-.4-1-.58L50.37,19l-.22-.11a17.4,17.4,0,0,0-6.7-1.85,7.41,7.41,0,0,0-4,.55A1,1,0,0,1,38,16.72V15.5a7.5,7.5,0,0,1,15,0v3.32a1,1,0,0,1-.52.88A1,1,0,0,1,52,19.82ZM42,15c.53,0,1,0,1.56.06a19.47,19.47,0,0,1,7.4,2V15.5a5.5,5.5,0,0,0-11-.23A7.77,7.77,0,0,1,42,15Z"/><path d="M16,29a1,1,0,0,1-.69-.27A1,1,0,0,1,15,28a1,1,0,0,1,1-1h.5a1,1,0,0,1,0,2H16Z"/><path d="M48,29h-.5a1,1,0,0,1,0-2H48a1,1,0,0,1,1,1h0a1,1,0,0,1-.31.73A1,1,0,0,1,48,29Z"/><path d="M36,40H28a1,1,0,0,1-1-1A10.47,10.47,0,0,0,16.5,29H16a1,1,0,0,1-1-1,5,5,0,0,1,5-5H44a5,5,0,0,1,5,5,1,1,0,0,1-1,1h-.5A10.47,10.47,0,0,0,37,39,1,1,0,0,1,36,40Zm-7.1-2h6.18A12.45,12.45,0,0,1,46.83,27,3,3,0,0,0,44,25H20a3,3,0,0,0-2.83,2A12.45,12.45,0,0,1,28.91,38Z"/></g></svg>