<svg xmlns="http://www.w3.org/2000/svg" viewBox="0 0 64 64"><title>Briefcase</title><g id="Briefcase"><path d="M52,57H6a5,5,0,0,1-5-5V20a5,5,0,0,1,5-5H48a1,1,0,0,1,1,1V32h3a3,3,0,0,0,3-3,1,1,0,0,1,2,0V52A5,5,0,0,1,52,57ZM6,17a3,3,0,0,0-3,3V52a3,3,0,0,0,3,3H52a3,3,0,0,0,3-3V33a5,5,0,0,1-3,1H48a1,1,0,0,1-1-1V17Z"/><path d="M52,34H48a1,1,0,0,1-1-1V16a1,1,0,0,1,1-1H59a1,1,0,0,1,0,2,2,2,0,0,0-2,2V29A5,5,0,0,1,52,34Zm-3-2h3a3,3,0,0,0,3-3V19a4,4,0,0,1,.54-2H49Z"/><path d="M48,34H6a5,5,0,0,1-5-5V20a5,5,0,0,1,5-5H48a1,1,0,0,1,1,1V33A1,1,0,0,1,48,34ZM6,17a3,3,0,0,0-3,3v9a3,3,0,0,0,3,3H47V17Z"/><path d="M22,17H18a1,1,0,0,1-1-1V11a4,4,0,0,1,4-4h4a1,1,0,0,1,0,2,2,2,0,0,0-2,2v5A1,1,0,0,1,22,17Zm-3-2h2V11a4,4,0,0,1,.54-2H21a2,2,0,0,0-2,2Z"/><path d="M36,17H22a1,1,0,0,1-1-1V11a4,4,0,0,1,4-4h8a4,4,0,0,1,4,4v5A1,1,0,0,1,36,17ZM23,15H35V11a2,2,0,0,0-2-2H25a2,2,0,0,0-2,2Z"/><path d="M40,17H36a1,1,0,0,1-1-1V11a2,2,0,0,0-2-2,1,1,0,0,1,0-2h4a4,4,0,0,1,4,4v5A1,1,0,0,1,40,17Zm-3-2h2V11a2,2,0,0,0-2-2h-.54A4,4,0,0,1,37,11Z"/><path d="M36,17H22a1,1,0,0,1-1-1V11a4,4,0,0,1,4-4h8a4,4,0,0,1,4,4v5A1,1,0,0,1,36,17ZM23,15H35V11a2,2,0,0,0-2-2H25a2,2,0,0,0-2,2Z"/><path d="M14,47a1,1,0,0,1-.45-.11A8.17,8.17,0,0,1,9,39.53V16a1,1,0,0,1,1-1h8a1,1,0,0,1,1,1V39.53a8.17,8.17,0,0,1-4.55,7.36A1,1,0,0,1,14,47ZM11,17V39.53a6.21,6.21,0,0,0,3,5.33,6.21,6.21,0,0,0,3-5.33V17Z"/><path d="M18,29H10a1,1,0,0,1,0-2h8a1,1,0,0,1,0,2Z"/><circle cx="14" cy="37" r="1"/><circle cx="14" cy="41" r="1"/><path d="M44,47a1,1,0,0,1-.45-.11A8.19,8.19,0,0,1,39,39.53V16a1,1,0,0,1,1-1h8a1,1,0,0,1,1,1V39.53a8.19,8.19,0,0,1-4.55,7.36A1,1,0,0,1,44,47ZM41,17V39.53a6.21,6.21,0,0,0,3,5.33,6.21,6.21,0,0,0,3-5.33V17Z"/><path d="M48,29H40a1,1,0,0,1,0-2h8a1,1,0,0,1,0,2Z"/><circle cx="44" cy="37" r="1"/><circle cx="44" cy="41" r="1"/><path d="M12,57H6a5,5,0,0,1-5-5V46a1,1,0,0,1,1-1A11,11,0,0,1,13,56,1,1,0,0,1,12,57ZM3,47.06V52a3,3,0,0,0,3,3h4.94A9,9,0,0,0,3,47.06Z"/><path d="M52,57H46a1,1,0,0,1-1-1A11,11,0,0,1,56,45a1,1,0,0,1,1,1v6A5,5,0,0,1,52,57Zm-4.94-2H52a3,3,0,0,0,3-3V47.06A9,9,0,0,0,47.06,55Z"/><path d="M58,57H52a1,1,0,0,1,0-2,3,3,0,0,0,3-3V19a4,4,0,1,1,8,0V52A5,5,0,0,1,58,57Zm-2-2h2a3,3,0,0,0,3-3V19a2,2,0,0,0-2-2,2,2,0,0,0-2,2V52A5,5,0,0,1,56,55Z"/><path d="M62,47H56a1,1,0,0,1,0-2h6a1,1,0,0,1,0,2Z"/></g></svg>