<svg xmlns="http://www.w3.org/2000/svg" viewBox="0 0 64 64"><title>Calendar</title><g id="Calendar"><path d="M59.23,53H52.54a1,1,0,0,1-.75-.34,1,1,0,0,1-.24-.79l4.46-33A1,1,0,0,1,57,18h0a1,1,0,0,1,1,.84l5,29.77a4.21,4.21,0,0,1,0,.62A3.77,3.77,0,0,1,59.23,53Zm-5.55-2h5.55A1.77,1.77,0,0,0,61,49.23a2.83,2.83,0,0,0,0-.29L57.1,25.7Z"/><path d="M50.25,57h-34a3,3,0,0,1-3-3.4l2.53-18.73a1,1,0,0,1,1-.87H45.56a4.54,4.54,0,0,0,4-2.44l0-.08h0v0h0l6.45-12.9a1,1,0,0,1,1.88.58L53.23,54.4A3,3,0,0,1,50.25,57ZM17.71,36,15.3,53.87a1,1,0,0,0,.24.79,1,1,0,0,0,.75.34h34a1,1,0,0,0,1-.87l4-29.29-3.77,7.54,0,.1h0A6.54,6.54,0,0,1,45.56,36Z"/><path d="M45.56,36A6.56,6.56,0,0,1,39,29.44V28a1,1,0,0,0-1-1H15.5a1,1,0,0,1-.89-1.45l3.5-7A1,1,0,0,1,19,18H57a1,1,0,0,1,.89,1.45L51.43,32.38l0,.1h0A6.54,6.54,0,0,1,45.56,36ZM17.12,25H38a3,3,0,0,1,3,3v1.44A4.58,4.58,0,0,0,45.56,34a4.54,4.54,0,0,0,4-2.44l0-.08h0v0h0L55.38,20H19.62Z"/><path d="M45.56,36h-38A6.56,6.56,0,0,1,1,29.44V28a3,3,0,0,1,3-3H38a3,3,0,0,1,3,3v1.44A4.58,4.58,0,0,0,45.56,34a1,1,0,0,1,0,2ZM4,27a1,1,0,0,0-1,1v1.44A4.58,4.58,0,0,0,7.56,34H40.85A6.53,6.53,0,0,1,39,29.44V28a1,1,0,0,0-1-1Z"/><path d="M15.5,27a.93.93,0,0,1-.45-.11,1,1,0,0,1-.44-1.34l3.5-7a1,1,0,1,1,1.78.9l-3.5,7A1,1,0,0,1,15.5,27Z"/><path d="M25,40H22a1,1,0,0,1,0-2h3a1,1,0,0,1,0,2Z"/><path d="M33,40H30a1,1,0,0,1,0-2h3a1,1,0,0,1,0,2Z"/><path d="M41,40H38a1,1,0,0,1,0-2h3a1,1,0,0,1,0,2Z"/><path d="M49,40H46a1,1,0,0,1,0-2h3a1,1,0,0,1,0,2Z"/><path d="M24,45H21a1,1,0,0,1,0-2h3a1,1,0,0,1,0,2Z"/><path d="M32,45H29a1,1,0,0,1,0-2h3a1,1,0,0,1,0,2Z"/><path d="M40,45H37a1,1,0,0,1,0-2h3a1,1,0,0,1,0,2Z"/><path d="M48,45H45a1,1,0,0,1,0-2h3a1,1,0,0,1,0,2Z"/><path d="M23,50H20a1,1,0,0,1,0-2h3a1,1,0,0,1,0,2Z"/><path d="M31,50H28a1,1,0,0,1,0-2h3a1,1,0,0,1,0,2Z"/><path d="M39,50H36a1,1,0,0,1,0-2h3a1,1,0,0,1,0,2Z"/><path d="M47,50H44a1,1,0,0,1,0-2h3a1,1,0,0,1,0,2Z"/><path d="M56,20H20a3,3,0,0,1-3-3V13a3,3,0,0,1,3-3H56a3,3,0,0,1,3,3v4A3,3,0,0,1,56,20ZM20,12a1,1,0,0,0-1,1v4a1,1,0,0,0,1,1H56a1,1,0,0,0,1-1V13a1,1,0,0,0-1-1Z"/><path d="M26,17a5,5,0,0,1-5-5,4.38,4.38,0,0,1,.17-1.27,5,5,0,0,1,9.67,0,1,1,0,1,1-1.94.5,3,3,0,0,0-5.8,0A2.61,2.61,0,0,0,23,12a3,3,0,0,0,3,3,1,1,0,0,1,0,2Z"/><path d="M38,17a5,5,0,0,1-5-5,4.38,4.38,0,0,1,.17-1.27,5,5,0,0,1,9.67,0,1,1,0,0,1-1.94.5,3,3,0,0,0-5.8,0A2.61,2.61,0,0,0,35,12a3,3,0,0,0,3,3,1,1,0,0,1,0,2Z"/><path d="M50,17a5,5,0,0,1-5-5,4.38,4.38,0,0,1,.17-1.27,5,5,0,0,1,9.67,0,1,1,0,0,1-1.94.5,3,3,0,0,0-5.8,0A2.61,2.61,0,0,0,47,12a3,3,0,0,0,3,3,1,1,0,0,1,0,2Z"/></g></svg>