<svg xmlns="http://www.w3.org/2000/svg" viewBox="0 0 64 64"><title>chart</title><g id="chart"><path d="M10.53,51.88,9.83,51A25,25,0,0,1,26.76,10.1H27a2.91,2.91,0,0,1,2.35,1.18A3,3,0,0,1,30,13.1v7.07a3,3,0,0,1-2.62,2.94A12,12,0,0,0,19.24,42l.5.69ZM27,12.09A23,23,0,0,0,10.68,48.9l6.46-6.45a14,14,0,0,1,10-21.32,1,1,0,0,0,.89-1V13.1a1.08,1.08,0,0,0-.21-.62A.94.94,0,0,0,27,12.09Z"/><path d="M29,60A24.92,24.92,0,0,1,9.83,51l-.58-.7L18.56,41l.68,1A12.14,12.14,0,0,0,22,44.76,12,12,0,0,0,29,47a12.22,12.22,0,0,0,2.78-.32,12,12,0,0,0,5.79-3.28,3.11,3.11,0,0,1,4.24,0l4.95,5a3,3,0,0,1,0,4.22h0a25,25,0,0,1-14.7,7.24A23.37,23.37,0,0,1,29,60ZM12,50.45A22.91,22.91,0,0,0,29,58a21.53,21.53,0,0,0,2.84-.18,23,23,0,0,0,13.53-6.66,1,1,0,0,0,0-1.4l-5-4.95a1,1,0,0,0-1.39,0,14,14,0,0,1-20.66-.72Z"/><path d="M29,49A14,14,0,0,1,15,35,14,14,0,0,1,27.11,21.13a1,1,0,0,0,.89-1V13.1a1.08,1.08,0,0,0-.21-.62.94.94,0,0,0-.76-.39,1,1,0,0,1,0-2h5a1,1,0,0,1,1,1v3.08a1,1,0,0,0,.9,1,12.09,12.09,0,0,1,1.34.25,1,1,0,0,1,.76,1v3.82a3,3,0,0,1-2.62,2.94,12,12,0,0,0-1.14,23.57,1,1,0,0,1,0,1.94A13.94,13.94,0,0,1,29,49ZM27.74,23l-.36.07a12,12,0,0,0,.29,23.82A14,14,0,0,1,21,35,14.05,14.05,0,0,1,27.74,23Zm2.08-10.95a2.91,2.91,0,0,1,.18,1v7.07a3,3,0,0,1-1,2.18,13.66,13.66,0,0,1,4.09-1.22,1,1,0,0,0,.89-1v-3l-.38-.06A3,3,0,0,1,31,14.17V12.09Z"/><path d="M50.18,44.36a3,3,0,0,1-2.11-.87L43,38.41a3,3,0,0,1-.48-3.61,12,12,0,0,0-7.74-17.48c-.38-.09-.76-.15-1.15-.21A3,3,0,0,1,31,14.17V7.1a3,3,0,0,1,2.67-3h.48A25,25,0,0,1,53.58,41.59c-.24.44-.54.91-.88,1.42A3,3,0,0,1,50.18,44.36ZM33.84,6.1a1,1,0,0,0-.84,1v7.07a1,1,0,0,0,.9,1,12.09,12.09,0,0,1,1.34.25,14,14,0,0,1,9,20.39A1,1,0,0,0,44.41,37l5.08,5.08A1,1,0,0,0,51,41.89c.31-.45.58-.89.8-1.29a23,23,0,0,0-14-33.84,21.51,21.51,0,0,0-3.81-.66Z"/><path d="M35,60a24.58,24.58,0,0,1-3.16-.2l-7.8-1,7.81-1a23,23,0,0,0,13.52-6.66,1,1,0,0,0,0-1.4l-5-4.95a1,1,0,0,0-.7-.29v-2h6a3,3,0,0,1,2.12.87l4.95,5a3,3,0,0,1,0,4.22h0A24.79,24.79,0,0,1,35,60Zm7.93-15.48,3.83,3.82a3,3,0,0,1,0,4.22A25.08,25.08,0,0,1,40,57.47a22.87,22.87,0,0,0,11.42-6.31,1,1,0,0,0,0-1.4l-5-4.95a1,1,0,0,0-.7-.29Z"/><path d="M24.43,43.57h-6a1,1,0,0,1,0-2h6a1,1,0,0,1,0,2Z"/><path d="M55.81,44.36H50.18v-2a1,1,0,0,0,.86-.47c.31-.45.58-.89.8-1.29a23,23,0,0,0-14-33.84,21.51,21.51,0,0,0-3.81-.66l.09-2h5.64A25,25,0,0,1,58.34,43,3.06,3.06,0,0,1,55.81,44.36Zm-2.69-2h2.69a1,1,0,0,0,.87-.47,22.89,22.89,0,0,0,4-12.89A23.2,23.2,0,0,0,43.38,6.73a25,25,0,0,1,10.2,34.86C53.45,41.83,53.29,42.09,53.12,42.36Z"/></g></svg>