<svg xmlns="http://www.w3.org/2000/svg" viewBox="0 0 64 64"><title>Chat</title><g id="Chat"><path d="M43,60H19a5,5,0,0,1-5-5V30a1,1,0,0,1,1-1H26a1,1,0,0,1,.71.29L28,30.59V19a3,3,0,0,0-3-3H15a1,1,0,0,1-1-1V9a5,5,0,0,1,5-5H43a5,5,0,0,1,5,5V30a1,1,0,0,1-1,1H39a3,3,0,0,0-3,3V45.59l1.29-1.3A1,1,0,0,1,38,44h9a1,1,0,0,1,1,1V55a5,5,0,0,1-4,4.9A5.13,5.13,0,0,1,43,60ZM16,31V55a3,3,0,0,0,3,3H43a3.31,3.31,0,0,0,.61-.06A3,3,0,0,0,46,55V46H38.41l-2.7,2.71a1,1,0,0,1-1.09.21A1,1,0,0,1,34,48V34a5,5,0,0,1,5-5h7V9a3,3,0,0,0-3-3H19a3,3,0,0,0-3,3v5h9a5,5,0,0,1,5,5V33a1,1,0,0,1-.62.92,1,1,0,0,1-1.09-.21L25.59,31Z"/><path d="M51,31H47a1,1,0,0,1-1-1V9a3,3,0,0,0-3-3H41.8l-.19,0A3.31,3.31,0,0,0,41,5.92a1,1,0,0,1,0-2h6a5,5,0,0,1,5,5V30A1,1,0,0,1,51,31Zm-3-2h2V8.92a3,3,0,0,0-3-3h-.06A5,5,0,0,1,48,9Z"/><path d="M47,59.92H43.8a1,1,0,0,1-.2-2A3,3,0,0,0,46,55V45a1,1,0,0,1,1-1h4a1,1,0,0,1,1,1v9.92A5,5,0,0,1,47,59.92ZM48,46v9a5,5,0,0,1-.94,2.92,3,3,0,0,0,2.94-3V46Z"/><path d="M42,56H20a2,2,0,0,1-2-2V30a1,1,0,0,1,1-1h7a1,1,0,0,1,.71.29L28,30.59V19a3,3,0,0,0-3-3H19a1,1,0,0,1-1-1V10a2,2,0,0,1,2-2h5a1,1,0,0,1,.71.29L27.41,10h7.18l1.7-1.71A1,1,0,0,1,37,8h5a2,2,0,0,1,2,2V30a1,1,0,0,1-1,1H39a3,3,0,0,0-3,3V45.59l1.29-1.3A1,1,0,0,1,38,44h5a1,1,0,0,1,1,1v9A2,2,0,0,1,42,56ZM20,31V54H42V46H38.41l-2.7,2.71a1,1,0,0,1-1.09.21A1,1,0,0,1,34,48V34a5,5,0,0,1,5-5h3V10H37.41l-1.7,1.71A1,1,0,0,1,35,12H27a1,1,0,0,1-.71-.29L24.59,10H20v4h5a5,5,0,0,1,5,5V33a1,1,0,0,1-.62.92,1,1,0,0,1-1.09-.21L25.59,31Z"/><path d="M29,34a1,1,0,0,1-.71-.29L25.59,31H9a5,5,0,0,1-5-5V19a5,5,0,0,1,5-5H25a5,5,0,0,1,5,5V33a1,1,0,0,1-.62.92A.84.84,0,0,1,29,34ZM9,16a3,3,0,0,0-3,3v7a3,3,0,0,0,3,3H26a1,1,0,0,1,.71.29L28,30.59V19a3,3,0,0,0-3-3Z"/><path d="M35,49a.84.84,0,0,1-.38-.08A1,1,0,0,1,34,48V34a5,5,0,0,1,5-5H55a5,5,0,0,1,5,5v7a5,5,0,0,1-5,5H38.41l-2.7,2.71A1,1,0,0,1,35,49Zm4-18a3,3,0,0,0-3,3V45.59l1.29-1.3A1,1,0,0,1,38,44H55a3,3,0,0,0,3-3V34a3,3,0,0,0-3-3Z"/><circle cx="10.5" cy="22.5" r="1.5"/><circle cx="16.5" cy="22.5" r="1.5"/><circle cx="22.5" cy="22.5" r="1.5"/><circle cx="41.5" cy="37.5" r="1.5"/><circle cx="47.5" cy="37.5" r="1.5"/><circle cx="53.5" cy="37.5" r="1.5"/></g></svg>