<svg xmlns="http://www.w3.org/2000/svg" viewBox="0 0 64 64"><title>coffee break</title><g id="coffee_break" data-name="coffee break"><path d="M12,17H9a1,1,0,0,1,0-2h3a1,1,0,0,1,0,2Z"/><path d="M37,17H34a1,1,0,0,1,0-2h3a1,1,0,0,1,0,2Z"/><path d="M12,17H9a1,1,0,0,1,0-2h3a1,1,0,0,1,0,2Z"/><path d="M37,17H34a1,1,0,0,1,0-2h3a1,1,0,0,1,0,2Z"/><path d="M10.88,24a1,1,0,0,1-.5-1.87L13,20.63a1,1,0,0,1,1,1.74l-2.59,1.5A1,1,0,0,1,10.88,24Z"/><path d="M32.53,11.5A1,1,0,0,1,32,9.63l2.59-1.5a1,1,0,1,1,1,1.74L33,11.37A1,1,0,0,1,32.53,11.5Z"/><path d="M10.88,24a1,1,0,0,1-.5-1.87L13,20.63a1,1,0,0,1,1,1.74l-2.59,1.5A1,1,0,0,1,10.88,24Z"/><path d="M32.53,11.5A1,1,0,0,1,32,9.63l2.59-1.5a1,1,0,1,1,1,1.74L33,11.37A1,1,0,0,1,32.53,11.5Z"/><path d="M28.5,7.47A1,1,0,0,1,27.63,6l1.5-2.59a1,1,0,0,1,1.74,1L29.37,7A1,1,0,0,1,28.5,7.47Z"/><path d="M28.5,7.47A1,1,0,0,1,27.63,6l1.5-2.59a1,1,0,0,1,1.74,1L29.37,7A1,1,0,0,1,28.5,7.47Z"/><path d="M35.12,24a1,1,0,0,1-.5-.13L32,22.37a1,1,0,0,1,1-1.74l2.59,1.5a1,1,0,0,1-.5,1.87Z"/><path d="M13.47,11.5a1,1,0,0,1-.5-.13l-2.59-1.5a1,1,0,1,1,1-1.74L14,9.63a1,1,0,0,1-.5,1.87Z"/><path d="M35.12,24a1,1,0,0,1-.5-.13L32,22.37a1,1,0,0,1,1-1.74l2.59,1.5a1,1,0,0,1-.5,1.87Z"/><path d="M13.47,11.5a1,1,0,0,1-.5-.13l-2.59-1.5a1,1,0,1,1,1-1.74L14,9.63a1,1,0,0,1-.5,1.87Z"/><path d="M17.5,7.47a1,1,0,0,1-.87-.5l-1.5-2.59a1,1,0,0,1,1.74-1L18.37,6a1,1,0,0,1-.87,1.5Z"/><path d="M17.5,7.47a1,1,0,0,1-.87-.5l-1.5-2.59a1,1,0,0,1,1.74-1L18.37,6a1,1,0,0,1-.87,1.5Z"/><path d="M23,6a1,1,0,0,1-1-1V2a1,1,0,0,1,2,0V5A1,1,0,0,1,23,6Z"/><path d="M23,6a1,1,0,0,1-1-1V2a1,1,0,0,1,2,0V5A1,1,0,0,1,23,6Z"/><path d="M27,26H19a1,1,0,0,1-1-1,6.79,6.79,0,0,0-1.35-4.13,8,8,0,0,1,1-10.84A8,8,0,0,1,31,15.2h0a8,8,0,0,1-1.49,5.51A7.27,7.27,0,0,0,28,25,1,1,0,0,1,27,26Zm-7-2h6.11a9.4,9.4,0,0,1,1.79-4.47A6,6,0,0,0,29,15.39h0A6.07,6.07,0,0,0,23.7,10a6,6,0,0,0-5.47,9.61A8.68,8.68,0,0,1,20,24Z"/><path d="M22,26a1,1,0,0,1-.37-.07,1,1,0,0,1-.56-1.3L22.52,21H22a1,1,0,0,1-.83-.44,1,1,0,0,1-.1-.93l2-5a1,1,0,0,1,1.86.74L23.48,19H24a1,1,0,0,1,.83.44,1,1,0,0,1,.1.93l-2,5A1,1,0,0,1,22,26Z"/><path d="M24,31H22a4,4,0,0,1-4-4V25a1,1,0,0,1,1-1h8a1,1,0,0,1,1,1v2A4,4,0,0,1,24,31Zm-4-5v1a2,2,0,0,0,2,2h2a2,2,0,0,0,2-2V26Z"/><path d="M36,35H10a3,3,0,0,1,0-6H36a3,3,0,0,1,0,6ZM10,31a1,1,0,0,0,0,2H36a1,1,0,0,0,0-2Z"/><path d="M32,63H14a1,1,0,0,1-1-.86l-.86-6a1,1,0,0,1,.23-.79,1,1,0,0,1,.76-.35H32.86a1,1,0,0,1,.76.35,1,1,0,0,1,.23.79l-.86,6A1,1,0,0,1,32,63ZM14.87,61H31.13l.58-4H14.29Z"/><path d="M26.27,40H10.71a1,1,0,0,1-1-.86l-.71-5a1,1,0,0,1,.24-.8A1,1,0,0,1,10,33H36a1,1,0,0,1,.75.34,1,1,0,0,1,.24.8l-.57,4a1,1,0,0,1-1,.86H28a.93.93,0,0,0-.69.29.68.68,0,0,0-.18.23A1,1,0,0,1,26.27,40ZM11.58,38H25.77l.14-.14A2.91,2.91,0,0,1,28,37h6.56l.29-2H11.15Z"/><path d="M32,63H14a1,1,0,0,1-1-.86l-.86-6a1,1,0,0,1,.23-.79,1,1,0,0,1,.76-.35H32.86a1,1,0,0,1,.76.35,1,1,0,0,1,.23.79l-.86,6A1,1,0,0,1,32,63ZM14.87,61H31.13l.58-4H14.29Z"/><path d="M26.27,40H10.71a1,1,0,0,1-1-.86l-.71-5a1,1,0,0,1,.24-.8A1,1,0,0,1,10,33H36a1,1,0,0,1,.75.34,1,1,0,0,1,.24.8l-.57,4a1,1,0,0,1-1,.86H28a.93.93,0,0,0-.69.29.68.68,0,0,0-.18.23A1,1,0,0,1,26.27,40ZM11.58,38H25.77l.14-.14A2.91,2.91,0,0,1,28,37h6.56l.29-2H11.15Z"/><path d="M37.17,60H32.43a1,1,0,0,1-.76-.34,1,1,0,0,1-.23-.8l2-13.86H30a5,5,0,0,1-5-5,3,3,0,0,1,3-3h9.17a7.93,7.93,0,0,1,5.54,2.29A5.83,5.83,0,0,0,46.83,41H48a1,1,0,0,1,1,1V55a1,1,0,0,1-1,1H46.83a5.83,5.83,0,0,0-4.12,1.71A7.93,7.93,0,0,1,37.17,60Zm-3.59-2h3.59a5.83,5.83,0,0,0,4.12-1.71A7.93,7.93,0,0,1,46.83,54H47V43h-.17a7.93,7.93,0,0,1-5.54-2.29A5.83,5.83,0,0,0,37.17,39H28a.93.93,0,0,0-.69.29A1,1,0,0,0,27,40a3,3,0,0,0,3,3h4.57a1,1,0,0,1,.76.34,1,1,0,0,1,.23.8Z"/><path d="M56,57H48a1,1,0,0,1-1-1V41a1,1,0,0,1,1-1h8a1,1,0,0,1,1,1V56A1,1,0,0,1,56,57Zm-7-2h6V42H49Z"/><path d="M40,50a6,6,0,0,1-6-6,1,1,0,0,1,2,0,4,4,0,0,0,4,4,1,1,0,0,1,0,2Z"/><path d="M32.86,57H13.14a1,1,0,0,1-1-.86l-2.43-17a1,1,0,0,1,.23-.8,1,1,0,0,1,.76-.34H26.27a1,1,0,0,1,.86,1.51A1,1,0,0,0,27,40a3,3,0,0,0,3,3h4.57a1,1,0,0,1,.76.34,1,1,0,0,1,.23.8l-1.71,12A1,1,0,0,1,32.86,57ZM14,55H32l1.43-10H30a5,5,0,0,1-5-5H11.86Z"/><path d="M28,57h-.12A1,1,0,0,1,27,55.88l1-8A1,1,0,0,1,29.12,47,1,1,0,0,1,30,48.12l-1,8A1,1,0,0,1,28,57Z"/></g></svg>