<svg xmlns="http://www.w3.org/2000/svg" viewBox="0 0 64 64"><title>Compass</title><g id="Compass"><path d="M28,60a24,24,0,0,1,0-48,23,23,0,0,1,4.18.38A24,24,0,0,1,28,60Zm0-46a22.09,22.09,0,1,0,3.83.35A21.15,21.15,0,0,0,28,14Z"/><path d="M28,56a20,20,0,1,1,3.48-.31A20,20,0,0,1,28,56Zm0-38a18,18,0,0,0,0,36,16.92,16.92,0,0,0,3.12-.28,18,18,0,0,0,0-35.44A17.11,17.11,0,0,0,28,18Z"/><path d="M36,60H28a1,1,0,0,1,0-2,22,22,0,0,0,3.83-43.65A21.15,21.15,0,0,0,28,14a1,1,0,0,1,0-2h8a23.59,23.59,0,0,1,9.52,2,1,1,0,0,1,.58.72,1,1,0,0,1-.25.88l2.59,2.57,1-1a1,1,0,0,1,1.32-.08A23.76,23.76,0,0,1,60,36,24,24,0,0,1,36,60Zm1.77-45.93a24,24,0,0,1,0,43.86A22,22,0,0,0,58,36a21.8,21.8,0,0,0-7.8-16.79l-.34.35a2,2,0,0,1-2.84,0L44.44,17a2,2,0,0,1-.58-1.53A21.82,21.82,0,0,0,37.77,14.07Z"/><path d="M28,20a1,1,0,0,1-1-1V17a1,1,0,0,1,2,0v2A1,1,0,0,1,28,20Z"/><path d="M28,56a1,1,0,0,1-1-1V53a1,1,0,0,1,2,0v2A1,1,0,0,1,28,56Z"/><path d="M47,37H45a1,1,0,0,1,0-2h2a1,1,0,0,1,0,2Z"/><path d="M11,37H9a1,1,0,0,1,0-2h2a1,1,0,0,1,0,2Z"/><path d="M40,25a1,1,0,0,1-.71-.29,1,1,0,0,1,0-1.42l1.42-1.41a1,1,0,1,1,1.41,1.41l-1.41,1.42A1,1,0,0,1,40,25Z"/><path d="M14.56,50.44a1,1,0,0,1-.7-.3,1,1,0,0,1,0-1.41l1.41-1.42a1,1,0,1,1,1.42,1.42l-1.42,1.41A1,1,0,0,1,14.56,50.44Z"/><path d="M41.44,50.44a1,1,0,0,1-.71-.3l-1.42-1.41a1,1,0,1,1,1.42-1.42l1.41,1.42a1,1,0,0,1,0,1.41A1,1,0,0,1,41.44,50.44Z"/><path d="M16,25a1,1,0,0,1-.71-.29l-1.41-1.42a1,1,0,1,1,1.41-1.41l1.42,1.41a1,1,0,0,1,0,1.42A1,1,0,0,1,16,25Z"/><path d="M36.48,45.49a1.12,1.12,0,0,1-.43-.1L24.57,39.9a1,1,0,0,1-.47-.47L18.61,28A1,1,0,0,1,20,26.61L31.43,32.1a1,1,0,0,1,.47.47l5.49,11.48a1,1,0,0,1-.2,1.14A1,1,0,0,1,36.48,45.49ZM25.75,38.25l8.61,4.11-4.11-8.61-8.61-4.11Z"/><path d="M25,40a1,1,0,0,1-.71-.29,1,1,0,0,1,0-1.42l6-6a1,1,0,0,1,1.42,1.42l-6,6A1,1,0,0,1,25,40Z"/><path d="M52.5,19A7.69,7.69,0,0,1,50,18.59a1,1,0,0,1-.65-.72,1,1,0,0,1,.26-.94L51.58,15,49,12.42l-1.93,1.93a1,1,0,0,1-.94.26,1,1,0,0,1-.72-.65A7.69,7.69,0,0,1,45,11.5,7.5,7.5,0,1,1,52.5,19Zm-.08-2A5.5,5.5,0,1,0,47,11.5v.08l.58-.58a2.07,2.07,0,0,1,2.84,0L53,13.58a2,2,0,0,1,0,2.84Z"/><path d="M48.44,20.14A2,2,0,0,1,47,19.56L44.44,17a2,2,0,0,1-.09-2.72.62.62,0,0,1,.09-.12L47.58,11a2,2,0,0,1,2.84,0L53,13.58a2,2,0,0,1,0,2.84l-3.14,3.14A2,2,0,0,1,48.44,20.14ZM45.9,15.51l-.06.07,2.6,2.56L51.58,15,49,12.42ZM51.58,15l.71.71L51.58,15Z"/></g></svg>