<svg xmlns="http://www.w3.org/2000/svg" viewBox="0 0 64 64"><title>computer</title><g id="computer"><path d="M51,46H9a5,5,0,0,1-5-5V9A5,5,0,0,1,9,4H51a5,5,0,0,1,5,5V41A5,5,0,0,1,51,46ZM9,6A3,3,0,0,0,6,9V41a3,3,0,0,0,3,3H51a3,3,0,0,0,3-3V9a3,3,0,0,0-3-3Z"/><path d="M51,46a1,1,0,0,1,0-2,3,3,0,0,0,3-3V9a3,3,0,0,0-3-3,1,1,0,0,1,0-2,9,9,0,0,1,9,9V37A9,9,0,0,1,51,46ZM55.9,8A4.62,4.62,0,0,1,56,9V41a4.62,4.62,0,0,1-.1,1A7,7,0,0,0,58,37V13A7,7,0,0,0,55.9,8Z"/><path d="M51,38H9a1,1,0,0,1-1-1V9A1,1,0,0,1,9,8H51a1,1,0,0,1,1,1V37A1,1,0,0,1,51,38ZM10,36H50V10H10Z"/><path d="M31,42H29a1,1,0,0,1,0-2h2a1,1,0,0,1,0,2Z"/><path d="M41,56H25a1,1,0,0,1-1-.8l-2-10a1,1,0,0,1,.21-.83A1,1,0,0,1,23,44H37a1,1,0,0,1,.93.63l4,10a1,1,0,0,1-.1.93A1,1,0,0,1,41,56ZM25.82,54h13.7l-3.2-8H24.22Z"/><path d="M35,60H18a3,3,0,0,1-3-3,3,3,0,0,1,3-3H35a1,1,0,0,1,0,2,.93.93,0,0,0-.69.29A1,1,0,0,0,34,57a1,1,0,0,0,1,1,1,1,0,0,1,0,2ZM18,56a.93.93,0,0,0-.69.29A1,1,0,0,0,17,57a1,1,0,0,0,1,1H32.17A3,3,0,0,1,32,57a3,3,0,0,1,.17-1Z"/><path d="M41.76,60H35a3,3,0,0,1-3-3,3,3,0,0,1,3-3h4.52l-3.45-8.63a1,1,0,0,1,.1-.93A1,1,0,0,1,37,44h4a1,1,0,0,1,.93.63L45.59,54A4.15,4.15,0,0,1,46,55.76,4.24,4.24,0,0,1,41.76,60ZM35,56a.93.93,0,0,0-.69.29A1,1,0,0,0,34,57a1,1,0,0,0,1,1h6.76a2.23,2.23,0,0,0,2-3.24L40.32,46H38.48l3.45,8.63a1,1,0,0,1-.1.93A1,1,0,0,1,41,56Z"/></g></svg>