<svg xmlns="http://www.w3.org/2000/svg" viewBox="0 0 64 64"><title>connection</title><g id="connection"><path d="M13,60A11,11,0,1,1,24,49,11,11,0,0,1,13,60Zm0-20a9,9,0,1,0,9,9A9,9,0,0,0,13,40Z"/><path d="M51,60A11,11,0,1,1,62,49,11,11,0,0,1,51,60Zm0-20a9,9,0,1,0,9,9A9,9,0,0,0,51,40Z"/><path d="M32,26A11,11,0,0,1,21,15,11,11,0,1,1,32,26ZM32,6a9,9,0,0,0-6.11,15.59,9,9,0,0,0,12.22,0A9,9,0,0,0,32,6Z"/><path d="M44,43H20a1,1,0,0,1-.89-.54,1,1,0,0,1,.07-1l12-17a1,1,0,0,1,1.64,0l12,17a1,1,0,0,1,.07,1A1,1,0,0,1,44,43ZM21.93,41H42.07L32,26.73Z"/><path d="M41.74,18.27a1,1,0,0,1-.38-.08A1.15,1.15,0,0,1,41,18a1,1,0,0,1-.29-.71,1.05,1.05,0,0,1,.29-.71,1,1,0,0,1,1.09-.21,1.15,1.15,0,0,1,.33.21,1.05,1.05,0,0,1,.29.71,1,1,0,0,1-.08.38,1.15,1.15,0,0,1-.21.33A1,1,0,0,1,41.74,18.27Z"/><path d="M53,35.63a1,1,0,0,1,.93-1.06h0A1,1,0,0,1,55,35.5h0A1,1,0,0,1,54,36.57H54A1,1,0,0,1,53,35.63ZM52.4,32h0a1,1,0,0,1,.74-1.2h0a1,1,0,0,1,1.21.73h0a1,1,0,0,1-.74,1.21h0a.91.91,0,0,1-.23,0h0A1,1,0,0,1,52.4,32Zm-1.17-3.47a1,1,0,0,1,.51-1.32h0a1,1,0,0,1,1.32.51h0a1,1,0,0,1-.51,1.32h0a1,1,0,0,1-.4.09h0A1,1,0,0,1,51.23,28.55Zm-1.76-3.21A1,1,0,0,1,49.74,24h0a1,1,0,0,1,1.39.28h0a1,1,0,0,1-.28,1.39h0a1,1,0,0,1-.55.16h0A1,1,0,0,1,49.47,25.34Zm-2.29-2.86h0a1,1,0,0,1,0-1.42h0a1,1,0,0,1,1.41,0h0a1,1,0,0,1,0,1.42h0a1,1,0,0,1-.69.27h0A1,1,0,0,1,47.18,22.48Zm-2.76-2.41h0a1,1,0,0,1-.22-1.4h0a1,1,0,0,1,1.4-.21h0a1,1,0,0,1,.21,1.4h0a1,1,0,0,1-.81.4h0A1,1,0,0,1,44.42,20.07Z"/><path d="M53.87,40.42a1,1,0,0,1-.71-.29,1,1,0,0,1-.29-.71,1.05,1.05,0,0,1,.29-.71,1,1,0,0,1,.33-.21,1,1,0,0,1,.58-.06l.18.06a.76.76,0,0,1,.18.09,1.58,1.58,0,0,1,.15.12,1,1,0,0,1,.21.33,1,1,0,0,1,.08.38.84.84,0,0,1-.08.38.9.9,0,0,1-.54.54A1,1,0,0,1,53.87,40.42Z"/><path d="M10.13,40.42a1,1,0,0,1-.38-.08.9.9,0,0,1-.54-.54,1,1,0,0,1-.08-.38,1.05,1.05,0,0,1,.29-.71,1.15,1.15,0,0,1,.33-.21.92.92,0,0,1,.76,0,1.15,1.15,0,0,1,.33.21,1.05,1.05,0,0,1,.29.71,1,1,0,0,1-.07.38,1.46,1.46,0,0,1-.22.33,1.15,1.15,0,0,1-.33.21A1,1,0,0,1,10.13,40.42Z"/><path d="M10,36.58a1,1,0,0,1-.93-1.06h0a1,1,0,0,1,1.06-.93h0A1,1,0,0,1,11,35.65h0a1,1,0,0,1-1,.93H10Zm.4-3.82a1,1,0,0,1-.73-1.2h0a1,1,0,0,1,1.21-.74h0A1,1,0,0,1,11.59,32h0a1,1,0,0,1-1,.76h0A1,1,0,0,1,10.38,32.76Zm1.07-3.69a1,1,0,0,1-.52-1.31h0a1,1,0,0,1,1.32-.52h0a1,1,0,0,1,.52,1.32h0a1,1,0,0,1-.92.6h0A1,1,0,0,1,11.45,29.07Zm1.69-3.44a1,1,0,0,1-.28-1.39h0A1,1,0,0,1,14.25,24h0a1,1,0,0,1,.28,1.39h0a1,1,0,0,1-.84.45h0A1,1,0,0,1,13.14,25.63Zm2.26-3.1a1,1,0,0,1,0-1.42h0a1,1,0,0,1,1.42,0h0a1,1,0,0,1,0,1.42h0a1,1,0,0,1-.73.3h0A1,1,0,0,1,15.4,22.53Zm2.77-2.66a1,1,0,0,1,.21-1.4h0a1,1,0,0,1,1.4.21h0a1,1,0,0,1-.21,1.4h0a1,1,0,0,1-.6.19h0A1,1,0,0,1,18.17,19.87Z"/><path d="M22.26,18.27a1,1,0,0,1-1-1,1,1,0,1,1,2,0,1,1,0,0,1-.07.38A1.46,1.46,0,0,1,23,18,1,1,0,0,1,22.26,18.27Z"/><path d="M20.41,56.71a1,1,0,0,1-.38-.08,1.15,1.15,0,0,1-.33-.21,1,1,0,0,1-.21-1.09A1.15,1.15,0,0,1,19.7,55a1,1,0,0,1,.33-.21,1,1,0,0,1,1.09.21,1.15,1.15,0,0,1,.21.33.84.84,0,0,1,.08.38,1,1,0,0,1-1,1Z"/><path d="M31,59a1,1,0,0,1,1-1h0a1,1,0,0,1,1,1h0a1,1,0,0,1-1,1h0A1,1,0,0,1,31,59Zm4.06-.19a1,1,0,0,1,.81-1.16h0a1,1,0,0,1,1.16.8h0a1,1,0,0,1-.8,1.17H36A1,1,0,0,1,35.05,58.81Zm-7.28.8a1,1,0,0,1-.8-1.16h0a1,1,0,0,1,1.16-.8h0a1,1,0,0,1,.8,1.16h0a1,1,0,0,1-1,.82h0ZM39,57.89a1,1,0,0,1,.57-1.3h0a1,1,0,0,1,1.3.58h0a1,1,0,0,1-.57,1.29h0a.92.92,0,0,1-.36.07h0A1,1,0,0,1,39,57.89Zm-15.33.56a1,1,0,0,1-.57-1.29h0a1,1,0,0,1,1.29-.57h0A1,1,0,0,1,25,57.88h0a1,1,0,0,1-.93.64h0A.92.92,0,0,1,23.68,58.45Z"/><path d="M43.59,56.71a1,1,0,0,1-.38-.08,1.15,1.15,0,0,1-.33-.21,1,1,0,0,1-.21-1.09,1.15,1.15,0,0,1,.21-.33,1,1,0,0,1,1.42,0,1.15,1.15,0,0,1,.21.33,1,1,0,0,1-.21,1.09,1.15,1.15,0,0,1-.33.21A1,1,0,0,1,43.59,56.71Z"/><path d="M32,18a5,5,0,1,1,5-5A5,5,0,0,1,32,18Zm0-8a3,3,0,1,0,3,3A3,3,0,0,0,32,10Z"/><path d="M32,26a10.88,10.88,0,0,1-7.47-2.94,1,1,0,0,1-.29-1,8,8,0,0,1,15.52,0,1,1,0,0,1-.29,1A10.88,10.88,0,0,1,32,26Zm-5.65-4a9,9,0,0,0,11.3,0,6,6,0,0,0-11.3,0Z"/><path d="M51,52a5,5,0,1,1,5-5A5,5,0,0,1,51,52Zm0-8a3,3,0,1,0,3,3A3,3,0,0,0,51,44Z"/><path d="M51,60a10.88,10.88,0,0,1-7.47-2.94,1,1,0,0,1-.29-1,8,8,0,0,1,15.52,0,1,1,0,0,1-.29,1A10.88,10.88,0,0,1,51,60Zm-5.65-4a9,9,0,0,0,11.3,0,6,6,0,0,0-11.3,0Z"/><path d="M13,52a5,5,0,1,1,5-5A5,5,0,0,1,13,52Zm0-8a3,3,0,1,0,3,3A3,3,0,0,0,13,44Z"/><path d="M13,60a10.88,10.88,0,0,1-7.47-2.94,1,1,0,0,1-.29-1,8,8,0,0,1,15.52,0,1,1,0,0,1-.29,1A10.88,10.88,0,0,1,13,60ZM7.35,56a9,9,0,0,0,11.3,0,6,6,0,0,0-11.3,0Z"/></g></svg>