<svg xmlns="http://www.w3.org/2000/svg" viewBox="0 0 64 64"><title>deals</title><g id="deals"><path d="M11.42,46H4.58A3.56,3.56,0,0,1,1,42.48v-24A3.56,3.56,0,0,1,4.58,15h6.84A3.56,3.56,0,0,1,15,18.52v24A3.56,3.56,0,0,1,11.42,46ZM4.58,17A1.55,1.55,0,0,0,3,18.52v24A1.55,1.55,0,0,0,4.58,44h6.84A1.55,1.55,0,0,0,13,42.48v-24A1.55,1.55,0,0,0,11.42,17Z"/><path d="M59.42,46H52.58A3.56,3.56,0,0,1,49,42.48v-24A3.56,3.56,0,0,1,52.58,15h6.84A3.56,3.56,0,0,1,63,18.52v24A3.56,3.56,0,0,1,59.42,46ZM52.58,17A1.55,1.55,0,0,0,51,18.52v24A1.55,1.55,0,0,0,52.58,44h6.84A1.55,1.55,0,0,0,61,42.48v-24A1.55,1.55,0,0,0,59.42,17Z"/><path d="M41.56,51H23.25a6.42,6.42,0,0,1-4.55-1.88l-5.41-5.41A1,1,0,0,1,13,43V19a1,1,0,0,1,1-1H25a1,1,0,0,1,0,2,.93.93,0,0,0-.69.29A1,1,0,0,0,24,21a5,5,0,0,0,5,5h9a1,1,0,0,1,1,1,5.52,5.52,0,0,0,.28,1.8,5.86,5.86,0,0,0,1.56,2.52,1,1,0,0,1,.16.19l6,9.64a6.41,6.41,0,0,1,1,3.41,4.63,4.63,0,0,1,0,.65,6.26,6.26,0,0,1-1.86,3.9A6.33,6.33,0,0,1,41.56,51ZM15,42.59l5.12,5.11A4.38,4.38,0,0,0,23.25,49H41.56a4.36,4.36,0,0,0,3.13-1.3A4.32,4.32,0,0,0,46,45a3.77,3.77,0,0,0,0-.45,4.37,4.37,0,0,0-.68-2.35l-6-9.54a7.69,7.69,0,0,1-2-3.25A7.17,7.17,0,0,1,37.06,28H29a7,7,0,0,1-7-7,3,3,0,0,1,.17-1H15Z"/><path d="M47,46.1a1,1,0,0,1-.59-.19A1,1,0,0,1,46,45c0-.15,0-.29,0-.43a4.37,4.37,0,0,0-.68-2.35l-6-9.54a7.69,7.69,0,0,1-2-3.25A7.17,7.17,0,0,1,37.06,28H29a7,7,0,0,1-7-7,3,3,0,0,1,3-3H50a1,1,0,0,1,1,1V43a1,1,0,0,1-.29.71A11.1,11.1,0,0,1,47.38,46,1,1,0,0,1,47,46.1ZM25,20a.93.93,0,0,0-.69.29A1,1,0,0,0,24,21a5,5,0,0,0,5,5h9a1,1,0,0,1,1,1,5.52,5.52,0,0,0,.28,1.8,5.86,5.86,0,0,0,1.56,2.52,1,1,0,0,1,.16.19l6,9.64a6.34,6.34,0,0,1,.88,2.29,9.27,9.27,0,0,0,1.1-.86V20Z"/><path d="M45,35a8,8,0,0,1-5.55-2.24,1,1,0,1,1,1.4-1.44A5.93,5.93,0,0,0,45,33a1,1,0,0,1,0,2Z"/><path d="M10,46a1,1,0,0,1-1-1V37a1,1,0,0,1,2,0v8A1,1,0,0,1,10,46Z"/><path d="M54,46a1,1,0,0,1-1-1V37a1,1,0,0,1,2,0v8A1,1,0,0,1,54,46Z"/></g></svg>