<svg xmlns="http://www.w3.org/2000/svg" viewBox="0 0 64 64"><title>digital payment</title><g id="digital_payment" data-name="digital payment"><path d="M47,63H13a5,5,0,0,1-5-5V6a5,5,0,0,1,5-5H47a5,5,0,0,1,5,5V58a5,5,0,0,1-4,4.9A5.13,5.13,0,0,1,47,63ZM13,3a3,3,0,0,0-3,3V58a3,3,0,0,0,3,3H47a3.31,3.31,0,0,0,.61-.06A3,3,0,0,0,50,58V6a3,3,0,0,0-3-3Z"/><path d="M51,62.92H47.8l-.2-2A3,3,0,0,0,50,58V6a3,3,0,0,0-3-3L45.61,3A3.31,3.31,0,0,0,45,2.92v-2h6a5,5,0,0,1,5,5v52A5,5,0,0,1,51,62.92Zm-.06-60A5,5,0,0,1,52,6V58a5,5,0,0,1-.94,2.92,3,3,0,0,0,2.94-3v-52a3,3,0,0,0-3-3Z"/><path d="M46,59H14a2,2,0,0,1-2-2V7a2,2,0,0,1,2-2h5a1,1,0,0,1,.71.29L22.41,8H37.59l2.7-2.71A1,1,0,0,1,41,5h5a2,2,0,0,1,2,2V57A2,2,0,0,1,46,59ZM14,7V57H46V7H41.41l-2.7,2.71A1,1,0,0,1,38,10H22a1,1,0,0,1-.71-.29L18.59,7ZM46,7h0Z"/><circle cx="26.5" cy="5.5" r="1.5"/><circle cx="33.5" cy="5.5" r="1.5"/><path d="M30,46H28a1,1,0,0,1,0-2h2a1,1,0,0,0,0-2,3,3,0,0,1,0-6h2a1,1,0,0,1,0,2H30a1,1,0,0,0,0,2,3,3,0,0,1,0,6Z"/><path d="M30,38a1,1,0,0,1-1-1V35a1,1,0,0,1,2,0v2A1,1,0,0,1,30,38Z"/><path d="M30,48a1,1,0,0,1-1-1V45a1,1,0,0,1,2,0v2A1,1,0,0,1,30,48Z"/><path d="M30,53A12,12,0,1,1,42,41,12,12,0,0,1,30,53Zm0-22A10,10,0,1,0,40,41,10,10,0,0,0,30,31Z"/><path d="M30,26a1,1,0,0,1-1-1V15a1,1,0,0,1,2,0V25A1,1,0,0,1,30,26Z"/><path d="M34.24,20a1,1,0,0,1-.7-.29L30,16.17l-3.54,3.54a1,1,0,0,1-1.41,0,1,1,0,0,1,0-1.42l4.24-4.24a1,1,0,0,1,1.42,0L35,18.29a1,1,0,0,1,0,1.42A1,1,0,0,1,34.24,20Z"/></g></svg>