<svg xmlns="http://www.w3.org/2000/svg" viewBox="0 0 64 64"><title>document</title><g id="document"><path d="M43,60H5a1,1,0,0,1-1-1V43a1,1,0,0,1,1-1H19a1,1,0,0,1,1,1,4,4,0,0,0,8,0,1,1,0,0,1,1-1H43a1,1,0,0,1,1,1V59A1,1,0,0,1,43,60ZM6,58H42V44H29.92a6,6,0,0,1-11.84,0H6Z"/><path d="M59,60H43a1,1,0,0,1-1-1V43a1,1,0,0,1,1-1H59a1,1,0,0,1,1,1V59A1,1,0,0,1,59,60ZM44,58H58V44H44Z"/><path d="M24,49a6,6,0,0,1-5.92-5H8a1,1,0,0,1-1-1V10a6,6,0,0,1,6-6H45a1,1,0,0,1,0,2,4,4,0,0,0-4,4V43a1,1,0,0,1-1,1H29.92A6,6,0,0,1,24,49ZM9,42H19a1,1,0,0,1,1,1,4,4,0,0,0,8,0,1,1,0,0,1,1-1H39V10a6,6,0,0,1,1.53-4H13a4,4,0,0,0-4,4Z"/><path d="M50,14H40a1,1,0,0,1-1-1V10a6,6,0,1,1,12,0v3A1,1,0,0,1,50,14Zm-9-2h8V10a4,4,0,0,0-4-4,4,4,0,0,0-4,4Z"/><path d="M45,44H40a1,1,0,0,1-1-1V17a1,1,0,0,1,1-1h5a1,1,0,0,1,1,1V43A1,1,0,0,1,45,44Zm-4-2h3V18H41Z"/><path d="M50,44H45a1,1,0,0,1-1-1V19a1,1,0,0,1,1-1h5a1,1,0,0,1,1,1V43A1,1,0,0,1,50,44Zm-4-2h3V20H46Z"/><path d="M55,44H50a1,1,0,0,1-1-1V21a1,1,0,0,1,1-1h5a1,1,0,0,1,1,1V43A1,1,0,0,1,55,44Zm-4-2h3V22H51Z"/><path d="M35,18H13a1,1,0,0,1-1-1V11a1,1,0,0,1,1-1H35a1,1,0,0,1,1,1v6A1,1,0,0,1,35,18ZM14,16H34V12H14Z"/><path d="M23,23H13a1,1,0,0,1,0-2H23a1,1,0,0,1,0,2Z"/><path d="M23,28H13a1,1,0,0,1,0-2H23a1,1,0,0,1,0,2Z"/><path d="M35,33H13a1,1,0,0,1,0-2H35a1,1,0,0,1,0,2Z"/><path d="M35,38H13a1,1,0,0,1,0-2H35a1,1,0,0,1,0,2Z"/><path d="M35,28H27a1,1,0,0,1-1-1V22a1,1,0,0,1,1-1h8a1,1,0,0,1,1,1v5A1,1,0,0,1,35,28Zm-7-2h6V23H28Z"/></g></svg>