<svg xmlns="http://www.w3.org/2000/svg" viewBox="0 0 64 64"><title>dress code</title><g id="dress_code" data-name="dress code"><path d="M53,60H9a5,5,0,0,1-5-5V16a5,5,0,0,1,5-5h4a1,1,0,0,1,.86.49l4.76,8,9.66-8.23A1,1,0,0,1,29,11a1.24,1.24,0,0,1,.75.24l9.66,8.23,4.76-8A1,1,0,0,1,45,11h4a5,5,0,0,1,5,5v.07A7,7,0,0,1,60,23V53A7,7,0,0,1,53,60ZM9,13a3,3,0,0,0-3,3V55a3,3,0,0,0,3,3H53a5,5,0,0,0,5-5V23a5,5,0,0,0-5-5,1,1,0,0,1-1-1V16a3,3,0,0,0-3-3H45.55l-5.08,8.51a1,1,0,0,1-.7.48,1,1,0,0,1-.81-.23L29,13.27,19,21.76a1,1,0,0,1-.81.23,1,1,0,0,1-.7-.48L12.45,13Z"/><path d="M53,56a1,1,0,0,1-1-1V17a1,1,0,0,1,2,0V55A1,1,0,0,1,53,56Z"/><path d="M18.39,22h-.16a1,1,0,0,1-.7-.48l-5.37-9-.05-.1a1,1,0,0,1,.1-1.06l5.33-7a1,1,0,0,1,1.34-.23l10.67,7a1,1,0,0,1,.45.79,1,1,0,0,1-.37.83l-.05,0L19,21.76A1,1,0,0,1,18.39,22ZM14.2,12l4.44,7.44,8.69-7.4L18.56,6.34Z"/><path d="M39.61,22a1,1,0,0,1-.65-.24l-10.56-9a1,1,0,0,1-.37-.84,1,1,0,0,1,.42-.8l10.67-7a1,1,0,0,1,1.34.23l5.33,7a1,1,0,0,1,.1,1.06l0,0-5.4,9.06a1,1,0,0,1-.7.48Zm-8.94-9.93,8.69,7.4L43.8,12,39.44,6.34Z"/><path d="M29,24.43a9.56,9.56,0,0,1-5.76-1.92,8.6,8.6,0,0,1-1.05-.89,3,3,0,0,1,0-4.24l6.09-6.09a1,1,0,0,1,1.42,0l6.09,6.09a3,3,0,0,1,0,4.24,8.56,8.56,0,0,1-1.08.91A9.49,9.49,0,0,1,29,24.43Zm0-11L23.62,18.8a1,1,0,0,0,0,1.4,5.93,5.93,0,0,0,.8.69,7.61,7.61,0,0,0,9.13,0,5.92,5.92,0,0,0,.83-.71,1,1,0,0,0,0-1.4Z"/><path d="M19.63,47.37h-.05a1,1,0,0,1-.73-.37A3.91,3.91,0,0,1,18,44.57v-.26a3.36,3.36,0,0,1,.1-.85l1.59-7.34a1.06,1.06,0,0,1,.27-.5L33.64,21.94a1,1,0,0,1,1.69.5l1.61,7.39a1,1,0,0,1-.27.92L20.34,47.08A1,1,0,0,1,19.63,47.37Zm1.95-10.54L20.05,43.9a1.48,1.48,0,0,0-.05.41v.28L34.87,29.72l-1.11-5.07Z"/><path d="M25.19,51.81a1,1,0,0,1-.61-.21l-5.06-3.93a3.3,3.3,0,0,1-.69-.71,1,1,0,0,1,.09-1.3L35.25,29.33a1,1,0,0,1,1.69.5L38.73,38a1,1,0,0,1-.27.92L25.9,51.52A1,1,0,0,1,25.19,51.81Zm-4.12-5.47,4,3.14L36.66,37.93,35.37,32Z"/><path d="M29,54a4,4,0,0,1-2.4-.82l-2-1.58a1,1,0,0,1-.38-.73,1,1,0,0,1,.29-.77L37,37.54a1,1,0,0,1,1.69.5l1.18,5.44a3.58,3.58,0,0,1,.09.83v.26a3.94,3.94,0,0,1-1.51,3.1L31.4,53.18A4,4,0,0,1,29,54Zm-2.3-3.28,1.13.88a2,2,0,0,0,2.35,0l7.08-5.51A1.93,1.93,0,0,0,38,44.57v-.26a1.67,1.67,0,0,0,0-.39l-.8-3.67Z"/><path d="M20.67,37.33a1,1,0,0,1-.48-.12,1,1,0,0,1-.5-1.09L22.87,21.5a1,1,0,0,1,1.58-.59,7.59,7.59,0,0,0,9.1,0,1,1,0,0,1,1.58.59l.2.94a1,1,0,0,1-.27.92L21.38,37A1,1,0,0,1,20.67,37.33Zm3.85-14-2.15,9.89,9.12-9.11A9.66,9.66,0,0,1,24.52,23.32Z"/></g></svg>