<svg xmlns="http://www.w3.org/2000/svg" viewBox="0 0 64 64"><title>flag</title><g id="flag"><path d="M12,60H5a1,1,0,0,1-.77-.36A1,1,0,0,1,4,58.82L13.5,7.63a4.44,4.44,0,0,1,8.81.81,4.25,4.25,0,0,1-.06.71v0a.13.13,0,0,1,0,.06L13,59.18A1,1,0,0,1,12,60ZM6.2,58h5L20.26,8.91V8.84a2.58,2.58,0,0,0,0-.4A2.45,2.45,0,0,0,15.46,8ZM21.26,9h0Z"/><path d="M41,32a1,1,0,0,1-1-1,1,1,0,0,0-1-1H17.56a1,1,0,0,1-.77-.36,1,1,0,0,1-.21-.82L20.26,8.91v0a1,1,0,0,1,1-.88H41.68a3,3,0,0,1,3,3.45h0L42,29.08V31A1,1,0,0,1,41,32ZM18.76,28H39a3.17,3.17,0,0,1,1.11.21l2.56-17.06a1,1,0,0,0-.23-.8,1,1,0,0,0-.76-.35H22.09Zm24.9-16.7h0Z"/><path d="M56,38H30a3,3,0,0,1-2.73-1.77A2.74,2.74,0,0,1,27,35a.86.86,0,0,1,0-.16l.1-.62a1.55,1.55,0,0,1,.07-.23,2.64,2.64,0,0,1,.6-1l.1-.11A2.93,2.93,0,0,1,30,32h9a.93.93,0,0,0,.69-.29A1,1,0,0,0,40,31V29a.76.76,0,0,1,0-.15l1.8-12a1,1,0,0,1,1-.85H59a1,1,0,0,1,.78,1.63l-7.6,9.5,4.71,9.42A1,1,0,0,1,56,38ZM29,35.07a1.16,1.16,0,0,0,.08.32A1,1,0,0,0,30,36H54.38l-4.27-8.55a1,1,0,0,1,.11-1.07L56.92,18H43.66L42,29.08V31a3,3,0,0,1-3,3H30a.93.93,0,0,0-.69.29l-.1.11a.76.76,0,0,0-.14.24Z"/><path d="M28,36h-.08A1,1,0,0,1,27,35a2.69,2.69,0,0,1,.16-1,1,1,0,0,1,1.93.5l-.1.62A1,1,0,0,1,28,36Z"/><path d="M28.11,35.36a.85.85,0,0,1-.23,0,1,1,0,0,1-.76-1.13L28,28.84A1,1,0,0,1,29,28H39a3,3,0,0,1,3,3,3,3,0,0,1-3,3H30a.93.93,0,0,0-.69.29l-.1.11a.62.62,0,0,0-.15.27A1,1,0,0,1,28.11,35.36ZM29.85,30l-.34,2A2.63,2.63,0,0,1,30,32h9a.93.93,0,0,0,.69-.29A1,1,0,0,0,40,31a1,1,0,0,0-1-1Z"/></g></svg>