<svg xmlns="http://www.w3.org/2000/svg" viewBox="0 0 64 64"><title>folder</title><g id="folder"><path d="M51.5,60H12a8,8,0,0,1-8-8V26a1,1,0,0,1,1-1H18a1,1,0,0,1,.71.29L24.41,31H44a1,1,0,0,1,1,1V51.5a6.13,6.13,0,0,0,.76,3A6.46,6.46,0,0,0,51.5,58a1,1,0,0,1,0,2ZM6,27V52a6,6,0,0,0,6,6H46a8.47,8.47,0,0,1-2-2.54,8.33,8.33,0,0,1-1-4V33H24a1,1,0,0,1-.71-.29L17.59,27Z"/><path d="M52,60h-.5a1,1,0,0,1,0-2H52a1,1,0,0,1,0,2Z"/><path d="M59,14H49a1,1,0,0,1-1-1V10a6,6,0,1,1,12,0v3A1,1,0,0,1,59,14Zm-9-2h8V10a4,4,0,0,0-4-4,4,4,0,0,0-4,4Z"/><path d="M49,52H44a1,1,0,0,1-1-1V33H24a1,1,0,0,1-.71-.29L17.59,27H9a1,1,0,0,1-1-1V10a6,6,0,0,1,6-6H54a1,1,0,0,1,0,2,4,4,0,0,0-4,4V51A1,1,0,0,1,49,52Zm-4-2h3V10a6,6,0,0,1,1.53-4H14a4,4,0,0,0-4,4V25h8a1,1,0,0,1,.71.29L24.41,31H44a1,1,0,0,1,1,1Z"/><path d="M54,56H44.88a1,1,0,0,1-.88-.52,8.36,8.36,0,0,1-1-4V51a1,1,0,0,1,1-1h4V17a1,1,0,0,1,1-1h5a1,1,0,0,1,1,1V55A1,1,0,0,1,54,56Zm-8.5-2H53V18H50V51a1,1,0,0,1-1,1H45A6.17,6.17,0,0,0,45.5,54Z"/><path d="M51.5,60A8.46,8.46,0,0,1,44,55.46,1,1,0,0,1,44.88,54H53V26a1,1,0,0,1,1-1h5a1,1,0,0,1,1,1V51.5A8.46,8.46,0,0,1,51.79,60Zm-4.68-4a6.45,6.45,0,0,0,4.68,2h.15A6.48,6.48,0,0,0,58,51.5V27H55V55a1,1,0,0,1-1,1Z"/><path d="M43,13H25a1,1,0,0,1,0-2H43a1,1,0,0,1,0,2Z"/><path d="M43,18H25a1,1,0,0,1,0-2H43a1,1,0,0,1,0,2Z"/><path d="M43,23H25a1,1,0,0,1,0-2H43a1,1,0,0,1,0,2Z"/><path d="M43,28H25a1,1,0,0,1,0-2H43a1,1,0,0,1,0,2Z"/><path d="M17,21H15a1,1,0,0,1,0-2h2a1,1,0,0,0,0-2,3,3,0,0,1,0-6h2a1,1,0,0,1,0,2H17a1,1,0,0,0,0,2,3,3,0,0,1,0,6Z"/><path d="M17,13a1,1,0,0,1-1-1V10a1,1,0,0,1,2,0v2A1,1,0,0,1,17,13Z"/><path d="M17,23a1,1,0,0,1-1-1V20a1,1,0,0,1,2,0v2A1,1,0,0,1,17,23Z"/><path d="M32,49H16a5,5,0,0,1,0-10H32a5,5,0,0,1,0,10ZM16,41a3,3,0,0,0,0,6H32a3,3,0,0,0,0-6Z"/></g></svg>