<svg xmlns="http://www.w3.org/2000/svg" viewBox="0 0 64 64"><title>growth</title><g id="growth"><path d="M16,60H10a1,1,0,0,1-1-1V45a3,3,0,0,1,3-3h6a1,1,0,0,1,0,2,1,1,0,0,0-1,1V59A1,1,0,0,1,16,60Zm-5-2h4V45a3,3,0,0,1,.17-1H12a1,1,0,0,0-1,1Z"/><path d="M20,60H16a1,1,0,0,1-1-1V45a3,3,0,0,1,3-3,3,3,0,0,1,3,3V59A1,1,0,0,1,20,60Zm-3-2h2V45a.93.93,0,0,0-.29-.69A1,1,0,0,0,18,44a1,1,0,0,0-1,1Z"/><path d="M31,60H25a1,1,0,0,1-1-1V38a3,3,0,0,1,3-3h6a1,1,0,0,1,0,2,1,1,0,0,0-1,1V59A1,1,0,0,1,31,60Zm-5-2h4V38a3,3,0,0,1,.17-1H27a1,1,0,0,0-1,1Z"/><path d="M35,60H31a1,1,0,0,1-1-1V38a3,3,0,0,1,3-3,3,3,0,0,1,3,3V59A1,1,0,0,1,35,60Zm-3-2h2V38a.93.93,0,0,0-.29-.69A1,1,0,0,0,33,37a1,1,0,0,0-1,1Z"/><path d="M46,60H40a1,1,0,0,1-1-1V30a3,3,0,0,1,3-3h6a1,1,0,0,1,0,2,1,1,0,0,0-1,1V59A1,1,0,0,1,46,60Zm-5-2h4V30a3,3,0,0,1,.17-1H42a1,1,0,0,0-1,1Z"/><path d="M50,60H46a1,1,0,0,1-1-1V30a3,3,0,0,1,3-3,3,3,0,0,1,3,3V59A1,1,0,0,1,50,60Zm-3-2h2V30a.93.93,0,0,0-.29-.69A1,1,0,0,0,48,29a1,1,0,0,0-1,1Z"/><path d="M56,15a1,1,0,0,1-1-1V9H50a1,1,0,0,1,0-2h6a1,1,0,0,1,1,1v6A1,1,0,0,1,56,15Z"/><path d="M6.63,36H5a1,1,0,0,1,0-2H6.63A52.65,52.65,0,0,0,44.11,18.48L55.29,7.29a1,1,0,1,1,1.42,1.42L45.52,19.89A54.62,54.62,0,0,1,6.63,36Z"/><path d="M59,60H5a1,1,0,0,1-1-1V5A1,1,0,0,1,6,5V58H59a1,1,0,0,1,0,2Z"/></g></svg>