<svg xmlns="http://www.w3.org/2000/svg" viewBox="0 0 64 64"><title>hiring</title><g id="hiring"><path d="M26,48A22,22,0,0,1,26,4a20,20,0,0,1,2.1.11A21.87,21.87,0,0,1,48,26a22.11,22.11,0,0,1-4.94,13.91,23.29,23.29,0,0,1-3.14,3.14,21.91,21.91,0,0,1-11.8,4.85C27.46,48,26.74,48,26,48ZM26,6a20,20,0,0,0,0,40c.67,0,1.32,0,1.93-.09A19.93,19.93,0,0,0,38.65,41.5a21.47,21.47,0,0,0,2.86-2.86A20.08,20.08,0,0,0,46,26,19.88,19.88,0,0,0,27.91,6.1,16.82,16.82,0,0,0,26,6Z"/><path d="M26,44a18,18,0,1,1,11.65-4.28A18,18,0,0,1,26,44Zm0-34A16,16,0,1,0,42,26,16,16,0,0,0,26,10Z"/><path d="M54.5,59.74a5.26,5.26,0,0,1-3.71-1.53L41.7,49.12a3,3,0,0,1,0-4.24l3.18-3.18a3,3,0,0,1,4.24,0l9.09,9.09a5.24,5.24,0,0,1-3.71,9ZM47,42.83a1,1,0,0,0-.7.29L43.12,46.3a1,1,0,0,0,0,1.4l9.09,9.09a3.24,3.24,0,0,0,4.58-4.58L47.7,43.12A1,1,0,0,0,47,42.83Z"/><path d="M42.5,46.5a1,1,0,0,1-.71-.29L38.57,43a1,1,0,0,1-.29-.76,1,1,0,0,1,.36-.72,21.62,21.62,0,0,0,2.87-2.87,1,1,0,0,1,.72-.36,1,1,0,0,1,.76.29l3.22,3.22a1,1,0,0,1,0,1.42l-3,3A1,1,0,0,1,42.5,46.5Zm-1.75-4.17,1.75,1.76,1.59-1.59-1.76-1.75C41.83,41.3,41.3,41.83,40.75,42.33Z"/><path d="M26,29a8,8,0,1,1,8-8A8,8,0,0,1,26,29Zm0-14a6,6,0,1,0,6,6A6,6,0,0,0,26,15Z"/><path d="M26,44a18,18,0,0,1-11.65-4.28A1,1,0,0,1,14,39a12,12,0,0,1,24,0,1,1,0,0,1-.35.76A18,18,0,0,1,26,44ZM16,38.5a16,16,0,0,0,20,0,10,10,0,0,0-20,0Z"/><path d="M27,32H25a1,1,0,0,1,0-2h2a1,1,0,0,1,0,2Z"/><path d="M26,40a1,1,0,0,1-1-1V31a1,1,0,0,1,2,0v8A1,1,0,0,1,26,40Z"/></g></svg>