<svg xmlns="http://www.w3.org/2000/svg" viewBox="0 0 64 64"><title>hourglass</title><g id="hourglass"><path d="M46,9H11a4,4,0,1,1,0-8H46a4,4,0,1,1,0,8ZM11,3A2,2,0,0,0,9,5a2,2,0,0,0,2,2H46a2,2,0,0,0,2-2,2,2,0,0,0-2-2Z"/><path d="M53,9H46a1,1,0,0,1,0-2,2,2,0,0,0,2-2,2,2,0,0,0-2-2,1,1,0,0,1,0-2h7a4,4,0,1,1,0,8ZM49.46,7H53a2,2,0,0,0,2-2,2,2,0,0,0-2-2H49.46a4,4,0,0,1,0,4Z"/><path d="M46,63H11a4,4,0,1,1,0-8H46a4,4,0,1,1,0,8ZM11,57a2,2,0,0,0-2,2,2,2,0,0,0,2,2H46a2,2,0,0,0,2-2,2,2,0,0,0-2-2Z"/><path d="M53,63H46a1,1,0,0,1,0-2,2,2,0,0,0,2-2,2,2,0,0,0-2-2,1,1,0,0,1,0-2h7a4,4,0,1,1,0,8Zm-3.54-2H53a2,2,0,0,0,2-2,2,2,0,0,0-2-2H49.46a4,4,0,0,1,0,4Z"/><path d="M42.46,57H21.54a10.54,10.54,0,0,1-3.91-20.33l9.88-4a.77.77,0,0,0,0-1.44l-9.88-4A10.54,10.54,0,0,1,11.1,16.08,10.76,10.76,0,0,1,21.87,7H42.46a10.59,10.59,0,0,1,7.8,3.45A10.45,10.45,0,0,1,53,18.57a10.85,10.85,0,0,1-6.83,8.86l-9.63,3.85a.77.77,0,0,0,0,1.44l9.88,4A10.54,10.54,0,0,1,42.46,57ZM21.87,9a8.76,8.76,0,0,0-8.79,7.35,8.54,8.54,0,0,0,5.29,9.12l9.89,4a2.77,2.77,0,0,1,0,5.14l-9.89,4A8.54,8.54,0,0,0,21.54,55H42.46a8.54,8.54,0,0,0,3.17-16.47h0l-9.89-4a2.77,2.77,0,0,1,0-5.14l9.63-3.86A8.82,8.82,0,0,0,51,18.38a8.46,8.46,0,0,0-2.18-6.58A8.56,8.56,0,0,0,42.46,9Z"/><path d="M42.46,54H21.54a7.5,7.5,0,0,1-7.35-5.86A1,1,0,0,1,14.84,47l16.83-5.92a.94.94,0,0,1,.66,0L49.16,47a1,1,0,0,1,.65,1.16A7.5,7.5,0,0,1,42.46,54Zm-26-5.46A5.49,5.49,0,0,0,21.54,52H42.46a5.49,5.49,0,0,0,5.13-3.46L32,43.06Z"/><path d="M32,30.75a2,2,0,0,1-1.65-.87,3.76,3.76,0,0,0-1.72-1.38l-9.89-4A7.5,7.5,0,0,1,14,18.07,1,1,0,0,1,15,17H49a1,1,0,0,1,1,1.07,7.78,7.78,0,0,1-5,6.58L35.37,28.5a3.76,3.76,0,0,0-1.72,1.38l-.83-.56.83.56A2,2,0,0,1,32,30.75Zm0-2h0ZM16.2,19a5.46,5.46,0,0,0,3.28,3.68l9.89,4A5.74,5.74,0,0,1,32,28.75a5.74,5.74,0,0,1,2.63-2.11l9.63-3.85A6,6,0,0,0,47.8,19Z"/><path d="M49,19H15a1,1,0,0,1-1-1,1,1,0,0,1,1-1H49a1,1,0,0,1,1,1A1,1,0,0,1,49,19Z"/><circle cx="32" cy="33" r="1"/><circle cx="32" cy="36" r="1"/><circle cx="32" cy="39" r="1"/></g></svg>