<svg xmlns="http://www.w3.org/2000/svg" viewBox="0 0 64 64"><title>idea</title><g id="idea"><path d="M38,55H26a3,3,0,0,1,0-6H38a3,3,0,0,1,0,6ZM26,51a1,1,0,0,0,0,2H38a1,1,0,0,0,0-2Z"/><path d="M38,59H26a3,3,0,0,1,0-6H38a3,3,0,0,1,0,6ZM26,55a1,1,0,0,0,0,2H38a1,1,0,0,0,0-2Z"/><path d="M35,63H29a1,1,0,0,1-1-.76l-1-4a1,1,0,0,1,.18-.86A1,1,0,0,1,28,57h8a1,1,0,0,1,.79.38,1,1,0,0,1,.18.86l-1,4A1,1,0,0,1,35,63Zm-5.22-2h4.44l.5-2H29.28Z"/><path d="M28,32.91a1,1,0,0,1-.71-.3,2.63,2.63,0,0,0-3-.5,1,1,0,0,1-1.34-.44,1,1,0,0,1,.45-1.34,4.6,4.6,0,0,1,5.34.88,1,1,0,0,1-.71,1.7Z"/><path d="M32,27.91a1,1,0,0,1-.73-.31,2.32,2.32,0,0,0-2.81-.49,1,1,0,0,1-.92-1.78,4.33,4.33,0,0,1,5.19.89,1,1,0,0,1,0,1.42A1,1,0,0,1,32,27.91Z"/><path d="M32,27.91a1,1,0,0,1-.68-.27,1,1,0,0,1-.05-1.41,4.24,4.24,0,0,1,5.15-.89,1,1,0,0,1-.94,1.76,2.28,2.28,0,0,0-2.75.49A1,1,0,0,1,32,27.91Z"/><path d="M29.53,42a3.47,3.47,0,0,1-3.43-2.89A4.61,4.61,0,0,1,21.46,37a4.7,4.7,0,0,1,.2-5.25,6.11,6.11,0,0,1,1.7-11.67,5.24,5.24,0,0,1,1.86-4.6,5.3,5.3,0,0,1,7.12.46A2.29,2.29,0,0,1,33,17.53V38.36A3.6,3.6,0,0,1,29.88,42Zm-2.48-5.25a1,1,0,0,1,1,1v.75a1.51,1.51,0,0,0,.49,1.12,1.44,1.44,0,0,0,1.14.37A1.58,1.58,0,0,0,31,38.36V17.53a.3.3,0,0,0-.08-.2,3.21,3.21,0,0,0-5.38,3.31,1,1,0,0,1-.11.93,1,1,0,0,1-.82.43h-.34A4.24,4.24,0,0,0,20,25.63,4.12,4.12,0,0,0,21,28.79a4,4,0,0,0,2.85,1.43,1,1,0,0,1,.39,1.9,2.46,2.46,0,0,0-.58.39,2.73,2.73,0,0,0-.48,3.4,2.61,2.61,0,0,0,3.43,1A1,1,0,0,1,27.05,36.75Z"/><path d="M25.56,23.5a1,1,0,0,1-.71-.3,5,5,0,0,1-1.18-1.86,1,1,0,0,1,1.88-.68,3,3,0,0,0,.72,1.14,1,1,0,0,1,0,1.41A1,1,0,0,1,25.56,23.5Z"/><path d="M27.05,38.75a1,1,0,0,1-1-1V37a1,1,0,0,1,2,0v.75A1,1,0,0,1,27.05,38.75Z"/><path d="M36.05,32.91a1,1,0,0,1-.71-1.7,4.58,4.58,0,0,1,5.34-.88,1,1,0,0,1,.45,1.34,1,1,0,0,1-1.34.44,2.63,2.63,0,0,0-3,.5A1,1,0,0,1,36.05,32.91Z"/><path d="M34.47,42l-.35,0A3.6,3.6,0,0,1,31,38.36V17.53a2.29,2.29,0,0,1,.66-1.61,5.3,5.3,0,0,1,7.12-.46,5.24,5.24,0,0,1,1.86,4.6,6.11,6.11,0,0,1,1.7,11.67,4.72,4.72,0,0,1,.2,5.25,4.61,4.61,0,0,1-4.64,2.13A3.47,3.47,0,0,1,34.47,42Zm1.06-25.71a3.46,3.46,0,0,0-2.45,1,.3.3,0,0,0-.08.2V38.36A1.58,1.58,0,0,0,34.32,40a1.44,1.44,0,0,0,1.14-.37A1.51,1.51,0,0,0,36,38.5v-.75a1,1,0,0,1,.49-.86,1,1,0,0,1,1,0,2.61,2.61,0,0,0,3.43-1,2.73,2.73,0,0,0-.48-3.4,2.46,2.46,0,0,0-.58-.39,1,1,0,0,1,.39-1.9A4,4,0,0,0,43,28.79,4.12,4.12,0,0,0,44,25.63,4.24,4.24,0,0,0,39.73,22h-.34a1,1,0,0,1-.82-.43,1,1,0,0,1-.11-.93,3.27,3.27,0,0,0-1-3.65A3,3,0,0,0,35.53,16.29Z"/><path d="M38.44,23.5a1,1,0,0,1-.7-.29,1,1,0,0,1,0-1.41,3,3,0,0,0,.72-1.14,1,1,0,0,1,1.88.68,5,5,0,0,1-1.18,1.86A1,1,0,0,1,38.44,23.5Z"/><path d="M37,38.75a1,1,0,0,1-1-1V37a1,1,0,0,1,2,0v.75A1,1,0,0,1,37,38.75Z"/><path d="M37,51H27a4,4,0,0,1-4-4v-.33a7.64,7.64,0,0,0-2.93-5.91,19,19,0,1,1,23.87,0A7.64,7.64,0,0,0,41,46.68V47A4,4,0,0,1,37,51ZM32,9a16.37,16.37,0,0,0-2,.11,17,17,0,0,0-8.73,30.1A9.58,9.58,0,0,1,25,46.67V47a2,2,0,0,0,2,2H37a2,2,0,0,0,2-2v-.32a9.62,9.62,0,0,1,3.69-7.48,17,17,0,0,0,.64-25.87A16.76,16.76,0,0,0,32,9Z"/><path d="M10,27H8a1,1,0,0,1,0-2h2a1,1,0,0,1,0,2Z"/><path d="M56,27H54a1,1,0,0,1,0-2h2a1,1,0,0,1,0,2Z"/><path d="M11.22,39a1,1,0,0,1-.5-1.87l1.73-1a1,1,0,0,1,1,1.74l-1.73,1A1,1,0,0,1,11.22,39Z"/><path d="M51.05,16a1,1,0,0,1-.5-1.87l1.73-1a1,1,0,0,1,1,1.74l-1.73,1A1,1,0,0,1,51.05,16Z"/><path d="M18,47.78a1,1,0,0,1-.87-1.5l1-1.73a1,1,0,0,1,1.74,1l-1,1.73A1,1,0,0,1,18,47.78Z"/><path d="M43,8a1,1,0,0,1-.5-.14,1,1,0,0,1-.37-1.36l1-1.73a1,1,0,1,1,1.74,1l-1,1.73A1,1,0,0,1,43,8Z"/><path d="M52.78,39a1,1,0,0,1-.5-.13l-1.73-1a1,1,0,0,1,1-1.74l1.73,1a1,1,0,0,1-.5,1.87Z"/><path d="M13,16a1,1,0,0,1-.5-.13l-1.73-1a1,1,0,0,1,1-1.74l1.73,1A1,1,0,0,1,13,16Z"/><path d="M46,47.78a1,1,0,0,1-.87-.5l-1-1.73a1,1,0,0,1,1.74-1l1,1.73a1,1,0,0,1-.87,1.5Z"/><path d="M21,8a1,1,0,0,1-.87-.5l-1-1.73a1,1,0,1,1,1.74-1l1,1.73a1,1,0,0,1-.37,1.36A1,1,0,0,1,21,8Z"/><path d="M32,5a1,1,0,0,1-1-1V2a1,1,0,0,1,2,0V4A1,1,0,0,1,32,5Z"/></g></svg>