<svg xmlns="http://www.w3.org/2000/svg" viewBox="0 0 64 64"><title>inovation out of the box</title><g id="inovation_out_of_the_box" data-name="inovation out of the box"><path d="M43,60H8a1,1,0,0,1-1-1V37a1,1,0,0,1,1-1H43a1,1,0,0,1,1,1V59A1,1,0,0,1,43,60ZM9,58H42V38H9Z"/><path d="M56,60H43a1,1,0,0,1-1-1V37a1,1,0,0,1,1-1H56a1,1,0,0,1,1,1V59A1,1,0,0,1,56,60ZM44,58H55V38H44Z"/><path d="M56.69,38H41.56l3.55-9.45A4.59,4.59,0,0,1,49.24,26h8.07A2.7,2.7,0,0,1,60,28.69a2.75,2.75,0,0,1-.17.95ZM44.44,36H55.31L58,28.94a.71.71,0,0,0-.65-.94H49.24a2.6,2.6,0,0,0-2.32,1.4Z"/><path d="M22.44,38H7.31L4.17,29.64A2.75,2.75,0,0,1,4,28.69,2.7,2.7,0,0,1,6.69,26h8.07a4.59,4.59,0,0,1,4.13,2.55l.05.1ZM8.69,36H19.56l-2.48-6.6A2.6,2.6,0,0,0,14.76,28H6.69a.69.69,0,0,0-.69.69.61.61,0,0,0,0,.24Z"/><path d="M35,38H29a3,3,0,0,1-3-3v-.3a7,7,0,0,0-2.27-5A11.88,11.88,0,0,1,20.15,19.1,12,12,0,0,1,44,21a11.85,11.85,0,0,1-3.59,8.54A7.7,7.7,0,0,0,38,35,3,3,0,0,1,35,38ZM32,11a9.41,9.41,0,0,0-1.17.07,10.06,10.06,0,0,0-8.72,8.33,10,10,0,0,0,3,8.83A8.93,8.93,0,0,1,28,34.7V35a1,1,0,0,0,1,1h6a1,1,0,0,0,1-1,9.66,9.66,0,0,1,3-6.88A9.89,9.89,0,0,0,42,21a10,10,0,0,0-3.34-7.46A9.86,9.86,0,0,0,32,11Z"/><path d="M32,8a1,1,0,0,1-1-1V5a1,1,0,0,1,2,0V7A1,1,0,0,1,32,8Z"/><path d="M48,22H46a1,1,0,0,1,0-2h2a1,1,0,0,1,0,2Z"/><path d="M18,22H16a1,1,0,0,1,0-2h2a1,1,0,0,1,0,2Z"/><path d="M44.13,15a1,1,0,0,1-.87-.5,1,1,0,0,1,.36-1.37l1.74-1a1,1,0,0,1,1,1.74l-1.74,1A1,1,0,0,1,44.13,15Z"/><path d="M39,9.88a1,1,0,0,1-.5-.14,1,1,0,0,1-.37-1.36l1-1.74a1,1,0,0,1,1.74,1l-1,1.74A1,1,0,0,1,39,9.88Z"/><path d="M19.87,15a1,1,0,0,1-.49-.13l-1.74-1a1,1,0,0,1-.36-1.37,1,1,0,0,1,1.36-.37l1.74,1a1,1,0,0,1,.36,1.37A1,1,0,0,1,19.87,15Z"/><path d="M25,9.88a1,1,0,0,1-.87-.5l-1-1.74a1,1,0,0,1,1.74-1l1,1.74a1,1,0,0,1-.37,1.36A1,1,0,0,1,25,9.88Z"/><path d="M34,38a1,1,0,0,1-1-1V35.83a22,22,0,0,1,2.71-10.58l-1.21-1-2.5,2-2.5-2-1.21,1A22,22,0,0,1,31,35.83V37a1,1,0,0,1-2,0V35.83a20.09,20.09,0,0,0-2.86-10.32l-.45-.74,3.81-3.05,2.5,2,2.5-2,3.81,3-.45.75A20.09,20.09,0,0,0,35,35.83V37A1,1,0,0,1,34,38Z"/><path d="M20,43H13a1,1,0,0,1,0-2h7a1,1,0,0,1,0,2Z"/><path d="M20,47H13a1,1,0,0,1,0-2h7a1,1,0,0,1,0,2Z"/></g></svg>