<svg xmlns="http://www.w3.org/2000/svg" viewBox="0 0 64 64"><title>laptop</title><g id="laptop"><path d="M51,41H15a5,5,0,0,1-5-5V10a5,5,0,0,1,5-5H51a5,5,0,0,1,5,5V36a4.94,4.94,0,0,1-1.93,3.94A5,5,0,0,1,51,41ZM15,7a3,3,0,0,0-3,3V36a3,3,0,0,0,3,3H51a3,3,0,0,0,1.84-.64A3,3,0,0,0,54,36V10a3,3,0,0,0-3-3Z"/><path d="M51,37H15a1,1,0,0,1-1-1V10a1,1,0,0,1,1-1H51a1,1,0,0,1,1,1V36A1,1,0,0,1,51,37ZM16,35H50V11H16Z"/><path d="M53,60H11a7,7,0,0,1-7-7,1,1,0,0,1,1-1H24a1,1,0,0,1,.71.29l.7.71H38.59l.7-.71A1,1,0,0,1,40,52H59a1,1,0,0,1,1,1,7,7,0,0,1-7,7ZM6.1,54A5,5,0,0,0,11,58H53a5,5,0,0,0,4.9-4H40.41l-.7.71A1,1,0,0,1,39,55H25a1,1,0,0,1-.71-.29l-.7-.71Z"/><path d="M59,54H40a1,1,0,0,1-1-.76L38.22,50H25.78L25,53.24A1,1,0,0,1,24,54H5a1,1,0,0,1-.88-1.47L9.63,42.2A6,6,0,0,1,14.94,39H51a5,5,0,0,1,4.65,3l4.25,10.65a1,1,0,0,1-.1.93A1,1,0,0,1,59,54ZM40.78,52H57.52l-3.7-9.27A2.92,2.92,0,0,0,51.06,41H15a4,4,0,0,0-3.56,2.14L6.67,52H23.22L24,48.76A1,1,0,0,1,25,48H39a1,1,0,0,1,1,.76Z"/></g></svg>