<svg xmlns="http://www.w3.org/2000/svg" viewBox="0 0 64 64"><title>launching</title><g id="launching"><path d="M56,60H53a5,5,0,0,1-5-5,3,3,0,0,1,3-3h8a1,1,0,0,1,1,1v3A4,4,0,0,1,56,60Zm-5-6a.93.93,0,0,0-.69.29A1,1,0,0,0,50,55a3,3,0,0,0,3,3h3a2,2,0,0,0,2-2V54Z"/><path d="M59,54H55a1,1,0,0,1-1-1V25a3,3,0,0,0-3-3,1,1,0,0,1,0-2h4a5,5,0,0,1,5,5V53A1,1,0,0,1,59,54Zm-3-2h2V25a3,3,0,0,0-3-3h0a5,5,0,0,1,1,3Z"/><path d="M53,60H9a5,5,0,0,1-5-5,3,3,0,0,1,3-3H22a1,1,0,0,1,.71.29l.7.71h8.18l.7-.71A1,1,0,0,1,33,52H51a1,1,0,0,1,0,2,.93.93,0,0,0-.69.29A1,1,0,0,0,50,55a3,3,0,0,0,3,3,1,1,0,0,1,0,2ZM7,54a.93.93,0,0,0-.69.29A1,1,0,0,0,6,55a3,3,0,0,0,3,3H49a5,5,0,0,1-1-3,3,3,0,0,1,.17-1H33.41l-.7.71A1,1,0,0,1,32,55H23a1,1,0,0,1-.71-.29l-.7-.71Z"/><path d="M15,49.19a1,1,0,0,1-1-.84A1.9,1.9,0,0,1,14,48V26a2,2,0,0,1,2-2h4.44a1,1,0,0,1,.89,1.46A12.16,12.16,0,0,0,20,30H46a12.16,12.16,0,0,0-1.29-4.54A1,1,0,0,1,45.56,24H50a2,2,0,0,1,2,2V48a1.51,1.51,0,0,1,0,.32,1,1,0,0,1-1,.85h0a1,1,0,0,1-1-.86A1.51,1.51,0,0,0,48.5,47a1.44,1.44,0,0,0-1,.35,1,1,0,0,1-.95.21,1,1,0,0,1-.68-.7A2.49,2.49,0,0,0,43.5,45a2.34,2.34,0,0,0-1.09.26A1,1,0,0,1,41,44.49,4,4,0,0,0,37,41a3.84,3.84,0,0,0-.79.08,1,1,0,0,1-1.21-1V36H31v4.1a1,1,0,0,1-1.21,1A3.84,3.84,0,0,0,29,41a4,4,0,0,0-4,3.49,1,1,0,0,1-1.45.77A2.34,2.34,0,0,0,22.5,45a2.49,2.49,0,0,0-2.41,1.86,1,1,0,0,1-.68.7,1,1,0,0,1-.95-.21,1.44,1.44,0,0,0-1-.35A1.49,1.49,0,0,0,16,48.31a1,1,0,0,1-1,.88ZM16,26V45.34a3.59,3.59,0,0,1,2.64-.15,4.46,4.46,0,0,1,4.68-2.11A6,6,0,0,1,29,39V35a1,1,0,0,1,1-1h6a1,1,0,0,1,1,1v4a6,6,0,0,1,5.68,4.08,4.46,4.46,0,0,1,4.68,2.11,3.57,3.57,0,0,1,2.63.15V26H47.09A14.19,14.19,0,0,1,48,31a1,1,0,0,1-1,1H19a1,1,0,0,1-1-1,14.19,14.19,0,0,1,.91-5Zm34,0h0Z"/><path d="M50,50H16a2,2,0,0,1-2-1.61,1.11,1.11,0,0,1,0-.19.57.57,0,0,1,0-.13A3.49,3.49,0,0,1,17.5,45a3.37,3.37,0,0,1,1.14.19,4.46,4.46,0,0,1,4.68-2.11A6,6,0,0,1,29,39V35a1,1,0,0,1,1-1h6a1,1,0,0,1,1,1v4a6,6,0,0,1,5.68,4.08,4.46,4.46,0,0,1,4.68,2.11A3.37,3.37,0,0,1,48.5,45a3.5,3.5,0,0,1,3.47,3,.57.57,0,0,1,0,.13v0a1.11,1.11,0,0,1,0,.19A2,2,0,0,1,50,50ZM17.5,47a1.51,1.51,0,0,0-1.42,1H49.92a1.51,1.51,0,0,0-1.42-1,1.44,1.44,0,0,0-1,.35,1,1,0,0,1-.95.21,1,1,0,0,1-.68-.7A2.49,2.49,0,0,0,43.5,45a2.34,2.34,0,0,0-1.09.26A1,1,0,0,1,41,44.49,4,4,0,0,0,37,41a3.84,3.84,0,0,0-.79.08,1,1,0,0,1-1.21-1V36H31v4.1a1,1,0,0,1-1.21,1A3.84,3.84,0,0,0,29,41a4,4,0,0,0-4,3.49,1,1,0,0,1-1.45.77A2.34,2.34,0,0,0,22.5,45a2.49,2.49,0,0,0-2.41,1.86,1,1,0,0,1-.68.7,1,1,0,0,1-.95-.21A1.44,1.44,0,0,0,17.5,47Z"/><path d="M32,55H23a1,1,0,0,1-.71-.29l-.7-.71H11a1,1,0,0,1-1-1V25a5,5,0,0,1,5-5h8.38a1,1,0,0,1,.75,1.66L23,22.9a11.39,11.39,0,0,0-1.7,2.54A12.19,12.19,0,0,0,20,30H46a12.16,12.16,0,0,0-1.29-4.54A11.44,11.44,0,0,0,43,22.9l-1.08-1.24A1,1,0,0,1,42.63,20H51a5,5,0,0,1,5,5V53a1,1,0,0,1-1,1H33.41l-.7.71A1,1,0,0,1,32,55Zm-8.59-2h8.18l.7-.71A1,1,0,0,1,33,52H54V25a3,3,0,0,0-3-3H44.82a14.49,14.49,0,0,1,1.64,2.56A14.31,14.31,0,0,1,48,31a1,1,0,0,1-1,1H19a1,1,0,0,1-1-1,14.33,14.33,0,0,1,1.55-6.46A13.88,13.88,0,0,1,21.18,22H15a3,3,0,0,0-3,3V52H22a1,1,0,0,1,.71.29ZM50,50H16a2,2,0,0,1-2-1.61,1.11,1.11,0,0,1,0-.19.57.57,0,0,1,0-.13A3.49,3.49,0,0,1,17.5,45a3.37,3.37,0,0,1,1.14.19,4.46,4.46,0,0,1,4.68-2.11A6,6,0,0,1,29,39V35a1,1,0,0,1,1-1h6a1,1,0,0,1,1,1v4a6,6,0,0,1,5.68,4.08,4.46,4.46,0,0,1,4.68,2.11A3.37,3.37,0,0,1,48.5,45a3.5,3.5,0,0,1,3.47,3,.57.57,0,0,1,0,.13,1.36,1.36,0,0,1,0,.21A2,2,0,0,1,50,50Zm1-1.8h0ZM17.5,47a1.51,1.51,0,0,0-1.42,1H49.92a1.51,1.51,0,0,0-1.42-1,1.44,1.44,0,0,0-1,.35,1,1,0,0,1-.95.21,1,1,0,0,1-.68-.7A2.49,2.49,0,0,0,43.5,45a2.34,2.34,0,0,0-1.09.26A1,1,0,0,1,41,44.49,4,4,0,0,0,37,41a3.84,3.84,0,0,0-.79.08,1,1,0,0,1-1.21-1V36H31v4.1a1,1,0,0,1-1.21,1A3.84,3.84,0,0,0,29,41a4,4,0,0,0-4,3.49,1,1,0,0,1-1.45.77A2.34,2.34,0,0,0,22.5,45a2.49,2.49,0,0,0-2.41,1.86,1,1,0,0,1-.68.7,1,1,0,0,1-.95-.21A1.44,1.44,0,0,0,17.5,47Z"/><path d="M38,32H28a3,3,0,0,1-3-3V15.62A12.57,12.57,0,0,1,32.61,4.08a1,1,0,0,1,.78,0,12.36,12.36,0,0,1,5.33,4.34,2.84,2.84,0,0,1,.2.29A12.51,12.51,0,0,1,41,15.62V29A3,3,0,0,1,38,32ZM33,6.1a10.58,10.58,0,0,0-6,9.52V29a1,1,0,0,0,1,1H38a1,1,0,0,0,1-1V15.62a10.46,10.46,0,0,0-1.75-5.81c0-.07-.09-.14-.14-.21A10.43,10.43,0,0,0,33,6.1Z"/><path d="M47,32H38a1,1,0,0,1,0-2,1,1,0,0,0,1-1V18a1,1,0,0,1,1.75-.66l3.71,4.24a14,14,0,0,1,2,3A14.31,14.31,0,0,1,48,31,1,1,0,0,1,47,32Zm-6.17-2H46a12.16,12.16,0,0,0-1.29-4.54A11.44,11.44,0,0,0,43,22.9l-2-2.24V29A3,3,0,0,1,40.83,30Z"/><path d="M28,32H19a1,1,0,0,1-1-1,14.33,14.33,0,0,1,1.55-6.46,14,14,0,0,1,2-3l3.71-4.24A1,1,0,0,1,27,18V29a1,1,0,0,0,1,1,1,1,0,0,1,0,2Zm-8-2h5.13A3,3,0,0,1,25,29V20.67L23,22.9a11.39,11.39,0,0,0-1.7,2.54A12.19,12.19,0,0,0,20,30Z"/><path d="M33,12a7.9,7.9,0,0,1-5.6-2.3,1,1,0,0,1-.12-1.28,12.36,12.36,0,0,1,5.33-4.34,1,1,0,0,1,.78,0,12.36,12.36,0,0,1,5.33,4.34A1,1,0,0,1,38.6,9.7,7.9,7.9,0,0,1,33,12ZM29.46,8.85a6.17,6.17,0,0,0,7.08,0A10.46,10.46,0,0,0,33,6.1,10.46,10.46,0,0,0,29.46,8.85Z"/><path d="M37,36H29a1,1,0,0,1-1-.76l-1-4a1,1,0,0,1,.18-.86A1,1,0,0,1,28,30H38a1,1,0,0,1,.79.38,1,1,0,0,1,.18.86l-1,4A1,1,0,0,1,37,36Zm-7.22-2h6.44l.5-2H29.28Z"/><path d="M30,46a1,1,0,0,1-1-1V40.1a1,1,0,1,1,2,0V45A1,1,0,0,1,30,46Z"/><path d="M36,46a1,1,0,0,1-1-1V40.1a1,1,0,1,1,2,0V45A1,1,0,0,1,36,46Z"/><path d="M24,46a1,1,0,0,1-1-1,4.37,4.37,0,0,1,.07-.82,1,1,0,0,1,2,.38A2.17,2.17,0,0,0,25,45,1,1,0,0,1,24,46Z"/><path d="M42,46a1,1,0,0,1-1-1,2.17,2.17,0,0,0,0-.44,1,1,0,1,1,2-.38A4.37,4.37,0,0,1,43,45,1,1,0,0,1,42,46Z"/><path d="M33,26a4,4,0,1,1,4-4A4,4,0,0,1,33,26Zm0-6a2,2,0,1,0,2,2A2,2,0,0,0,33,20Z"/></g></svg>