<svg xmlns="http://www.w3.org/2000/svg" viewBox="0 0 64 64"><title>letter</title><g id="letter"><path d="M32,47.2a4.91,4.91,0,0,1-2.77-.85L14.45,36.5a1,1,0,0,1-.45-.83V10a6,6,0,0,1,6-6H54a1,1,0,0,1,0,2,4,4,0,0,0-4,4V35.67a1,1,0,0,1-.45.83L34.77,46.35A4.91,4.91,0,0,1,32,47.2ZM16,35.13l14.34,9.56a3,3,0,0,0,3.32,0L48,35.13V10a6,6,0,0,1,1.53-4H20a4,4,0,0,0-4,4Z"/><path d="M59,14H49a1,1,0,0,1-1-1V10a6,6,0,0,1,12,0v3A1,1,0,0,1,59,14Zm-9-2h8V10a4,4,0,0,0-8,0Z"/><path d="M55,60H9a5,5,0,0,1-5-5V27.5a1,1,0,0,1,2,0A1.8,1.8,0,0,0,6.81,29L30.33,44.69a3,3,0,0,0,3.34,0L57.2,29a1.82,1.82,0,0,0,.8-1.5,1,1,0,0,1,2,0V55A5,5,0,0,1,55,60ZM6,30.87V55a3,3,0,0,0,3,3H55a3,3,0,0,0,3-3V30.87L34.77,46.35a5,5,0,0,1-5.54,0Z"/><path d="M15,36.67a1,1,0,0,1-.56-.17L5.69,30.66a3.8,3.8,0,0,1,0-6.32l8.75-5.84a1,1,0,0,1,1-.05,1,1,0,0,1,.53.88V35.67a1,1,0,0,1-.53.88A1,1,0,0,1,15,36.67ZM14,21.2,6.81,26a1.79,1.79,0,0,0,0,3L14,33.8Z"/><path d="M49,36.67a1,1,0,0,1-.47-.12,1,1,0,0,1-.53-.88V19.33a1,1,0,0,1,.53-.88,1,1,0,0,1,1,.05l8.75,5.84a3.79,3.79,0,0,1,0,6.32L49.55,36.5A1,1,0,0,1,49,36.67ZM50,21.2V33.8L57.2,29a1.81,1.81,0,0,0,0-3Z"/><path d="M43,20H21a1,1,0,0,1-1-1V12a1,1,0,0,1,1-1H43a1,1,0,0,1,1,1v7A1,1,0,0,1,43,20ZM22,18H42V13H22Z"/><path d="M42,25H22a1,1,0,0,1,0-2H42a1,1,0,0,1,0,2Z"/><path d="M42,30H22a1,1,0,0,1,0-2H42a1,1,0,0,1,0,2Z"/><path d="M42,35H22a1,1,0,0,1,0-2H42a1,1,0,0,1,0,2Z"/></g></svg>