<svg xmlns="http://www.w3.org/2000/svg" viewBox="0 0 64 64"><title>lifebuoy</title><g id="lifebuoy"><path d="M32,57a25,25,0,0,1-5.21-.55,24.36,24.36,0,0,1-5.56-1.9c-.58-.27-1.14-.57-1.73-.9l-.16-.1c-.36-.2-.72-.43-1.08-.67l-.17-.11-.76-.53a20.77,20.77,0,0,1-1.91-1.54c-.17-.14-.38-.32-.57-.51s-.53-.5-.78-.78-.43-.44-.64-.68l-.59-.68c-.4-.47-.8-1-1.17-1.51-.22-.3-.43-.61-.62-.91a2.92,2.92,0,0,1-.27-.44,20.07,20.07,0,0,1-1.33-2.42,24.28,24.28,0,0,1-1.9-5.57,24.9,24.9,0,0,1,0-10.41,24.36,24.36,0,0,1,1.9-5.56c.14-.29.28-.58.44-.86s.16-.32.26-.5c.2-.38.42-.75.67-1.13s.32-.51.5-.78.35-.51.54-.77c.33-.44.67-.87,1-1.31.22-.26.43-.5.65-.74l.12-.13.66-.69c.49-.49,1-1,1.61-1.47.26-.21.49-.41.74-.6L17,12l.34-.25.33-.23.76-.52c.31-.2.62-.39.94-.57l.12-.07c.61-.35,1.17-.65,1.75-.92a24.28,24.28,0,0,1,5.57-1.9A23.82,23.82,0,0,1,33.19,7l.41,0,.6,0a5.35,5.35,0,0,1,.59.06L36,7.31l1.26.24a24.45,24.45,0,0,1,5.55,1.9c.58.27,1.14.57,1.73.9l.16.1c.3.17.61.36.9.55l.78.53.35.24L47,12l.28.21c.29.22.52.42.77.62.6.51,1.13,1,1.62,1.48l.66.69.12.13c.24.26.44.49.64.73.37.45.71.88,1,1.32.19.26.38.52.55.79s.35.52.52.8.44.71.65,1.11l.29.53c.12.23.26.52.4.81a24.2,24.2,0,0,1,1.9,5.56,25,25,0,0,1,0,10.42,24.36,24.36,0,0,1-1.9,5.56c-.14.29-.28.58-.44.86a2.63,2.63,0,0,1-.21.4c-.21.4-.46.82-.72,1.23a2.78,2.78,0,0,1-.28.44,3.36,3.36,0,0,1-.25.38c-.06.1-.16.24-.26.38l-.17.25a25.21,25.21,0,0,1-7.72,6.94c-.59.33-1.15.63-1.73.9a24.28,24.28,0,0,1-5.57,1.9,23.55,23.55,0,0,1-3.62.5C33.06,57,32.53,57,32,57ZM19.35,51.2c.33.22.66.43,1,.62l.18.11c.52.29,1,.57,1.57.82a22,22,0,0,0,5.11,1.74,23.06,23.06,0,0,0,6.26.46,21.07,21.07,0,0,0,3.32-.46,21.87,21.87,0,0,0,5.13-1.74c.53-.25,1.05-.53,1.59-.84a23.12,23.12,0,0,0,7.08-6.35l.17-.24c.09-.13.18-.26.26-.39s.17-.25.24-.35.16-.25.21-.33c.28-.44.49-.82.7-1.2a2.55,2.55,0,0,0,.17-.32c.18-.32.3-.57.42-.82a22,22,0,0,0,1.74-5.11,22.8,22.8,0,0,0,0-9.59h0a22,22,0,0,0-1.74-5.11c-.12-.25-.24-.5-.38-.76s-.18-.34-.26-.48c-.2-.36-.4-.69-.61-1s-.32-.51-.48-.74-.31-.47-.48-.69c-.31-.42-.63-.82-1-1.23-.2-.24-.42-.48-.64-.72l-.1-.12c-.19-.2-.37-.39-.57-.58-.45-.45-.94-.9-1.49-1.37-.22-.19-.45-.37-.68-.55l-.28-.22-.3-.22-.3-.2-.75-.51c-.25-.16-.52-.33-.8-.49l-.18-.11c-.52-.29-1-.57-1.57-.82A22,22,0,0,0,36.8,9.51c-.4-.09-.79-.16-1.17-.22s-.69-.11-1.05-.15l-.48,0-.62,0-.34,0L32,9a22.38,22.38,0,0,0-4.79.51,22,22,0,0,0-5.12,1.74c-.53.25-1.05.53-1.59.84l-.14.08c-.3.17-.57.34-.84.51l-.73.5-.28.19-.32.23-.32.24-.65.54c-.54.46-1,.91-1.48,1.36l-.53.54v0l-.17.18c-.18.2-.4.44-.61.69s-.65.8-1,1.22c-.17.22-.32.44-.47.67s-.33.48-.46.72-.44.71-.63,1c-.09.16-.17.3-.24.45-.17.31-.29.56-.41.81A22,22,0,0,0,9.51,27.2a22.8,22.8,0,0,0,0,9.59,22,22,0,0,0,1.74,5.12,21.21,21.21,0,0,0,1.25,2.27c.09.15.14.24.2.32.22.34.41.62.59.88.35.48.71.95,1.08,1.38.19.23.37.44.56.65s.38.42.58.62.49.49.73.72.33.31.49.44a22.19,22.19,0,0,0,1.77,1.43l.75.51Z"/><path d="M29.31,22.33a1,1,0,0,1-1-.63,1,1,0,0,1,.47-1.25,1.37,1.37,0,0,1,.36-.12,2.69,2.69,0,0,1,.36-.06,1,1,0,0,1,1.1.88.41.41,0,0,1,0,.11,1,1,0,0,1-.89,1l-.12,0-.11,0A.82.82,0,0,1,29.31,22.33Z"/><path d="M33.51,43.89a.65.65,0,0,1-.2,0,12,12,0,0,1,0-23.74.92.92,0,0,1,.37,0l.16,0,.27.05a6.31,6.31,0,0,1,.73.15l.2.05.39.11.2.06h0l.06,0a4.24,4.24,0,0,1,.5.18,5.5,5.5,0,0,1,.65.26,5.9,5.9,0,0,1,.63.3,4.83,4.83,0,0,1,.44.23l.11.07.12.07a5.16,5.16,0,0,1,.46.29l0,0,.25.17a8.58,8.58,0,0,1,.84.65,2.84,2.84,0,0,1,.31.26l.21.19.39.4a1,1,0,0,1,.18.18l0,0,.15.17.13.16,0,0c.12.13.22.26.32.39l.11.15a.7.7,0,0,1,.13.18.64.64,0,0,1,.1.13c.06.09.12.17.17.26s.25.38.36.57A10.56,10.56,0,0,1,43,27.18c.09.2.18.42.26.65l0,.11a1.15,1.15,0,0,1,.06.17c0,.13.09.25.13.38a5.29,5.29,0,0,1,.15.57,1.68,1.68,0,0,1,.06.23,2.32,2.32,0,0,1,.06.27c0,.12.06.31.09.51v0h0a2,2,0,0,1,.06.34,6.68,6.68,0,0,1,.07.77c0,.24,0,.51,0,.8s0,.56,0,.84a6.47,6.47,0,0,1-.07.72v0s0,.1,0,.15,0,.12,0,.17h0v0a5.4,5.4,0,0,1-.11.58.92.92,0,0,1,0,.2c0,.11,0,.22-.08.33a3.14,3.14,0,0,1-.14.47h0a1.9,1.9,0,0,1-.09.29h0l0,.1s0,.12-.05.14l0,.11c-.09.24-.18.46-.28.68a10.62,10.62,0,0,1-.64,1.25c-.1.18-.22.36-.35.55a2.33,2.33,0,0,1-.17.26.64.64,0,0,1-.1.13.7.7,0,0,1-.13.18l-.17.22a3,3,0,0,1-.26.32v0l-.13.15-.16.18-.21.21a6.05,6.05,0,0,1-.44.44A1.74,1.74,0,0,1,40,41a1.77,1.77,0,0,1-.3.25,7.76,7.76,0,0,1-.79.61l-.19.13-.17.12-.48.29-.13.08c-.16.09-.32.18-.48.25a5.8,5.8,0,0,1-.61.29,5.19,5.19,0,0,1-.59.24.73.73,0,0,1-.19.07l-.09,0h0a1.21,1.21,0,0,1-.25.08l-.1,0h0l-.21.06-.34.1-.22.06-.3.06-.26.06-.12,0-.16,0a.84.84,0,0,1-.18,0l-.12,0Zm0-21.77a10,10,0,0,0,0,19.76l.09,0,.18,0,.14,0a.53.53,0,0,1,.18,0l.25-.06h0l.13,0,.28-.08.19-.05h0l.11,0,.08,0,.07,0,.1,0,.05,0,.09,0a4.5,4.5,0,0,0,.51-.2l.51-.24.39-.21.09-.05.42-.26,0,0,.12-.08.12-.08a7.58,7.58,0,0,0,.68-.52l.21-.18.21-.19c.16-.14.28-.27.4-.39l.19-.2,0,0h0l0,0,.11-.12a1.24,1.24,0,0,1,.18-.22.44.44,0,0,0,.08-.11A1.13,1.13,0,0,0,40,38l0,0,.1-.14a.21.21,0,0,1,0-.06.77.77,0,0,0,.09-.13l.06-.1c.1-.14.19-.28.28-.43A8.12,8.12,0,0,0,41.15,36a5.47,5.47,0,0,0,.22-.53l.06-.18a1.62,1.62,0,0,1,.06-.17v0l0-.11c0-.05,0-.1,0-.14l0,0a2.29,2.29,0,0,0,.08-.28c0-.17.06-.24.07-.3a1.05,1.05,0,0,1,0-.19c0-.15.05-.29.07-.43a.47.47,0,0,1,0-.17h0a.78.78,0,0,1,0-.22c0-.18,0-.35,0-.53s0-.49,0-.72,0-.46,0-.68,0-.43,0-.61,0-.1,0-.14v0a.47.47,0,0,1,0-.17c0-.14,0-.28-.07-.41a.43.43,0,0,1,0-.11.17.17,0,0,1,0-.1,1.94,1.94,0,0,0-.05-.2,2.69,2.69,0,0,0-.1-.38s0,0,0-.06a.83.83,0,0,1,0-.15.49.49,0,0,0,0-.11l-.05-.16-.08-.2a4,4,0,0,0-.2-.5,8.06,8.06,0,0,0-.54-1.05c-.1-.17-.19-.31-.29-.45l-.06-.1-.08-.12,0-.07a.71.71,0,0,1-.1-.14l0,0a1.71,1.71,0,0,0-.11-.14,1.5,1.5,0,0,0-.17-.21,1.2,1.2,0,0,1-.17-.21l-.09-.1,0,0-.09-.09-.05-.06-.08-.08-.37-.37-.18-.16-.22-.19c-.26-.22-.48-.39-.71-.55l-.14-.09-.09-.06,0,0c-.12-.08-.24-.16-.37-.23L37,23.32l-.41-.22c-.2-.1-.36-.18-.53-.25a4.48,4.48,0,0,0-.53-.21,3.16,3.16,0,0,0-.46-.16h0l-.07,0-.08,0-.11,0-.28-.08-.13,0c-.2,0-.38-.09-.55-.11l-.11,0-.14,0Zm.78,19.63Zm5.1-3Zm.69-.85Zm.09-.14Zm2.73-4.33h0Zm-2.73-7.19Zm-.09-.14Zm-.63-.76Zm-.1-.13Zm-.11-.11,0,0A.07.07,0,0,1,39.25,25.1Zm-5-2.85Z"/><path d="M51.35,60.34A9,9,0,0,1,45,57.71l-2.45-2.45a1,1,0,0,1,.37-1.65,23,23,0,0,0,11.84-9.83,1,1,0,0,1,.74-.48,1,1,0,0,1,.83.28l1.4,1.4a9,9,0,0,1-6.36,15.36ZM45,54.91l1.38,1.38a7,7,0,1,0,9.89-9.89l-.51-.52A25,25,0,0,1,45,54.91Z"/><path d="M10.35,22.66a1,1,0,0,1-.71-.29L6.29,19A9,9,0,0,1,19,6.29l3.35,3.35a1,1,0,0,1-.28,1.61c-.53.25-1.05.53-1.59.84l-.14.08c-.3.17-.57.34-.84.51l-.73.5-.28.19-.32.23-.32.24-.65.54c-.54.46-1,.91-1.48,1.36l-.62.63-.09.11c-.18.2-.4.44-.61.69s-.65.8-1,1.22c-.17.22-.32.44-.47.67s-.33.48-.46.72-.44.71-.63,1c-.09.16-.17.3-.24.45-.17.31-.29.56-.41.81a1,1,0,0,1-.73.56Zm2.31-17A7,7,0,0,0,7.71,17.6L10.09,20l.06-.11c.2-.38.42-.75.67-1.13s.32-.51.5-.78.35-.51.54-.77c.33-.44.67-.87,1-1.31.23-.27.46-.53.7-.79a.27.27,0,0,1,.07-.08l.66-.69c.49-.49,1-1,1.61-1.47.26-.21.49-.41.74-.6L17,12l.34-.25.33-.23.76-.52c.31-.2.62-.39.94-.57l.12-.07.5-.29L17.6,7.71A6.94,6.94,0,0,0,12.66,5.66Z"/><path d="M12.66,60.34A9,9,0,0,1,6.29,45l3.35-3.35a1,1,0,0,1,1.61.28,21.21,21.21,0,0,0,1.25,2.27c.09.15.14.24.2.32.22.34.41.62.59.88.35.48.71.95,1.08,1.38.19.24.38.45.56.65s.38.42.58.62.49.49.73.72.33.31.49.44a22.19,22.19,0,0,0,1.77,1.43l.75.51,0,0,0,0c.34.22.68.44,1,.64l.18.11c.52.29,1,.57,1.57.82a1,1,0,0,1,.28,1.61L19,57.71A9,9,0,0,1,12.66,60.34ZM10.08,44,7.71,46.4a7,7,0,1,0,9.89,9.89L20,53.92l-.48-.27-.16-.1c-.37-.21-.75-.45-1.13-.71h0l-.06,0h0c-.27-.18-.55-.37-.82-.57a20.77,20.77,0,0,1-1.91-1.54c-.17-.14-.38-.32-.57-.51s-.53-.5-.78-.78-.43-.44-.64-.68-.41-.45-.61-.7c-.38-.45-.78-1-1.15-1.49-.22-.3-.43-.61-.62-.91a2.92,2.92,0,0,1-.27-.44C10.54,44.83,10.31,44.44,10.08,44Z"/><path d="M55.6,20.71h-.12a1,1,0,0,1-.74-.48A23,23,0,0,0,42.9,10.39a1,1,0,0,1-.37-1.65L45,6.29A9,9,0,0,1,57.71,19l-1.4,1.4A1,1,0,0,1,55.6,20.71ZM45,9.09a25,25,0,0,1,10.76,9l.51-.52h0A7,7,0,1,0,46.4,7.71Z"/><path d="M32,44l-.71,0-.53,0a5.87,5.87,0,0,1-.6-.07h0l-.09,0H30l-.14,0-.12,0-.1,0a.54.54,0,0,1-.17,0l-.36-.07-.11,0a3.74,3.74,0,0,1-.45-.12l-.07,0h0l-.19,0a1.13,1.13,0,0,1-.24-.08l-.16-.05a.93.93,0,0,1-.2-.08c-.18-.07-.36-.14-.55-.23a5.9,5.9,0,0,1-.63-.3,4.83,4.83,0,0,1-.44-.23l-.1-.06-.51-.31L25.31,42l-.19-.13a8.58,8.58,0,0,1-.84-.65,2,2,0,0,1-.31-.26l-.21-.19c-.14-.14-.3-.29-.44-.45a2.76,2.76,0,0,1-.23-.24h0a.6.6,0,0,1-.1-.11l-.13-.16,0,0c-.12-.13-.22-.26-.32-.39l-.11-.15a1.29,1.29,0,0,1-.15-.2l-.05-.07c-.07-.1-.14-.2-.2-.3s-.25-.38-.36-.57-.23-.4-.34-.61-.21-.43-.3-.64-.18-.42-.26-.65a2.74,2.74,0,0,1-.13-.38,1.15,1.15,0,0,1-.09-.28,4.91,4.91,0,0,1-.15-.51,4.19,4.19,0,0,1-.11-.51,4.51,4.51,0,0,1-.11-.59v0h0a.94.94,0,0,1,0-.2.3.3,0,0,1,0-.1A6.31,6.31,0,0,1,20,32.8c0-.24,0-.51,0-.8s0-.56,0-.84,0-.47.07-.72q0-.12,0-.21a7.73,7.73,0,0,1,.16-.81,2.48,2.48,0,0,1,.09-.42,4.91,4.91,0,0,1,.15-.51,2.45,2.45,0,0,1,.08-.29l.15-.41c.07-.19.16-.41.26-.63s.18-.41.29-.62l.34-.62c.11-.18.23-.37.36-.56l.2-.3.05-.07a1.29,1.29,0,0,1,.15-.2l.17-.22a3,3,0,0,1,.26-.32v0l.13-.15.22-.23a1.37,1.37,0,0,1,.16-.18c.13-.14.28-.28.43-.42A1.74,1.74,0,0,1,24,23a2.42,2.42,0,0,1,.3-.25,7.76,7.76,0,0,1,.79-.61l.24-.17.05,0,.45-.29.12-.07.11-.07c.16-.09.32-.18.48-.25a5.8,5.8,0,0,1,.61-.29,6.29,6.29,0,0,1,.65-.26,4,4,0,0,1,.49-.17l.05,0h0l.2-.06a3.45,3.45,0,0,1,.46-.12l.17,0,.26-.06h0a.59.59,0,0,1,.17,0l.13,0h0l.38-.07c.17,0,.39-.06.61-.07l.42,0c.54,0,1,0,1.46,0l.53.05.39,0h0a1.11,1.11,0,0,1,.61.33,1,1,0,0,1,.2,1,1,1,0,0,1-.81.65,10,10,0,0,0,0,19.8,1,1,0,0,1,.81.65,1,1,0,0,1-.2,1,1.11,1.11,0,0,1-.61.33h0l-.4,0-.48,0Zm-7.43-5.3.18.19c.15.15.27.28.4.4l.18.16.22.19c.24.2.44.36.65.51a12,12,0,0,1,0-16.3c-.22.16-.41.31-.6.47l-.21.18-.21.19c-.16.14-.28.27-.4.39l0,0-.08.09a1.84,1.84,0,0,0-.14.14l-.11.12a1,1,0,0,1-.18.22.44.44,0,0,0-.08.11A1.13,1.13,0,0,0,24,26l0,0a.6.6,0,0,1-.09.13l-.05.07a.77.77,0,0,0-.09.13l-.06.1c-.1.14-.19.28-.28.43s-.21.38-.3.55-.17.33-.24.5a5.47,5.47,0,0,0-.22.53c0,.11-.07.17-.09.24a.74.74,0,0,1,0,.14,1.83,1.83,0,0,1-.07.23s0,0,0,.06a2.29,2.29,0,0,0-.08.28s0,.07,0,.1a1.29,1.29,0,0,0-.06.25c-.07.3-.11.51-.14.73a.36.36,0,0,1,0,.11v0a6.2,6.2,0,0,0-.06.62c0,.26,0,.49,0,.72s0,.46,0,.68,0,.39,0,.56v0a.86.86,0,0,1,.05.27v0c0,.18.06.36.1.54a2.16,2.16,0,0,0,.08.34s0,.06,0,.1a2.29,2.29,0,0,0,.08.28s0,0,0,.06a.83.83,0,0,1,0,.15l.06.16a1.26,1.26,0,0,0,.09.26,4.84,4.84,0,0,0,.22.55c.08.19.16.35.25.52s.19.36.3.54a4.73,4.73,0,0,0,.28.44l.06.1.08.12.06.08A.6.6,0,0,1,24,38l0,0a1.71,1.71,0,0,0,.11.14,1.5,1.5,0,0,0,.17.21,1.2,1.2,0,0,1,.17.21l.09.1Zm0,0v0Zm-.72-.9ZM22.1,30.53Zm.37-1.71Zm2.17-3.61Zm.15-.16Z"/><path d="M21.11,34.53a1,1,0,0,1-.74-.33,1,1,0,0,1-.2-.32,1.55,1.55,0,0,1-.06-.23,1.8,1.8,0,0,1,0-.22A1,1,0,0,1,22,33.11l0,.17A.83.83,0,0,1,22,34a1.13,1.13,0,0,1-.22.27A1,1,0,0,1,21.11,34.53Z"/><path d="M23.34,39.78a1,1,0,0,1-.47-.12,1,1,0,0,1-.32-.27h0a2.34,2.34,0,0,1-.2-.27,1,1,0,0,1,.26-1.38A1,1,0,0,1,24,38h0a.71.71,0,0,0,.1.14,1,1,0,0,1,0,1.28A1,1,0,0,1,23.34,39.78Z"/><path d="M23.18,26.43a1,1,0,0,1-.83-1.55,1.79,1.79,0,0,1,.2-.28h0a1,1,0,0,1,.32-.27,1,1,0,0,1,1.23,1.53A.71.71,0,0,0,24,26,1,1,0,0,1,23.18,26.43Z"/><path d="M23.77,40.3a1,1,0,0,1-.69-.28L23,39.93l-.07-.08a3,3,0,0,1-.18-.24A1,1,0,0,1,24.4,38.5l.05,0,.08.1A1,1,0,0,1,24.46,40,1,1,0,0,1,23.77,40.3Z"/><path d="M23.59,25.92a1,1,0,0,1-.56-.17,1,1,0,0,1-.29-1.36,2.35,2.35,0,0,1,.19-.25l.06-.07L23,24l0,0a1,1,0,0,1,1.38,0,1,1,0,0,1,.07,1.37l-.08.09-.05.06A1,1,0,0,1,23.59,25.92Z"/><path d="M29.39,22.32a1,1,0,0,1-.61-.21,1,1,0,0,1-.39-.79,1,1,0,0,1,.76-1,2.44,2.44,0,0,1,.39-.07h0a1,1,0,0,1,1.1.88.41.41,0,0,1,0,.11,1,1,0,0,1-.87,1l-.14,0A1.07,1.07,0,0,1,29.39,22.32Z"/><path d="M33.48,43.9h0a.87.87,0,0,1-.28,0,12,12,0,0,1,0-23.7.87.87,0,0,1,.28,0h0l.2,0,.16,0,.27.05a6.31,6.31,0,0,1,.73.15l.2.05.39.11.2.06h0l.06,0a4.24,4.24,0,0,1,.5.18,5.5,5.5,0,0,1,.65.26,5.9,5.9,0,0,1,.63.3,4.83,4.83,0,0,1,.44.23l.11.07.12.07a5.16,5.16,0,0,1,.46.29l0,0,.25.17a8.58,8.58,0,0,1,.84.65,2.84,2.84,0,0,1,.31.26l.21.19c.14.14.3.29.44.45a2.76,2.76,0,0,1,.23.24h0l.08.09,0,0,.13.15,0,0a2.86,2.86,0,0,1,.28.35h0l.15.2a1,1,0,0,1,.14.19l0,.07.2.3q.19.29.36.57A10.56,10.56,0,0,1,43,27.18c.09.2.18.42.26.65l0,.11a1.15,1.15,0,0,1,.06.17c0,.13.09.25.13.38a5.29,5.29,0,0,1,.15.57,1.68,1.68,0,0,1,.06.23,2.32,2.32,0,0,1,.06.27c0,.12.06.31.09.51v0h0a2,2,0,0,1,.06.34,6.68,6.68,0,0,1,.07.77c0,.24,0,.51,0,.8s0,.56,0,.84a6.47,6.47,0,0,1-.07.72h0v.06s0,.06,0,.09,0,.15,0,.2h0v0a5.4,5.4,0,0,1-.11.58.92.92,0,0,1,0,.2c0,.11,0,.22-.08.33a3.14,3.14,0,0,1-.14.47h0a1.9,1.9,0,0,1-.09.29h0v0a1.72,1.72,0,0,1-.07.21l0,.11c-.09.24-.18.46-.28.68a10.62,10.62,0,0,1-.64,1.25c-.1.18-.22.36-.35.55l-.2.3,0,.07a1,1,0,0,1-.14.19l-.15.2h0a2.86,2.86,0,0,1-.28.35l0,0-.13.15,0,0-.13.15-.21.21a6.05,6.05,0,0,1-.44.44A1.74,1.74,0,0,1,40,41a1.77,1.77,0,0,1-.3.25,7.76,7.76,0,0,1-.79.61l-.19.13-.17.12-.48.29-.13.08c-.16.09-.32.18-.48.25a5.8,5.8,0,0,1-.61.29,5.19,5.19,0,0,1-.59.24.73.73,0,0,1-.19.07l-.08,0h0a1.13,1.13,0,0,1-.24.08l-.1,0h0l-.21.06-.34.1-.22.06-.3.06-.26.06-.12,0-.16,0a.84.84,0,0,1-.18,0l-.12,0Zm0-21.78a10,10,0,0,0,0,19.76l.09,0,.18,0,.14,0a.53.53,0,0,1,.18,0l.25-.06h0l.13,0,.28-.08.19-.05h0l.11,0,.07,0,.06,0h0l.11,0,.05,0,.09,0a4.5,4.5,0,0,0,.51-.2l.51-.24.39-.21.09-.05.42-.26,0,0,.12-.08.12-.08a7.58,7.58,0,0,0,.68-.52l.21-.18.21-.19c.16-.14.28-.27.4-.39l.19-.2,0,0h0a.52.52,0,0,1,.1-.11h0l.06-.08a.73.73,0,0,1,.14-.16l.1-.14.1-.12A.21.21,0,0,0,40,38L40,38a.6.6,0,0,1,.09-.13l0-.07a.77.77,0,0,0,.09-.13l.06-.1c.1-.14.19-.28.28-.43A8.12,8.12,0,0,0,41.15,36a5.47,5.47,0,0,0,.22-.53l.06-.18a1,1,0,0,1,.09-.24s0,0,0-.06,0-.1,0-.14l0,0a2.29,2.29,0,0,0,.08-.28c0-.17.06-.24.07-.3a1.05,1.05,0,0,1,0-.19c0-.15.05-.29.07-.43a.47.47,0,0,1,0-.17h0l0-.17a5.48,5.48,0,0,0,0-.57c0-.26,0-.49,0-.72s0-.46,0-.68,0-.43,0-.61,0-.1,0-.14v0a.47.47,0,0,1,0-.17c0-.14,0-.28-.07-.41a.43.43,0,0,1,0-.11.17.17,0,0,1,0-.1,1.94,1.94,0,0,0-.05-.2,2.69,2.69,0,0,0-.1-.38s0,0,0-.06a.83.83,0,0,1,0-.15.49.49,0,0,0,0-.11l-.05-.16-.08-.2a4,4,0,0,0-.2-.5,8.06,8.06,0,0,0-.54-1.05c-.1-.17-.19-.31-.29-.45l-.06-.1-.08-.12-.06-.08a1.47,1.47,0,0,1-.1-.13L40,26l-.05-.06-.1-.12a.71.71,0,0,0-.1-.14,1.07,1.07,0,0,1-.14-.16l-.11-.13-.07-.08-.17-.18-.4-.4-.18-.16-.22-.19c-.26-.22-.48-.39-.71-.55l-.14-.09-.09-.06,0,0c-.12-.08-.24-.16-.37-.23L37,23.32l-.41-.22c-.2-.1-.36-.18-.53-.25a4.48,4.48,0,0,0-.53-.21,3.16,3.16,0,0,0-.46-.16h0l-.07,0-.08,0-.11,0-.28-.08-.13,0c-.2,0-.38-.09-.55-.11l-.11,0-.14,0Zm.78,19.63Zm5.1-3Zm.78-12.51Zm-.06-.1Zm-.67-.82v0ZM34.3,22.25Z"/><path d="M37,23.2a1,1,0,0,1-.47-.12L36,22.85a4.48,4.48,0,0,0-.53-.21,3.16,3.16,0,0,0-.46-.16h0l-.07,0-.08,0-.11,0-.28-.08-.13,0c-.2,0-.38-.09-.55-.11l-.11,0-.14,0-.1,0h0l-.23,0h-.14l-.45,0c-.38,0-.83,0-1.24,0l-.35,0a4.84,4.84,0,0,0-.54.07l-.2,0h-.07l-.18,0h0l-.07,0-.18,0h0l-.2,0h-.05l-.28.08-.11,0-.08,0-.07,0h0a3.26,3.26,0,0,0-.44.15,5.32,5.32,0,0,0-.53.21l-.51.24A1,1,0,0,1,26,22.2V8.53a1,1,0,0,1,.79-1A23.92,23.92,0,0,1,33.19,7l.41,0,.6,0a5.35,5.35,0,0,1,.59.06L36,7.31l1.26.24a1,1,0,0,1,.78,1V22.2a1,1,0,0,1-.48.86A1.07,1.07,0,0,1,37,23.2Zm-2.7-.95Zm-4.52,0Zm.3-.06Zm.19,0h0Zm-.88-.84h0Zm6.3-.73.31.1V9.35l-.37-.06q-.51-.09-1.05-.15l-.48,0-.62,0-.34,0L32,9a23,23,0,0,0-4,.35V20.68l.32-.1.05,0h0l.2-.06a3.45,3.45,0,0,1,.46-.12h0l.12,0,.32-.07.1,0h0l.23,0h0l.38-.07c.17,0,.39-.06.61-.07l.42,0c.54,0,1,0,1.46,0l.53.05.39,0h0l.16,0,.27.05a6.31,6.31,0,0,1,.73.15l.2.05.39.11.2.06h0Z"/><path d="M32,57a25,25,0,0,1-5.21-.55,1,1,0,0,1-.79-1V41.8a1,1,0,0,1,1.47-.88l.49.23a4.48,4.48,0,0,0,.53.21l.09,0,0,0,.12,0h0l.06,0,.07,0,.11,0h0l.14,0,.33.09.15,0,.24.05.17,0,.13,0h0a1,1,0,0,1,.24,0l.1,0,.43,0,.44,0c.38,0,.83,0,1.24,0L33,42l.28,0a.83.83,0,0,1,.22,0l.12,0,.18,0,.14,0a.53.53,0,0,1,.18,0l.25-.06h0l.13,0,.28-.08.19-.05h0l.11,0,.07,0,.06,0h0l.11,0,.05,0,.09,0a4.5,4.5,0,0,0,.51-.2l.51-.24A1,1,0,0,1,38,41.8V55.47a1,1,0,0,1-.78,1,24.16,24.16,0,0,1-3.64.5C33.06,57,32.53,57,32,57Zm-4-2.35a23.18,23.18,0,0,0,5.46.3,21.22,21.22,0,0,0,2.54-.3V43.32h-.07a1.13,1.13,0,0,1-.24.08l-.1,0h0l-.21.06-.34.1-.22.06-.3.06-.26.06-.12,0-.16,0a.84.84,0,0,1-.18,0l-.12,0h0l-.4,0-.48,0c-.54,0-1,0-1.46,0l-.53,0a5.87,5.87,0,0,1-.6-.07h0l-.09,0H30l-.14,0-.12,0-.1,0a.54.54,0,0,1-.17,0l-.36-.07-.11,0a3.74,3.74,0,0,1-.45-.12l-.07,0h0l-.19,0a1.13,1.13,0,0,1-.24-.08l-.07,0Zm2.58-12.74Zm3.72-.16Z"/><path d="M22.2,38H8.53a1,1,0,0,1-1-.79,25,25,0,0,1,0-10.42,1,1,0,0,1,1-.79H22.2a1,1,0,0,1,.89,1.46c-.09.17-.17.33-.24.5a5.47,5.47,0,0,0-.22.53c0,.11-.07.17-.09.24a.74.74,0,0,1,0,.14,1.83,1.83,0,0,1-.07.23s0,0,0,.06a2.29,2.29,0,0,0-.08.28s0,.07,0,.1a1.29,1.29,0,0,0-.06.25c-.07.3-.11.51-.14.73a.36.36,0,0,1,0,.11v0a6.2,6.2,0,0,0-.06.62c0,.26,0,.49,0,.72s0,.46,0,.68,0,.39,0,.56v0a.86.86,0,0,1,.05.27v0c0,.18.06.36.1.54a2.16,2.16,0,0,0,.08.34s0,.06,0,.1a2.29,2.29,0,0,0,.08.28s0,0,0,.06a.83.83,0,0,1,0,.15l.06.16a1.26,1.26,0,0,0,.09.26,4.84,4.84,0,0,0,.22.55v0c.07.17.15.33.24.5A1,1,0,0,1,22.2,38ZM9.35,36H20.68l-.06-.21a1.15,1.15,0,0,1-.09-.28,4.91,4.91,0,0,1-.15-.51,4.19,4.19,0,0,1-.11-.51,4.51,4.51,0,0,1-.11-.59v0h0a.94.94,0,0,1,0-.2.3.3,0,0,1,0-.1A6.31,6.31,0,0,1,20,32.8c0-.24,0-.51,0-.8s0-.56,0-.84,0-.47.07-.72q0-.12,0-.21a7.73,7.73,0,0,1,.16-.81,2.48,2.48,0,0,1,.09-.42,4.91,4.91,0,0,1,.15-.51,2.45,2.45,0,0,1,.08-.29c0-.07.05-.13.07-.2H9.35a23,23,0,0,0,0,8ZM22.1,30.53Zm.37-1.71Z"/><path d="M55.47,38H41.8a1,1,0,0,1-.89-1.46c.09-.17.17-.33.24-.5a5.47,5.47,0,0,0,.22-.53.61.61,0,0,1,.05-.12.56.56,0,0,1,0-.12.83.83,0,0,1,0-.15,1.54,1.54,0,0,1,0-.17s0,0,0-.05v0l.08-.27v0a1,1,0,0,1,0-.14l.07-.3h0a.3.3,0,0,1,0-.1s0,0,0-.08a1.37,1.37,0,0,0,.05-.28,1.42,1.42,0,0,1,0-.2h0s0-.06,0-.08a.29.29,0,0,1,0-.09v0a5.11,5.11,0,0,0,0-.55c0-.26,0-.49,0-.72s0-.46,0-.68a5,5,0,0,0,0-.59s0-.05,0-.07l0-.12a.43.43,0,0,0,0-.05.51.51,0,0,1,0-.17A1.37,1.37,0,0,0,41.8,30s0-.06,0-.1h0s0-.05,0-.07l-.09-.38s0,0,0-.06v0h0l-.08-.27v0s0,0,0-.06a.85.85,0,0,1,0-.17.65.65,0,0,1-.07-.21.58.58,0,0,1,0-.14c-.08-.2-.15-.37-.23-.54s-.16-.35-.25-.52A1,1,0,0,1,41.8,26H55.47a1,1,0,0,1,1,.79,25,25,0,0,1,0,10.42A1,1,0,0,1,55.47,38ZM43.32,36H54.65a23,23,0,0,0,0-8H43.32v0a.5.5,0,0,1,0,.13s0,0,0,.06h0a2,2,0,0,1,.07.23v0s0,0,0,.05l.09.31h0v0h0a1.13,1.13,0,0,1,0,.15l0,.13c0,.09.05.19.07.28s0,0,0,.06,0,.1,0,.17,0,.27.07.41h0l0,.22h0l0,.19c0,.22.05.46.06.7s0,.51,0,.8,0,.56,0,.84a6,6,0,0,1-.07.69.28.28,0,0,1,0,.09.5.5,0,0,1,0,.12v0a.51.51,0,0,1,0,.13c0,.15-.05.3-.08.44s0,.09,0,.12h0s0,.05,0,.07,0,.19-.07.28l0,.15v0a.94.94,0,0,1,0,.16l-.08.29v0l0,.1-.06.19h0s0,0,0,.06a.5.5,0,0,1,0,.13Zm-1.6-6.43h0Zm0,0Zm1.9-.57v0s0,0,0-.06Z"/><path d="M35,57c-.52,0-1,0-1.54,0a1,1,0,0,1,0-2,21.07,21.07,0,0,0,3.32-.46,21.87,21.87,0,0,0,5.13-1.74c.53-.25,1.05-.53,1.59-.84a23.12,23.12,0,0,0,7.08-6.35l.17-.24c.09-.13.18-.26.26-.39s.17-.25.24-.35.16-.25.21-.33c.28-.44.49-.82.7-1.2a2.55,2.55,0,0,0,.17-.32c.18-.32.3-.57.42-.82a22,22,0,0,0,1.74-5.11,22.8,22.8,0,0,0,0-9.59,22,22,0,0,0-1.74-5.12c-.12-.25-.24-.5-.38-.76s-.18-.34-.26-.48c-.2-.36-.4-.69-.61-1s-.32-.51-.48-.74-.31-.47-.48-.69c-.31-.42-.63-.82-1-1.23-.2-.24-.42-.48-.64-.72l0-.07-.62-.63c-.45-.45-.94-.9-1.49-1.37-.22-.19-.45-.37-.68-.55l-.28-.22-.3-.22-.3-.2-.75-.51c-.25-.16-.52-.33-.8-.49l-.18-.11c-.52-.29-1-.57-1.57-.82A22,22,0,0,0,36.8,9.51c-.4-.09-.79-.16-1.17-.22s-.69-.11-1.05-.15l-.48,0-.62,0a1,1,0,0,1,0-2A25,25,0,1,1,35,57ZM50.42,15.1c.25.28.47.52.68.77.37.45.71.88,1,1.32.19.26.38.52.55.79s.35.52.52.8.44.71.65,1.11l.29.53c.12.23.26.52.4.81a24.28,24.28,0,0,1,1.9,5.57,24.9,24.9,0,0,1,0,10.41,24.36,24.36,0,0,1-1.9,5.56c-.14.29-.28.58-.44.86a2.63,2.63,0,0,1-.21.4c-.21.4-.46.82-.72,1.23a2.78,2.78,0,0,1-.28.44,3.36,3.36,0,0,1-.25.38c-.06.1-.16.24-.26.38l-.17.25a25.5,25.5,0,0,1-2.73,3.14,22.64,22.64,0,0,0,5.25-6.07,23,23,0,0,0-5.21-29.6l.15.14.66.69Z"/></g></svg>