<svg xmlns="http://www.w3.org/2000/svg" viewBox="0 0 64 64"><title>loss</title><g id="loss"><path d="M46,60H40a1,1,0,0,1-1-1V45a3,3,0,0,1,3-3h6a1,1,0,0,1,0,2,1,1,0,0,0-1,1V59A1,1,0,0,1,46,60Zm-5-2h4V45a3,3,0,0,1,.17-1H42a1,1,0,0,0-1,1Z"/><path d="M50,60H46a1,1,0,0,1-1-1V45a3,3,0,0,1,3-3,3,3,0,0,1,3,3V59A1,1,0,0,1,50,60Zm-3-2h2V45a.93.93,0,0,0-.29-.69A1,1,0,0,0,48,44a1,1,0,0,0-1,1Z"/><path d="M31,60H25a1,1,0,0,1-1-1V38a3,3,0,0,1,3-3h6a1,1,0,0,1,0,2,1,1,0,0,0-1,1V59A1,1,0,0,1,31,60Zm-5-2h4V38a3,3,0,0,1,.17-1H27a1,1,0,0,0-1,1Z"/><path d="M35,60H31a1,1,0,0,1-1-1V38a3,3,0,0,1,3-3,3,3,0,0,1,3,3V59A1,1,0,0,1,35,60Zm-3-2h2V38a.93.93,0,0,0-.29-.69A1,1,0,0,0,33,37a1,1,0,0,0-1,1Z"/><path d="M16,60H10a1,1,0,0,1-1-1V30a3,3,0,0,1,3-3h6a1,1,0,0,1,0,2,1,1,0,0,0-1,1V59A1,1,0,0,1,16,60Zm-5-2h4V30a3,3,0,0,1,.17-1H12a1,1,0,0,0-1,1Z"/><path d="M20,60H16a1,1,0,0,1-1-1V30a3,3,0,0,1,3-3,3,3,0,0,1,3,3V59A1,1,0,0,1,20,60Zm-3-2h2V30a.93.93,0,0,0-.29-.69A1,1,0,0,0,18,29a1,1,0,0,0-1,1Z"/><path d="M56,41H50a1,1,0,0,1,0-2h5V34a1,1,0,0,1,2,0v6A1,1,0,0,1,56,41Z"/><path d="M56,41a1,1,0,0,1-.71-.29L44.11,29.52A52.65,52.65,0,0,0,6.63,14H5a1,1,0,0,1,0-2H6.63A54.62,54.62,0,0,1,45.52,28.11L56.71,39.29a1,1,0,0,1,0,1.42A1,1,0,0,1,56,41Z"/><path d="M59,60H5a1,1,0,0,1-1-1V5A1,1,0,0,1,6,5V58H59a1,1,0,0,1,0,2Z"/></g></svg>