<svg xmlns="http://www.w3.org/2000/svg" viewBox="0 0 64 64"><title>megaphone</title><g id="megaphone"><path d="M49,46a6.82,6.82,0,0,1-4.24-1.57C40.65,41.24,38,33.61,38,25S40.65,8.76,44.76,5.57A6.82,6.82,0,0,1,49,4c6.17,0,11,9.22,11,21S55.17,46,49,46ZM49,6a4.93,4.93,0,0,0-3,1.15c-3.58,2.78-6,10-6,17.85s2.4,15.07,6,17.85A4.93,4.93,0,0,0,49,44c4.88,0,9-8.7,9-19S53.88,6,49,6ZM42.69,33.36a1.13,1.13,0,0,1-.32,0,1,1,0,0,1-.66-.76A39.09,39.09,0,0,1,41,25a39.09,39.09,0,0,1,.71-7.55,1,1,0,0,1,.66-.76,1,1,0,0,1,1,.2A12.67,12.67,0,0,0,51.66,20H54c1.71,0,3,2.15,3,5s-1.29,5-3,5H51.66a12.67,12.67,0,0,0-8.31,3.11A1,1,0,0,1,42.69,33.36Zm.7-13.91a39.69,39.69,0,0,0,0,11.1A14.73,14.73,0,0,1,51.66,28H54c.2,0,1-1,1-3s-.8-3-1-3H51.66A14.73,14.73,0,0,1,43.39,19.45Z"/><path d="M42.69,33.36a1.13,1.13,0,0,1-.32,0,1,1,0,0,1-.66-.76A39.09,39.09,0,0,1,41,25a39.09,39.09,0,0,1,.71-7.55,1,1,0,0,1,.66-.76,1,1,0,0,1,1,.2A12.67,12.67,0,0,0,51.66,20H54c1.71,0,3,2.15,3,5s-1.29,5-3,5H51.66a12.67,12.67,0,0,0-8.31,3.11A1,1,0,0,1,42.69,33.36Zm.7-13.91a39.69,39.69,0,0,0,0,11.1A14.73,14.73,0,0,1,51.66,28H54c.2,0,1-1,1-3s-.8-3-1-3H51.66A14.73,14.73,0,0,1,43.39,19.45Z"/><path d="M54,30c-1.71,0-3-2.15-3-5s1.29-5,3-5,3,2.15,3,5S55.71,30,54,30Zm0-8c-.2,0-1,1-1,3s.8,3,1,3,1-1,1-3S54.2,22,54,22Z"/><path d="M49,43c-3.22,0-6-4-7.29-10.45a1,1,0,0,1,2-.38C44.72,37.45,46.86,41,49,41a1,1,0,0,1,0,2Z"/><path d="M42.69,18.64l-.19,0a1,1,0,0,1-.79-1.17C43,11,45.78,7,49,7a1,1,0,0,1,0,2c-2.14,0-4.28,3.55-5.33,8.83A1,1,0,0,1,42.69,18.64Z"/><path d="M45.37,44.64a1,1,0,0,1-.35-.06L16.65,33.94A1,1,0,0,1,16,33V17a1,1,0,0,1,.65-.94L45,5.42a1,1,0,0,1,1,1.73c-3.58,2.78-6,10-6,17.85s2.4,15.07,6,17.85a1,1,0,0,1-.61,1.79ZM18,32.31l24,9c-2.5-3.89-4-9.82-4-16.31s1.5-12.41,4-16.31l-24,9Z"/><path d="M17,34H13a9,9,0,0,1,0-18h4a1,1,0,0,1,1,1V33A1,1,0,0,1,17,34ZM13,18a7,7,0,1,0,0,14h3V18Z"/><path d="M23.79,60A4.7,4.7,0,0,1,21,59.06a4.79,4.79,0,0,1-1.73-2.44L12,33.29a1,1,0,0,1,.16-.88A1,1,0,0,1,13,32h4a1,1,0,0,1,.35.06l4,1.5a1,1,0,0,1,.6.63l6.38,19.55A4.77,4.77,0,0,1,23.79,60ZM14.35,34l6.79,22a2.69,2.69,0,0,0,1,1.41,2.8,2.8,0,0,0,3.12.13,2.77,2.77,0,0,0,1.17-3.22L20.2,35.27,16.82,34Z"/><path d="M27.79,60h-4a1,1,0,1,1,0-2,2.68,2.68,0,0,0,1.47-.42h0a2.77,2.77,0,0,0,1.17-3.22L20.05,34.81a1,1,0,0,1,1.31-1.24l.23.09,4.32,1.61a1,1,0,0,1,.6.63l5.82,17.84A4.78,4.78,0,0,1,27.79,60Zm-.11-2h.11a2.78,2.78,0,0,0,2.64-3.64L24.76,37l-2.16-.81,5.73,17.57A4.73,4.73,0,0,1,27.68,58Z"/></g></svg>