<svg xmlns="http://www.w3.org/2000/svg" viewBox="0 0 64 64"><title>Mobile Apps</title><g id="Mobile_Apps" data-name="Mobile Apps"><path d="M47,63H13a5,5,0,0,1-5-5V6a5,5,0,0,1,5-5H47a5,5,0,0,1,5,5V58a5,5,0,0,1-4,4.9A5.13,5.13,0,0,1,47,63ZM13,3a3,3,0,0,0-3,3V58a3,3,0,0,0,3,3H47a3.31,3.31,0,0,0,.61-.06A3,3,0,0,0,50,58V6a3,3,0,0,0-3-3Z"/><path d="M51,62.92H47.8l-.2-2A3,3,0,0,0,50,58V6a3,3,0,0,0-3-3L45.61,3A3.31,3.31,0,0,0,45,2.92v-2h6a5,5,0,0,1,5,5v52A5,5,0,0,1,51,62.92Zm-.06-60A5,5,0,0,1,52,6V58a5,5,0,0,1-.94,2.92,3,3,0,0,0,2.94-3v-52a3,3,0,0,0-3-3Z"/><path d="M46,59H14a2,2,0,0,1-2-2V7a2,2,0,0,1,2-2h5a1,1,0,0,1,.71.29L22.41,8H37.59l2.7-2.71A1,1,0,0,1,41,5h5a2,2,0,0,1,2,2V57A2,2,0,0,1,46,59ZM14,7V57H46V7H41.41l-2.7,2.71A1,1,0,0,1,38,10H22a1,1,0,0,1-.71-.29L18.59,7ZM46,7h0Z"/><circle cx="26.5" cy="5.5" r="1.5"/><circle cx="33.5" cy="5.5" r="1.5"/><path d="M21,23H19a3,3,0,0,1-3-3V18a3,3,0,0,1,3-3h2a3,3,0,0,1,3,3v2A3,3,0,0,1,21,23Zm-2-6a1,1,0,0,0-1,1v2a1,1,0,0,0,1,1h2a1,1,0,0,0,1-1V18a1,1,0,0,0-1-1Z"/><path d="M41,23H39a3,3,0,0,1-3-3V18a3,3,0,0,1,3-3h2a3,3,0,0,1,3,3v2A3,3,0,0,1,41,23Zm-2-6a1,1,0,0,0-1,1v2a1,1,0,0,0,1,1h2a1,1,0,0,0,1-1V18a1,1,0,0,0-1-1Z"/><path d="M31,23H29a3,3,0,0,1-3-3V18a3,3,0,0,1,3-3h2a3,3,0,0,1,3,3v2A3,3,0,0,1,31,23Zm-2-6a1,1,0,0,0-1,1v2a1,1,0,0,0,1,1h2a1,1,0,0,0,1-1V18a1,1,0,0,0-1-1Z"/><path d="M21,36H19a3,3,0,0,1-3-3V31a3,3,0,0,1,3-3h2a3,3,0,0,1,3,3v2A3,3,0,0,1,21,36Zm-2-6a1,1,0,0,0-1,1v2a1,1,0,0,0,1,1h2a1,1,0,0,0,1-1V31a1,1,0,0,0-1-1Z"/><path d="M41,36H39a3,3,0,0,1-3-3V31a3,3,0,0,1,3-3h2a3,3,0,0,1,3,3v2A3,3,0,0,1,41,36Zm-2-6a1,1,0,0,0-1,1v2a1,1,0,0,0,1,1h2a1,1,0,0,0,1-1V31a1,1,0,0,0-1-1Z"/><path d="M31,36H29a3,3,0,0,1-3-3V31a3,3,0,0,1,3-3h2a3,3,0,0,1,3,3v2A3,3,0,0,1,31,36Zm-2-6a1,1,0,0,0-1,1v2a1,1,0,0,0,1,1h2a1,1,0,0,0,1-1V31a1,1,0,0,0-1-1Z"/><path d="M31,49H29a3,3,0,0,1-3-3V44a3,3,0,0,1,3-3h2a3,3,0,0,1,3,3v2A3,3,0,0,1,31,49Zm-2-6a1,1,0,0,0-1,1v2a1,1,0,0,0,1,1h2a1,1,0,0,0,1-1V44a1,1,0,0,0-1-1Z"/><path d="M21,49H19a3,3,0,0,1-3-3V44a3,3,0,0,1,3-3h2a3,3,0,0,1,3,3v2A3,3,0,0,1,21,49Zm-2-6a1,1,0,0,0-1,1v2a1,1,0,0,0,1,1h2a1,1,0,0,0,1-1V44a1,1,0,0,0-1-1Z"/></g></svg>