<svg xmlns="http://www.w3.org/2000/svg" viewBox="0 0 64 64"><title>money</title><g id="money"><path d="M42,56H14a1,1,0,0,1-1-1,4,4,0,0,0-4-4,1,1,0,0,1-1-1V40a1,1,0,0,1,1-1,4,4,0,0,0,4-4,1,1,0,0,1,1-1H42a1,1,0,0,1,1,1,4,4,0,0,0,4,4,1,1,0,0,1,1,1V50a1,1,0,0,1-1,1,4,4,0,0,0-4,4A1,1,0,0,1,42,56ZM14.92,54H41.08A6,6,0,0,1,46,49.08V40.92A6,6,0,0,1,41.08,36H14.92A6,6,0,0,1,10,40.92v8.16A6,6,0,0,1,14.92,54Z"/><path d="M28,53c-3.31,0-6-3.59-6-8s2.69-8,6-8,6,3.59,6,8S31.31,53,28,53Zm0-14c-2.17,0-4,2.75-4,6s1.83,6,4,6,4-2.75,4-6S30.17,39,28,39Z"/><path d="M49,60H7a3,3,0,0,1-3-3V33a3,3,0,0,1,3-3H49a3,3,0,0,1,3,3V57A3,3,0,0,1,49,60ZM7,32a1,1,0,0,0-1,1V57a1,1,0,0,0,1,1H49a1,1,0,0,0,1-1V33a1,1,0,0,0-1-1Z"/><path d="M42,56H14a1,1,0,0,1-1-1,4,4,0,0,0-4-4,1,1,0,0,1-1-1V40a1,1,0,0,1,1-1,4,4,0,0,0,4-4,1,1,0,0,1,1-1H42a1,1,0,0,1,1,1,4,4,0,0,0,4,4,1,1,0,0,1,1,1V50a1,1,0,0,1-1,1,4,4,0,0,0-4,4A1,1,0,0,1,42,56ZM14.92,54H41.08A6,6,0,0,1,46,49.08V40.92A6,6,0,0,1,41.08,36H14.92A6,6,0,0,1,10,40.92v8.16A6,6,0,0,1,14.92,54Z"/><path d="M28,53c-3.31,0-6-3.59-6-8s2.69-8,6-8,6,3.59,6,8S31.31,53,28,53Zm0-14c-2.17,0-4,2.75-4,6s1.83,6,4,6,4-2.75,4-6S30.17,39,28,39Z"/><path d="M51,48.36a1.15,1.15,0,0,1-.26,0,1,1,0,0,1-.74-1V33a1,1,0,0,0-1-1H42.34a1.06,1.06,0,0,1-.5-.13L24.17,21.67a5.57,5.57,0,0,1-.41.45c-.18.16-.32.29-.48.41l-.18.13-.46.32a6,6,0,0,1-5.18.48l-4.18,7.25a1,1,0,0,1,0,.58,1,1,0,0,1-1,.71h-5a1,1,0,0,1-.87-.5,1,1,0,0,1,0-1l9.75-16.89a3,3,0,0,1,4.11-1.09L24.67,15l32,18.48a3,3,0,0,1,1.1,4.1h0L51.87,47.86A1,1,0,0,1,51,48.36Zm1-15.24V43.63l4-7a1,1,0,0,0-.36-1.36Zm4.92,4h0ZM42.61,30h4L19.31,14.25a1,1,0,0,0-.75-.11,1,1,0,0,0-.61.47L9.06,30h2.31l4.81-8.33a1,1,0,0,1,1.37-.37,4,4,0,0,0,4.05,0c.13-.07.25-.16.37-.24h0l.07-.06a2.85,2.85,0,0,0,.32-.27,3.39,3.39,0,0,0,.34-.39,5.23,5.23,0,0,0,.31-.45,1,1,0,0,1,1.36-.37ZM21.92,21.06Z"/><path d="M42.34,32h-30a1,1,0,0,1-.56-.17l-.19-.13a1,1,0,0,1-.48-.6,1,1,0,0,1,.09-.77l5-8.66a1,1,0,0,1,1.37-.37,4,4,0,0,0,4.05,0A3.84,3.84,0,0,0,23,19.84a1,1,0,0,1,1.37-.37L42.84,30.13a1,1,0,0,1,.47,1.13A1,1,0,0,1,42.34,32ZM13.68,30H38.61L24.17,21.66A5.74,5.74,0,0,1,22.63,23a6,6,0,0,1-5.17.48Z"/><path d="M53.07,33.58a1,1,0,0,1-.5-.13l-6.91-4a1.09,1.09,0,0,1-.37-.37l-8-13.92a6,6,0,0,1-6.71-1.8l-5.87,3.4a1,1,0,0,1-1,0l-4-2.32a1,1,0,0,1,0-1.74l14.73-8.5a3,3,0,0,1,4.1,1.1L53.94,32.08a1,1,0,0,1-.16,1.21A1,1,0,0,1,53.07,33.58Zm-6.18-5.72,3.45,2L36.75,6.31A1,1,0,0,0,35.39,6L22.16,13.58l2,1.16,6.16-3.56a1,1,0,0,1,.76-.1,1.06,1.06,0,0,1,.61.47A4,4,0,0,0,37.16,13a1,1,0,0,1,1.37.37Z"/><path d="M51,49.9a1,1,0,0,1-1-1V47.36a1.06,1.06,0,0,1,.13-.5l5.3-9.18a1,1,0,0,1,.87-.5h0a1,1,0,0,1,.87.5l2.32,4a3,3,0,0,1-1.1,4.1l-6.89,4A1.09,1.09,0,0,1,51,49.9Zm5.3-9.72-3.9,6.76,5-2.89h0a1,1,0,0,0,.37-1.35Z"/><path d="M46.16,29.59a1,1,0,0,1-.5-.13l-22-12.69a1,1,0,0,1,0-1.74l6.66-3.85a1,1,0,0,1,.76-.1,1.06,1.06,0,0,1,.61.47A4,4,0,0,0,37.16,13a1,1,0,0,1,1.37.37L47,28.09a1,1,0,0,1-.16,1.21A1,1,0,0,1,46.16,29.59Zm-20-13.69,17.26,10L37.25,15.17a6,6,0,0,1-6.71-1.8Z"/></g></svg>