<svg xmlns="http://www.w3.org/2000/svg" viewBox="0 0 64 64"><title>paper plane</title><g id="paperplane"><path d="M41.75,42.75a1,1,0,0,1-.71-.29L4.29,5.71a1,1,0,0,1,1.16-1.6L58.17,30.47a3.3,3.3,0,0,1-.27,6L42.11,42.68A.89.89,0,0,1,41.75,42.75ZM10.06,8.65,42,40.58l15.18-5.94a1.3,1.3,0,0,0,.11-2.38Z"/><path d="M13.57,53.61a3.3,3.3,0,0,1-2.34-1l-.38-.38a3.25,3.25,0,0,1-.94-1.91L4,5.13a1,1,0,0,1,.62-1.06,1,1,0,0,1,1.18.34L34.69,44.24a1,1,0,0,1-.45,1.52L14.77,53.38A3.16,3.16,0,0,1,13.57,53.61ZM6.5,8.77l5.39,41.32a1.33,1.33,0,0,0,.37.76l.38.38a1.32,1.32,0,0,0,1.4.29l18.27-7.15Z"/><path d="M37,60h0a1,1,0,0,1-.94-.79l-3-13.8L4.19,5.59a1,1,0,0,1,1.52-1.3l37,37a1,1,0,0,1,.25,1l-5,17A1,1,0,0,1,37,60ZM13.22,14.64l21.6,29.78a1.22,1.22,0,0,1,.16.37l2.17,10.15,3.72-12.65Z"/><path d="M37,60a1,1,0,0,1-.71-.29L25.23,48.65A1,1,0,0,1,25.58,47l7.94-3.11a1,1,0,0,1,1.18.35l.12.17a1.22,1.22,0,0,1,.16.37l3,14a1,1,0,0,1-.5,1.09A1,1,0,0,1,37,60ZM27.73,48.31l7.58,7.59-2.08-9.74Z"/></g></svg>