<svg xmlns="http://www.w3.org/2000/svg" viewBox="0 0 64 64"><title>pin</title><g id="pin"><path d="M29,63a1,1,0,0,1-.67-.26C27.46,62,7,43.21,7,23A22,22,0,0,1,29,1a21.71,21.71,0,0,1,3.06.22h.08A22.08,22.08,0,0,1,51,23c0,15.76-12.78,30.92-18.27,36.71-1.82,1.91-3,3-3.06,3A1,1,0,0,1,29,63ZM29,3A20,20,0,0,0,9,23C9,40.33,25.45,57.19,29,60.63c.52-.5,1.31-1.28,2.27-2.3C36.6,52.72,49,38,49,23A20.07,20.07,0,0,0,31.92,3.22h-.1A18.43,18.43,0,0,0,29,3Z"/><path d="M35,33H23a4,4,0,0,1-4-4V21a4,4,0,0,1,4-4H35a4,4,0,0,1,4,4v8A4,4,0,0,1,35,33ZM23,19a2,2,0,0,0-2,2v8a2,2,0,0,0,2,2H35a2,2,0,0,0,2-2V21a2,2,0,0,0-2-2Z"/><path d="M35,26H23a4,4,0,0,1-4-4V21a4,4,0,0,1,4-4H35a4,4,0,0,1,4,4v1A4,4,0,0,1,35,26ZM23,19a2,2,0,0,0-2,2v1a2,2,0,0,0,2,2H35a2,2,0,0,0,2-2V21a2,2,0,0,0-2-2Z"/><path d="M32,19H26a1,1,0,0,1-1-1V17a3,3,0,0,1,3-3h2a3,3,0,0,1,3,3v1A1,1,0,0,1,32,19Zm-5-2h4a1,1,0,0,0-1-1H28A1,1,0,0,0,27,17Z"/><path d="M29,39A15,15,0,1,1,44,24,15,15,0,0,1,29,39Zm0-28A13,13,0,1,0,42,24,13,13,0,0,0,29,11Z"/><path d="M35,63H29a1,1,0,0,1-.67-1.74s1.19-1.08,2.94-2.93C36.6,52.72,49,38,49,23A20.07,20.07,0,0,0,31.92,3.22h-.1A18.43,18.43,0,0,0,29,3a1,1,0,0,1,0-2h6a21.52,21.52,0,0,1,3.15.23A22.08,22.08,0,0,1,57,23c0,15.76-12.78,30.92-18.27,36.71-1.82,1.91-3,3-3.06,3A1,1,0,0,1,35,63Zm0-1h0Zm-3.53-1h3.14c.45-.42,1.41-1.34,2.66-2.67C42.6,52.72,55,38,55,23A20.09,20.09,0,0,0,39,3.4,22.12,22.12,0,0,1,51,23c0,15.76-12.78,30.92-18.27,36.71Z"/><path d="M29,63a1,1,0,0,1-.67-.26C27.46,62,7,43.21,7,23A22,22,0,0,1,29,1a21.71,21.71,0,0,1,3.06.22h.08A22.08,22.08,0,0,1,51,23c0,15.76-12.78,30.92-18.27,36.71-1.82,1.91-3,3-3.06,3A1,1,0,0,1,29,63ZM29,3A20,20,0,0,0,9,23C9,40.33,25.45,57.19,29,60.63c.52-.5,1.31-1.28,2.27-2.3C36.6,52.72,49,38,49,23A20.07,20.07,0,0,0,31.92,3.22h-.1A18.43,18.43,0,0,0,29,3Z"/></g></svg>