<svg xmlns="http://www.w3.org/2000/svg" viewBox="0 0 64 64"><title>presentations</title><g id="presentation"><path d="M56,13H8A4,4,0,0,1,8,5H56a4,4,0,0,1,0,8ZM8,7a2,2,0,0,0,0,4H56a2,2,0,0,0,0-4Z"/><path d="M56,13a4,4,0,1,1,4-4A4,4,0,0,1,56,13Zm0-6a2,2,0,1,0,2,2A2,2,0,0,0,56,7Z"/><path d="M56,47H8a1,1,0,0,1-1-1V12a1,1,0,0,1,1-1H56a1,1,0,0,1,1,1V46A1,1,0,0,1,56,47ZM9,45H55V13H9Z"/><path d="M32,60a4,4,0,1,1,4-4A4,4,0,0,1,32,60Zm0-6a2,2,0,1,0,2,2A2,2,0,0,0,32,54Z"/><path d="M32,54a1,1,0,0,1-1-1V46a1,1,0,0,1,2,0v7A1,1,0,0,1,32,54Z"/><path d="M58,47H6a1,1,0,0,1,0-2H58a1,1,0,0,1,0,2Z"/><path d="M22,42a10,10,0,0,1,0-20,1,1,0,0,1,1,1v8h8a1,1,0,0,1,1,1A10,10,0,0,1,22,42ZM21,24.06A8,8,0,1,0,29.94,33H22a1,1,0,0,1-1-1Z"/><path d="M35,29H26a1,1,0,0,1-1-1V19a1,1,0,0,1,1-1A10,10,0,0,1,36,28,1,1,0,0,1,35,29Zm-8-2h6.94A8,8,0,0,0,27,20.06Z"/><path d="M31.28,21.72a1,1,0,0,1-.71-.29,1,1,0,0,1,0-1.42l2.72-2.72A1,1,0,0,1,34,17H49a1,1,0,0,1,0,2H34.41L32,21.43A1,1,0,0,1,31.28,21.72Z"/><path d="M49,24H41a1,1,0,0,1,0-2h8a1,1,0,0,1,0,2Z"/><path d="M49,29H41a1,1,0,0,1,0-2h8a1,1,0,0,1,0,2Z"/><path d="M49,34H41a1,1,0,0,1,0-2h8a1,1,0,0,1,0,2Z"/></g></svg>