<svg xmlns="http://www.w3.org/2000/svg" viewBox="0 0 64 64"><title>rocket</title><g id="rocket"><path d="M32,29a6,6,0,1,1,6-6A6,6,0,0,1,32,29Zm0-10a4,4,0,1,0,4,4A4,4,0,0,0,32,19Z"/><path d="M32,13a9.89,9.89,0,0,1-8-4,1,1,0,0,1,0-1.17,22.07,22.07,0,0,1,7.52-6.73,1,1,0,0,1,1,0A22.07,22.07,0,0,1,40,7.85,1,1,0,0,1,40,9,9.89,9.89,0,0,1,32,13ZM26.08,8.38a8,8,0,0,0,11.84,0A20,20,0,0,0,32,3.15,20,20,0,0,0,26.08,8.38Z"/><path d="M39,44H35a1,1,0,0,1-1-1V35a2,2,0,0,0-2-2,2,2,0,0,0-2,2v8a1,1,0,0,1-1,1H24.77a4.27,4.27,0,0,1-1-.17A5,5,0,0,1,20,39V20.53A22.13,22.13,0,0,1,31.52,1.12a1,1,0,0,1,1,0A22.07,22.07,0,0,1,40,7.85c.31.45.62.92.9,1.4A22.08,22.08,0,0,1,44,20.53V39a5,5,0,0,1-3.76,4.83,4.36,4.36,0,0,1-1,.16Zm-.11-2ZM36,42h3.1A3,3,0,0,0,42,39V20.53a20.05,20.05,0,0,0-2.82-10.26c-.26-.44-.53-.87-.82-1.28A20,20,0,0,0,32,3.15,20.09,20.09,0,0,0,22,20.53V39a3,3,0,0,0,2.24,2.89,2.93,2.93,0,0,0,.66.1H28V35a4,4,0,1,1,8,0Z"/><path d="M32,48a4,4,0,0,1-3.91-3.15A3.63,3.63,0,0,1,28,44V35a4,4,0,1,1,8,0v9a3.54,3.54,0,0,1-.1.88A4,4,0,0,1,32,48Zm0-15a2,2,0,0,0-2,2v9a1.54,1.54,0,0,0,0,.4,2,2,0,0,0,3.91,0A1.49,1.49,0,0,0,34,44V35a2,2,0,0,0-2-2Z"/><path d="M20,48H14a1,1,0,0,1-1-1V39a8,8,0,0,1,8-8,1,1,0,0,1,1,1v7a3,3,0,0,0,2.24,2.89,1,1,0,0,1,.76,1V43A5,5,0,0,1,20,48Zm-5-2h5A3,3,0,0,0,23,43.55,5,5,0,0,1,20,39V33.08A6,6,0,0,0,15,39Z"/><path d="M50,48H44a5,5,0,0,1-5-5v-.14a1,1,0,0,1,.76-1A3,3,0,0,0,42,39V32a1,1,0,0,1,1-1,8,8,0,0,1,8,8v8A1,1,0,0,1,50,48Zm-9-4.45A3,3,0,0,0,44,46h5V39a6,6,0,0,0-5-5.92V39A5,5,0,0,1,41.05,43.55Z"/><path d="M32,63a1,1,0,0,1-.35-.06A13.39,13.39,0,0,1,23,50.46a8.41,8.41,0,0,1,5.68-8,1,1,0,0,1,.9.14,1,1,0,0,1,.42.81V44a1.54,1.54,0,0,0,0,.4,1,1,0,0,1-.14.79,6,6,0,0,0-.9,3.3c0,3.15,1.19,6,3,7.33a6.74,6.74,0,0,0,2-2.57,11.43,11.43,0,0,0,1-4.76,6,6,0,0,0-.9-3.3A1,1,0,0,1,34,44.4a1.54,1.54,0,0,0,0-.4v-.57a1,1,0,0,1,.42-.81,1,1,0,0,1,.91-.14,8.44,8.44,0,0,1,5.67,8,13.36,13.36,0,0,1-8.65,12.48A1,1,0,0,1,32,63ZM27.61,45.27a8.54,8.54,0,0,0-.73.62A6.5,6.5,0,0,0,25,50.46a11.39,11.39,0,0,0,7,10.47,11.35,11.35,0,0,0,7-10.47,6.43,6.43,0,0,0-2.61-5.18A8.46,8.46,0,0,1,37,48.49a13.26,13.26,0,0,1-1.19,5.6,8.13,8.13,0,0,1-3.33,3.79,1,1,0,0,1-1,0C28.77,56.36,27,52.68,27,48.49A8.51,8.51,0,0,1,27.61,45.27Z"/><path d="M32,58a1,1,0,0,1-.48-.12C28.77,56.36,27,52.68,27,48.49a8,8,0,0,1,1.24-4.41,1,1,0,0,1,1-.42,1,1,0,0,1,.79.77,2,2,0,0,0,3.9,0,1,1,0,0,1,.79-.77,1,1,0,0,1,1,.42A8,8,0,0,1,37,48.49a13.26,13.26,0,0,1-1.19,5.6,8.13,8.13,0,0,1-3.33,3.79A1,1,0,0,1,32,58ZM29.2,46.85a6.7,6.7,0,0,0-.2,1.64c0,3.15,1.19,6,3,7.33a6.74,6.74,0,0,0,2-2.57,11.43,11.43,0,0,0,1-4.76,6.7,6.7,0,0,0-.2-1.64,4,4,0,0,1-5.6,0Z"/><path d="M10,35a1,1,0,0,1-1-1,1,1,0,0,0-1-1,1,1,0,0,1,0-2,1,1,0,0,0,1-1,1,1,0,0,1,2,0,1,1,0,0,0,1,1,1,1,0,0,1,0,2,1,1,0,0,0-1,1A1,1,0,0,1,10,35Z"/><path d="M60,30a1,1,0,0,1-1-1,1,1,0,0,0-1-1,1,1,0,0,1,0-2,1,1,0,0,0,1-1,1,1,0,0,1,2,0,1,1,0,0,0,1,1,1,1,0,0,1,0,2,1,1,0,0,0-1,1A1,1,0,0,1,60,30Z"/><path d="M56,50a1,1,0,0,1-1-1,1,1,0,0,0-1-1,1,1,0,0,1,0-2,1,1,0,0,0,1-1,1,1,0,0,1,2,0,1,1,0,0,0,1,1,1,1,0,0,1,0,2,1,1,0,0,0-1,1A1,1,0,0,1,56,50Z"/><path d="M14,56a1,1,0,0,1-1-1,1,1,0,0,0-1-1,1,1,0,0,1,0-2,1,1,0,0,0,1-1,1,1,0,0,1,2,0,1,1,0,0,0,1,1,1,1,0,0,1,0,2,1,1,0,0,0-1,1A1,1,0,0,1,14,56Z"/><path d="M46,11a1,1,0,0,1-1-1,1,1,0,0,0-1-1,1,1,0,0,1,0-2,1,1,0,0,0,1-1,1,1,0,0,1,2,0,1,1,0,0,0,1,1,1,1,0,0,1,0,2,1,1,0,0,0-1,1A1,1,0,0,1,46,11Z"/><path d="M10,17a1,1,0,0,1-1-1,1,1,0,0,0-1-1,1,1,0,0,1,0-2,1,1,0,0,0,1-1,1,1,0,0,1,2,0,1,1,0,0,0,1,1,1,1,0,0,1,0,2,1,1,0,0,0-1,1A1,1,0,0,1,10,17Z"/><circle cx="56" cy="15" r="1"/><circle cx="61" cy="37" r="1"/><circle cx="50" cy="24" r="1"/><circle cx="17" cy="22" r="1"/><circle cx="10" cy="47" r="1"/><circle cx="45" cy="58" r="1"/><circle cx="3" cy="32" r="1"/><circle cx="20" cy="7" r="1"/></g></svg>