<svg xmlns="http://www.w3.org/2000/svg" viewBox="0 0 64 64"><title>safe box</title><g id="safe_box" data-name="safe box"><path d="M46,51H6a5,5,0,0,1-5-5V12A5,5,0,0,1,6,7H46a5,5,0,0,1,5,5V46A5,5,0,0,1,46,51ZM6,9a3,3,0,0,0-3,3V46a3,3,0,0,0,3,3H46a3,3,0,0,0,3-3V12a3,3,0,0,0-3-3Z"/><path d="M58,51H46a1,1,0,0,1,0-2,3,3,0,0,0,3-3V12a3,3,0,0,0-3-3,1,1,0,0,1,0-2H58a5,5,0,0,1,5,5V46A5,5,0,0,1,58,51Zm-8-2h8a3,3,0,0,0,3-3V12a3,3,0,0,0-3-3H50a5,5,0,0,1,1,3V46A5,5,0,0,1,50,49Z"/><path d="M10,57H9a3,3,0,0,1-3-3V50a1,1,0,0,1,1-1h5a1,1,0,0,1,1,1v4A3,3,0,0,1,10,57ZM8,51v3a1,1,0,0,0,1,1h1a1,1,0,0,0,1-1V51Z"/><path d="M43,57H42a3,3,0,0,1-3-3V50a1,1,0,0,1,2,0v4a1,1,0,0,0,1,1h1a1,1,0,0,0,1-1V50a1,1,0,0,1,2,0v4A3,3,0,0,1,43,57Z"/><path d="M57,57H56a3,3,0,0,1-3-3V50a1,1,0,0,1,2,0v4a1,1,0,0,0,1,1h1a1,1,0,0,0,1-1V50a1,1,0,0,1,2,0v4A3,3,0,0,1,57,57Z"/><path d="M24,57H23a3,3,0,0,1-3-3V50a1,1,0,0,1,2,0v4a1,1,0,0,0,1,1h1a1,1,0,0,0,1-1V50a1,1,0,0,1,2,0v4A3,3,0,0,1,24,57Z"/><path d="M45,47H6a1,1,0,0,1-1-1V12a1,1,0,0,1,1-1H45a1,1,0,0,1,1,1V46A1,1,0,0,1,45,47ZM7,45H44V13H7Z"/><path d="M34,34a5,5,0,1,1,5-5A5,5,0,0,1,34,34Zm0-8a3,3,0,1,0,3,3A3,3,0,0,0,34,26Z"/><path d="M46,18H44a1,1,0,0,1,0-2h2a1,1,0,0,1,0,2Z"/><path d="M46,42H44a1,1,0,0,1,0-2h2a1,1,0,0,1,0,2Z"/><path d="M34,26a1,1,0,0,1-1-1V22a1,1,0,0,1,2,0v3A1,1,0,0,1,34,26Z"/><path d="M34,37a1,1,0,0,1-1-1V33a1,1,0,0,1,2,0v3A1,1,0,0,1,34,37Z"/><path d="M30,30H27a1,1,0,0,1,0-2h3a1,1,0,0,1,0,2Z"/><path d="M41,30H38a1,1,0,0,1,0-2h3a1,1,0,0,1,0,2Z"/><path d="M36.83,27.17a1,1,0,0,1-.71-.29,1,1,0,0,1,0-1.42l2.12-2.12a1,1,0,1,1,1.42,1.42l-2.12,2.12A1,1,0,0,1,36.83,27.17Z"/><path d="M29.05,35a1,1,0,0,1-.71-.29,1,1,0,0,1,0-1.42l2.12-2.12a1,1,0,1,1,1.42,1.42l-2.12,2.12A1,1,0,0,1,29.05,35Z"/><path d="M31.17,27.17a1,1,0,0,1-.71-.29l-2.12-2.12a1,1,0,0,1,1.42-1.42l2.12,2.12a1,1,0,0,1,0,1.42A1,1,0,0,1,31.17,27.17Z"/><path d="M39,35a1,1,0,0,1-.71-.29l-2.12-2.12a1,1,0,1,1,1.42-1.42l2.12,2.12a1,1,0,0,1,0,1.42A1,1,0,0,1,39,35Z"/><path d="M13,38a3,3,0,0,1-3-3V23a3,3,0,0,1,3-3,1,1,0,0,1,0,2,1,1,0,0,0-1,1V35a1,1,0,0,0,1,1,1,1,0,0,1,0,2Z"/></g></svg>