<svg xmlns="http://www.w3.org/2000/svg" viewBox="0 0 64 64"><title>speedometer</title><g id="speedometer"><path d="M27,57a24.1,24.1,0,0,1-3.13-.2,25,25,0,0,1,0-49.6,24.37,24.37,0,0,1,8.79.47h0A24,24,0,0,1,40.55,11a25,25,0,0,1,0,42,23.83,23.83,0,0,1-7.82,3.32h0A23.84,23.84,0,0,1,27,57Zm5.5-1.65h0ZM27,9a22,22,0,0,0-2.87.18,23,23,0,0,0,0,45.64,22.74,22.74,0,0,0,8.13-.44l.08,0a22.22,22.22,0,0,0,7.12-3,23,23,0,0,0,0-38.64,22.15,22.15,0,0,0-7.13-3l-.08,0A22.32,22.32,0,0,0,27,9Z"/><path d="M27,53a20,20,0,0,1-2.63-.17,21.09,21.09,0,0,1-12.22-6,1.05,1.05,0,0,1-.29-.71,1,1,0,0,1,.29-.71l4.27-4.26a14,14,0,0,1-.48-17.75A12.32,12.32,0,0,1,17.1,22.1a13.94,13.94,0,0,1,2.53-2,13.39,13.39,0,0,1,4.43-1.78A14,14,0,0,1,40.68,35a13.42,13.42,0,0,1-1.78,4.42,14.87,14.87,0,0,1-1.32,1.8l4.26,4.25a1,1,0,0,1,0,1.41,20.89,20.89,0,0,1-10,5.6l-.06,0A20.65,20.65,0,0,1,27,53ZM14.29,46.12a19.06,19.06,0,0,0,10.34,4.73,18.75,18.75,0,0,0,6.7-.36l.08,0a19,19,0,0,0,8.29-4.36L35.48,41.9a1,1,0,0,1,0-1.42,12,12,0,0,0,1.71-2.17,11.37,11.37,0,0,0,1.52-3.77A12,12,0,0,0,24.47,20.28a11.34,11.34,0,0,0-3.78,1.52,12,12,0,0,0-2.17,1.71,12.31,12.31,0,0,0-1,1.13,12,12,0,0,0,1,15.84,1,1,0,0,1,0,1.42Z"/><path d="M12.86,47.14a1,1,0,0,1-.71-.29,21,21,0,0,1,0-29.7,1,1,0,0,1,1.42,0l4.95,5a1,1,0,0,1,0,1.42,11.06,11.06,0,0,0-1,1.12,12,12,0,0,0,1,15.84,1,1,0,0,1,0,1.42l-4.95,5A1,1,0,0,1,12.86,47.14Zm0-27.85a19,19,0,0,0,0,25.42l3.54-3.54a14,14,0,0,1-.48-17.75c.15-.2.31-.39.48-.59Z"/><path d="M17.81,23.81a1,1,0,0,1-.71-.29l-5-4.95a1,1,0,0,1-.29-.71,1.05,1.05,0,0,1,.29-.71,21,21,0,0,1,19.6-5.6l.06,0a20.75,20.75,0,0,1,10,5.6,1,1,0,0,1,0,1.41L36.9,23.52a1,1,0,0,1-1.42,0,11.91,11.91,0,0,0-11-3.24,11.34,11.34,0,0,0-3.78,1.52,12,12,0,0,0-2.17,1.71,1,1,0,0,1-.71.3ZM27,18a14,14,0,0,1,9.14,3.42l3.53-3.53A18.79,18.79,0,0,0,37.29,16a18.4,18.4,0,0,0-5.89-2.51l-.07,0a18.76,18.76,0,0,0-6.7-.36,19.06,19.06,0,0,0-10.34,4.73l3.54,3.54a14.87,14.87,0,0,1,1.8-1.32,13.39,13.39,0,0,1,4.43-1.78A14.28,14.28,0,0,1,27,18Z"/><path d="M41.13,47.13a1,1,0,0,1-.71-.29L35.48,41.9a1,1,0,0,1,0-1.42,12,12,0,0,0,1.71-2.17,11.37,11.37,0,0,0,1.52-3.77,11.92,11.92,0,0,0-3.24-11,1,1,0,0,1,0-1.42l4.94-4.94a1,1,0,0,1,1.41,0,20.93,20.93,0,0,1,0,29.68A1,1,0,0,1,41.13,47.13Zm-3.55-6,3.53,3.53a18.94,18.94,0,0,0,0-25.4l-3.53,3.53A13.94,13.94,0,0,1,40.68,35a13.42,13.42,0,0,1-1.78,4.42A14.87,14.87,0,0,1,37.58,41.17Z"/><path d="M38,57H27a1,1,0,0,1,0-2,22.32,22.32,0,0,0,5.25-.62l.08,0a22.22,22.22,0,0,0,7.12-3,23,23,0,0,0,0-38.64,22.15,22.15,0,0,0-7.13-3l-.08,0A22.32,22.32,0,0,0,27,9a1,1,0,0,1,0-2H38c.7,0,1.4,0,2.09.09a25,25,0,0,1,0,49.82C39.4,57,38.7,57,38,57Zm-1.2-2H38c.64,0,1.28,0,1.91-.09a23,23,0,0,0,0-45.82Q39,9,38,9H36.8a24.13,24.13,0,0,1,3.75,2,25,25,0,0,1,0,42A23.59,23.59,0,0,1,36.8,55Z"/><path d="M41.13,47.14a1,1,0,0,1-.7-.29h0a1,1,0,1,1,1.42,0A1,1,0,0,1,41.13,47.14Z"/><path d="M41.13,18.87a1,1,0,0,1-.71-.29,1,1,0,1,1,1.42-1.42,1,1,0,0,1,0,1.41h0A1,1,0,0,1,41.13,18.87Z"/><path d="M27,20a1,1,0,0,1-1-1V16a1,1,0,0,1,2,0v3A1,1,0,0,1,27,20Z"/><path d="M14,33H11a1,1,0,0,1,0-2h3a1,1,0,0,1,0,2Z"/><path d="M43,33H40a1,1,0,0,1,0-2h3a1,1,0,0,1,0,2Z"/><path d="M27,39a3,3,0,1,1,3-3A3,3,0,0,1,27,39Zm0-4a1,1,0,1,0,1,1A1,1,0,0,0,27,35Z"/><path d="M28.41,35.59a1,1,0,0,1-.71-.29,1,1,0,0,1,0-1.42l5.59-5.59a1,1,0,0,1,1.42,1.42L29.12,35.3A1,1,0,0,1,28.41,35.59Z"/><path d="M31,47H23a1,1,0,0,1,0-2h8a1,1,0,0,1,0,2Z"/></g></svg>