<svg xmlns="http://www.w3.org/2000/svg" viewBox="0 0 64 64"><title>strategy</title><g id="strategy"><path d="M45,27H42a1,1,0,0,1-1-1V23a1,1,0,0,1-1-1V12H31a1,1,0,0,1-1-1V9a3,3,0,0,1,3-3h8a5,5,0,0,1,5,5V26A1,1,0,0,1,45,27Zm-2-2h1V11a3,3,0,0,0-3-3H33a1,1,0,0,0-1,1v1h9a1,1,0,0,1,1,1V21.27A2,2,0,0,1,43,23Z"/><path d="M36,60H9a5,5,0,0,1-5-5V11A5,5,0,0,1,9,6H19a1,1,0,0,1,1,1v4a1,1,0,0,1-1,1H10V54H36a1,1,0,0,1,1,1v4A1,1,0,0,1,36,60ZM9,8a3,3,0,0,0-3,3V55a3,3,0,0,0,3,3H35V56H9a1,1,0,0,1-1-1V11a1,1,0,0,1,1-1h9V8Z"/><path d="M36,56H9a1,1,0,0,1-1-1V11a1,1,0,0,1,1-1H19a1,1,0,0,1,1,1H30a1,1,0,0,1,1-1H41a1,1,0,0,1,1,1V22a1,1,0,0,1-1,1H38v9a2,2,0,0,0,2,2,1,1,0,0,1,1,1V48.43a1,1,0,0,1,.18.57,1,1,0,0,1-1,1A3.1,3.1,0,0,0,37,53v2A1,1,0,0,1,36,56ZM10,54H35V53a5,5,0,0,1,4-4.87V35.87A4,4,0,0,1,36,32V23a2,2,0,0,1,2-2h2V12H32a1,1,0,0,1-1,1H19a1,1,0,0,1-1-1H10Z"/><path d="M31,13H19a1,1,0,0,1-1-1V7a3,3,0,0,1,3-3H32a3,3,0,0,1,3,3,1,1,0,0,1-1,1H33a1,1,0,0,0-1,1v3A1,1,0,0,1,31,13ZM20,11H30V9a3,3,0,0,1,2.36-2.93A.86.86,0,0,0,32,6H21a1,1,0,0,0-1,1Z"/><path d="M45,24a1,1,0,0,1-1-1V11a3,3,0,0,0-3-3,1,1,0,0,1,0-2h4a5,5,0,0,1,5,5V22a1,1,0,0,1-1,1H46A1,1,0,0,1,45,24Zm1-3h2V11a3,3,0,0,0-3-3h0a5,5,0,0,1,1,3Z"/><path d="M53.77,60H36a1,1,0,0,1-1-1V53a5.09,5.09,0,0,1,5.18-5h9.41a5.09,5.09,0,0,1,5.18,5v6A1,1,0,0,1,53.77,60ZM37,58H52.77V53a3.1,3.1,0,0,0-3.18-3H40.18A3.1,3.1,0,0,0,37,53Z"/><path d="M59,60H53.77a1,1,0,0,1-1-1V53a3.1,3.1,0,0,0-3.18-3,1,1,0,0,1,0-2h5.23A5.09,5.09,0,0,1,60,53v6A1,1,0,0,1,59,60Zm-4.23-2H58V53a3.1,3.1,0,0,0-3.18-3H53.73a4.89,4.89,0,0,1,1,3Z"/><path d="M55,50H40a1,1,0,0,1-1-1V35a1,1,0,0,1,1-1H55a1,1,0,0,1,1,1V49A1,1,0,0,1,55,50ZM41,48H54V36H41Z"/><path d="M55,36H40a4,4,0,0,1-4-4V23a2,2,0,0,1,2-2h3a2,2,0,0,1,2,2v2h1V23a2,2,0,0,1,2-2h3a2,2,0,0,1,2,2v2h1V23a2,2,0,0,1,2-2h3a2,2,0,0,1,2,2v9A4,4,0,0,1,55,36ZM38,23v9a2,2,0,0,0,2,2H55a2,2,0,0,0,2-2V23H54v3a1,1,0,0,1-1,1H50a1,1,0,0,1-1-1V23H46v3a1,1,0,0,1-1,1H42a1,1,0,0,1-1-1V23Zm19,0h0Z"/><path d="M50,50a1,1,0,0,1-1-1V45a1,1,0,0,1,2,0v4A1,1,0,0,1,50,50Z"/><path d="M50,40a1,1,0,0,1-1-1V35a1,1,0,0,1,2,0v4A1,1,0,0,1,50,40Z"/><path d="M32,50a1,1,0,0,1-1-1V45.64A7,7,0,0,0,26.35,39L23,37.84a9,9,0,0,1-6-8.48V26a1,1,0,0,1,2,0v3.36A7,7,0,0,0,23.65,36L27,37.16a9,9,0,0,1,6,8.48V49A1,1,0,0,1,32,50Z"/><path d="M21.12,29.88a1,1,0,0,1-.71-.29L18,27.17l-2.41,2.42a1,1,0,1,1-1.42-1.42l3.12-3.12a1,1,0,0,1,1.42,0l3.12,3.12a1,1,0,0,1,0,1.42A1,1,0,0,1,21.12,29.88Z"/><path d="M18,24a4,4,0,1,1,4-4A4,4,0,0,1,18,24Zm0-6a2,2,0,1,0,2,2A2,2,0,0,0,18,18Z"/><path d="M27,33a1,1,0,0,1-.71-.29,1,1,0,0,1,0-1.42l5-5a1,1,0,0,1,1.42,1.42l-5,5A1,1,0,0,1,27,33Z"/><path d="M32,33a1,1,0,0,1-.71-.29l-5-5a1,1,0,0,1,1.42-1.42l5,5a1,1,0,0,1,0,1.42A1,1,0,0,1,32,33Z"/><path d="M17,49a1,1,0,0,1-.71-.29,1,1,0,0,1,0-1.42l5-5a1,1,0,0,1,1.42,1.42l-5,5A1,1,0,0,1,17,49Z"/><path d="M22,49a1,1,0,0,1-.71-.29l-5-5a1,1,0,0,1,1.42-1.42l5,5a1,1,0,0,1,0,1.42A1,1,0,0,1,22,49Z"/></g></svg>