<svg xmlns="http://www.w3.org/2000/svg" viewBox="0 0 64 64"><title>target</title><g id="target"><path d="M35,55.8a1,1,0,0,1-1-.94,2,2,0,0,0-4,0,1,1,0,0,1-.36.71,1,1,0,0,1-.77.22A23.94,23.94,0,0,1,8.21,35.12a1,1,0,0,1,.22-.77A1,1,0,0,1,9.14,34a2,2,0,0,0,0-4,1,1,0,0,1-.71-.36,1,1,0,0,1-.22-.77A23.94,23.94,0,0,1,28.88,8.21a1,1,0,0,1,.77.22,1,1,0,0,1,.36.71,2,2,0,0,0,4,0,1,1,0,0,1,.36-.71,1,1,0,0,1,.77-.22A23.94,23.94,0,0,1,55.79,28.88a1,1,0,0,1-.22.77,1,1,0,0,1-.71.36,2,2,0,0,0,0,4,1,1,0,0,1,.71.36,1,1,0,0,1,.22.77A23.94,23.94,0,0,1,35.12,55.79ZM32,51a4,4,0,0,1,3.77,2.67,21.94,21.94,0,0,0,17.9-17.9,4,4,0,0,1,0-7.54,21.94,21.94,0,0,0-17.9-17.9,4,4,0,0,1-7.54,0,21.94,21.94,0,0,0-17.9,17.9,4,4,0,0,1,0,7.54,21.94,21.94,0,0,0,17.9,17.9A4,4,0,0,1,32,51Z"/><path d="M35,55.8a1,1,0,0,1-1-.94,2,2,0,0,0-4,0,1,1,0,0,1-.36.71,1,1,0,0,1-.77.22A23.94,23.94,0,0,1,8.21,35.12a1,1,0,0,1,.22-.77A1,1,0,0,1,9.14,34a2,2,0,0,0,0-4,1,1,0,0,1-.71-.36,1,1,0,0,1-.22-.77A23.94,23.94,0,0,1,28.88,8.21a1,1,0,0,1,.77.22,1,1,0,0,1,.36.71,2,2,0,0,0,4,0,1,1,0,0,1,.36-.71,1,1,0,0,1,.77-.22A23.94,23.94,0,0,1,55.79,28.88a1,1,0,0,1-.22.77,1,1,0,0,1-.71.36,2,2,0,0,0,0,4,1,1,0,0,1,.71.36,1,1,0,0,1,.22.77A23.94,23.94,0,0,1,35.12,55.79ZM32,51a4,4,0,0,1,3.77,2.67,21.94,21.94,0,0,0,17.9-17.9,4,4,0,0,1,0-7.54,21.94,21.94,0,0,0-17.9-17.9,4,4,0,0,1-7.54,0,21.94,21.94,0,0,0-17.9,17.9,4,4,0,0,1,0,7.54,21.94,21.94,0,0,0,17.9,17.9A4,4,0,0,1,32,51Z"/><path d="M32,48A16,16,0,1,1,48,32,16,16,0,0,1,32,48Zm0-30A14,14,0,1,0,46,32,14,14,0,0,0,32,18Z"/><path d="M32,38a6,6,0,1,1,6-6A6,6,0,0,1,32,38Zm0-10a4,4,0,1,0,4,4A4,4,0,0,0,32,28Z"/><path d="M21,33H12a1,1,0,0,1,0-2h9a1,1,0,0,1,0,2Z"/><path d="M52,33H43a1,1,0,0,1,0-2h9a1,1,0,0,1,0,2Z"/><path d="M32,53a1,1,0,0,1-1-1V43a1,1,0,0,1,2,0v9A1,1,0,0,1,32,53Z"/><path d="M32,22a1,1,0,0,1-1-1V12a1,1,0,0,1,2,0v9A1,1,0,0,1,32,22Z"/><path d="M32,60A28,28,0,1,1,60,32,28,28,0,0,1,32,60ZM32,6A26,26,0,1,0,58,32,26,26,0,0,0,32,6Zm3,49.8a1,1,0,0,1-1-.94,2,2,0,0,0-4,0,1,1,0,0,1-.36.71,1,1,0,0,1-.77.22A23.94,23.94,0,0,1,8.21,35.12a1,1,0,0,1,.22-.77A1,1,0,0,1,9.14,34a2,2,0,0,0,0-4,1,1,0,0,1-.71-.36,1,1,0,0,1-.22-.77A23.94,23.94,0,0,1,28.88,8.21a1,1,0,0,1,.77.22,1,1,0,0,1,.36.71,2,2,0,0,0,4,0,1,1,0,0,1,.36-.71,1,1,0,0,1,.77-.22A23.94,23.94,0,0,1,55.79,28.88a1,1,0,0,1-.22.77,1,1,0,0,1-.71.36,2,2,0,0,0,0,4,1,1,0,0,1,.71.36,1,1,0,0,1,.22.77A23.94,23.94,0,0,1,35.12,55.79ZM32,51a4,4,0,0,1,3.77,2.67,21.94,21.94,0,0,0,17.9-17.9,4,4,0,0,1,0-7.54,21.94,21.94,0,0,0-17.9-17.9,4,4,0,0,1-7.54,0,21.94,21.94,0,0,0-17.9,17.9,4,4,0,0,1,0,7.54,21.94,21.94,0,0,0,17.9,17.9A4,4,0,0,1,32,51Z"/></g></svg>