<svg xmlns="http://www.w3.org/2000/svg" viewBox="0 0 64 64"><title>teamwork</title><g id="teamwork"><path d="M55,59H40.12a6.12,6.12,0,0,1-4.33-1.79A4.09,4.09,0,0,0,32.88,56H22a1,1,0,0,1-1-1V43a1,1,0,0,1,1-1h9.39a5.72,5.72,0,0,0,2.7-.68,5.61,5.61,0,0,0,2.08-1.87A7.73,7.73,0,0,1,42.61,36H43a1,1,0,0,1,1,1v4H56a3,3,0,0,1,3,3,2.86,2.86,0,0,1-.39,1.47,3,3,0,0,1,.5,4.66,3.06,3.06,0,0,1-.49.4A3,3,0,0,1,59,52a3,3,0,0,1-.89,2.13,3.06,3.06,0,0,1-.49.4A3,3,0,0,1,58,56a3,3,0,0,1-2.69,3A1.28,1.28,0,0,1,55,59ZM23,54h9.88a6.12,6.12,0,0,1,4.33,1.79A4.09,4.09,0,0,0,40.12,57H55a1,1,0,0,0,.69-.29A1,1,0,0,0,56,56a1,1,0,0,0-1-1,1,1,0,0,1,0-2h1a.93.93,0,0,0,.69-.29A1,1,0,0,0,57,52a1,1,0,0,0-1-1,1,1,0,0,1,0-2h1a.93.93,0,0,0,.69-.29A1,1,0,0,0,58,48a1,1,0,0,0-1-1H56a1,1,0,0,1,0-2,.93.93,0,0,0,.69-.29A1,1,0,0,0,57,44a1,1,0,0,0-.1-.43A1,1,0,0,0,56,43H43a1,1,0,0,1-1-1V38a5.75,5.75,0,0,0-4.17,2.53A7.79,7.79,0,0,1,31.39,44H23Z"/><path d="M55,43H43a1,1,0,0,1-1-1V32.61a5.72,5.72,0,0,0-.68-2.7,5.61,5.61,0,0,0-1.87-2.08A7.73,7.73,0,0,1,36,21.39V21a1,1,0,0,1,1-1h4V8a3,3,0,0,1,4.47-2.61,3,3,0,0,1,4.66-.5,3.06,3.06,0,0,1,.4.49,3.1,3.1,0,0,1,3.6.51,3.06,3.06,0,0,1,.4.49,3.1,3.1,0,0,1,3.6.51A3,3,0,0,1,59,8.69,1.28,1.28,0,0,1,59,9V23.88a6.12,6.12,0,0,1-1.79,4.33A4.09,4.09,0,0,0,56,31.12V42A1,1,0,0,1,55,43ZM44,41H54V31.12a6.12,6.12,0,0,1,1.79-4.33A4.09,4.09,0,0,0,57,23.88V9a1,1,0,0,0-.29-.69A1,1,0,0,0,56,8a1,1,0,0,0-1,1,1,1,0,0,1-2,0V8a.93.93,0,0,0-.29-.69A1,1,0,0,0,52,7a1,1,0,0,0-1,1,1,1,0,0,1-2,0V7a.93.93,0,0,0-.29-.69A1,1,0,0,0,48,6a1,1,0,0,0-1,1V8a1,1,0,0,1-2,0,.93.93,0,0,0-.29-.69,1,1,0,0,0-1.14-.21A1,1,0,0,0,43,8V21a1,1,0,0,1-1,1H38a5.75,5.75,0,0,0,2.53,4.17A7.79,7.79,0,0,1,44,32.61Z"/><path d="M21.39,28H21a1,1,0,0,1-1-1V23H8a3,3,0,0,1-3-3,2.86,2.86,0,0,1,.39-1.47,3,3,0,0,1-.5-4.66,3.06,3.06,0,0,1,.49-.4A3,3,0,0,1,5,12a3,3,0,0,1,.89-2.13,3.06,3.06,0,0,1,.49-.4A3,3,0,0,1,6,8,3,3,0,0,1,8.69,5,1.28,1.28,0,0,1,9,5H23.88a6.12,6.12,0,0,1,4.33,1.79A4.09,4.09,0,0,0,31.12,8H42a1,1,0,0,1,1,1V21a1,1,0,0,1-1,1H32.61a5.72,5.72,0,0,0-2.7.68,5.61,5.61,0,0,0-2.08,1.87A7.73,7.73,0,0,1,21.39,28ZM9,18a1,1,0,0,1-1,1,.93.93,0,0,0-.69.29A1,1,0,0,0,7,20a1,1,0,0,0,.1.43A1,1,0,0,0,8,21H21a1,1,0,0,1,1,1v4a5.75,5.75,0,0,0,4.17-2.53A7.79,7.79,0,0,1,32.61,20H41V10H31.12a6.12,6.12,0,0,1-4.33-1.79A4.09,4.09,0,0,0,23.88,7H9a1,1,0,0,0-.69.29A1,1,0,0,0,8,8,1,1,0,0,0,9,9a1,1,0,0,1,0,2H8a.93.93,0,0,0-.69.29A1,1,0,0,0,7,12a1,1,0,0,0,1,1,1,1,0,0,1,0,2H7a.93.93,0,0,0-.69.29A1,1,0,0,0,6,16a1,1,0,0,0,1,1H8A1,1,0,0,1,9,18Z"/><path d="M21,29H17.23a1,1,0,0,1-.75-.34,2.05,2.05,0,0,0-3,0,1,1,0,0,1-.75.34H9a1,1,0,0,1-1-1V22a1,1,0,0,1,1-1H21a1,1,0,0,1,1,1v6A1,1,0,0,1,21,29Zm-3.35-2H20V23H10v4h2.35A4.14,4.14,0,0,1,17.65,27Z"/><path d="M16,60a3,3,0,0,1-2.13-.89,3.06,3.06,0,0,1-.4-.49,3.11,3.11,0,0,1-3.6-.51,3.06,3.06,0,0,1-.4-.49,3.1,3.1,0,0,1-3.6-.51A3,3,0,0,1,5,55.31,1.28,1.28,0,0,1,5,55V40.12a6.12,6.12,0,0,1,1.79-4.33A4.09,4.09,0,0,0,8,32.88V32a1,1,0,0,1,1-1h3.77a1,1,0,0,1,.75.34,2.05,2.05,0,0,0,3,0,1,1,0,0,1,.75-.34H21a1,1,0,0,1,1,.91,5.31,5.31,0,0,0,.65,2.18,5.61,5.61,0,0,0,1.87,2.08A7.73,7.73,0,0,1,28,42.61V43a1,1,0,0,1-1,1H23V56a3,3,0,0,1-4.47,2.61A3,3,0,0,1,16,60Zm-1-4v1a.93.93,0,0,0,.29.69A1,1,0,0,0,16,58a1,1,0,0,0,1-1V56a1,1,0,0,1,2,0,.93.93,0,0,0,.29.69,1,1,0,0,0,1.14.21A1,1,0,0,0,21,56V43a1,1,0,0,1,1-1h4a5.75,5.75,0,0,0-2.53-4.17A7.63,7.63,0,0,1,20.92,35a7.35,7.35,0,0,1-.75-2H17.65a4.14,4.14,0,0,1-5.3,0H10a6.12,6.12,0,0,1-1.79,4.21A4.09,4.09,0,0,0,7,40.12V55a1,1,0,0,0,.29.69A1,1,0,0,0,8,56a1,1,0,0,0,1-1,1,1,0,0,1,2,0v1a.93.93,0,0,0,.29.69A1,1,0,0,0,12,57a1,1,0,0,0,1-1,1,1,0,0,1,2,0Z"/><path d="M15,34a4,4,0,1,1,3-1.33A3.95,3.95,0,0,1,15,34Zm0-6a2,2,0,0,0-1.48.66,2,2,0,0,0,0,2.67,2,2,0,0,0,3,0,2,2,0,0,0,0-2.67A2,2,0,0,0,15,28Z"/><path d="M12.77,33H8a1,1,0,0,1-1-1V28a1,1,0,0,1,1-1h4.77a1,1,0,0,1,.74,1.67,2,2,0,0,0,0,2.66A1,1,0,0,1,12.77,33ZM9,31h2.13a3.91,3.91,0,0,1,0-2H9Z"/><path d="M22,33H17.23a1,1,0,0,1-.74-1.67,2,2,0,0,0,0-2.66A1,1,0,0,1,17.23,27H22a1,1,0,0,1,1,1v4A1,1,0,0,1,22,33Zm-3.13-2H21V29H18.87a3.91,3.91,0,0,1,0,2Z"/></g></svg>