<svg xmlns="http://www.w3.org/2000/svg" viewBox="0 0 64 64"><title>time management</title><g id="timemanagement"><path d="M29,60a25,25,0,1,1,0-50,1,1,0,0,1,1,1V59A1,1,0,0,1,29,60ZM28,12a23,23,0,0,0-4.75,45.25A22.8,22.8,0,0,0,28,58Z"/><path d="M29,56a20.93,20.93,0,0,1-6.3-1,19.75,19.75,0,0,1-3.41-1.42,20.94,20.94,0,0,1-8.91-8.91A20.08,20.08,0,0,1,9,41.3,20.94,20.94,0,0,1,9,28.7a19.75,19.75,0,0,1,1.42-3.41,20.94,20.94,0,0,1,8.91-8.91A20.08,20.08,0,0,1,22.7,15,20.93,20.93,0,0,1,29,14a1,1,0,0,1,1,1V55A1,1,0,0,1,29,56ZM28,16a18.71,18.71,0,0,0-4.7.84,18.19,18.19,0,0,0-3.07,1.28,18.93,18.93,0,0,0-8.07,8.07,17.86,17.86,0,0,0-1.29,3.08,19.11,19.11,0,0,0,0,11.4,18.19,18.19,0,0,0,1.28,3.07,18.93,18.93,0,0,0,8.07,8.07,17.86,17.86,0,0,0,3.08,1.29A18.71,18.71,0,0,0,28,54Z"/><path d="M35,60H29a1,1,0,0,1-1-1V37a1,1,0,0,1,2,0V58h4V54.08a1,1,0,0,1,.7-.95,18.19,18.19,0,0,0,3.07-1.28A1,1,0,0,1,39,52l2.78,2.78,7.07-7.07L46,45a1,1,0,0,1-.17-1.18,18.19,18.19,0,0,0,1.28-3.07,1,1,0,0,1,.95-.7H52V30H48.08a1,1,0,0,1-.95-.7,18.19,18.19,0,0,0-1.28-3.07A1,1,0,0,1,46,25.05l2.78-2.78L41.73,15.2,39,18a1,1,0,0,1-1.18.17,18.19,18.19,0,0,0-3.07-1.28,1,1,0,0,1-.7-1V12H30V33a1,1,0,0,1-2,0V11a1,1,0,0,1,1-1h6a1,1,0,0,1,1,1v4.2a20.54,20.54,0,0,1,2,.85l2.76-2.76a1,1,0,0,1,.71-.29h.42a1,1,0,0,1,.71.29l8.27,8.27a1,1,0,0,1,0,1.42l-3,3A20.54,20.54,0,0,1,48.8,28H53a1,1,0,0,1,1,1V41a1,1,0,0,1-1,1H48.8a20.54,20.54,0,0,1-.85,2l3,3a1,1,0,0,1,0,1.42l-8.27,8.27a1,1,0,0,1-.71.29h-.42a1,1,0,0,1-.71-.29L38.05,54a20.54,20.54,0,0,1-2,.85V59A1,1,0,0,1,35,60Z"/><path d="M38.24,18.27a1,1,0,0,1-.47-.12,18.19,18.19,0,0,0-3.07-1.28,1,1,0,0,1-.7-1V11a1,1,0,0,1,1-1h6a1,1,0,0,1,1,1v3.52a1,1,0,0,1-.29.71L39,18A1,1,0,0,1,38.24,18.27ZM36,15.2a20.54,20.54,0,0,1,2,.85l2-2V12H36Z"/><path d="M41,60H35a1,1,0,0,1-1-1V54.08a1,1,0,0,1,.7-.95,18.19,18.19,0,0,0,3.07-1.28A1,1,0,0,1,39,52l2.76,2.75a1,1,0,0,1,.29.71V59A1,1,0,0,1,41,60Zm-5-2h4V55.9l-2-1.95a20.54,20.54,0,0,1-2,.85Z"/><path d="M48,15h-.06a1,1,0,0,1,0-2,1,1,0,0,1,1,1A1,1,0,0,1,48,15Z"/><path d="M47.94,57h-6a1,1,0,0,1-.92-.62,1,1,0,0,1,.21-1.09l7.57-7.56L46,45a1,1,0,0,1-.17-1.18,18.19,18.19,0,0,0,1.28-3.07,1,1,0,0,1,.95-.7H52V30H48.08a1,1,0,0,1-.95-.7,18.19,18.19,0,0,0-1.28-3.07A1,1,0,0,1,46,25.05l2.78-2.78-7.57-7.56A1,1,0,0,1,41,13.62a1,1,0,0,1,.92-.62h6a1,1,0,0,1,.71.29l8.27,8.27a1,1,0,0,1,0,1.42l-3,3A20.54,20.54,0,0,1,54.8,28H59a1,1,0,0,1,1,1V41a1,1,0,0,1-1,1H54.8a20.54,20.54,0,0,1-.85,2l3,3a1,1,0,0,1,0,1.42l-8.27,8.27A1,1,0,0,1,47.94,57Zm-3.59-2h3.18l7.27-7.27L52,45a1,1,0,0,1-.17-1.18c.3-.57.57-1.16.82-1.77H48.8a20.54,20.54,0,0,1-.85,2l3,3a1,1,0,0,1,0,1.42ZM54,30V40h4V30H54Zm-5.2-2h3.87c-.25-.61-.52-1.2-.82-1.77A1,1,0,0,1,52,25.05l2.78-2.78L47.53,15H44.35l6.57,6.56a1,1,0,0,1,0,1.42l-3,3A20.54,20.54,0,0,1,48.8,28Z"/><path d="M41.94,15h-.42a1,1,0,0,1,0-2h.42a1,1,0,0,1,0,2Z"/><path d="M56,23H50a1,1,0,0,1,0-2h6a1,1,0,0,1,0,2Z"/><path d="M56,49H50a1,1,0,0,1,0-2h6a1,1,0,0,1,0,2Z"/><path d="M48,57h-.06a1,1,0,0,1,0-2,1,1,0,0,1,1,1A1,1,0,0,1,48,57Z"/><path d="M54,30H53a1,1,0,0,1,0-2h1a1,1,0,0,1,0,2Z"/><path d="M54,42H53a1,1,0,0,1,0-2h1a1,1,0,0,1,0,2Z"/><path d="M48,57h-.06a1,1,0,0,1,0-2,1,1,0,0,1,1,1A1,1,0,0,1,48,57Z"/><path d="M41.94,57h-.42a1,1,0,0,1,0-2h.42a1,1,0,0,1,0,2Z"/><path d="M29,45a1,1,0,0,1,0-2,8,8,0,0,0,0-16,1,1,0,0,1,0-2,10,10,0,0,1,0,20Z"/><path d="M29,38a3,3,0,0,1,0-6,1,1,0,0,1,1,1v4A1,1,0,0,1,29,38Z"/><path d="M29,36a1,1,0,0,1-.71-.29l-10-10a1,1,0,0,1,1.42-1.42l10,10a1,1,0,0,1,0,1.42A1,1,0,0,1,29,36Z"/><path d="M22.5,42.5a1,1,0,0,1-.71-.29,1,1,0,0,1,0-1.42l6.5-6.5a1,1,0,0,1,1.42,1.42l-6.5,6.5A1,1,0,0,1,22.5,42.5Z"/></g></svg>