<svg xmlns="http://www.w3.org/2000/svg" viewBox="0 0 64 64"><title>unicorn</title><g id="unicorn"><path d="M23.93,37a1,1,0,0,1-.06-2,6.48,6.48,0,0,0,6.06-6.47,1,1,0,0,1,2,0A8.49,8.49,0,0,1,24,37Z"/><path d="M49.93,60h-38a1,1,0,0,1-1-1,17.07,17.07,0,0,1,8.34-14.63,10.08,10.08,0,0,0,1.05-.71c.31-.25.62-.52.92-.81A9,9,0,0,0,23.92,37a7.91,7.91,0,0,1-2.32-.47A6.57,6.57,0,0,1,20.44,36a6.71,6.71,0,0,1-.68-.4l-1,1A8.13,8.13,0,0,1,7.5,37a7.91,7.91,0,0,1-.17-11.38l13.2-13.21a3.19,3.19,0,0,0,.4-1.55V5a1,1,0,0,1,1-1,8,8,0,0,1,8,8v.48c.75.15,1.52.33,2.29.56A26.11,26.11,0,0,1,50.93,38V59A1,1,0,0,1,49.93,60ZM13,58h36V38A24.09,24.09,0,0,0,31.65,15a20,20,0,0,0-2.86-.64,1,1,0,0,1-.86-1V12a5.9,5.9,0,0,0-1.07-3.42,6,6,0,0,0-3.93-2.5v4.75a5.14,5.14,0,0,1-.75,2.69,1.39,1.39,0,0,1-.15.19L8.74,27a5.91,5.91,0,0,0,.13,8.5,6.12,6.12,0,0,0,8.46-.32L19,33.57a1,1,0,0,1,1.36,0,5.45,5.45,0,0,0,1.08.71,4.68,4.68,0,0,0,.87.39,5.56,5.56,0,0,0,2.55.36,1,1,0,0,1,.79.24,1,1,0,0,1,.33.75v.5a11,11,0,0,1-3.29,7.81,13.84,13.84,0,0,1-1.08.95c-.39.3-.81.58-1.26.86A15,15,0,0,0,13,58Z"/><path d="M23.93,37a1,1,0,0,1-.06-2,6.48,6.48,0,0,0,6.06-6.47,1,1,0,0,1,2,0A8.48,8.48,0,0,1,24,37Z"/><path d="M23.93,37a1,1,0,0,1-.06-2,6.48,6.48,0,0,0,6.06-6.47,1,1,0,0,1,2,0A8.49,8.49,0,0,1,24,37Z"/><path d="M22.93,60a1,1,0,0,1-1-1,14,14,0,0,1,13-14V33a1,1,0,0,1,2,0V46a1,1,0,0,1-1,1,12,12,0,0,0-12,12A1,1,0,0,1,22.93,60Z"/><path d="M49.93,56a1,1,0,0,1-1-1V38A24.09,24.09,0,0,0,31.65,15a20,20,0,0,0-2.86-.64,1,1,0,0,1-.86-1V12a5.9,5.9,0,0,0-1.07-3.42,1,1,0,0,1-.07-1A1,1,0,0,1,27.67,7h.26A29.07,29.07,0,0,1,57,36V49a7.12,7.12,0,0,1-7.07,7Zm-20-43.52c.75.15,1.52.33,2.29.56A26.11,26.11,0,0,1,50.93,38V53.9a4.87,4.87,0,0,0,2.53-1.36A5,5,0,0,0,55,49V36A27.06,27.06,0,0,0,29.37,9a8,8,0,0,1,.56,3Z"/><circle cx="21.5" cy="22.5" r="1.5"/><path d="M15,20h0a1,1,0,0,1-.71-.29l-1.52-1.53A28,28,0,0,1,6.05,7.32a1,1,0,0,1,.24-1,1,1,0,0,1,1-.24,28.05,28.05,0,0,1,10.86,6.71l1.53,1.53a1,1,0,0,1,0,1.42l-4,4A1,1,0,0,1,15,20ZM8.73,8.73a25.9,25.9,0,0,0,5.45,8l.82.83L17.59,15l-.82-.82A26.06,26.06,0,0,0,8.73,8.73Z"/><path d="M35,13a1,1,0,0,1-1-1V9a1,1,0,0,1,2,0v3A1,1,0,0,1,35,13Z"/><path d="M56,44H53a1,1,0,0,1,0-2h3a1,1,0,0,1,0,2Z"/><path d="M56,49H54a1,1,0,0,1,0-2h2a1,1,0,0,1,0,2Z"/></g></svg>