<svg xmlns="http://www.w3.org/2000/svg" viewBox="0 0 64 64"><title>visions</title><g id="visions"><path d="M32,57A32.92,32.92,0,0,1,2.7,39.2a15.65,15.65,0,0,1,0-14.4,33,33,0,0,1,58.6,0h0a15.65,15.65,0,0,1,0,14.4A32.92,32.92,0,0,1,32,57ZM32,9A30.92,30.92,0,0,0,4.48,25.72a13.59,13.59,0,0,0,0,12.56,31,31,0,0,0,55,0,13.59,13.59,0,0,0,0-12.56h0A30.92,30.92,0,0,0,32,9Z"/><path d="M32,57A32.92,32.92,0,0,1,2.7,39.2a15.65,15.65,0,0,1,0-14.4,33,33,0,0,1,58.6,0h0a15.65,15.65,0,0,1,0,14.4A32.92,32.92,0,0,1,32,57ZM32,9A30.92,30.92,0,0,0,4.48,25.72a13.59,13.59,0,0,0,0,12.56,31,31,0,0,0,55,0,13.59,13.59,0,0,0,0-12.56h0A30.92,30.92,0,0,0,32,9Z"/><path d="M32,51a1,1,0,0,1,0-2c11.67,0,22.24-4.8,27.59-12.52a7.62,7.62,0,0,0,0-9C54.24,19.8,43.67,15,32,15a1,1,0,0,1,0-2c12.31,0,23.51,5.13,29.23,13.38a9.54,9.54,0,0,1,0,11.24C55.51,45.87,44.31,51,32,51Z"/><path d="M32,51C19.69,51,8.49,45.87,2.77,37.62a9.54,9.54,0,0,1,0-11.24C8.49,18.13,19.69,13,32,13a1,1,0,0,1,0,2C20.33,15,9.76,19.8,4.41,27.52a7.62,7.62,0,0,0,0,9C9.76,44.2,20.33,49,32,49a1,1,0,0,1,0,2Z"/><path d="M32,51a1,1,0,0,1,0-2c11.67,0,22.24-4.8,27.59-12.52a7.62,7.62,0,0,0,0-9C54.24,19.8,43.67,15,32,15a1,1,0,0,1,0-2c12.31,0,23.51,5.13,29.23,13.38a9.54,9.54,0,0,1,0,11.24C55.51,45.87,44.31,51,32,51Z"/><path d="M32,51C19.69,51,8.49,45.87,2.77,37.62a9.54,9.54,0,0,1,0-11.24C8.49,18.13,19.69,13,32,13a1,1,0,0,1,0,2C20.33,15,9.76,19.8,4.41,27.52a7.62,7.62,0,0,0,0,9C9.76,44.2,20.33,49,32,49a1,1,0,0,1,0,2Z"/><path d="M32,47A15,15,0,1,1,47,32,15,15,0,0,1,32,47Zm0-28A13,13,0,1,0,45,32,13,13,0,0,0,32,19Z"/><path d="M32,40a8,8,0,0,1,0-16,1.94,1.94,0,0,1,.34,0,1,1,0,0,1,.71.49,1,1,0,0,1,.06.86A1.85,1.85,0,0,0,33,26a2,2,0,0,0,3.66,1.12,1,1,0,0,1,.79-.44,1,1,0,0,1,.82.37A7.83,7.83,0,0,1,40,32,8,8,0,0,1,32,40ZM31,26.08A6,6,0,1,0,38,32a5.88,5.88,0,0,0-.67-2.75A4,4,0,0,1,31,26.08Z"/><path d="M35,30a4,4,0,0,1-4-4,3.6,3.6,0,0,1,.25-1.35A4,4,0,0,1,35,22a4,4,0,0,1,3.38,6.14l-.06.1A4,4,0,0,1,35,30Zm0-6a2,2,0,0,0-1.87,1.33A1.81,1.81,0,0,0,33,26a2,2,0,0,0,3.62,1.18l0-.06A2.07,2.07,0,0,0,37,26,2,2,0,0,0,35,24Zm2.49,3.68h0Z"/></g></svg>