<svg xmlns="http://www.w3.org/2000/svg" viewBox="0 0 64 64"><title>website</title><g id="website"><path d="M54,57H6a5,5,0,0,1-5-5V12A5,5,0,0,1,6,7H54a5,5,0,0,1,5,5V52A5,5,0,0,1,54,57ZM6,9a3,3,0,0,0-3,3V52a3,3,0,0,0,3,3H54a3,3,0,0,0,3-3V12a3,3,0,0,0-3-3Z"/><path d="M58,57H54a1,1,0,0,1,0-2,3,3,0,0,0,3-3V12a3,3,0,0,0-3-3,1,1,0,0,1,0-2h4a5,5,0,0,1,5,5V52A5,5,0,0,1,58,57Zm0-2h0a3,3,0,0,0,3-3V12a3,3,0,0,0-3-3h0a5,5,0,0,1,1,3V52A5,5,0,0,1,58,55Z"/><path d="M21,19H3a1,1,0,0,1,0-2H20.59l3.7-3.71A1,1,0,0,1,25,13H62a1,1,0,0,1,0,2H25.41l-3.7,3.71A1,1,0,0,1,21,19Z"/><path d="M8,14H7a1,1,0,0,1,0-2H8a1,1,0,0,1,0,2Z"/><path d="M13,14H12a1,1,0,0,1,0-2h1a1,1,0,0,1,0,2Z"/><path d="M18,14H17a1,1,0,0,1,0-2h1a1,1,0,0,1,0,2Z"/><path d="M18,39H10a1,1,0,0,1-1-1V30a1,1,0,0,1,1-1H26a1,1,0,0,1,1,1A9,9,0,0,1,18,39Zm-7-2h7a7,7,0,0,0,6.93-6H11Z"/><path d="M23,43H14a5,5,0,0,1-5-5V29a2,2,0,0,0-2-2,1,1,0,0,1,0-2,4,4,0,0,1,4,4v9a3,3,0,0,0,3,3h9a1,1,0,0,1,0,2Z"/><path d="M13,47a3,3,0,1,1,3-3A3,3,0,0,1,13,47Zm0-4a1,1,0,1,0,1,1A1,1,0,0,0,13,43Z"/><path d="M23,47a3,3,0,1,1,3-3A3,3,0,0,1,23,47Zm0-4a1,1,0,1,0,1,1A1,1,0,0,0,23,43Z"/><path d="M50,52H36a1,1,0,0,1-1-1V46a1,1,0,0,1,1-1H50a1,1,0,0,1,1,1v5A1,1,0,0,1,50,52ZM37,50H49V47H37Z"/><path d="M52,25H34a1,1,0,0,1,0-2H52a1,1,0,0,1,0,2Z"/><path d="M52,30H34a1,1,0,0,1,0-2H52a1,1,0,0,1,0,2Z"/><path d="M52,35H34a1,1,0,0,1,0-2H52a1,1,0,0,1,0,2Z"/><path d="M52,40H34a1,1,0,0,1,0-2H52a1,1,0,0,1,0,2Z"/></g></svg>