<?xml version="1.0" encoding="iso-8859-1"?>
<!-- Uploaded to: SVG Repo, www.svgrepo.com, Generator: SVG Repo Mixer Tools -->
<!DOCTYPE svg PUBLIC "-//W3C//DTD SVG 1.1//EN" "http://www.w3.org/Graphics/SVG/1.1/DTD/svg11.dtd">
<svg fill="#000000" version="1.1" id="Capa_1" xmlns="http://www.w3.org/2000/svg" xmlns:xlink="http://www.w3.org/1999/xlink" 
	 width="800px" height="800px" viewBox="0 0 122.328 122.328"
	 xml:space="preserve">
<g>
	<path d="M94.24,50.908c-0.123-0.078-0.257-0.127-0.386-0.188c-1.052-0.691-2.231-1.201-3.433-1.494l-2.396,2.41l-2.319-2.438
		c-0.01,0.002-0.017,0.002-0.025,0.004c-1.15,0.275-2.281,0.754-3.303,1.396c-0.256,0.078-0.506,0.18-0.748,0.314
		c-1.488,0.838-2.903,1-4.452,0.518c-5.132-1.602-9.914-9.432-11.321-12.309c-0.042-0.09-0.105-0.166-0.152-0.252l11.078-24.215
		L44.752,0l-10.65,4.682L15.767,44.75l39.067,17.877l7.076-15.469c2.716,4.107,7.253,9.584,13.03,11.393
		c1.08,0.336,2.168,0.525,3.251,0.582v19.666c0,1.014,0.198,1.959,0.549,2.826c-0.023,0.189-0.057,0.373-0.057,0.568l0.036,35.729
		c0.002,2.435,1.976,4.404,4.409,4.404c0,0,0.002,0,0.007,0c2.435-0.002,4.405-1.979,4.403-4.414l-0.033-30.66
		c0.175,0.009,0.35,0.021,0.521,0.021c0.036,0,0.07-0.002,0.108-0.002l0.028,30.65c0.002,2.436,1.977,4.406,4.408,4.406
		c0.002,0,0.004,0,0.004,0c2.438-0.002,4.41-1.977,4.408-4.412l-0.031-35.047c0.229,0.219,0.482,0.424,0.777,0.584
		c0.566,0.307,1.18,0.453,1.781,0.453c1.322,0,2.604-0.705,3.277-1.949C113.318,62.609,98.96,53.803,94.24,50.908z M42.899,4.379
		l-0.776,3.209l-3.502-1.33L42.899,4.379z M60.874,37.4c-1.854,0.898-2.626,3.131-1.727,4.984c0.105,0.219,0.35,0.711,0.724,1.393
		l-6.646,14.524l-33.133-15.16L35.852,8.7l6.813,2.582l2.342-1.73l1.27-5.264l26.182,11.979l-9.512,20.791
		C62.259,36.974,61.544,37.076,60.874,37.4z M88.051,70.658h-0.044l-2.317-3.172l2.317-15.492h0.044l2.317,15.492L88.051,70.658z
		 M97.867,74.889V64.221C99.289,66.916,99.609,70.328,97.867,74.889z M78.416,39.059c0-5.308,4.304-9.611,9.611-9.611
		c5.309,0,9.611,4.303,9.611,9.611s-4.303,9.611-9.611,9.611C82.719,48.67,78.416,44.367,78.416,39.059z M68.257,18.959
		l-1.461,3.217l-18.817-8.539l1.46-3.217L68.257,18.959z M59.066,29.242l2.327,0.447l-2.343,5.166
		c-0.061,0.133-0.219,0.19-0.35,0.132l-3.253-1.477c-0.132-0.061-0.193-0.215-0.13-0.35l3.292-7.254
		c0.002-0.007,0.009-0.015,0.013-0.025l0.982,1.32l-0.835,0.563c-0.18,0.121-0.308,0.31-0.346,0.525
		c-0.022,0.103-0.019,0.209,0,0.316c0.055,0.256,0.225,0.469,0.461,0.576C58.943,29.209,59.005,29.23,59.066,29.242z M49.504,30.524
		l3.591-7.922l2.584-0.662l1.381,1.85l-3.825,8.428c-0.059,0.131-0.217,0.192-0.348,0.131l-3.254-1.477
		C49.5,30.813,49.441,30.655,49.504,30.524z M44.14,28.377c-0.134-0.061-0.191-0.217-0.134-0.348l3.219-7.09l1.607,2.053
		c0.272,0.347,0.752,0.513,1.182,0.402l0.677-0.174l-2.95,6.504c-0.059,0.131-0.214,0.192-0.348,0.129L44.14,28.377z M63.346,25.598
		c0.065,0.043,0.101,0.125,0.085,0.203l-0.585,3.031c-0.021,0.107-0.123,0.179-0.232,0.156l-3.029-0.582
		c-0.08-0.015-0.141-0.078-0.157-0.158c-0.006-0.023-0.006-0.051,0-0.076c0.008-0.051,0.038-0.098,0.081-0.129l1.373-0.926
		l-4.554-6.107l-6.066,1.557c-0.202,0.052-0.418-0.022-0.546-0.186l-3.208-4.091c-0.178-0.23-0.138-0.56,0.091-0.74
		c0.23-0.181,0.562-0.14,0.742,0.09l2.991,3.822l6.073-1.561c0.209-0.053,0.425,0.025,0.555,0.195l4.794,6.432l1.369-0.928
		C63.192,25.553,63.279,25.553,63.346,25.598z M31.743,26.277l25.868,11.741L56.3,40.907L30.432,29.166L31.743,26.277z
		 M28.954,32.431l25.869,11.741l-1.311,2.888L27.643,35.318L28.954,32.431z M26.025,38.883l25.868,11.738l-1.31,2.887L24.715,41.77
		L26.025,38.883z"/>
</g>
</svg>